<?xml version="1.0" encoding="UTF-8" standalone="no"?>
<!-- Created with Inkscape (http://www.inkscape.org/) -->

<svg
   xmlns:dc="http://purl.org/dc/elements/1.1/"
   xmlns:cc="http://creativecommons.org/ns#"
   xmlns:rdf="http://www.w3.org/1999/02/22-rdf-syntax-ns#"
   xmlns:svg="http://www.w3.org/2000/svg"
   xmlns="http://www.w3.org/2000/svg"
   xmlns:sodipodi="http://sodipodi.sourceforge.net/DTD/sodipodi-0.dtd"
   xmlns:inkscape="http://www.inkscape.org/namespaces/inkscape"
   width="210mm"
   height="297mm"
   viewBox="0 0 744.09448819 1052.3622047"
   id="svg4194"
   version="1.1"
   inkscape:version="0.91 r13725"
   sodipodi:docname="axicon.svg">
  <defs
     id="defs4196" />
  <sodipodi:namedview
     id="base"
     pagecolor="#ffffff"
     bordercolor="#666666"
     borderopacity="1.0"
     inkscape:pageopacity="0.0"
     inkscape:pageshadow="2"
     inkscape:zoom="1.4"
     inkscape:cx="472.68842"
     inkscape:cy="550.23511"
     inkscape:document-units="px"
     inkscape:current-layer="layer1"
     showgrid="false"
     showguides="true"
     inkscape:guide-bbox="true"
     inkscape:snap-nodes="false"
     inkscape:window-width="1920"
     inkscape:window-height="1056"
     inkscape:window-x="1280"
     inkscape:window-y="24"
     inkscape:window-maximized="1">
    <sodipodi:guide
       position="323.57143,745.7143"
       orientation="1,0"
       id="guide4813" />
    <sodipodi:guide
       position="527.32143,666.3393"
       orientation="1,0"
       id="guide4861" />
  </sodipodi:namedview>
  <metadata
     id="metadata4199">
    <rdf:RDF>
      <cc:Work
         rdf:about="">
        <dc:format>image/svg+xml</dc:format>
        <dc:type
           rdf:resource="http://purl.org/dc/dcmitype/StillImage" />
        <dc:title></dc:title>
      </cc:Work>
    </rdf:RDF>
  </metadata>
  <g
     inkscape:label="Layer 1"
     inkscape:groupmode="layer"
     id="layer1">
    <g
       id="g4823">
      <g
         id="g4820">
        <path
           style="fill:#00539b;fill-rule:evenodd;stroke:none;stroke-width:1px;stroke-linecap:butt;stroke-linejoin:miter;stroke-opacity:1;fill-opacity:1"
           d="m 467.14286,486.64792 -143.57143,242.14286 0,-467.85715 z"
           id="path4815"
           inkscape:connector-curvature="0" />
      </g>
      <ellipse
         ry="245.46706"
         rx="43.941639"
         cy="492.7377"
         cx="308.60162"
         id="path4807"
         style="color:#000000;clip-rule:nonzero;display:inline;overflow:visible;visibility:visible;opacity:1;isolation:auto;mix-blend-mode:normal;color-interpolation:sRGB;color-interpolation-filters:linearRGB;solid-color:#000000;solid-opacity:1;fill:#808080;fill-opacity:1;fill-rule:evenodd;stroke:none;stroke-width:1.02999997;stroke-linecap:butt;stroke-linejoin:round;stroke-miterlimit:4;stroke-dasharray:none;stroke-dashoffset:0;stroke-opacity:1;color-rendering:auto;image-rendering:auto;shape-rendering:auto;text-rendering:auto;enable-background:accumulate" />
    </g>
    <path
       inkscape:connector-curvature="0"
       id="path5726"
       title="exp(-pow(t,2)/2) t"
       d="m 97.378489,607.67618 c 0.2875,-2.74942 0.65316,-5.49884 1.14029,-8.24825 0.48713,-2.74942 1.09638,-5.49884 1.883261,-8.24826 0.78687,-2.74942 1.7528,-5.49883 2.96281,-8.24825 1.21001,-2.74942 2.6663,-5.49884 4.43554,-8.24826 1.76925,-2.74941 3.85439,-5.49883 6.31045,-8.24825 2.45605,-2.74942 5.28651,-5.49884 8.51694,-8.24825 3.23043,-2.74942 6.86441,-5.49884 10.87899,-8.24826 4.01456,-2.74942 8.41271,-5.49884 13.10774,-8.24825 4.69504,-2.74942 9.68857,-5.49884 14.82482,-8.24826 5.13625,-2.74942 10.41482,-5.49883 15.62037,-8.24825 5.20555,-2.74942 10.33535,-5.49884 15.1405,-8.24826 4.80515,-2.74941 9.28079,-5.49883 13.18367,-8.24825 3.90287,-2.74942 7.22669,-5.49884 9.77812,-8.24825 2.55143,-2.74942 4.3238,-5.49884 5.21209,-8.24826 0.88828,-2.74942 0.88652,-5.49883 0,-8.24825 -0.88653,-2.74942 -2.6622,-5.49884 -5.21209,-8.24826 -2.5499,-2.74941 -5.87639,-5.49883 -9.77812,-8.24825 -3.90174,-2.74942 -8.37917,-5.49884 -13.18367,-8.24825 -4.8045,-2.74942 -9.93511,-5.49884 -15.1405,-8.24826 -5.2054,-2.74942 -10.48385,-5.49883 -15.62037,-8.24825 -5.13653,-2.74942 -10.1292,-5.49884 -14.82482,-8.24826 -4.69561,-2.74941 -9.09243,-5.49883 -13.10774,-8.24825 -4.01533,-2.74942 -7.64776,-5.49884 -10.87899,-8.24826 -3.23122,-2.74941 -6.06014,-5.49883 -8.51694,-8.24825 -2.4568,-2.74942 -4.54058,-5.49884 -6.31045,-8.24825 -1.76987,-2.74942 -3.22504,-5.49884 -4.43554,-8.24826 -1.2105,-2.74942 -2.17558,-5.49883 -2.96281,-8.24825 -0.787241,-2.74942 -1.395891,-5.49884 -1.883261,-8.24826 -0.48737,-2.74941 -0.85279,-5.49883 -1.14029,-8.24825"
       style="color:#000000;clip-rule:nonzero;display:inline;overflow:visible;visibility:visible;opacity:1;isolation:auto;mix-blend-mode:normal;color-interpolation:sRGB;color-interpolation-filters:linearRGB;solid-color:#000000;solid-opacity:1;fill:#54b948;fill-opacity:1;fill-rule:evenodd;stroke:none;stroke-width:1;stroke-linecap:butt;stroke-linejoin:round;stroke-miterlimit:4;stroke-dasharray:none;stroke-dashoffset:0;stroke-opacity:1;color-rendering:auto;image-rendering:auto;shape-rendering:auto;text-rendering:auto;enable-background:accumulate" />
    <path
       style="fill:#ee312a;fill-opacity:1;fill-rule:evenodd;stroke:#ee312a;stroke-width:5.3015151;stroke-linecap:butt;stroke-linejoin:miter;stroke-miterlimit:4;stroke-dasharray:none;stroke-opacity:1"
       d="m 37.376279,486.32095 749.533161,0"
       id="path4334"
       inkscape:connector-curvature="0" />
    <g
       id="g4865"
       transform="translate(0.50507627,-1.0101525)">
      <g
         style="fill:none;fill-opacity:1;stroke:#54b948;stroke-opacity:1"
         transform="matrix(0,0.3986287,-0.3986287,0,704.77154,361.80354)"
         id="gnuplot_plot_1">
        <title
           id="title210">besj0(x)**2</title>
        <g
           style="color:#ffffff;fill:none;fill-opacity:1;stroke:#54b948;stroke-width:2;stroke-linecap:butt;stroke-linejoin:miter;stroke-opacity:1"
           id="g212" />
        <g
           style="color:#000000;fill:none;fill-opacity:1;stroke:#54b948;stroke-width:2;stroke-linecap:butt;stroke-linejoin:miter;stroke-opacity:1"
           id="g214">
          <path
             style="fill:none;fill-opacity:1;stroke:#54b948;stroke-opacity:1"
             inkscape:connector-curvature="0"
             id="path216"
             d="m 53.9,418.2 0.1,0 0.1,0 0.1,0 0,0.1 0.1,0 0.1,0 0.1,0.1 0.1,0 0.1,0.1 0.1,0 0.1,0 0,0.1 0.1,0 0.1,0 0.1,0.1 0.1,0 0.1,0 0,0.1 0.1,0 0.1,0 0,0.1 0.1,0 0.1,0 0,0.1 0.1,0 0.1,0 0,0.1 0.1,0 0.1,0.1 0.1,0 0.1,0.1 0.1,0 0.1,0 0,0.1 0.1,0 0.1,0.1 0.1,0 0.1,0.1 0.1,0 0,0.1 0.1,0 0.1,0.1 0.1,0 0,0.1 0.1,0 0.1,0 0.1,0.1 0.1,0 0,0.1 0.1,0 0.1,0.1 0.1,0 0,0.1 0.1,0 0.1,0.1 0.1,0 0,0.1 0.1,0 0,0.1 0.1,0 0.1,0.1 0.1,0 0.1,0.1 0.1,0 0,0.1 0.1,0 0.1,0.1 0.1,0.1 0.1,0 0,0.1 0.1,0 0.1,0.1 0.1,0.1 0.1,0 0,0.1 0.1,0 0,0.1 0.1,0 0.1,0.1 0.1,0 0,0.1 0.1,0 0.1,0.1 0.1,0.1 0.1,0 0,0.1 0.1,0 0,0.1 0.1,0 0.1,0.1 0.1,0.1 0.1,0.1 0.1,0 0,0.1 0.1,0 0.1,0.1 0.1,0.1 0.1,0 0,0.1 0.1,0 0,0.1 0.1,0 0,0.1 0.1,0 0,0.1 0.1,0 0.1,0.1 0.1,0.1 0.1,0.1 0.1,0.1 0.1,0.1 0.1,0 0,0.1 0.1,0 0.1,0.1 0.1,0.1 0.1,0.1 0.1,0.1 0.1,0.1 0.1,0.1 0.1,0.1 0.1,0.1 0.1,0.1 0.1,0 0,0.1 0.1,0 0.1,0.1 0.1,0.1 0.1,0.1 0.1,0.1 0.1,0.1 0.1,0.1 0.1,0.1 0.1,0.1 0.1,0.1 0.1,0.1 0.1,0.1 0.1,0.1 0.1,0 0,0.1 0.1,0 0,0.1 0.1,0.1 0.1,0.1 0.1,0.1 0.1,0.1 0.1,0.1 0.1,0.1 0.1,0.1 0.1,0.1 0.1,0.1 0.1,0.1 0.1,0 0,0.1 0.1,0 0,0.1 0.1,0.1 0.1,0.1 0.1,0.1 0.1,0.1 0.1,0.1 0.1,0.1 0.1,0.1 0.1,0.1 0,0.1 0.1,0 0,0.1 0.1,0 0,0.1 0.1,0 0.1,0.1 0.1,0.1 0.1,0.1 0.1,0.1 0,0.1 0.1,0 0,0.1 0.1,0 0,0.1 0.1,0 0,0.1 0.1,0 0,0.1 0.1,0 0,0.1 0.1,0.1 0.1,0.1 0.1,0.1 0.1,0 0,0.1 0.1,0 0,0.1 0.1,0 0,0.1 0.1,0.1 0.1,0.1 0.1,0.1 0.1,0.1 0.1,0.1 0.1,0.1 0,0.1 0.1,0 0,0.1 0.1,0 0,0.1 0.1,0 0.1,0.1 0.1,0.1 0,0.1 0.1,0 0,0.1 0.1,0 0,0.1 0.1,0 0,0.1 0.1,0 0,0.1 0.1,0 0,0.1 0.1,0.1 0.1,0.1 0.1,0.1 0.1,0.1 0.1,0.1 0.1,0 0,0.1 0.1,0.1 0.1,0.1 0.1,0.1 0.1,0.1 0.1,0.1 0.1,0.1 0,0.1 0.1,0 0,0.1 0.1,0 0,0.1 0.1,0 0,0.1 0.1,0 0,0.1 0.1,0 0,0.1 0.1,0.1 0.1,0 0,0.1 0.1,0 0,0.1 0.1,0 0,0.1 0.1,0 0,0.1 0.1,0 0,0.1 0.1,0 0,0.1 0.1,0 0,0.1 0.1,0.1 0.1,0.1 0.1,0.1 0.1,0.1 0.1,0.1 0.1,0 0,0.1 0.1,0 0,0.1 0.1,0 0,0.1 0.1,0 0,0.1 0.1,0 0,0.1 0.1,0 0,0.1 0.1,0.1 0.1,0.1 0.1,0.1 0.1,0.1 0.1,0.1 0.1,0.1 0.1,0 0,0.1 0.1,0 0,0.1 0.1,0 0,0.1 0.1,0 0,0.1 0.1,0 0,0.1 0.1,0 0,0.1 0.1,0 0,0.1 0.1,0 0,0.1 0.1,0 0,0.1 0.1,0 0,0.1 0.1,0 0,0.1 0.1,0 0,0.1 0.1,0 0.1,0 0,0.1 0.1,0 0,0.1 0.1,0 0,0.1 0.1,0 0,0.1 0.1,0 0,0.1 0.1,0 0,0.1 0.1,0 0,0.1 0.1,0 0,0.1 0.1,0 0,0.1 0.1,0 0.1,0.1 0.1,0.1 0.1,0 0,0.1 0.1,0 0,0.1 0.1,0 0,0.1 0.1,0 0.1,0.1 0.1,0.1 0.1,0.1 0.1,0 0,0.1 0.1,0 0,0.1 0.1,0 0,0.1 0.1,0 0.1,0.1 0.1,0 0,0.1 0.1,0 0,0.1 0.1,0 0.1,0.1 0.1,0.1 0.1,0 0,0.1 0.1,0 0,0.1 0.1,0 0.1,0.1 0.1,0.1 0.1,0 0,0.1 0.1,0 0,0.1 0.1,0 0.1,0 0,0.1 0.1,0 0,0.1 0.1,0 0.1,0.1 0.1,0 0,0.1 0.1,0 0.1,0.1 0.1,0.1 0.1,0 0,0.1 0.1,0 0.1,0.1 0.1,0 0.1,0.1 0.1,0 0,0.1 0.1,0 0.1,0.1 0.1,0 0,0.1 0.1,0 0.1,0.1 0.1,0 0,0.1 0.1,0 0.1,0.1 0.1,0 0.1,0.1 0.1,0 0.1,0.1 0.1,0 0,0.1 0.1,0 0.1,0 0,0.1 0.1,0 0.1,0 0,0.1 0.1,0 0.1,0.1 0.1,0 0.1,0.1 0.1,0 0.1,0.1 0.1,0 0.1,0 0,0.1 0.1,0 0.1,0 0,0.1 0.1,0 0.1,0 0.1,0.1 0.1,0 0.1,0.1 0.1,0 0.1,0 0,0.1 0.1,0 0.1,0 0.1,0 0,0.1 0.1,0 0.1,0 0.1,0 0,0.1 0.1,0 0.1,0 0.1,0 0,0.1 0.1,0 0.1,0 0.1,0 0,0.1 0.1,0 0.1,0 0.1,0 0.1,0 0,0.1 0.1,0 0.1,0 0.1,0 0.1,0 0.1,0.1 0.1,0 0.1,0 0.1,0 0.1,0 0.1,0.1 0.1,0 0.1,0 0.1,0 0.1,0 0.1,0 0.1,0 0.1,0 0.1,0.1 0.1,0 0.1,0 0.1,0 0.1,0 0.1,0 0.1,0 0.1,0 0.1,0 0.1,0 0.1,0 0.1,0 0.1,0 0.1,0 0.1,0 0.1,0 0.1,0 0.1,0 0.1,0 0.1,0 0.1,0 0,-0.1 0.1,0 0.1,0 0.1,0 0.1,0 0.1,0 0.1,0 0.1,0 0.1,-0.1 0.1,0 0.1,0 0.1,0 0.1,0 0.1,0 0,-0.1 0.1,0 0.1,0 0.1,0 0.1,0 0,-0.1 0.1,0 0.1,0 0.1,0 0.1,-0.1 0.1,0 0.1,0 0.1,0 0,-0.1 0.1,0 0.1,0 0.1,0 0,-0.1 0.1,0 0.1,0 0.1,-0.1 0.1,0 0.1,0 0,-0.1 0.1,0 0.1,0 0.1,0 0,-0.1 0.1,0 0.1,0 0,-0.1 0.1,0 0.1,0 0.1,-0.1 0.1,0 0.1,-0.1 0.1,0 0.1,-0.1 0.1,0 0,-0.1 0.1,0 0.1,0 0.1,-0.1 0.1,0 0,-0.1 0.1,0 0.1,0 0,-0.1 0.1,0 0.1,-0.1 0.1,0 0,-0.1 0.1,0 0.1,0 0,-0.1 0.1,0 0.1,-0.1 0.1,0 0.1,-0.1 0.1,0 0,-0.1 0.1,0 0.1,-0.1 0.1,-0.1 0.1,0 0,-0.1 0.1,0 0.1,-0.1 0.1,0 0,-0.1 0.1,0 0,-0.1 0.1,0 0.1,0 0,-0.1 0.1,0 0,-0.1 0.1,0 0.1,-0.1 0.1,-0.1 0.1,0 0,-0.1 0.1,0 0,-0.1 0.1,0 0.1,-0.1 0.1,-0.1 0.1,-0.1 0.1,0 0.1,-0.1 0.1,-0.1 0.1,-0.1 0.1,-0.1 0.1,0 0,-0.1 0.1,0 0,-0.1 0.1,0 0,-0.1 0.1,0 0,-0.1 0.1,0 0,-0.1 0.1,0 0,-0.1 0.1,0 0,-0.1 0.1,0 0,-0.1 0.1,0 0.1,0 0,-0.1 0.1,0 0,-0.1 0.1,0 0,-0.1 0.1,0 0,-0.1 0.1,0 0,-0.1 0.1,-0.1 0.1,-0.1 0.1,-0.1 0.1,-0.1 0.1,-0.1 0.1,-0.1 0.1,-0.1 0.1,0 0,-0.1 0.1,0 0,-0.1 0.1,0 0,-0.1 0.1,-0.1 0.1,-0.1 0.1,-0.1 0.1,-0.1 0.1,-0.1 0,-0.1 0.1,0 0,-0.1 0.1,0 0,-0.1 0.1,0 0,-0.1 0.1,-0.1 0.1,0 0,-0.1 0.1,0 0,-0.1 0.1,-0.1 0.1,-0.1 0.1,-0.1 0.1,-0.1 0,-0.1 0.1,0 0,-0.1 0.1,0 0,-0.1 0.1,-0.1 0.1,-0.1 0.1,-0.1 0,-0.1 0.1,0 0,-0.1 0.1,-0.1 0.1,0 0,-0.1 0.1,0 0,-0.1 0.1,-0.1 0.1,-0.1 0,-0.1 0.1,0 0,-0.1 0.1,0 0,-0.1 0.1,-0.1 0.1,-0.1 0,-0.1 0.1,0 0,-0.1 0.1,-0.1 0.1,-0.1 0,-0.1 0.1,0 0.1,-0.1 0.1,-0.1 0,-0.1 0.1,0 0,-0.1 0.1,-0.1 0.1,-0.1 0,-0.1 0.1,0 0,-0.1 0.1,-0.1 0.1,-0.1 0,-0.1 0.1,0 0,-0.1 0.1,-0.1 0.1,-0.1 0,-0.1 0.1,0 0.1,-0.1 0,-0.1 0.1,-0.1 0.1,-0.1 0,-0.1 0.1,0 0,-0.1 0.1,-0.1 0.1,-0.1 0,-0.1 0.1,0 0,-0.1 0.1,-0.1 0,-0.1 0.1,0 0,-0.1 0.1,-0.1 0.1,-0.1 0,-0.1 0.1,0 0,-0.1 0.1,-0.1 0.1,-0.1 0.1,-0.1 0,-0.1 0.1,0 0,-0.1 0.1,-0.1 0.1,-0.1 0,-0.1 0.1,-0.1 0.1,-0.1 0,-0.1 0.1,0 0,-0.1 0.1,-0.1 0,-0.1 0.1,0 0,-0.1 0.1,-0.1 0,-0.1 0.1,0 0.1,-0.1 0,-0.1 0.1,0 0,-0.1 0.1,-0.1 0,-0.1 0.1,0 0,-0.1 0.1,-0.1 0.1,-0.1 0,-0.1 0.1,-0.1 0.1,-0.1 0,-0.1 0.1,-0.1 0.1,-0.1 0,-0.1 0.1,-0.1 0.1,-0.1 0.1,-0.1 0.1,-0.1 0,-0.1 0.1,-0.1 0.1,-0.1 0,-0.1 0.1,-0.1 0.1,-0.1 0,-0.1 0.1,-0.1 0.1,-0.1 0,-0.1 0.1,-0.1 0.1,-0.1 0,-0.1 0.1,0 0,-0.1 0.1,-0.1 0,-0.1 0.1,0 0.1,-0.1 0,-0.1 0.1,-0.1 0.1,-0.1 0,-0.1 0.1,-0.1 0.1,-0.1 0,-0.1 0.1,-0.1 0.1,-0.1 0,-0.1 0.1,-0.1 0.1,-0.1 0,-0.1 0.1,-0.1 0.1,-0.1 0,-0.1 0.1,-0.1 0.1,0 0,-0.1 0.1,-0.1 0.1,-0.1 0,-0.1 0.1,-0.1 0.1,-0.1 0,-0.1 0.1,-0.1 0.1,-0.1 0,-0.1 0.1,-0.1 0.1,-0.1 0,-0.1 0.1,-0.1 0.1,-0.1 0,-0.1 0.1,0 0.1,-0.1 0,-0.1 0.1,-0.1 0.1,-0.1 0,-0.1 0.1,-0.1 0.1,-0.1 0,-0.1 0.1,-0.1 0.1,-0.1 0,-0.1 0.1,0 0,-0.1 0.1,-0.1 0,-0.1 0.1,0 0,-0.1 0.1,-0.1 0,-0.1 0.1,0 0,-0.1 0.1,-0.1 0.1,0 0,-0.1 0.1,-0.1 0,-0.1 0.1,0 0,-0.1 0.1,-0.1 0.1,-0.1 0,-0.1 0.1,-0.1 0.1,-0.1 0,-0.1 0.1,0 0,-0.1 0.1,-0.1 0,-0.1 0.1,0 0,-0.1 0.1,-0.1 0.1,-0.1 0.1,-0.1 0.1,-0.1 0,-0.1 0.1,-0.1 0.1,-0.1 0,-0.1 0.1,0 0,-0.1 0.1,-0.1 0.1,-0.1 0,-0.1 0.1,-0.1 0.1,-0.1 0,-0.1 0.1,0 0,-0.1 0.1,-0.1 0.1,-0.1 0.1,-0.1 0.1,-0.1 0,-0.1 0.1,0 0,-0.1 0.1,-0.1 0.1,-0.1 0,-0.1 0.1,0 0,-0.1 0.1,-0.1 0.1,-0.1 0,-0.1 0.1,0 0,-0.1 0.1,-0.1 0.1,-0.1 0,-0.1 0.1,0 0,-0.1 0.1,-0.1 0.1,0 0,-0.1 0.1,0 0,-0.1 0.1,-0.1 0.1,-0.1 0,-0.1 0.1,0 0,-0.1 0.1,-0.1 0.1,-0.1 0.1,-0.1 0,-0.1 0.1,0 0,-0.1 0.1,-0.1 0.1,-0.1 0.1,-0.1 0.1,-0.1 0.1,-0.1 0.1,-0.1 0,-0.1 0.1,0 0,-0.1 0.1,0 0,-0.1 0.1,-0.1 0.1,-0.1 0.1,-0.1 0,-0.1 0.1,0 0,-0.1 0.1,0 0,-0.1 0.1,0 0,-0.1 0.1,-0.1 0.1,0 0,-0.1 0.1,0 0,-0.1 0.1,0 0,-0.1 0.1,-0.1 0.1,-0.1 0.1,-0.1 0.1,-0.1 0.1,-0.1 0.1,-0.1 0,-0.1 0.1,0 0,-0.1 0.1,0 0,-0.1 0.1,0 0,-0.1 0.1,0 0.1,-0.1 0.1,-0.1 0.1,-0.1 0.1,-0.1 0.1,-0.1 0.1,-0.1 0.1,-0.1 0.1,-0.1 0.1,-0.1 0.1,-0.1 0.1,-0.1 0.1,-0.1 0.1,0 0,-0.1 0.1,0 0.1,-0.1 0.1,-0.1 0.1,-0.1 0.1,-0.1 0.1,-0.1 0.1,0 0,-0.1 0.1,0 0,-0.1 0.1,0 0,-0.1 0.1,0 0.1,-0.1 0.1,0 0,-0.1 0.1,0 0.1,-0.1 0.1,-0.1 0.1,0 0,-0.1 0.1,0 0,-0.1 0.1,0 0.1,-0.1 0.1,0 0,-0.1 0.1,0 0,-0.1 0.1,0 0.1,-0.1 0.1,0 0.1,-0.1 0.1,0 0,-0.1 0.1,0 0.1,-0.1 0.1,0 0,-0.1 0.1,0 0.1,-0.1 0.1,0 0,-0.1 0.1,0 0.1,0 0,-0.1 0.1,0 0.1,-0.1 0.1,0 0.1,-0.1 0.1,0 0.1,-0.1 0.1,0 0.1,-0.1 0.1,0 0.1,-0.1 0.1,0 0.1,-0.1 0.1,0 0.1,-0.1 0.1,0 0.1,0 0.1,-0.1 0.1,0 0.1,0 0,-0.1 0.1,0 0.1,0 0.1,-0.1 0.1,0 0.1,0 0.1,-0.1 0.1,0 0.1,0 0.1,0 0.1,-0.1 0.1,0 0.1,0 0.1,0 0,-0.1 0.1,0 0.1,0 0.1,0 0.1,0 0.1,0 0,-0.1 0.1,0 0.1,0 0.1,0 0.1,0 0.1,0 0.1,0 0.1,0 0.1,-0.1 0.1,0 0.1,0 0.1,0 0.1,0 0.1,0 0.1,0 0.1,0 0.1,0 0.1,0 0.1,0 0.1,0 0.1,0 0.1,0 0.1,0 0.1,0 0.1,0.1 0.1,0 0.1,0 0.1,0 0.1,0 0.1,0 0.1,0 0.1,0 0,0.1 0.1,0 0.1,0 0.1,0 0.1,0 0.1,0 0,0.1 0.1,0 0.1,0 0.1,0 0.1,0 0,0.1 0.1,0 0.1,0 0.1,0 0.1,0.1 0.1,0 0.1,0 0.1,0.1 0.1,0 0.1,0 0,0.1 0.1,0 0.1,0 0.1,0 0,0.1 0.1,0 0.1,0 0,0.1 0.1,0 0.1,0 0.1,0.1 0.1,0 0.1,0.1 0.1,0 0.1,0.1 0.1,0 0,0.1 0.1,0 0.1,0 0.1,0.1 0.1,0 0,0.1 0.1,0 0.1,0 0,0.1 0.1,0 0.1,0.1 0.1,0 0,0.1 0.1,0 0.1,0.1 0.1,0 0,0.1 0.1,0 0.1,0.1 0.1,0 0.1,0.1 0.1,0 0,0.1 0.1,0 0,0.1 0.1,0 0.1,0.1 0.1,0 0,0.1 0.1,0 0,0.1 0.1,0 0.1,0.1 0.1,0.1 0.1,0 0.1,0.1 0.1,0.1 0.1,0.1 0.1,0 0,0.1 0.1,0 0,0.1 0.1,0 0,0.1 0.1,0 0,0.1 0.1,0 0.1,0.1 0.1,0.1 0.1,0.1 0.1,0.1 0.1,0 0,0.1 0.1,0 0,0.1 0.1,0 0,0.1 0.1,0 0,0.1 0.1,0 0,0.1 0.1,0 0,0.1 0.1,0 0,0.1 0.1,0 0,0.1 0.1,0 0,0.1 0.1,0 0,0.1 0.1,0 0,0.1 0.1,0 0,0.1 0.1,0 0.1,0.1 0.1,0.1 0,0.1 0.1,0 0,0.1 0.1,0 0,0.1 0.1,0 0,0.1 0.1,0 0,0.1 0.1,0.1 0.1,0.1 0.1,0.1 0.1,0.1 0,0.1 0.1,0 0,0.1 0.1,0 0.1,0.1 0,0.1 0.1,0 0,0.1 0.1,0 0,0.1 0.1,0.1 0.1,0.1 0.1,0.1 0,0.1 0.1,0 0,0.1 0.1,0 0,0.1 0.1,0.1 0.1,0.1 0,0.1 0.1,0 0,0.1 0.1,0.1 0.1,0 0,0.1 0.1,0 0,0.1 0.1,0.1 0.1,0.1 0,0.1 0.1,0 0,0.1 0.1,0.1 0.1,0.1 0,0.1 0.1,0 0,0.1 0.1,0.1 0.1,0.1 0,0.1 0.1,0 0,0.1 0.1,0.1 0.1,0.1 0.1,0.1 0.1,0.1 0,0.1 0.1,0 0,0.1 0.1,0.1 0,0.1 0.1,0 0,0.1 0.1,0.1 0.1,0.1 0,0.1 0.1,0.1 0.1,0.1 0,0.1 0.1,0 0,0.1 0.1,0.1 0,0.1 0.1,0 0.1,0.1 0,0.1 0.1,0 0,0.1 0.1,0.1 0,0.1 0.1,0 0,0.1 0.1,0.1 0,0.1 0.1,0 0,0.1 0.1,0.1 0.1,0.1 0,0.1 0.1,0.1 0.1,0.1 0,0.1 0.1,0.1 0.1,0.1 0.1,0.1 0,0.1 0.1,0 0,0.1 0.1,0.1 0,0.1 0.1,0 0,0.1 0.1,0.1 0,0.1 0.1,0 0,0.1 0.1,0.1 0,0.1 0.1,0.1 0.1,0.1 0,0.1 0.1,0.1 0.1,0.1 0,0.1 0.1,0.1 0.1,0.1 0.1,0.1 0,0.1 0.1,0.1 0.1,0.1 0,0.1 0.1,0.1 0,0.1 0.1,0 0,0.1 0.1,0.1 0,0.1 0.1,0 0,0.1 0.1,0.1 0,0.1 0.1,0.1 0.1,0.1 0,0.1 0.1,0.1 0,0.1 0.1,0 0.1,0.1 0,0.1 0.1,0.1 0,0.1 0.1,0 0,0.1 0.1,0.1 0,0.1 0.1,0 0,0.1 0.1,0.1 0,0.1 0.1,0.1 0.1,0.1 0,0.1 0.1,0.1 0,0.1 0.1,0 0,0.1 0.1,0.1 0,0.1 0.1,0.1 0.1,0.1 0.1,0.1 0,0.1 0.1,0.1 0,0.1 0.1,0 0,0.1 0.1,0.1 0,0.1 0.1,0.1 0.1,0.1 0,0.1 0.1,0.1 0,0.1 0.1,0 0,0.1 0.1,0.1 0,0.1 0.1,0.1 0.1,0.1 0,0.1 0.1,0.1 0.1,0.1 0.1,0.1 0,0.1 0.1,0.1 0,0.1 0.1,0 0,0.1 0.1,0.1 0,0.1 0.1,0.1 0.1,0.1 0,0.1 0.1,0.1 0,0.1 0.1,0 0,0.1 0.1,0.1 0,0.1 0.1,0.1 0.1,0.1 0.1,0.1 0,0.1 0.1,0.1 0.1,0.1 0,0.1 0.1,0.1 0,0.1 0.1,0 0,0.1 0.1,0.1 0,0.1 0.1,0.1 0.1,0.1 0,0.1 0.1,0.1 0,0.1 0.1,0 0,0.1 0.1,0.1 0,0.1 0.1,0 0.1,0.1 0,0.1 0.1,0.1 0,0.1 0.1,0 0,0.1 0.1,0.1 0,0.1 0.1,0.1 0.1,0.1 0,0.1 0.1,0.1 0.1,0.1 0,0.1 0.1,0.1 0.1,0.1 0,0.1 0.1,0.1 0,0.1 0.1,0 0.1,0.1 0,0.1 0.1,0.1 0.1,0.1 0,0.1 0.1,0.1 0.1,0.1 0,0.1 0.1,0.1 0.1,0.1 0,0.1 0.1,0.1 0.1,0.1 0,0.1 0.1,0.1 0.1,0.1 0,0.1 0.1,0.1 0.1,0.1 0.1,0.1 0,0.1 0.1,0 0,0.1 0.1,0.1 0.1,0.1 0,0.1 0.1,0.1 0.1,0.1 0,0.1 0.1,0 0,0.1 0.1,0.1 0,0.1 0.1,0 0,0.1 0.1,0.1 0.1,0.1 0,0.1 0.1,0.1 0.1,0 0,0.1 0.1,0.1 0.1,0.1 0,0.1 0.1,0 0,0.1 0.1,0.1 0.1,0.1 0,0.1 0.1,0 0,0.1 0.1,0.1 0.1,0.1 0,0.1 0.1,0 0,0.1 0.1,0.1 0.1,0.1 0.1,0.1 0.1,0.1 0,0.1 0.1,0 0,0.1 0.1,0.1 0.1,0.1 0.1,0.1 0,0.1 0.1,0 0,0.1 0.1,0.1 0.1,0.1 0.1,0.1 0,0.1 0.1,0 0,0.1 0.1,0.1 0.1,0.1 0.1,0 0,0.1 0.1,0.1 0.1,0.1 0.1,0.1 0.1,0.1 0,0.1 0.1,0 0,0.1 0.1,0 0,0.1 0.1,0 0,0.1 0.1,0.1 0.1,0.1 0.1,0.1 0.1,0.1 0.1,0 0,0.1 0.1,0 0,0.1 0.1,0.1 0.1,0.1 0.1,0.1 0.1,0.1 0.1,0.1 0.1,0.1 0.1,0.1 0.1,0.1 0.1,0.1 0.1,0.1 0.1,0 0,0.1 0.1,0 0,0.1 0.1,0 0.1,0.1 0.1,0.1 0.1,0.1 0.1,0.1 0.1,0 0,0.1 0.1,0 0,0.1 0.1,0 0,0.1 0.1,0 0.1,0.1 0.1,0.1 0.1,0 0.1,0.1 0.1,0.1 0.1,0 0,0.1 0.1,0 0,0.1 0.1,0 0.1,0.1 0.1,0 0,0.1 0.1,0 0.1,0.1 0.1,0 0,0.1 0.1,0 0.1,0 0,0.1 0.1,0 0.1,0.1 0.1,0 0,0.1 0.1,0 0.1,0 0,0.1 0.1,0 0.1,0.1 0.1,0 0.1,0.1 0.1,0 0.1,0.1 0.1,0 0.1,0 0,0.1 0.1,0 0.1,0 0,0.1 0.1,0 0.1,0 0.1,0.1 0.1,0 0.1,0 0,0.1 0.1,0 0.1,0 0.1,0 0,0.1 0.1,0 0.1,0 0.1,0 0.1,0.1 0.1,0 0.1,0 0.1,0 0.1,0 0,0.1 0.1,0 0.1,0 0.1,0 0.1,0 0.1,0 0.1,0 0,0.1 0.1,0 0.1,0 0.1,0 0.1,0 0.1,0 0.1,0 0.1,0 0.1,0 0.1,0 0.1,0 0.1,0 0.1,0 0.1,0 0.1,0 0.1,0 0.1,0 0.1,-0.1 0.1,0 0.1,0 0.1,0 0.1,0 0.1,0 0.1,-0.1 0.1,0 0.1,0 0.1,0 0.1,0 0,-0.1 0.1,0 0.1,0 0.1,0 0,-0.1 0.1,0 0.1,0 0.1,0 0,-0.1 0.1,0 0.1,0 0.1,-0.1 0.1,0 0.1,0 0,-0.1 0.1,0 0.1,0 0,-0.1 0.1,0 0.1,0 0,-0.1 0.1,0 0.1,0 0,-0.1 0.1,0 0.1,-0.1 0.1,0 0.1,-0.1 0.1,0 0.1,-0.1 0.1,0 0,-0.1 0.1,0 0.1,-0.1 0.1,0 0,-0.1 0.1,0 0.1,-0.1 0.1,-0.1 0.1,0 0,-0.1 0.1,0 0,-0.1 0.1,0 0.1,-0.1 0.1,0 0,-0.1 0.1,0 0.1,-0.1 0.1,-0.1 0.1,-0.1 0.1,-0.1 0.1,0 0,-0.1 0.1,0 0,-0.1 0.1,0 0,-0.1 0.1,0 0,-0.1 0.1,0 0,-0.1 0.1,0 0.1,-0.1 0.1,-0.1 0.1,-0.1 0.1,-0.1 0,-0.1 0.1,0 0,-0.1 0.1,0 0,-0.1 0.1,0 0,-0.1 0.1,0 0,-0.1 0.1,-0.1 0.1,-0.1 0.1,-0.1 0.1,-0.1 0.1,-0.1 0.1,-0.1 0.1,-0.1 0,-0.1 0.1,0 0,-0.1 0.1,-0.1 0.1,-0.1 0.1,-0.1 0,-0.1 0.1,0 0,-0.1 0.1,-0.1 0.1,-0.1 0,-0.1 0.1,0 0,-0.1 0.1,-0.1 0.1,-0.1 0.1,-0.1 0,-0.1 0.1,0 0,-0.1 0.1,-0.1 0.1,-0.1 0,-0.1 0.1,-0.1 0.1,-0.1 0,-0.1 0.1,-0.1 0.1,-0.1 0,-0.1 0.1,-0.1 0.1,-0.1 0,-0.1 0.1,-0.1 0.1,-0.1 0.1,-0.1 0,-0.1 0.1,0 0,-0.1 0.1,-0.1 0,-0.1 0.1,-0.1 0.1,-0.1 0,-0.1 0.1,-0.1 0,-0.1 0.1,-0.1 0.1,-0.1 0,-0.1 0.1,-0.1 0,-0.1 0.1,-0.1 0.1,-0.1 0,-0.1 0.1,-0.1 0.1,-0.1 0,-0.1 0.1,-0.1 0.1,-0.1 0,-0.1 0.1,-0.1 0,-0.1 0.1,-0.1 0,-0.1 0.1,-0.1 0,-0.1 0.1,0 0,-0.1 0.1,-0.1 0,-0.1 0.1,-0.1 0,-0.1 0.1,-0.1 0,-0.1 0.1,-0.1 0,-0.1 0.1,-0.1 0,-0.1 0.1,-0.1 0.1,0 0,-0.1 0.1,-0.1 0,-0.1 0.1,-0.1 0,-0.1 0.1,-0.1 0,-0.1 0.1,-0.1 0,-0.1 0.1,-0.1 0,-0.1 0.1,-0.1 0,-0.1 0.1,-0.1 0,-0.1 0.1,-0.1 0,-0.1 0.1,-0.1 0,-0.1 0.1,-0.1 0,-0.1 0.1,-0.1 0.1,-0.1 0,-0.1 0.1,-0.1 0,-0.1 0.1,-0.1 0,-0.1 0.1,-0.1 0,-0.1 0.1,-0.1 0,-0.1 0.1,-0.1 0,-0.1 0.1,-0.1 0,-0.2 0.1,-0.1 0,-0.1 0.1,-0.1 0,-0.1 0.1,-0.1 0,-0.1 0.1,-0.1 0,-0.1 0.1,-0.1 0.1,-0.1 0,-0.1 0.1,-0.1 0,-0.1 0.1,-0.2 0,-0.1 0.1,-0.1 0,-0.1 0.1,-0.1 0,-0.1 0.1,-0.1 0,-0.1 0.1,-0.1 0,-0.1 0.1,-0.2 0,-0.1 0.1,-0.1 0,-0.1 0.1,-0.1 0,-0.1 0.1,-0.1 0,-0.1 0.1,-0.2 0.1,-0.1 0,-0.1 0.1,-0.1 0,-0.1 0.1,-0.1 0,-0.1 0.1,-0.2 0,-0.1 0.1,-0.1 0,-0.1 0.1,-0.1 0,-0.1 0.1,-0.1 0,-0.2 0.1,-0.1 0,-0.1 0.1,-0.1 0,-0.1 0.1,-0.1 0,-0.2 0.1,-0.1 0,-0.1 0.1,-0.1 0,-0.1 0.1,-0.2 0.1,-0.1 0,-0.1 0.1,-0.1 0,-0.1 0.1,-0.1 0,-0.2 0.1,-0.1 0,-0.1 0.1,-0.1 0,-0.2 0.1,-0.1 0,-0.1 0.1,-0.1 0,-0.1 0.1,-0.2 0,-0.1 0.1,-0.1 0,-0.1 0.1,-0.1 0,-0.2 0.1,-0.1 0,-0.1 0.1,-0.1 0.1,-0.2 0,-0.1 0.1,-0.1 0,-0.1 0.1,-0.1 0,-0.2 0.1,-0.1 0,-0.1 0.1,-0.1 0,-0.2 0.1,-0.1 0,-0.1 0.1,-0.1 0,-0.2 0.1,-0.1 0,-0.1 0.1,-0.1 0,-0.2 0.1,-0.1 0,-0.1 0.1,-0.1 0,-0.2 0.1,-0.1 0.1,-0.1 0,-0.1 0.1,-0.2 0,-0.1 0.1,-0.1 0,-0.2 0.1,-0.1 0,-0.1 0.1,-0.1 0,-0.2 0.1,-0.1 0,-0.1 0.1,-0.1 0,-0.2 0.1,-0.1 0,-0.1 0.1,-0.1 0,-0.2 0.1,-0.1 0,-0.1 0.1,-0.2 0,-0.1 0.1,-0.1 0,-0.1 0.1,-0.2 0.1,-0.1 0,-0.1 0.1,-0.2 0,-0.1 0.1,-0.1 0,-0.1 0.1,-0.2 0,-0.1 0.1,-0.1 0,-0.2 0.1,-0.1 0,-0.1 0.1,-0.1 0,-0.2 0.1,-0.1 0,-0.1 0.1,-0.2 0,-0.1 0.1,-0.1 0,-0.2 0.1,-0.1 0,-0.1 0.1,-0.1 0.1,-0.2 0,-0.1 0.1,-0.1 0,-0.2 0.1,-0.1 0,-0.1 0.1,-0.1 0,-0.2 0.1,-0.1 0,-0.1 0.1,-0.2 0,-0.1 0.1,-0.1 0,-0.2 0.1,-0.1 0,-0.1 0.1,-0.1 0,-0.2 0.1,-0.1 0,-0.1 0.1,-0.2 0,-0.1 0.1,-0.1 0.1,-0.2 0,-0.1 0.1,-0.1 0,-0.1 0.1,-0.2 0,-0.1 0.1,-0.1 0,-0.2 0.1,-0.1 0,-0.1 0.1,-0.2 0,-0.1 0.1,-0.1 0,-0.1 0.1,-0.2 0,-0.1 0.1,-0.1 0,-0.2 0.1,-0.1 0,-0.1 0.1,-0.2 0,-0.1 0.1,-0.1 0,-0.1 0.1,-0.2 0.1,-0.1 0,-0.1 0.1,-0.2 0,-0.1 0.1,-0.1 0,-0.1 0.1,-0.2 0,-0.1 0.1,-0.1 0,-0.2 0.1,-0.1 0,-0.1 0.1,-0.1 0,-0.2 0.1,-0.1 0,-0.1 0.1,-0.2 0,-0.1 0.1,-0.1 0,-0.1 0.1,-0.2 0,-0.1 0.1,-0.1 0.1,-0.2 0,-0.1 0.1,-0.1 0,-0.1 0.1,-0.2 0,-0.1 0.1,-0.1 0,-0.1 0.1,-0.2 0,-0.1 0.1,-0.1 0,-0.1 0.1,-0.2 0,-0.1 0.1,-0.1 0,-0.1 0.1,-0.2 0,-0.1 0.1,-0.1 0,-0.1 0.1,-0.2 0,-0.1 0.1,-0.1 0.1,-0.1 0,-0.2 0.1,-0.1 0,-0.1 0.1,-0.1 0,-0.2 0.1,-0.1 0,-0.1 0.1,-0.1 0,-0.2 0.1,-0.1 0,-0.1 0.1,-0.1 0,-0.2 0.1,-0.1 0,-0.1 0.1,-0.1 0,-0.1 0.1,-0.2 0,-0.1 0.1,-0.1 0,-0.1 0.1,-0.1 0,-0.2 0.1,-0.1 0.1,-0.1 0,-0.1 0.1,-0.2 0,-0.1 0.1,-0.1 0,-0.1 0.1,-0.1 0,-0.1 0.1,-0.2 0,-0.1 0.1,-0.1 0,-0.1 0.1,-0.1 0,-0.2 0.1,-0.1 0,-0.1 0.1,-0.1 0,-0.1 0.1,-0.1 0,-0.2 0.1,-0.1 0,-0.1 0.1,-0.1 0.1,-0.1 0,-0.1 0.1,-0.2 0,-0.1 0.1,-0.1 0,-0.1 0.1,-0.1 0,-0.1 0.1,-0.1 0,-0.2 0.1,-0.1 0,-0.1 0.1,-0.1 0,-0.1 0.1,-0.1 0,-0.1 0.1,-0.1 0,-0.2 0.1,-0.1 0,-0.1 0.1,-0.1 0,-0.1 0.1,-0.1 0.1,-0.1 0,-0.1 0.1,-0.1 0,-0.1 0.1,-0.2 0,-0.1 0.1,-0.1 0,-0.1 0.1,-0.1 0,-0.1 0.1,-0.1 0,-0.1 0.1,-0.1 0,-0.1 0.1,-0.1 0,-0.1 0.1,-0.1 0,-0.1 0.1,-0.1 0,-0.2 0.1,-0.1 0,-0.1 0.1,-0.1 0,-0.1 0.1,-0.1 0.1,-0.1 0,-0.1 0.1,-0.1 0,-0.1 0.1,-0.1 0,-0.1 0.1,-0.1 0,-0.1 0.1,-0.1 0,-0.1 0.1,-0.1 0,-0.1 0.1,-0.1 0,-0.1 0.1,-0.1 0,-0.1 0.1,-0.1 0,-0.1 0.1,-0.1 0,-0.1 0.1,-0.1 0.1,-0.1 0.1,-0.1 0,-0.1 0.1,-0.1 0,-0.1 0.1,-0.1 0,-0.1 0.1,-0.1 0,-0.1 0.1,-0.1 0,-0.1 0.1,-0.1 0,-0.1 0.1,0 0,-0.1 0.1,-0.1 0,-0.1 0.1,-0.1 0,-0.1 0.1,-0.1 0,-0.1 0.1,-0.1 0.1,-0.1 0.1,-0.1 0,-0.1 0.1,-0.1 0,-0.1 0.1,-0.1 0.1,-0.1 0,-0.1 0.1,-0.1 0,-0.1 0.1,-0.1 0.1,-0.1 0,-0.1 0.1,-0.1 0,-0.1 0.1,0 0,-0.1 0.1,-0.1 0,-0.1 0.1,-0.1 0.1,-0.1 0,-0.1 0.1,-0.1 0.1,0 0,-0.1 0.1,-0.1 0,-0.1 0.1,0 0,-0.1 0.1,-0.1 0,-0.1 0.1,0 0,-0.1 0.1,-0.1 0,-0.1 0.1,0 0,-0.1 0.1,-0.1 0.1,-0.1 0,-0.1 0.1,0 0,-0.1 0.1,-0.1 0.1,-0.1 0.1,-0.1 0.1,-0.1 0,-0.1 0.1,0 0,-0.1 0.1,-0.1 0.1,-0.1 0.1,-0.1 0,-0.1 0.1,0 0,-0.1 0.1,0 0,-0.1 0.1,-0.1 0.1,-0.1 0.1,-0.1 0,-0.1 0.1,0 0.1,-0.1 0.1,-0.1 0.1,-0.1 0.1,-0.1 0.1,-0.1 0.1,-0.1 0.1,-0.1 0.1,-0.1 0.1,-0.1 0.1,-0.1 0.1,-0.1 0.1,-0.1 0.1,0 0.1,-0.1 0.1,-0.1 0.1,-0.1 0.1,0 0,-0.1 0.1,0 0.1,-0.1 0.1,-0.1 0.1,0 0,-0.1 0.1,0 0.1,-0.1 0.1,0 0,-0.1 0.1,0 0.1,0 0,-0.1 0.1,0 0.1,-0.1 0.1,0 0.1,-0.1 0.1,0 0.1,-0.1 0.1,0 0.1,-0.1 0.1,0 0.1,0 0,-0.1 0.1,0 0.1,0 0.1,0 0,-0.1 0.1,0 0.1,0 0.1,0 0.1,-0.1 0.1,0 0.1,0 0.1,0 0.1,0 0,-0.1 0.1,0 0.1,0 0.1,0 0.1,0 0.1,0 0.1,0 0.1,0 0.1,0 0.1,0 0.1,0 0.1,0 0.1,0 0.1,0 0.1,0 0.1,0 0.1,0 0.1,0.1 0.1,0 0.1,0 0.1,0 0.1,0 0,0.1 0.1,0 0.1,0 0.1,0 0,0.1 0.1,0 0.1,0 0.1,0 0.1,0.1 0.1,0 0.1,0.1 0.1,0 0.1,0.1 0.1,0 0.1,0.1 0.1,0 0.1,0.1 0.1,0 0,0.1 0.1,0 0.1,0.1 0.1,0 0.1,0.1 0.1,0 0,0.1 0.1,0 0.1,0.1 0.1,0.1 0.1,0 0,0.1 0.1,0 0,0.1 0.1,0 0.1,0.1 0.1,0.1 0.1,0.1 0.1,0.1 0.1,0 0,0.1 0.1,0 0,0.1 0.1,0 0,0.1 0.1,0 0,0.1 0.1,0 0,0.1 0.1,0 0,0.1 0.1,0 0,0.1 0.1,0 0,0.1 0.1,0 0,0.1 0.1,0 0,0.1 0.1,0.1 0.1,0.1 0.1,0 0,0.1 0.1,0.1 0.1,0.1 0.1,0.1 0,0.1 0.1,0 0,0.1 0.1,0.1 0.1,0.1 0,0.1 0.1,0 0,0.1 0.1,0.1 0.1,0.1 0,0.1 0.1,0 0,0.1 0.1,0.1 0.1,0.1 0.1,0.1 0,0.1 0.1,0 0,0.1 0.1,0.1 0,0.1 0.1,0 0,0.1 0.1,0.1 0,0.1 0.1,0.1 0.1,0.1 0,0.1 0.1,0.1 0,0.1 0.1,0 0,0.1 0.1,0.1 0,0.1 0.1,0.1 0.1,0.1 0.1,0.1 0,0.1 0.1,0.1 0,0.1 0.1,0.1 0.1,0.1 0,0.1 0.1,0.1 0,0.1 0.1,0.1 0,0.1 0.1,0.1 0,0.1 0.1,0 0,0.1 0.1,0.1 0,0.1 0.1,0.1 0,0.1 0.1,0.1 0,0.1 0.1,0.1 0.1,0.1 0,0.1 0.1,0.1 0,0.1 0.1,0.1 0,0.1 0.1,0.1 0,0.1 0.1,0.1 0,0.1 0.1,0.1 0,0.1 0.1,0.1 0,0.1 0.1,0.1 0,0.1 0.1,0.1 0,0.1 0.1,0.1 0,0.1 0.1,0.1 0,0.1 0.1,0.1 0.1,0.1 0,0.1 0.1,0.1 0,0.1 0.1,0.1 0,0.1 0.1,0.1 0,0.2 0.1,0.1 0,0.1 0.1,0.1 0,0.1 0.1,0.1 0,0.1 0.1,0.1 0,0.1 0.1,0.2 0,0.1 0.1,0.1 0,0.1 0.1,0.1 0,0.1 0.1,0.1 0,0.2 0.1,0.1 0.1,0.1 0,0.1 0.1,0.1 0,0.1 0.1,0.2 0,0.1 0.1,0.1 0,0.1 0.1,0.1 0,0.1 0.1,0.2 0,0.1 0.1,0.1 0,0.1 0.1,0.1 0,0.2 0.1,0.1 0,0.1 0.1,0.1 0,0.2 0.1,0.1 0,0.1 0.1,0.1 0.1,0.2 0,0.1 0.1,0.1 0,0.1 0.1,0.2 0,0.1 0.1,0.1 0,0.1 0.1,0.2 0,0.1 0.1,0.1 0,0.1 0.1,0.2 0,0.1 0.1,0.1 0,0.2 0.1,0.1 0,0.1 0.1,0.2 0,0.1 0.1,0.1 0,0.1 0.1,0.2 0.1,0.1 0,0.1 0.1,0.2 0,0.1 0.1,0.1 0,0.2 0.1,0.1 0,0.1 0.1,0.2 0,0.1 0.1,0.1 0,0.2 0.1,0.1 0,0.2 0.1,0.1 0,0.1 0.1,0.2 0,0.1 0.1,0.1 0,0.2 0.1,0.1 0,0.1 0.1,0.2 0,0.1 0.1,0.2 0.1,0.1 0,0.1 0.1,0.2 0,0.1 0.1,0.2 0,0.1 0.1,0.1 0,0.2 0.1,0.1 0,0.2 0.1,0.1 0,0.1 0.1,0.2 0,0.1 0.1,0.2 0,0.1 0.1,0.2 0,0.1 0.1,0.1 0,0.2 0.1,0.1 0,0.2 0.1,0.1 0.1,0.2 0,0.1 0.1,0.1 0,0.2 0.1,0.1 0,0.2 0.1,0.1 0,0.2 0.1,0.1 0,0.2 0.1,0.1 0,0.2 0.1,0.1 0,0.1 0.1,0.2 0,0.1 0.1,0.2 0,0.1 0.1,0.2 0,0.1 0.1,0.2 0,0.1 0.1,0.2 0.1,0.1 0,0.2 0.1,0.1 0,0.2 0.1,0.1 0,0.2 0.1,0.1 0,0.2 0.1,0.1 0,0.2 0.1,0.1 0,0.2 0.1,0.1 0,0.2 0.1,0.1 0,0.2 0.1,0.1 0,0.2 0.1,0.1 0,0.2 0.1,0.1 0,0.2 0.1,0.1 0,0.2 0.1,0.1 0.1,0.2 0,0.1 0.1,0.2 0,0.1 0.1,0.2 0,0.1 0.1,0.2 0,0.1 0.1,0.2 0,0.1 0.1,0.2 0,0.1 0.1,0.2 0,0.1 0.1,0.2 0,0.1 0.1,0.2 0,0.1 0.1,0.2 0,0.1 0.1,0.2 0,0.1 0.1,0.2 0.1,0.1 0,0.2 0.1,0.1 0,0.2 0.1,0.1 0,0.2 0.1,0.1 0,0.2 0.1,0.1 0,0.2 0.1,0.1 0,0.2 0.1,0.1 0,0.2 0.1,0.1 0,0.2 0.1,0.1 0,0.2 0.1,0.2 0,0.1 0.1,0.2 0,0.1 0.1,0.2 0.1,0.1 0,0.2 0.1,0.1 0,0.2 0.1,0.1 0,0.2 0.1,0.1 0,0.2 0.1,0.1 0,0.2 0.1,0.1 0,0.2 0.1,0.1 0,0.2 0.1,0.1 0,0.2 0.1,0.1 0,0.2 0.1,0.1 0,0.2 0.1,0.1 0,0.2 0.1,0.1 0,0.2 0.1,0.1 0.1,0.1 0,0.2 0.1,0.1 0,0.2 0.1,0.1 0,0.2 0.1,0.1 0,0.2 0.1,0.1 0,0.2 0.1,0.1 0,0.2 0.1,0.1 0,0.2 0.1,0.1 0,0.2 0.1,0.1 0,0.1 0.1,0.2 0,0.1 0.1,0.2 0,0.1 0.1,0.2 0.1,0.1 0,0.2 0.1,0.1 0,0.2 0.1,0.1 0,0.1 0.1,0.2 0,0.1 0.1,0.2 0,0.1 0.1,0.2 0,0.1 0.1,0.1 0,0.2 0.1,0.1 0,0.2 0.1,0.1 0,0.1 0.1,0.2 0,0.1 0.1,0.2 0,0.1 0.1,0.1 0.1,0.2 0,0.1 0.1,0.2 0,0.1 0.1,0.1 0,0.2 0.1,0.1 0,0.1 0.1,0.2 0,0.1 0.1,0.2 0,0.1 0.1,0.1 0,0.2 0.1,0.1 0,0.1 0.1,0.2 0,0.1 0.1,0.1 0,0.2 0.1,0.1 0,0.1 0.1,0.2 0,0.1 0.1,0.1 0.1,0.2 0,0.1 0.1,0.1 0,0.2 0.1,0.1 0,0.1 0.1,0.1 0,0.2 0.1,0.1 0,0.1 0.1,0.2 0,0.1 0.1,0.1 0,0.1 0.1,0.2 0,0.1 0.1,0.1 0,0.1 0.1,0.2 0,0.1 0.1,0.1 0,0.1 0.1,0.2 0.1,0.1 0,0.1 0.1,0.1 0,0.1 0.1,0.2 0,0.1 0.1,0.1 0,0.1 0.1,0.1 0,0.2 0.1,0.1 0,0.1 0.1,0.1 0,0.1 0.1,0.2 0,0.1 0.1,0.1 0,0.1 0.1,0.1 0,0.1 0.1,0.1 0,0.2 0.1,0.1 0.1,0.1 0,0.1 0.1,0.1 0,0.1 0.1,0.1 0,0.1 0.1,0.1 0,0.2 0.1,0.1 0,0.1 0.1,0.1 0,0.1 0.1,0.1 0,0.1 0.1,0.1 0,0.1 0.1,0.1 0,0.1 0.1,0.1 0,0.1 0.1,0.1 0,0.1 0.1,0.1 0.1,0.1 0,0.1 0.1,0.1 0,0.1 0.1,0.1 0,0.1 0.1,0.1 0,0.1 0.1,0.1 0,0.1 0.1,0.1 0,0.1 0.1,0.1 0,0.1 0.1,0.1 0,0.1 0.1,0 0,0.1 0.1,0.1 0,0.1 0.1,0.1 0,0.1 0.1,0.1 0,0.1 0.1,0 0.1,0.1 0,0.1 0.1,0.1 0,0.1 0.1,0.1 0.1,0.1 0,0.1 0.1,0.1 0,0.1 0.1,0 0,0.1 0.1,0.1 0,0.1 0.1,0.1 0.1,0.1 0,0.1 0.1,0.1 0.1,0.1 0,0.1 0.1,0 0.1,0.1 0,0.1 0.1,0 0,0.1 0.1,0.1 0.1,0.1 0,0.1 0.1,0 0,0.1 0.1,0.1 0.1,0.1 0,0.1 0.1,0 0,0.1 0.1,0 0,0.1 0.1,0 0,0.1 0.1,0.1 0.1,0.1 0.1,0 0,0.1 0.1,0 0,0.1 0.1,0 0,0.1 0.1,0 0,0.1 0.1,0 0,0.1 0.1,0 0.1,0.1 0.1,0.1 0.1,0.1 0.1,0 0,0.1 0.1,0 0.1,0.1 0.1,0 0.1,0.1 0.1,0 0,0.1 0.1,0 0.1,0.1 0.1,0 0.1,0.1 0.1,0 0.1,0.1 0.1,0 0.1,0 0.1,0.1 0.1,0 0.1,0 0.1,0 0.1,0.1 0.1,0 0.1,0 0.1,0 0.1,0 0.1,0 0.1,0 0.1,0 0.1,0 0.1,0 0.1,0 0.1,-0.1 0.1,0 0.1,0 0.1,0 0.1,-0.1 0.1,0 0.1,0 0,-0.1 0.1,0 0.1,0 0,-0.1 0.1,0 0.1,0 0,-0.1 0.1,0 0.1,0 0,-0.1 0.1,0 0.1,-0.1 0.1,-0.1 0.1,0 0,-0.1 0.1,0 0,-0.1 0.1,0 0.1,-0.1 0.1,-0.1 0.1,-0.1 0.1,-0.1 0.1,-0.1 0.1,-0.1 0.1,-0.1 0.1,-0.1 0.1,-0.1 0,-0.1 0.1,0 0,-0.1 0.1,-0.1 0.1,-0.1 0,-0.1 0.1,0 0,-0.1 0.1,-0.1 0,-0.1 0.1,0 0,-0.1 0.1,-0.1 0,-0.1 0.1,0 0.1,-0.1 0,-0.1 0.1,-0.1 0,-0.1 0.1,0 0,-0.1 0.1,-0.1 0,-0.1 0.1,-0.1 0,-0.1 0.1,-0.1 0,-0.1 0.1,-0.1 0.1,-0.1 0,-0.1 0.1,-0.1 0,-0.1 0.1,-0.1 0,-0.1 0.1,-0.1 0,-0.1 0.1,-0.1 0,-0.1 0.1,-0.2 0.1,-0.1 0,-0.1 0.1,-0.1 0,-0.1 0.1,-0.1 0,-0.1 0.1,-0.1 0,-0.1 0.1,-0.2 0,-0.1 0.1,-0.1 0,-0.1 0.1,-0.1 0,-0.2 0.1,-0.1 0,-0.1 0.1,-0.1 0,-0.1 0.1,-0.2 0,-0.1 0.1,-0.1 0,-0.2 0.1,-0.1 0.1,-0.1 0,-0.2 0.1,-0.1 0,-0.1 0.1,-0.2 0,-0.1 0.1,-0.2 0,-0.1 0.1,-0.1 0,-0.2 0.1,-0.1 0,-0.2 0.1,-0.1 0,-0.2 0.1,-0.1 0,-0.2 0.1,-0.1 0,-0.2 0.1,-0.1 0,-0.2 0.1,-0.1 0,-0.2 0.1,-0.1 0.1,-0.2 0,-0.2 0.1,-0.1 0,-0.2 0.1,-0.2 0,-0.1 0.1,-0.2 0,-0.2 0.1,-0.1 0,-0.2 0.1,-0.2 0,-0.1 0.1,-0.2 0,-0.2 0.1,-0.2 0,-0.1 0.1,-0.2 0,-0.2 0.1,-0.2 0,-0.2 0.1,-0.1 0,-0.2 0.1,-0.2 0,-0.2 0.1,-0.2 0.1,-0.2 0,-0.2 0.1,-0.1 0,-0.2 0.1,-0.2 0,-0.2 0.1,-0.2 0,-0.2 0.1,-0.2 0,-0.2 0.1,-0.2 0,-0.2 0.1,-0.2 0,-0.2 0.1,-0.2 0,-0.2 0.1,-0.2 0,-0.3 0.1,-0.2 0,-0.2 0.1,-0.2 0,-0.2 0.1,-0.2 0.1,-0.2 0,-0.2 0.1,-0.3 0,-0.2 0.1,-0.2 0,-0.2 0.1,-0.3 0,-0.2 0.1,-0.2 0,-0.2 0.1,-0.3 0,-0.2 0.1,-0.2 0,-0.2 0.1,-0.3 0,-0.2 0.1,-0.2 0,-0.3 0.1,-0.2 0,-0.3 0.1,-0.2 0,-0.2 0.1,-0.3 0.1,-0.2 0,-0.3 0.1,-0.2 0,-0.3 0.1,-0.2 0,-0.3 0.1,-0.2 0,-0.3 0.1,-0.2 0,-0.3 0.1,-0.2 0,-0.3 0.1,-0.2 0,-0.3 0.1,-0.3 0,-0.2 0.1,-0.3 0,-0.2 0.1,-0.3 0,-0.3 0.1,-0.2 0,-0.3 0.1,-0.3 0,-0.2 0.1,-0.3 0.1,-0.3 0,-0.3 0.1,-0.2 0,-0.3 0.1,-0.3 0,-0.3 0.1,-0.3 0,-0.2 0.1,-0.3 0,-0.3 0.1,-0.3 0,-0.3 0.1,-0.3 0,-0.2 0.1,-0.3 0,-0.3 0.1,-0.3 0,-0.3 0.1,-0.3 0,-0.3 0.1,-0.3 0,-0.3 0.1,-0.3 0.1,-0.3 0,-0.3 0.1,-0.3 0,-0.3 0.1,-0.3 0,-0.3 0.1,-0.3 0,-0.3 0.1,-0.3 0,-0.3 0.1,-0.3 0,-0.4 0.1,-0.3 0,-0.3 0.1,-0.3 0,-0.3 0.1,-0.3 0,-0.4 0.1,-0.3 0,-0.3 0.1,-0.3 0,-0.4 0.1,-0.3 0.1,-0.3 0,-0.3 0.1,-0.4 0,-0.3 0.1,-0.3 0,-0.4 0.1,-0.3 0,-0.3 0.1,-0.4 0,-0.3 0.1,-0.3 0,-0.4 0.1,-0.3 0,-0.4 0.1,-0.3 0,-0.3 0.1,-0.4 0,-0.3 0.1,-0.4 0,-0.3 0.1,-0.4 0,-0.3 0.1,-0.4 0,-0.3 0.1,-0.4 0.1,-0.3 0,-0.4 0.1,-0.3 0,-0.4 0.1,-0.4 0,-0.3 0.1,-0.4 0,-0.3 0.1,-0.4 0,-0.4 0.1,-0.3 0,-0.4 0.1,-0.4 0,-0.3 0.1,-0.4 0,-0.4 0.1,-0.4 0,-0.3 0.1,-0.4 0,-0.4 0.1,-0.4 0,-0.3 0.1,-0.4 0.1,-0.4 0,-0.4 0.1,-0.4 0,-0.3 0.1,-0.4 0,-0.4 0.1,-0.4 0,-0.4 0.1,-0.4 0,-0.4 0.1,-0.4 0,-0.4 0.1,-0.3 0,-0.4 0.1,-0.4 0,-0.4 0.1,-0.4 0,-0.4 0.1,-0.4 0,-0.4 0.1,-0.4 0,-0.4 0.1,-0.4 0.1,-0.4 0,-0.4 0.1,-0.4 0,-0.5 0.1,-0.4 0,-0.4 0.1,-0.4 0,-0.4 0.1,-0.4 0,-0.4 0.1,-0.4 0,-0.5 0.1,-0.4 0,-0.4 0.1,-0.4 0,-0.4 0.1,-0.4 0,-0.5 0.1,-0.4 0,-0.4 0.1,-0.4 0,-0.5 0.1,-0.4 0.1,-0.4 0,-0.5 0.1,-0.4 0,-0.4 0.1,-0.4 0,-0.5 0.1,-0.4 0,-0.4 0.1,-0.5 0,-0.4 0.1,-0.5 0,-0.4 0.1,-0.4 0,-0.5 0.1,-0.4 0,-0.5 0.1,-0.4 0,-0.4 0.1,-0.5 0,-0.4 0.1,-0.5 0,-0.4 0.1,-0.5 0,-0.4 0.1,-0.5 0.1,-0.4 0,-0.5 0.1,-0.4 0,-0.5 0.1,-0.5 0,-0.4 0.1,-0.5 0,-0.4 0.1,-0.5 0,-0.4 0.1,-0.5 0,-0.5 0.1,-0.4 0,-0.5 0.1,-0.5 0,-0.4 0.1,-0.5 0,-0.5 0.1,-0.4 0,-0.5 0.1,-0.5 0,-0.4 0.1,-0.5 0.1,-0.5 0,-0.5 0.1,-0.4 0,-0.5 0.1,-0.5 0,-0.5 0.1,-0.4 0,-0.5 0.1,-0.5 0,-0.5 0.1,-0.5 0,-0.4 0.1,-0.5 0,-0.5 0.1,-0.5 0,-0.5 0.1,-0.5 0,-0.5 0.1,-0.4 0,-0.5 0.1,-0.5 0,-0.5 0.1,-0.5 0.1,-0.5 0,-0.5 0.1,-0.5 0,-0.5 0.1,-0.5 0,-0.5 0.1,-0.5 0,-0.5 0.1,-0.5 0,-0.5 0.1,-0.5 0,-0.5 0.1,-0.5 0,-0.5 0.1,-0.5 0,-0.5 0.1,-0.5 0,-0.5 0.1,-0.5 0,-0.5 0.1,-0.5 0,-0.5 0.1,-0.5 0,-0.5 0.1,-0.5 0.1,-0.6 0,-0.5 0.1,-0.5 0,-0.5 0.1,-0.5 0,-0.5 0.1,-0.5 0,-0.6 0.1,-0.5 0,-0.5 0.1,-0.5 0,-0.5 0.1,-0.5 0,-0.6 0.1,-0.5 0,-0.5 0.1,-0.5 0,-0.6 0.1,-0.5 0,-0.5 0.1,-0.5 0,-0.6 0.1,-0.5 0.1,-0.5 0,-0.5 0.1,-0.6 0,-0.5 0.1,-0.5 0,-0.6 0.1,-0.5 0,-0.5 0.1,-0.5 0,-0.6 0.1,-0.5 0,-0.5 0.1,-0.6 0,-0.5 0.1,-0.6 0,-0.5 0.1,-0.5 0,-0.6 0.1,-0.5 0,-0.5 0.1,-0.6 0,-0.5 0.1,-0.6 0.1,-0.5 0,-0.5 0.1,-0.6 0,-0.5 0.1,-0.6 0,-0.5 0.1,-0.6 0,-0.5 0.1,-0.5 0,-0.6 0.1,-0.5 0,-0.6 0.1,-0.5 0,-0.6 0.1,-0.5 0,-0.6 0.1,-0.5 0,-0.6 0.1,-0.5 0,-0.6 0.1,-0.5 0,-0.6 0.1,-0.5 0,-0.6 0.1,-0.5 0.1,-0.6 0,-0.5 0.1,-0.6 0,-0.6 0.1,-0.5 0,-0.6 0.1,-0.5 0,-0.6 0.1,-0.5 0,-0.6 0.1,-0.6 0,-0.5 0.1,-0.6 0,-0.5 0.1,-0.6 0,-0.6 0.1,-0.5 0,-0.6 0.1,-0.5 0,-0.6 0.1,-0.6 0,-0.5 0.1,-0.6 0.1,-0.6 0,-0.5 0.1,-0.6 0,-0.5 0.1,-0.6 0,-0.6 0.1,-0.5 0,-0.6 0.1,-0.6 0,-0.5 0.1,-0.6 0,-0.6 0.1,-0.5 0,-0.6 0.1,-0.6 0,-0.5 0.1,-0.6 0,-0.6 0.1,-0.6 0,-0.5 0.1,-0.6 0,-0.6 0.1,-0.5 0.1,-0.6 0,-0.6 0.1,-0.5 0,-0.6 0.1,-0.6 0,-0.6 0.1,-0.5 0,-0.6 0.1,-0.6 0,-0.6 0.1,-0.5 0,-0.6 0.1,-0.6 0,-0.5 0.1,-0.6 0,-0.6 0.1,-0.6 0,-0.5 0.1,-0.6 0,-0.6 0.1,-0.6 0,-0.5 0.1,-0.6 0,-0.6 0.1,-0.6 0.1,-0.5 0,-0.6 0.1,-0.6 0,-0.6 0.1,-0.6 0,-0.5 0.1,-0.6 0,-0.6 0.1,-0.6 0,-0.5 0.1,-0.6 0,-0.6 0.1,-0.6 0,-0.6 0.1,-0.5 0,-0.6 0.1,-0.6 0,-0.6 0.1,-0.5 0,-0.6 0.1,-0.6 0,-0.6 0.1,-0.6 0.1,-0.5 0,-0.6 0.1,-0.6 0,-0.6 0.1,-0.6 0,-0.5 0.1,-0.6 0,-0.6 0.1,-0.6 0,-0.6 0.1,-0.5 0,-0.6 0.1,-0.6 0,-0.6 0.1,-0.6 0,-0.5 0.1,-0.6 0,-0.6 0.1,-0.6 0,-0.5 0.1,-0.6 0,-0.6 0.1,-0.6 0.1,-0.6 0,-0.5 0.1,-0.6 0,-0.6 0.1,-0.6 0,-0.6 0.1,-0.5 0,-0.6 0.1,-0.6 0,-0.6 0.1,-0.6 0,-0.5 0.1,-0.6 0,-0.6 0.1,-0.6 0,-0.5 0.1,-0.6 0,-0.6 0.1,-0.6 0,-0.6 0.1,-0.5 0,-0.6 0.1,-0.6 0,-0.6 0.1,-0.5 0.1,-0.6 0,-0.6 0.1,-0.6 0,-0.6 0.1,-0.5 0,-0.6 0.1,-0.6 0,-0.6 0.1,-0.5 0,-0.6 0.1,-0.6 0,-0.6 0.1,-0.5 0,-0.6 0.1,-0.6 0,-0.6 0.1,-0.5 0,-0.6 0.1,-0.6 0,-0.5 0.1,-0.6 0,-0.6 0.1,-0.6 0.1,-0.5 0,-0.6 0.1,-0.6 0,-0.5 0.1,-0.6 0,-0.6 0.1,-0.6 0,-0.5 0.1,-0.6 0,-0.6 0.1,-0.5 0,-0.6 0.1,-0.6 0,-0.5 0.1,-0.6 0,-0.6 0.1,-0.5 0,-0.6 0.1,-0.6 0,-0.5 0.1,-0.6 0,-0.6 0.1,-0.5 0.1,-0.6 0,-0.6 0.1,-0.5 0,-0.6 0.1,-0.6 0,-0.5 0.1,-0.6 0,-0.6 0.1,-0.5 0,-0.6 0.1,-0.5 0,-0.6 0.1,-0.6 0,-0.5 0.1,-0.6 0,-0.5 0.1,-0.6 0,-0.5 0.1,-0.6 0,-0.6 0.1,-0.5 0,-0.6 0.1,-0.5 0,-0.6 0.1,-0.5 0.1,-0.6 0,-0.5 0.1,-0.6 0,-0.6 0.1,-0.5 0,-0.6 0.1,-0.5 0,-0.6 0.1,-0.5 0,-0.6 0.1,-0.5 0,-0.6 0.1,-0.5 0,-0.6 0.1,-0.5 0,-0.5 0.1,-0.6 0,-0.5 0.1,-0.6 0,-0.5 0.1,-0.6 0,-0.5 0.1,-0.6 0.1,-0.5 0,-0.5 0.1,-0.6 0,-0.5 0.1,-0.6 0,-0.5 0.1,-0.5 0,-0.6 0.1,-0.5 0,-0.5 0.1,-0.6 0,-0.5 0.1,-0.5 0,-0.6 0.1,-0.5 0,-0.5 0.1,-0.6 0,-0.5 0.1,-0.5 0,-0.6 0.1,-0.5 0,-0.5 0.1,-0.6 0.1,-0.5 0,-0.5 0.1,-0.5 0,-0.6 0.1,-0.5 0,-0.5 0.1,-0.5 0,-0.5 0.1,-0.6 0,-0.5 0.1,-0.5 0,-0.5 0.1,-0.5 0,-0.6 0.1,-0.5 0,-0.5 0.1,-0.5 0,-0.5 0.1,-0.5 0,-0.6 0.1,-0.5 0,-0.5 0.1,-0.5 0,-0.5 0.1,-0.5 0.1,-0.5 0,-0.5 0.1,-0.5 0,-0.5 0.1,-0.5 0,-0.5 0.1,-0.5 0,-0.5 0.1,-0.5 0,-0.5 0.1,-0.5 0,-0.5 0.1,-0.5 0,-0.5 0.1,-0.5 0,-0.5 0.1,-0.5 0,-0.5 0.1,-0.5 0,-0.5 0.1,-0.5 0,-0.5 0.1,-0.5 0.1,-0.5 0,-0.5 0.1,-0.4 0,-0.5 0.1,-0.5 0,-0.5 0.1,-0.5 0,-0.5 0.1,-0.4 0,-0.5 0.1,-0.5 0,-0.5 0.1,-0.5 0,-0.4 0.1,-0.5 0,-0.5 0.1,-0.5 0,-0.4 0.1,-0.5 0,-0.5 0.1,-0.4 0,-0.5 0.1,-0.5 0.1,-0.4 0,-0.5 0.1,-0.5 0,-0.4 0.1,-0.5 0,-0.5 0.1,-0.4 0,-0.5 0.1,-0.4 0,-0.5 0.1,-0.5 0,-0.4 0.1,-0.5 0,-0.4 0.1,-0.5 0,-0.4 0.1,-0.5 0,-0.4 0.1,-0.5 0,-0.4 0.1,-0.5 0,-0.4 0.1,-0.5 0,-0.4 0.1,-0.4 0.1,-0.5 0,-0.4 0.1,-0.5 0,-0.4 0.1,-0.4 0,-0.5 0.1,-0.4 0,-0.4 0.1,-0.5 0,-0.4 0.1,-0.4 0,-0.4 0.1,-0.5 0,-0.4 0.1,-0.4 0,-0.5 0.1,-0.4 0,-0.4 0.1,-0.4 0,-0.4 0.1,-0.5 0,-0.4 0.1,-0.4 0.1,-0.4 0,-0.4 0.1,-0.4 0,-0.4 0.1,-0.4 0,-0.5 0.1,-0.4 0,-0.4 0.1,-0.4 0,-0.4 0.1,-0.4 0,-0.4 0.1,-0.4 0,-0.4 0.1,-0.4 0,-0.4 0.1,-0.4 0,-0.4 0.1,-0.3 0,-0.4 0.1,-0.4 0,-0.4 0.1,-0.4 0.1,-0.4 0,-0.4 0.1,-0.4 0,-0.3 0.1,-0.4 0,-0.4 0.1,-0.4 0,-0.4 0.1,-0.3 0,-0.4 0.1,-0.4 0,-0.4 0.1,-0.3 0,-0.4 0.1,-0.4 0,-0.3 0.1,-0.4 0,-0.4 0.1,-0.3 0,-0.4 0.1,-0.3 0,-0.4 0.1,-0.4 0.1,-0.3 0,-0.4 0.1,-0.3 0,-0.4 0.1,-0.3 0,-0.4 0.1,-0.3 0,-0.4 0.1,-0.3 0,-0.4 0.1,-0.3 0,-0.3 0.1,-0.4 0,-0.3 0.1,-0.4 0,-0.3 0.1,-0.3 0,-0.4 0.1,-0.3 0,-0.3 0.1,-0.4 0,-0.3 0.1,-0.3 0,-0.3 0.1,-0.4 0.1,-0.3 0,-0.3 0.1,-0.3 0,-0.3 0.1,-0.4 0,-0.3 0.1,-0.3 0,-0.3 0.1,-0.3 0,-0.3 0.1,-0.3 0,-0.3 0.1,-0.3 0,-0.3 0.1,-0.3 0,-0.3 0.1,-0.3 0,-0.3 0.1,-0.3 0,-0.3 0.1,-0.3 0,-0.3 0.1,-0.3 0.1,-0.3 0,-0.3 0.1,-0.3 0,-0.2 0.1,-0.3 0,-0.3 0.1,-0.3 0,-0.3 0.1,-0.2 0,-0.3 0.1,-0.3 0,-0.3 0.1,-0.2 0,-0.3 0.1,-0.3 0,-0.2 0.1,-0.3 0,-0.3 0.1,-0.2 0,-0.3 0.1,-0.2 0,-0.3 0.1,-0.3 0.1,-0.2 0,-0.3 0.1,-0.2 0,-0.3 0.1,-0.2 0,-0.3 0.1,-0.2 0,-0.2 0.1,-0.3 0,-0.2 0.1,-0.3 0,-0.2 0.1,-0.2 0,-0.3 0.1,-0.2 0,-0.2 0.1,-0.3 0,-0.2 0.1,-0.2 0,-0.2 0.1,-0.3 0,-0.2 0.1,-0.2 0,-0.2 0.1,-0.2 0.1,-0.3 0,-0.2 0.1,-0.2 0,-0.2 0.1,-0.2 0,-0.2 0.1,-0.2 0,-0.2 0.1,-0.2 0,-0.2 0.1,-0.2 0,-0.2 0.1,-0.2 0,-0.2 0.1,-0.2 0,-0.2 0.1,-0.2 0,-0.2 0.1,-0.2 0,-0.1 0.1,-0.2 0,-0.2 0.1,-0.2 0.1,-0.2 0,-0.1 0.1,-0.2 0,-0.2 0.1,-0.2 0,-0.1 0.1,-0.2 0,-0.2 0.1,-0.1 0,-0.2 0.1,-0.2 0,-0.1 0.1,-0.2 0,-0.1 0.1,-0.2 0,-0.1 0.1,-0.2 0,-0.1 0.1,-0.2 0,-0.1 0.1,-0.2 0,-0.1 0.1,-0.2 0.1,-0.1 0,-0.2 0.1,-0.1 0,-0.1 0.1,-0.2 0,-0.1 0.1,-0.1 0,-0.1 0.1,-0.2 0,-0.1 0.1,-0.1 0,-0.1 0.1,-0.2 0,-0.1 0.1,-0.1 0,-0.1 0.1,-0.1 0,-0.1 0.1,-0.2 0,-0.1 0.1,-0.1 0,-0.1 0.1,-0.1 0,-0.1 0.1,-0.1 0.1,-0.1 0,-0.1 0.1,-0.1 0,-0.1 0.1,-0.1 0.1,-0.1 0,-0.1 0.1,-0.1 0,-0.1 0.1,-0.1 0,-0.1 0.1,0 0,-0.1 0.1,-0.1 0,-0.1 0.1,0 0,-0.1 0.1,-0.1 0.1,-0.1 0,-0.1 0.1,0 0.1,-0.1 0.1,-0.1 0,-0.1 0.1,0 0,-0.1 0.1,0 0,-0.1 0.1,0 0.1,-0.1 0.1,-0.1 0.1,0 0,-0.1 0.1,0 0.1,-0.1 0.1,0 0.1,-0.1 0.1,0 0.1,0 0.1,-0.1 0.1,0 0.1,0 0.1,0 0.1,0 0.1,0 0.1,0 0.1,0 0.1,0.1 0.1,0 0.1,0 0.1,0.1 0.1,0 0.1,0.1 0.1,0 0,0.1 0.1,0 0.1,0.1 0.1,0.1 0.1,0 0,0.1 0.1,0 0,0.1 0.1,0 0,0.1 0.1,0.1 0.1,0.1 0.1,0 0,0.1 0.1,0.1 0.1,0.1 0,0.1 0.1,0 0,0.1 0.1,0.1 0,0.1 0.1,0 0,0.1 0.1,0.1 0,0.1 0.1,0.1 0,0.1 0.1,0.1 0.1,0.1 0,0.1 0.1,0.1 0,0.1 0.1,0.1 0.1,0.1 0,0.1 0.1,0.1 0,0.1 0.1,0.1 0,0.1 0.1,0.2 0,0.1 0.1,0.1 0,0.1 0.1,0.1 0,0.1 0.1,0.2 0,0.1 0.1,0.1 0,0.1 0.1,0.2 0,0.1 0.1,0.1 0,0.1 0.1,0.2 0,0.1 0.1,0.1 0,0.2 0.1,0.1 0.1,0.2 0,0.1 0.1,0.2 0,0.1 0.1,0.2 0,0.1 0.1,0.2 0,0.1 0.1,0.2 0,0.1 0.1,0.2 0,0.1 0.1,0.2 0,0.2 0.1,0.1 0,0.2 0.1,0.2 0,0.1 0.1,0.2 0,0.2 0.1,0.2 0,0.1 0.1,0.2 0.1,0.2 0,0.2 0.1,0.2 0,0.1 0.1,0.2 0,0.2 0.1,0.2 0,0.2 0.1,0.2 0,0.2 0.1,0.2 0,0.2 0.1,0.2 0,0.2 0.1,0.2 0,0.2 0.1,0.2 0,0.2 0.1,0.2 0,0.2 0.1,0.2 0,0.2 0.1,0.3 0.1,0.2 0,0.2 0.1,0.2 0,0.2 0.1,0.3 0,0.2 0.1,0.2 0,0.2 0.1,0.3 0,0.2 0.1,0.2 0,0.3 0.1,0.2 0,0.2 0.1,0.3 0,0.2 0.1,0.3 0,0.2 0.1,0.2 0,0.3 0.1,0.2 0,0.3 0.1,0.2 0,0.3 0.1,0.2 0.1,0.3 0,0.3 0.1,0.2 0,0.3 0.1,0.2 0,0.3 0.1,0.3 0,0.2 0.1,0.3 0,0.3 0.1,0.2 0,0.3 0.1,0.3 0,0.3 0.1,0.2 0,0.3 0.1,0.3 0,0.3 0.1,0.3 0,0.2 0.1,0.3 0,0.3 0.1,0.3 0.1,0.3 0,0.3 0.1,0.3 0,0.3 0.1,0.3 0,0.3 0.1,0.3 0,0.3 0.1,0.3 0,0.3 0.1,0.3 0,0.3 0.1,0.3 0,0.3 0.1,0.3 0,0.3 0.1,0.3 0,0.3 0.1,0.4 0,0.3 0.1,0.3 0,0.3 0.1,0.3 0.1,0.4 0,0.3 0.1,0.3 0,0.3 0.1,0.4 0,0.3 0.1,0.3 0,0.4 0.1,0.3 0,0.3 0.1,0.4 0,0.3 0.1,0.4 0,0.3 0.1,0.3 0,0.4 0.1,0.3 0,0.4 0.1,0.3 0,0.4 0.1,0.3 0,0.4 0.1,0.3 0,0.4 0.1,0.3 0.1,0.4 0,0.4 0.1,0.3 0,0.4 0.1,0.3 0,0.4 0.1,0.4 0,0.3 0.1,0.4 0,0.4 0.1,0.3 0,0.4 0.1,0.4 0,0.4 0.1,0.3 0,0.4 0.1,0.4 0,0.4 0.1,0.4 0,0.3 0.1,0.4 0,0.4 0.1,0.4 0.1,0.4 0,0.4 0.1,0.4 0,0.4 0.1,0.3 0,0.4 0.1,0.4 0,0.4 0.1,0.4 0,0.4 0.1,0.4 0,0.4 0.1,0.4 0,0.4 0.1,0.4 0,0.4 0.1,0.4 0,0.5 0.1,0.4 0,0.4 0.1,0.4 0,0.4 0.1,0.4 0.1,0.4 0,0.4 0.1,0.5 0,0.4 0.1,0.4 0,0.4 0.1,0.4 0,0.5 0.1,0.4 0,0.4 0.1,0.5 0,0.4 0.1,0.4 0,0.4 0.1,0.5 0,0.4 0.1,0.4 0,0.5 0.1,0.4 0,0.4 0.1,0.5 0,0.4 0.1,0.5 0.1,0.4 0,0.4 0.1,0.5 0,0.4 0.1,0.5 0,0.4 0.1,0.5 0,0.4 0.1,0.5 0,0.4 0.1,0.5 0,0.4 0.1,0.5 0,0.4 0.1,0.5 0,0.5 0.1,0.4 0,0.5 0.1,0.4 0,0.5 0.1,0.5 0,0.4 0.1,0.5 0,0.5 0.1,0.4 0.1,0.5 0,0.5 0.1,0.4 0,0.5 0.1,0.5 0,0.4 0.1,0.5 0,0.5 0.1,0.5 0,0.4 0.1,0.5 0,0.5 0.1,0.5 0,0.5 0.1,0.4 0,0.5 0.1,0.5 0,0.5 0.1,0.5 0,0.5 0.1,0.4 0,0.5 0.1,0.5 0.1,0.5 0,0.5 0.1,0.5 0,0.5 0.1,0.5 0,0.5 0.1,0.5 0,0.5 0.1,0.5 0,0.5 0.1,0.5 0,0.5 0.1,0.5 0,0.5 0.1,0.5 0,0.5 0.1,0.5 0,0.5 0.1,0.5 0,0.5 0.1,0.5 0,0.5 0.1,0.5 0.1,0.5 0,0.5 0.1,0.5 0,0.5 0.1,0.5 0,0.6 0.1,0.5 0,0.5 0.1,0.5 0,0.5 0.1,0.5 0,0.6 0.1,0.5 0,0.5 0.1,0.5 0,0.5 0.1,0.6 0,0.5 0.1,0.5 0,0.5 0.1,0.5 0,0.6 0.1,0.5 0,0.5 0.1,0.5 0.1,0.6 0,0.5 0.1,0.5 0,0.6 0.1,0.5 0,0.5 0.1,0.6 0,0.5 0.1,0.5 0,0.6 0.1,0.5 0,0.5 0.1,0.6 0,0.5 0.1,0.5 0,0.6 0.1,0.5 0,0.5 0.1,0.6 0,0.5 0.1,0.6 0,0.5 0.1,0.5 0.1,0.6 0,0.5 0.1,0.6 0,0.5 0.1,0.6 0,0.5 0.1,0.6 0,0.5 0.1,0.5 0,0.6 0.1,0.5 0,0.6 0.1,0.5 0,0.6 0.1,0.5 0,0.6 0.1,0.5 0,0.6 0.1,0.5 0,0.6 0.1,0.6 0,0.5 0.1,0.6 0.1,0.5 0,0.6 0.1,0.5 0,0.6 0.1,0.5 0,0.6 0.1,0.6 0,0.5 0.1,0.6 0,0.5 0.1,0.6 0,0.5 0.1,0.6 0,0.6 0.1,0.5 0,0.6 0.1,0.5 0,0.6 0.1,0.6 0,0.5 0.1,0.6 0,0.6 0.1,0.5 0,0.6 0.1,0.6 0.1,0.5 0,0.6 0.1,0.6 0,0.5 0.1,0.6 0,0.6 0.1,0.5 0,0.6 0.1,0.6 0,0.5 0.1,0.6 0,0.6 0.1,0.5 0,0.6 0.1,0.6 0,0.5 0.1,0.6 0,0.6 0.1,0.6 0,0.5 0.1,0.6 0,0.6 0.1,0.5 0.1,0.6 0,0.6 0.1,0.6 0,0.5 0.1,0.6 0,0.6 0.1,0.5 0,0.6 0.1,0.6 0,0.6 0.1,0.5 0,0.6 0.1,0.6 0,0.6 0.1,0.5 0,0.6 0.1,0.6 0,0.6 0.1,0.5 0,0.6 0.1,0.6 0,0.6 0.1,0.6 0.1,0.5 0,0.6 0.1,0.6 0,0.6 0.1,0.5 0,0.6 0.1,0.6 0,0.6 0.1,0.6 0,0.5 0.1,0.6 0,0.6 0.1,0.6 0,0.5 0.1,0.6 0,0.6 0.1,0.6 0,0.6 0.1,0.5 0,0.6 0.1,0.6 0,0.6 0.1,0.6 0,0.5 0.1,0.6 0.1,0.6 0,0.6 0.1,0.6 0,0.5 0.1,0.6 0,0.6 0.1,0.6 0,0.5 0.1,0.6 0,0.6 0.1,0.6 0,0.6 0.1,0.5 0,0.6 0.1,0.6 0,0.6 0.1,0.6 0,0.5 0.1,0.6 0,0.6 0.1,0.6 0,0.6 0.1,0.5 0.1,0.6 0,0.6 0.1,0.6 0,0.6 0.1,0.5 0,0.6 0.1,0.6 0,0.6 0.1,0.5 0,0.6 0.1,0.6 0,0.6 0.1,0.6 0,0.5 0.1,0.6 0,0.6 0.1,0.6 0,0.5 0.1,0.6 0,0.6 0.1,0.6 0,0.6 0.1,0.5 0.1,0.6 0,0.6 0.1,0.6 0,0.5 0.1,0.6 0,0.6 0.1,0.6 0,0.5 0.1,0.6 0,0.6 0.1,0.6 0,0.5 0.1,0.6 0,0.6 0.1,0.5 0,0.6 0.1,0.6 0,0.6 0.1,0.5 0,0.6 0.1,0.6 0,0.6 0.1,0.5 0,0.6 0.1,0.6 0.1,0.5 0,0.6 0.1,0.6 0,0.5 0.1,0.6 0,0.6 0.1,0.6 0,0.5 0.1,0.6 0,0.6 0.1,0.5 0,0.6 0.1,0.6 0,0.5 0.1,0.6 0,0.6 0.1,0.5 0,0.6 0.1,0.6 0,0.5 0.1,0.6 0,0.5 0.1,0.6 0.1,0.6 0,0.5 0.1,0.6 0,0.6 0.1,0.5 0,0.6 0.1,0.5 0,0.6 0.1,0.6 0,0.5 0.1,0.6 0,0.5 0.1,0.6 0,0.6 0.1,0.5 0,0.6 0.1,0.5 0,0.6 0.1,0.5 0,0.6 0.1,0.6 0,0.5 0.1,0.6 0.1,0.5 0,0.6 0.1,0.5 0,0.6 0.1,0.5 0,0.6 0.1,0.5 0,0.6 0.1,0.5 0,0.6 0.1,0.5 0,0.6 0.1,0.5 0,0.6 0.1,0.5 0,0.6 0.1,0.5 0,0.5 0.1,0.6 0,0.5 0.1,0.6 0,0.5 0.1,0.6 0,0.5 0.1,0.5 0.1,0.6 0,0.5 0.1,0.6 0,0.5 0.1,0.5 0,0.6 0.1,0.5 0,0.5 0.1,0.6 0,0.5 0.1,0.6 0,0.5 0.1,0.5 0,0.6 0.1,0.5 0,0.5 0.1,0.5 0,0.6 0.1,0.5 0,0.5 0.1,0.6 0,0.5 0.1,0.5 0.1,0.5 0,0.6 0.1,0.5 0,0.5 0.1,0.5 0,0.6 0.1,0.5 0,0.5 0.1,0.5 0,0.6 0.1,0.5 0,0.5 0.1,0.5 0,0.5 0.1,0.5 0,0.6 0.1,0.5 0,0.5 0.1,0.5 0,0.5 0.1,0.5 0,0.5 0.1,0.6 0.1,0.5 0,0.5 0.1,0.5 0,0.5 0.1,0.5 0,0.5 0.1,0.5 0,0.5 0.1,0.5 0,0.5 0.1,0.5 0,0.5 0.1,0.5 0,0.5 0.1,0.5 0,0.5 0.1,0.5 0,0.5 0.1,0.5 0,0.5 0.1,0.5 0,0.5 0.1,0.5 0,0.5 0.1,0.5 0.1,0.5 0,0.5 0.1,0.5 0,0.5 0.1,0.4 0,0.5 0.1,0.5 0,0.5 0.1,0.5 0,0.5 0.1,0.5 0,0.4 0.1,0.5 0,0.5 0.1,0.5 0,0.5 0.1,0.4 0,0.5 0.1,0.5 0,0.5 0.1,0.4 0,0.5 0.1,0.5 0.1,0.5 0,0.4 0.1,0.5 0,0.5 0.1,0.4 0,0.5 0.1,0.5 0,0.4 0.1,0.5 0,0.5 0.1,0.4 0,0.5 0.1,0.5 0,0.4 0.1,0.5 0,0.4 0.1,0.5 0,0.4 0.1,0.5 0,0.5 0.1,0.4 0,0.5 0.1,0.4 0.1,0.5 0,0.4 0.1,0.5 0,0.4 0.1,0.5 0,0.4 0.1,0.5 0,0.4 0.1,0.4 0,0.5 0.1,0.4 0,0.5 0.1,0.4 0,0.4 0.1,0.5 0,0.4 0.1,0.5 0,0.4 0.1,0.4 0,0.5 0.1,0.4 0,0.4 0.1,0.4 0,0.5 0.1,0.4 0.1,0.4 0,0.5 0.1,0.4 0,0.4 0.1,0.4 0,0.5 0.1,0.4 0,0.4 0.1,0.4 0,0.4 0.1,0.4 0,0.5 0.1,0.4 0,0.4 0.1,0.4 0,0.4 0.1,0.4 0,0.4 0.1,0.4 0,0.5 0.1,0.4 0,0.4 0.1,0.4 0.1,0.4 0,0.4 0.1,0.4 0,0.4 0.1,0.4 0,0.4 0.1,0.4 0,0.4 0.1,0.4 0,0.4 0.1,0.3 0,0.4 0.1,0.4 0,0.4 0.1,0.4 0,0.4 0.1,0.4 0,0.4 0.1,0.4 0,0.3 0.1,0.4 0,0.4 0.1,0.4 0.1,0.4 0,0.3 0.1,0.4 0,0.4 0.1,0.4 0,0.3 0.1,0.4 0,0.4 0.1,0.4 0,0.3 0.1,0.4 0,0.4 0.1,0.3 0,0.4 0.1,0.4 0,0.3 0.1,0.4 0,0.3 0.1,0.4 0,0.4 0.1,0.3 0,0.4 0.1,0.3 0.1,0.4 0,0.3 0.1,0.4 0,0.3 0.1,0.4 0,0.3 0.1,0.4 0,0.3 0.1,0.4 0,0.3 0.1,0.3 0,0.4 0.1,0.3 0,0.4 0.1,0.3 0,0.3 0.1,0.4 0,0.3 0.1,0.3 0,0.4 0.1,0.3 0,0.3 0.1,0.4 0,0.3 0.1,0.3 0.1,0.3 0,0.4 0.1,0.3 0,0.3 0.1,0.3 0,0.4 0.1,0.3 0,0.3 0.1,0.3 0,0.3 0.1,0.3 0,0.4 0.1,0.3 0,0.3 0.1,0.3 0,0.3 0.1,0.3 0,0.3 0.1,0.3 0,0.3 0.1,0.3 0,0.3 0.1,0.3 0.1,0.3 0,0.3 0.1,0.3 0,0.3 0.1,0.3 0,0.3 0.1,0.3 0,0.3 0.1,0.3 0,0.2 0.1,0.3 0,0.3 0.1,0.3 0,0.3 0.1,0.3 0,0.2 0.1,0.3 0,0.3 0.1,0.3 0,0.3 0.1,0.2 0,0.3 0.1,0.3 0.1,0.3 0,0.2 0.1,0.3 0,0.3 0.1,0.2 0,0.3 0.1,0.3 0,0.2 0.1,0.3 0,0.2 0.1,0.3 0,0.3 0.1,0.2 0,0.3 0.1,0.2 0,0.3 0.1,0.2 0,0.3 0.1,0.2 0,0.3 0.1,0.2 0,0.3 0.1,0.2 0,0.3 0.1,0.2 0.1,0.3 0,0.2 0.1,0.2 0,0.3 0.1,0.2 0,0.3 0.1,0.2 0,0.2 0.1,0.3 0,0.2 0.1,0.2 0,0.2 0.1,0.3 0,0.2 0.1,0.2 0,0.2 0.1,0.3 0,0.2 0.1,0.2 0,0.2 0.1,0.3 0,0.2 0.1,0.2 0.1,0.2 0,0.2 0.1,0.2 0,0.2 0.1,0.2 0,0.3 0.1,0.2 0,0.2 0.1,0.2 0,0.2 0.1,0.2 0,0.2 0.1,0.2 0,0.2 0.1,0.2 0,0.2 0.1,0.2 0,0.2 0.1,0.2 0,0.2 0.1,0.1 0,0.2 0.1,0.2 0.1,0.2 0,0.2 0.1,0.2 0,0.2 0.1,0.1 0,0.2 0.1,0.2 0,0.2 0.1,0.2 0,0.1 0.1,0.2 0,0.2 0.1,0.2 0,0.1 0.1,0.2 0,0.2 0.1,0.1 0,0.2 0.1,0.2 0,0.1 0.1,0.2 0,0.2 0.1,0.1 0,0.2 0.1,0.2 0.1,0.1 0,0.2 0.1,0.1 0,0.2 0.1,0.1 0,0.2 0.1,0.1 0,0.2 0.1,0.1 0,0.2 0.1,0.1 0,0.2 0.1,0.1 0,0.2 0.1,0.1 0,0.1 0.1,0.2 0,0.1 0.1,0.2 0,0.1 0.1,0.1 0,0.2 0.1,0.1 0.1,0.1 0,0.2 0.1,0.1 0,0.1 0.1,0.2 0,0.1 0.1,0.1 0,0.1 0.1,0.1 0,0.2 0.1,0.1 0,0.1 0.1,0.1 0,0.1 0.1,0.2 0,0.1 0.1,0.1 0,0.1 0.1,0.1 0,0.1 0.1,0.1 0,0.1 0.1,0.1 0.1,0.2 0,0.1 0.1,0.1 0,0.1 0.1,0.1 0,0.1 0.1,0.1 0,0.1 0.1,0.1 0,0.1 0.1,0.1 0.1,0.1 0,0.1 0.1,0.1 0,0.1 0.1,0.1 0,0.1 0.1,0.1 0,0.1 0.1,0 0,0.1 0.1,0.1 0,0.1 0.1,0.1 0.1,0 0,0.1 0.1,0.1 0,0.1 0.1,0 0,0.1 0.1,0.1 0,0.1 0.1,0 0,0.1 0.1,0.1 0.1,0.1 0,0.1 0.1,0 0,0.1 0.1,0.1 0.1,0.1 0.1,0.1 0.1,0.1 0.1,0.1 0.1,0.1 0.1,0.1 0.1,0.1 0.1,0.1 0.1,0 0,0.1 0.1,0 0,0.1 0.1,0 0.1,0.1 0.1,0.1 0.1,0 0,0.1 0.1,0 0.1,0 0,0.1 0.1,0 0.1,0 0,0.1 0.1,0 0.1,0 0,0.1 0.1,0 0.1,0 0.1,0.1 0.1,0 0.1,0 0.1,0 0.1,0.1 0.1,0 0.1,0 0.1,0 0.1,0 0.1,0 0.1,0 0.1,0 0.1,0 0.1,0 0.1,0 0.1,-0.1 0.1,0 0.1,0 0.1,0 0.1,-0.1 0.1,0 0.1,0 0.1,-0.1 0.1,0 0.1,-0.1 0.1,0 0.1,-0.1 0.1,0 0,-0.1 0.1,0 0.1,-0.1 0.1,0 0.1,-0.1 0.1,0 0,-0.1 0.1,0 0.1,-0.1 0.1,-0.1 0.1,-0.1 0.1,0 0,-0.1 0.1,0 0,-0.1 0.1,0 0,-0.1 0.1,0 0,-0.1 0.1,0 0,-0.1 0.1,0 0.1,-0.1 0.1,-0.1 0,-0.1 0.1,0 0,-0.1 0.1,0 0,-0.1 0.1,0 0,-0.1 0.1,-0.1 0.1,-0.1 0,-0.1 0.1,0 0,-0.1 0.1,-0.1 0.1,-0.1 0,-0.1 0.1,0 0,-0.1 0.1,-0.1 0.1,0 0,-0.1 0.1,-0.1 0.1,-0.1 0,-0.1 0.1,-0.1 0.1,-0.1 0,-0.1 0.1,-0.1 0,-0.1 0.1,0 0,-0.1 0.1,-0.1 0,-0.1 0.1,-0.1 0.1,-0.1 0,-0.1 0.1,-0.1 0,-0.1 0.1,-0.1 0.1,0 0,-0.1 0.1,-0.1 0,-0.1 0.1,-0.1 0,-0.1 0.1,-0.1 0,-0.1 0.1,0 0,-0.1 0.1,-0.1 0,-0.1 0.1,-0.1 0,-0.1 0.1,-0.1 0,-0.1 0.1,-0.1 0,-0.1 0.1,-0.1 0,-0.1 0.1,-0.1 0,-0.1 0.1,-0.1 0,-0.1 0.1,-0.1 0.1,-0.1 0,-0.1 0.1,-0.1 0,-0.1 0.1,-0.1 0,-0.1 0.1,-0.1 0,-0.1 0.1,-0.1 0,-0.1 0.1,-0.1 0,-0.1 0.1,-0.1 0,-0.1 0.1,-0.1 0,-0.2 0.1,-0.1 0,-0.1 0.1,-0.1 0,-0.1 0.1,-0.1 0,-0.1 0.1,-0.1 0.1,-0.1 0,-0.2 0.1,-0.1 0,-0.1 0.1,-0.1 0,-0.1 0.1,-0.1 0,-0.1 0.1,-0.2 0,-0.1 0.1,-0.1 0,-0.1 0.1,-0.1 0,-0.2 0.1,-0.1 0,-0.1 0.1,-0.1 0,-0.1 0.1,-0.2 0,-0.1 0.1,-0.1 0,-0.1 0.1,-0.1 0.1,-0.2 0,-0.1 0.1,-0.1 0,-0.1 0.1,-0.2 0,-0.1 0.1,-0.1 0,-0.1 0.1,-0.2 0,-0.1 0.1,-0.1 0,-0.1 0.1,-0.2 0,-0.1 0.1,-0.1 0,-0.2 0.1,-0.1 0,-0.1 0.1,-0.1 0,-0.2 0.1,-0.1 0,-0.1 0.1,-0.2 0.1,-0.1 0,-0.1 0.1,-0.2 0,-0.1 0.1,-0.1 0,-0.2 0.1,-0.1 0,-0.1 0.1,-0.2 0,-0.1 0.1,-0.1 0,-0.2 0.1,-0.1 0,-0.1 0.1,-0.2 0,-0.1 0.1,-0.2 0,-0.1 0.1,-0.1 0,-0.2 0.1,-0.1 0,-0.1 0.1,-0.2 0,-0.1 0.1,-0.2 0.1,-0.1 0,-0.1 0.1,-0.2 0,-0.1 0.1,-0.2 0,-0.1 0.1,-0.1 0,-0.2 0.1,-0.1 0,-0.2 0.1,-0.1 0,-0.1 0.1,-0.2 0,-0.1 0.1,-0.2 0,-0.1 0.1,-0.2 0,-0.1 0.1,-0.1 0,-0.2 0.1,-0.1 0,-0.2 0.1,-0.1 0.1,-0.2 0,-0.1 0.1,-0.2 0,-0.1 0.1,-0.2 0,-0.1 0.1,-0.1 0,-0.2 0.1,-0.1 0,-0.2 0.1,-0.1 0,-0.2 0.1,-0.1 0,-0.2 0.1,-0.1 0,-0.2 0.1,-0.1 0,-0.2 0.1,-0.1 0,-0.2 0.1,-0.1 0,-0.2 0.1,-0.1 0.1,-0.1 0,-0.2 0.1,-0.1 0,-0.2 0.1,-0.1 0,-0.2 0.1,-0.1 0,-0.2 0.1,-0.1 0,-0.2 0.1,-0.1 0,-0.2 0.1,-0.1 0,-0.2 0.1,-0.1 0,-0.2 0.1,-0.1 0,-0.2 0.1,-0.1 0,-0.2 0.1,-0.1 0,-0.2 0.1,-0.1 0,-0.2 0.1,-0.1 0.1,-0.2 0,-0.1 0.1,-0.2 0,-0.1 0.1,-0.2 0,-0.2 0.1,-0.1 0,-0.2 0.1,-0.1 0,-0.2 0.1,-0.1 0,-0.2 0.1,-0.1 0,-0.2 0.1,-0.1 0,-0.2 0.1,-0.1 0,-0.2 0.1,-0.1 0,-0.2 0.1,-0.1 0,-0.2 0.1,-0.1 0.1,-0.2 0,-0.1 0.1,-0.2 0,-0.1 0.1,-0.2 0,-0.1 0.1,-0.2 0,-0.1 0.1,-0.2 0,-0.1 0.1,-0.2 0,-0.1 0.1,-0.2 0,-0.1 0.1,-0.2 0,-0.1 0.1,-0.2 0,-0.1 0.1,-0.2 0,-0.1 0.1,-0.2 0,-0.1 0.1,-0.2 0.1,-0.1 0,-0.2 0.1,-0.1 0,-0.2 0.1,-0.1 0,-0.2 0.1,-0.1 0,-0.2 0.1,-0.1 0,-0.2 0.1,-0.1 0,-0.2 0.1,-0.1 0,-0.2 0.1,-0.1 0,-0.2 0.1,-0.1 0,-0.2 0.1,-0.1 0,-0.2 0.1,-0.1 0,-0.2 0.1,-0.1 0,-0.2 0.1,-0.1 0.1,-0.2 0,-0.1 0.1,-0.2 0,-0.1 0.1,-0.2 0,-0.1 0.1,-0.2 0,-0.1 0.1,-0.2 0,-0.1 0.1,-0.1 0,-0.2 0.1,-0.1 0,-0.2 0.1,-0.1 0,-0.2 0.1,-0.1 0,-0.2 0.1,-0.1 0,-0.2 0.1,-0.1 0,-0.1 0.1,-0.2 0.1,-0.1 0,-0.2 0.1,-0.1 0,-0.2 0.1,-0.1 0,-0.1 0.1,-0.2 0,-0.1 0.1,-0.2 0,-0.1 0.1,-0.2 0,-0.1 0.1,-0.1 0,-0.2 0.1,-0.1 0,-0.2 0.1,-0.1 0,-0.1 0.1,-0.2 0,-0.1 0.1,-0.2 0,-0.1 0.1,-0.1 0.1,-0.2 0,-0.1 0.1,-0.2 0,-0.1 0.1,-0.1 0,-0.2 0.1,-0.1 0,-0.1 0.1,-0.2 0,-0.1 0.1,-0.1 0,-0.2 0.1,-0.1 0,-0.2 0.1,-0.1 0,-0.1 0.1,-0.2 0,-0.1 0.1,-0.1 0,-0.2 0.1,-0.1 0,-0.1 0.1,-0.2 0,-0.1 0.1,-0.1 0.1,-0.2 0,-0.1 0.1,-0.1 0,-0.1 0.1,-0.2 0,-0.1 0.1,-0.1 0,-0.2 0.1,-0.1 0,-0.1 0.1,-0.2 0,-0.1 0.1,-0.1 0,-0.1 0.1,-0.2 0,-0.1 0.1,-0.1 0,-0.1 0.1,-0.2 0,-0.1 0.1,-0.1 0,-0.1 0.1,-0.2 0.1,-0.1 0,-0.1 0.1,-0.1 0,-0.2 0.1,-0.1 0,-0.1 0.1,-0.1 0,-0.2 0.1,-0.1 0,-0.1 0.1,-0.1 0,-0.1 0.1,-0.2 0,-0.1 0.1,-0.1 0,-0.1 0.1,-0.1 0,-0.1 0.1,-0.2 0,-0.1 0.1,-0.1 0,-0.1 0.1,-0.1 0.1,-0.1 0,-0.2 0.1,-0.1 0,-0.1 0.1,-0.1 0,-0.1 0.1,-0.1 0,-0.1 0.1,-0.2 0,-0.1 0.1,-0.1 0,-0.1 0.1,-0.1 0,-0.1 0.1,-0.1 0,-0.1 0.1,-0.1 0,-0.2 0.1,-0.1 0,-0.1 0.1,-0.1 0,-0.1 0.1,-0.1 0,-0.1 0.1,-0.1 0.1,-0.1 0,-0.1 0.1,-0.1 0,-0.1 0.1,-0.1 0,-0.1 0.1,-0.1 0,-0.1 0.1,-0.1 0,-0.1 0.1,-0.1 0,-0.1 0.1,-0.1 0,-0.1 0.1,-0.1 0,-0.1 0.1,-0.1 0,-0.1 0.1,-0.1 0,-0.1 0.1,-0.1 0,-0.1 0.1,-0.1 0.1,-0.1 0,-0.1 0.1,-0.1 0,-0.1 0.1,-0.1 0,-0.1 0.1,-0.1 0,-0.1 0.1,0 0,-0.1 0.1,-0.1 0,-0.1 0.1,-0.1 0,-0.1 0.1,-0.1 0,-0.1 0.1,-0.1 0.1,-0.1 0,-0.1 0.1,-0.1 0,-0.1 0.1,-0.1 0.1,-0.1 0.1,-0.1 0,-0.1 0.1,-0.1 0,-0.1 0.1,0 0,-0.1 0.1,-0.1 0,-0.1 0.1,-0.1 0.1,-0.1 0,-0.1 0.1,-0.1 0,-0.1 0.1,0 0,-0.1 0.1,-0.1 0,-0.1 0.1,0 0,-0.1 0.1,-0.1 0.1,-0.1 0.1,-0.1 0,-0.1 0.1,0 0,-0.1 0.1,-0.1 0.1,-0.1 0,-0.1 0.1,0 0,-0.1 0.1,-0.1 0.1,-0.1 0,-0.1 0.1,0 0,-0.1 0.1,-0.1 0.1,-0.1 0.1,-0.1 0,-0.1 0.1,0 0.1,-0.1 0.1,-0.1 0,-0.1 0.1,0 0,-0.1 0.1,0 0,-0.1 0.1,0 0,-0.1 0.1,0 0,-0.1 0.1,0 0,-0.1 0.1,0 0,-0.1 0.1,0 0,-0.1 0.1,0 0,-0.1 0.1,0 0,-0.1 0.1,0 0.1,-0.1 0.1,-0.1 0.1,-0.1 0.1,-0.1 0.1,0 0,-0.1 0.1,0 0,-0.1 0.1,0 0.1,-0.1 0.1,-0.1 0.1,0 0,-0.1 0.1,0 0.1,-0.1 0.1,0 0.1,-0.1 0.1,0 0,-0.1 0.1,0 0.1,-0.1 0.1,0 0.1,-0.1 0.1,0 0.1,-0.1 0.1,0 0.1,-0.1 0.1,0 0.1,-0.1 0.1,0 0.1,0 0.1,0 0,-0.1 0.1,0 0.1,0 0.1,0 0,-0.1 0.1,0 0.1,0 0.1,0 0.1,0 0.1,-0.1 0.1,0 0.1,0 0.1,0 0.1,0 0.1,0 0.1,0 0.1,0 0.1,0 0.1,0 0.1,0 0.1,0 0.1,0 0.1,0 0.1,0 0.1,0 0.1,0 0,0.1 0.1,0 0.1,0 0.1,0 0.1,0 0.1,0.1 0.1,0 0.1,0 0.1,0 0,0.1 0.1,0 0.1,0 0.1,0 0,0.1 0.1,0 0.1,0 0.1,0.1 0.1,0 0.1,0.1 0.1,0 0.1,0.1 0.1,0 0.1,0.1 0.1,0 0,0.1 0.1,0 0.1,0 0,0.1 0.1,0 0.1,0.1 0.1,0 0,0.1 0.1,0 0.1,0.1 0.1,0.1 0.1,0 0,0.1 0.1,0 0.1,0.1 0.1,0.1 0.1,0.1 0.1,0 0.1,0.1 0.1,0.1 0.1,0.1 0.1,0.1 0.1,0.1 0.1,0.1 0.1,0.1 0.1,0.1 0.1,0.1 0.1,0.1 0.1,0.1 0.1,0.1 0.1,0 0,0.1 0.1,0.1 0.1,0.1 0.1,0.1 0,0.1 0.1,0 0,0.1 0.1,0 0,0.1 0.1,0.1 0.1,0.1 0.1,0.1 0,0.1 0.1,0 0,0.1 0.1,0.1 0.1,0.1 0.1,0.1 0.1,0.1 0,0.1 0.1,0 0,0.1 0.1,0.1 0.1,0.1 0,0.1 0.1,0 0,0.1 0.1,0.1 0,0.1 0.1,0 0,0.1 0.1,0.1 0,0.1 0.1,0 0,0.1 0.1,0.1 0,0.1 0.1,0 0.1,0.1 0,0.1 0.1,0.1 0.1,0.1 0,0.1 0.1,0.1 0,0.1 0.1,0 0,0.1 0.1,0.1 0,0.1 0.1,0.1 0.1,0.1 0,0.1 0.1,0.1 0,0.1 0.1,0.1 0.1,0.1 0,0.1 0.1,0.1 0,0.1 0.1,0.1 0.1,0.1 0.1,0.1 0,0.1 0.1,0.1 0,0.1 0.1,0.1 0,0.1 0.1,0.1 0,0.1 0.1,0 0,0.1 0.1,0.1 0,0.1 0.1,0.1 0,0.1 0.1,0.1 0,0.1 0.1,0.1 0,0.1 0.1,0.1 0,0.1 0.1,0.1 0.1,0.1 0.1,0.1 0,0.1 0.1,0.1 0,0.1 0.1,0.1 0,0.1 0.1,0.1 0,0.1 0.1,0.1 0,0.1 0.1,0.1 0,0.1 0.1,0.1 0,0.1 0.1,0.1 0,0.1 0.1,0.1 0,0.1 0.1,0.1 0,0.1 0.1,0.1 0.1,0.1 0,0.1 0.1,0.1 0,0.1 0.1,0.1 0,0.2 0.1,0.1 0,0.1 0.1,0.1 0,0.1 0.1,0.1 0,0.1 0.1,0.1 0,0.1 0.1,0.1 0,0.1 0.1,0.1 0,0.1 0.1,0.1 0,0.1 0.1,0.2 0,0.1 0.1,0.1 0,0.1 0.1,0.1 0.1,0.1 0,0.1 0.1,0.1 0,0.1 0.1,0.1 0,0.2 0.1,0.1 0,0.1 0.1,0.1 0,0.1 0.1,0.1 0,0.1 0.1,0.1 0,0.2 0.1,0.1 0,0.1 0.1,0.1 0,0.1 0.1,0.1 0,0.1 0.1,0.2 0,0.1 0.1,0.1 0.1,0.1 0,0.1 0.1,0.1 0,0.2 0.1,0.1 0,0.1 0.1,0.1 0,0.1 0.1,0.1 0,0.2 0.1,0.1 0,0.1 0.1,0.1 0,0.1 0.1,0.2 0,0.1 0.1,0.1 0,0.1 0.1,0.1 0,0.1 0.1,0.2 0,0.1 0.1,0.1 0.1,0.1 0,0.2 0.1,0.1 0,0.1 0.1,0.1 0,0.1 0.1,0.2 0,0.1 0.1,0.1 0,0.1 0.1,0.1 0,0.2 0.1,0.1 0,0.1 0.1,0.1 0,0.2 0.1,0.1 0,0.1 0.1,0.1 0,0.2 0.1,0.1 0,0.1 0.1,0.1 0,0.2 0.1,0.1 0.1,0.1 0,0.1 0.1,0.2 0,0.1 0.1,0.1 0,0.1 0.1,0.2 0,0.1 0.1,0.1 0,0.1 0.1,0.2 0,0.1 0.1,0.1 0,0.1 0.1,0.2 0,0.1 0.1,0.1 0,0.1 0.1,0.2 0,0.1 0.1,0.1 0,0.1 0.1,0.2 0.1,0.1 0,0.1 0.1,0.2 0,0.1 0.1,0.1 0,0.1 0.1,0.2 0,0.1 0.1,0.1 0,0.2 0.1,0.1 0,0.1 0.1,0.1 0,0.2 0.1,0.1 0,0.1 0.1,0.2 0,0.1 0.1,0.1 0,0.1 0.1,0.2 0,0.1 0.1,0.1 0.1,0.2 0,0.1 0.1,0.1 0,0.1 0.1,0.2 0,0.1 0.1,0.1 0,0.2 0.1,0.1 0,0.1 0.1,0.2 0,0.1 0.1,0.1 0,0.1 0.1,0.2 0,0.1 0.1,0.1 0,0.2 0.1,0.1 0,0.1 0.1,0.2 0,0.1 0.1,0.1 0,0.1 0.1,0.2 0.1,0.1 0,0.1 0.1,0.2 0,0.1 0.1,0.1 0,0.2 0.1,0.1 0,0.1 0.1,0.1 0,0.2 0.1,0.1 0,0.1 0.1,0.2 0,0.1 0.1,0.1 0,0.2 0.1,0.1 0,0.1 0.1,0.1 0,0.2 0.1,0.1 0,0.1 0.1,0.2 0.1,0.1 0,0.1 0.1,0.1 0,0.2 0.1,0.1 0,0.1 0.1,0.2 0,0.1 0.1,0.1 0,0.2 0.1,0.1 0,0.1 0.1,0.1 0,0.2 0.1,0.1 0,0.1 0.1,0.2 0,0.1 0.1,0.1 0,0.1 0.1,0.2 0,0.1 0.1,0.1 0.1,0.2 0,0.1 0.1,0.1 0,0.1 0.1,0.2 0,0.1 0.1,0.1 0,0.2 0.1,0.1 0,0.1 0.1,0.1 0,0.2 0.1,0.1 0,0.1 0.1,0.1 0,0.2 0.1,0.1 0,0.1 0.1,0.1 0,0.2 0.1,0.1 0,0.1 0.1,0.2 0,0.1 0.1,0.1 0.1,0.1 0,0.2 0.1,0.1 0,0.1 0.1,0.1 0,0.2 0.1,0.1 0,0.1 0.1,0.1 0,0.2 0.1,0.1 0,0.1 0.1,0.1 0,0.2 0.1,0.1 0,0.1 0.1,0.1 0,0.2 0.1,0.1 0,0.1 0.1,0.1 0,0.1 0.1,0.2 0.1,0.1 0,0.1 0.1,0.1 0,0.2 0.1,0.1 0,0.1 0.1,0.1 0,0.1 0.1,0.2 0,0.1 0.1,0.1 0,0.1 0.1,0.1 0,0.2 0.1,0.1 0,0.1 0.1,0.1 0,0.2 0.1,0.1 0,0.1 0.1,0.1 0,0.1 0.1,0.1 0.1,0.2 0,0.1 0.1,0.1 0,0.1 0.1,0.1 0,0.2 0.1,0.1 0,0.1 0.1,0.1 0,0.1 0.1,0.1 0,0.2 0.1,0.1 0,0.1 0.1,0.1 0,0.1 0.1,0.1 0,0.1 0.1,0.2 0,0.1 0.1,0.1 0,0.1 0.1,0.1 0,0.1 0.1,0.1 0.1,0.2 0,0.1 0.1,0.1 0,0.1 0.1,0.1 0,0.1 0.1,0.1 0,0.1 0.1,0.2 0,0.1 0.1,0.1 0,0.1 0.1,0.1 0,0.1 0.1,0.1 0,0.1 0.1,0.1 0,0.1 0.1,0.2 0,0.1 0.1,0.1 0,0.1 0.1,0.1 0.1,0.1 0,0.1 0.1,0.1 0,0.1 0.1,0.1 0,0.1 0.1,0.1 0,0.1 0.1,0.1 0,0.2 0.1,0.1 0,0.1 0.1,0.1 0,0.1 0.1,0.1 0,0.1 0.1,0.1 0,0.1 0.1,0.1 0,0.1 0.1,0.1 0,0.1 0.1,0.1 0.1,0.1 0,0.1 0.1,0.1 0,0.1 0.1,0.1 0,0.1 0.1,0.1 0,0.1 0.1,0.1 0,0.1 0.1,0.1 0,0.1 0.1,0.1 0,0.1 0.1,0.1 0,0.1 0.1,0.1 0,0.1 0.1,0.1 0,0.1 0.1,0.1 0,0.1 0.1,0 0.1,0.1 0,0.1 0.1,0.1 0,0.1 0.1,0.1 0,0.1 0.1,0.1 0,0.1 0.1,0.1 0,0.1 0.1,0.1 0,0.1 0.1,0 0,0.1 0.1,0.1 0,0.1 0.1,0.1 0,0.1 0.1,0.1 0,0.1 0.1,0.1 0.1,0.1 0,0.1 0.1,0.1 0.1,0.1 0,0.1 0.1,0.1 0.1,0.1 0,0.1 0.1,0.1 0,0.1 0.1,0.1 0.1,0.1 0,0.1 0.1,0.1 0,0.1 0.1,0.1 0.1,0.1 0,0.1 0.1,0.1 0,0.1 0.1,0 0,0.1 0.1,0.1 0.1,0.1 0.1,0.1 0,0.1 0.1,0.1 0.1,0.1 0,0.1 0.1,0.1 0.1,0.1 0,0.1 0.1,0.1 0.1,0.1 0,0.1 0.1,0.1 0.1,0.1 0,0.1 0.1,0 0,0.1 0.1,0.1 0.1,0.1 0.1,0.1 0,0.1 0.1,0 0,0.1 0.1,0.1 0.1,0.1 0,0.1 0.1,0 0,0.1 0.1,0.1 0.1,0.1 0.1,0.1 0,0.1 0.1,0 0,0.1 0.1,0.1 0.1,0.1 0.1,0.1 0.1,0.1 0.1,0.1 0.1,0.1 0.1,0.1 0,0.1 0.1,0 0,0.1 0.1,0 0,0.1 0.1,0 0,0.1 0.1,0 0,0.1 0.1,0.1 0.1,0.1 0.1,0.1 0.1,0.1 0.1,0 0,0.1 0.1,0 0,0.1 0.1,0 0,0.1 0.1,0 0,0.1 0.1,0 0,0.1 0.1,0 0.1,0.1 0.1,0.1 0.1,0.1 0.1,0.1 0.1,0 0,0.1 0.1,0 0.1,0.1 0.1,0 0,0.1 0.1,0 0,0.1 0.1,0 0.1,0.1 0.1,0.1 0.1,0 0,0.1 0.1,0 0.1,0.1 0.1,0 0,0.1 0.1,0 0.1,0.1 0.1,0 0.1,0.1 0.1,0 0.1,0.1 0.1,0 0,0.1 0.1,0 0.1,0 0,0.1 0.1,0 0.1,0 0,0.1 0.1,0 0.1,0 0,0.1 0.1,0 0.1,0 0.1,0.1 0.1,0 0.1,0 0,0.1 0.1,0 0.1,0 0.1,0 0,0.1 0.1,0 0.1,0 0.1,0 0,0.1 0.1,0 0.1,0 0.1,0 0.1,0 0.1,0.1 0.1,0 0.1,0 0.1,0 0.1,0 0.1,0 0.1,0.1 0.1,0 0.1,0 0.1,0 0.1,0 0.1,0 0.1,0 0.1,0 0.1,0 0.1,0 0.1,0 0.1,0 0.1,0 0.1,0 0.1,0 0.1,0 0.1,0 0,-0.1 0.1,0 0.1,0 0.1,0 0.1,0 0.1,0 0.1,0 0,-0.1 0.1,0 0.1,0 0.1,0 0.1,0 0.1,-0.1 0.1,0 0.1,0 0.1,0 0,-0.1 0.1,0 0.1,0 0.1,0 0,-0.1 0.1,0 0.1,0 0.1,-0.1 0.1,0 0.1,0 0,-0.1 0.1,0 0.1,0 0,-0.1 0.1,0 0.1,0 0.1,-0.1 0.1,0 0.1,-0.1 0.1,0 0.1,-0.1 0.1,0 0,-0.1 0.1,0 0.1,0 0,-0.1 0.1,0 0.1,-0.1 0.1,0 0,-0.1 0.1,0 0.1,0 0,-0.1 0.1,0 0.1,-0.1 0.1,0 0,-0.1 0.1,0 0.1,-0.1 0.1,0 0,-0.1 0.1,0 0,-0.1 0.1,0 0.1,-0.1 0.1,-0.1 0.1,0 0.1,-0.1 0.1,-0.1 0.1,0 0,-0.1 0.1,0 0,-0.1 0.1,0 0,-0.1 0.1,0 0.1,-0.1 0.1,-0.1 0.1,-0.1 0.1,-0.1 0.1,0 0,-0.1 0.1,0 0,-0.1 0.1,0 0.1,-0.1 0.1,-0.1 0.1,-0.1 0.1,-0.1 0.1,-0.1 0.1,-0.1 0.1,-0.1 0.1,-0.1 0.1,-0.1 0.1,-0.1 0,-0.1 0.1,0 0,-0.1 0.1,0 0.1,-0.1 0.1,-0.1 0.1,-0.1 0.1,-0.1 0,-0.1 0.1,0 0,-0.1 0.1,0 0,-0.1 0.1,0 0,-0.1 0.1,-0.1 0.1,-0.1 0.1,-0.1 0.1,-0.1 0,-0.1 0.1,0 0.1,-0.1 0.1,-0.1 0,-0.1 0.1,0 0,-0.1 0.1,-0.1 0.1,-0.1 0.1,-0.1 0,-0.1 0.1,0 0,-0.1 0.1,-0.1 0.1,-0.1 0.1,-0.1 0,-0.1 0.1,0 0,-0.1 0.1,-0.1 0.1,-0.1 0.1,-0.1 0.1,-0.1 0,-0.1 0.1,0 0,-0.1 0.1,-0.1 0.1,-0.1 0,-0.1 0.1,0 0,-0.1 0.1,-0.1 0.1,-0.1 0,-0.1 0.1,0 0,-0.1 0.1,-0.1 0.1,-0.1 0,-0.1 0.1,0 0.1,-0.1 0,-0.1 0.1,-0.1 0.1,-0.1 0,-0.1 0.1,0 0,-0.1 0.1,-0.1 0,-0.1 0.1,0 0,-0.1 0.1,-0.1 0.1,-0.1 0,-0.1 0.1,-0.1 0.1,-0.1 0,-0.1 0.1,0 0,-0.1 0.1,-0.1 0.1,-0.1 0.1,-0.1 0,-0.1 0.1,-0.1 0.1,-0.1 0,-0.1 0.1,-0.1 0.1,-0.1 0,-0.1 0.1,-0.1 0.1,-0.1 0,-0.1 0.1,-0.1 0.1,-0.1 0,-0.1 0.1,-0.1 0.1,-0.1 0,-0.1 0.1,-0.1 0.1,0 0,-0.1 0.1,-0.1 0,-0.1 0.1,-0.1 0.1,-0.1 0,-0.1 0.1,-0.1 0.1,-0.1 0,-0.1 0.1,-0.1 0.1,-0.1 0,-0.1 0.1,-0.1 0,-0.1 0.1,0 0,-0.1 0.1,-0.1 0,-0.1 0.1,-0.1 0.1,0 0,-0.1 0.1,-0.1 0,-0.1 0.1,0 0,-0.1 0.1,-0.1 0,-0.1 0.1,-0.1 0.1,-0.1 0,-0.1 0.1,-0.1 0,-0.1 0.1,0 0,-0.1 0.1,-0.1 0,-0.1 0.1,-0.1 0.1,-0.1 0,-0.1 0.1,-0.1 0.1,-0.1 0.1,-0.1 0,-0.1 0.1,-0.1 0,-0.1 0.1,0 0,-0.1 0.1,-0.1 0,-0.1 0.1,-0.1 0.1,-0.1 0,-0.1 0.1,-0.1 0,-0.1 0.1,0 0,-0.1 0.1,-0.1 0,-0.1 0.1,-0.1 0.1,-0.1 0.1,-0.1 0,-0.1 0.1,-0.1 0.1,-0.1 0,-0.1 0.1,-0.1 0,-0.1 0.1,0 0,-0.1 0.1,-0.1 0,-0.1 0.1,-0.1 0.1,-0.1 0,-0.1 0.1,-0.1 0,-0.1 0.1,0 0,-0.1 0.1,-0.1 0,-0.1 0.1,-0.1 0.1,-0.1 0.1,-0.1 0,-0.1 0.1,-0.1 0,-0.1 0.1,0 0,-0.1 0.1,-0.1 0,-0.1 0.1,-0.1 0.1,-0.1 0,-0.1 0.1,-0.1 0,-0.1 0.1,0 0,-0.1 0.1,-0.1 0,-0.1 0.1,0 0,-0.1 0.1,-0.1 0,-0.1 0.1,-0.1 0.1,0 0,-0.1 0.1,-0.1 0,-0.1 0.1,-0.1 0.1,-0.1 0,-0.1 0.1,-0.1 0,-0.1 0.1,0 0,-0.1 0.1,-0.1 0,-0.1 0.1,0 0,-0.1 0.1,-0.1 0,-0.1 0.1,-0.1 0.1,-0.1 0,-0.1 0.1,-0.1 0.1,-0.1 0.1,-0.1 0,-0.1 0.1,-0.1 0.1,-0.1 0,-0.1 0.1,-0.1 0.1,-0.1 0,-0.1 0.1,-0.1 0,-0.1 0.1,0 0,-0.1 0.1,-0.1 0,-0.1 0.1,0 0,-0.1 0.1,-0.1 0,-0.1 0.1,0 0,-0.1 0.1,-0.1 0.1,-0.1 0.1,-0.1 0,-0.1 0.1,-0.1 0.1,-0.1 0,-0.1 0.1,-0.1 0.1,-0.1 0,-0.1 0.1,0 0,-0.1 0.1,-0.1 0,-0.1 0.1,0 0,-0.1 0.1,-0.1 0,-0.1 0.1,0 0,-0.1 0.1,-0.1 0.1,0 0,-0.1 0.1,-0.1 0,-0.1 0.1,0 0,-0.1 0.1,-0.1 0.1,-0.1 0,-0.1 0.1,-0.1 0.1,-0.1 0,-0.1 0.1,0 0,-0.1 0.1,-0.1 0,-0.1 0.1,0 0,-0.1 0.1,-0.1 0.1,-0.1 0.1,-0.1 0.1,-0.1 0,-0.1 0.1,0 0,-0.1 0.1,-0.1 0.1,-0.1 0,-0.1 0.1,0 0,-0.1 0.1,-0.1 0.1,-0.1 0,-0.1 0.1,0 0,-0.1 0.1,-0.1 0.1,-0.1 0,-0.1 0.1,0 0,-0.1 0.1,0 0.1,-0.1 0,-0.1 0.1,0 0,-0.1 0.1,-0.1 0.1,-0.1 0,-0.1 0.1,0 0,-0.1 0.1,0 0,-0.1 0.1,-0.1 0.1,-0.1 0.1,-0.1 0,-0.1 0.1,0 0,-0.1 0.1,0 0,-0.1 0.1,-0.1 0.1,0 0,-0.1 0.1,0 0,-0.1 0.1,-0.1 0.1,-0.1 0.1,-0.1 0.1,-0.1 0,-0.1 0.1,0 0,-0.1 0.1,0 0,-0.1 0.1,0 0,-0.1 0.1,0 0,-0.1 0.1,-0.1 0.1,-0.1 0.1,0 0,-0.1 0.1,0 0,-0.1 0.1,0 0,-0.1 0.1,0 0,-0.1 0.1,0 0,-0.1 0.1,0 0,-0.1 0.1,0 0,-0.1 0.1,0 0,-0.1 0.1,0 0,-0.1 0.1,0 0,-0.1 0.1,0 0,-0.1 0.1,0 0,-0.1 0.1,0 0.1,-0.1 0.1,-0.1 0.1,-0.1 0.1,-0.1 0.1,0 0,-0.1 0.1,0 0,-0.1 0.1,0 0,-0.1 0.1,0 0,-0.1 0.1,0 0.1,-0.1 0.1,-0.1 0.1,-0.1 0.1,0 0.1,-0.1 0.1,-0.1 0.1,0 0,-0.1 0.1,0 0,-0.1 0.1,0 0.1,-0.1 0.1,0 0,-0.1 0.1,0 0,-0.1 0.1,0 0.1,-0.1 0.1,0 0.1,-0.1 0.1,0 0,-0.1 0.1,0 0.1,-0.1 0.1,0 0,-0.1 0.1,0 0.1,-0.1 0.1,0 0,-0.1 0.1,0 0.1,0 0,-0.1 0.1,0 0.1,-0.1 0.1,0 0.1,0 0,-0.1 0.1,0 0.1,-0.1 0.1,0 0.1,-0.1 0.1,0 0.1,-0.1 0.1,0 0.1,0 0,-0.1 0.1,0 0.1,0 0,-0.1 0.1,0 0.1,0 0.1,0 0,-0.1 0.1,0 0.1,0 0.1,-0.1 0.1,0 0.1,0 0.1,-0.1 0.1,0 0.1,0 0.1,0 0,-0.1 0.1,0 0.1,0 0.1,0 0.1,0 0,-0.1 0.1,0 0.1,0 0.1,0 0.1,0 0.1,0 0,-0.1 0.1,0 0.1,0 0.1,0 0.1,0 0.1,0 0.1,0 0.1,0 0.1,-0.1 0.1,0 0.1,0 0.1,0 0.1,0 0.1,0 0.1,0 0.1,0 0.1,0 0.1,0 0.1,0 0.1,0 0.1,0 0.1,0 0.1,0 0.1,0 0.1,0.1 0.1,0 0.1,0 0.1,0 0.1,0 0.1,0 0.1,0 0.1,0 0,0.1 0.1,0 0.1,0 0.1,0 0.1,0 0.1,0 0,0.1 0.1,0 0.1,0 0.1,0 0.1,0.1 0.1,0 0.1,0 0.1,0 0.1,0.1 0.1,0 0.1,0 0.1,0.1 0.1,0 0.1,0 0,0.1 0.1,0 0.1,0 0.1,0.1 0.1,0 0.1,0 0.1,0.1 0.1,0 0.1,0.1 0.1,0 0.1,0.1 0.1,0 0.1,0.1 0.1,0 0.1,0.1 0.1,0 0.1,0.1 0.1,0 0.1,0.1 0.1,0 0,0.1 0.1,0 0.1,0 0,0.1 0.1,0 0.1,0.1 0.1,0 0,0.1 0.1,0 0.1,0.1 0.1,0 0,0.1 0.1,0 0.1,0.1 0.1,0 0.1,0.1 0.1,0 0,0.1 0.1,0 0,0.1 0.1,0 0.1,0.1 0.1,0 0,0.1 0.1,0 0,0.1 0.1,0 0.1,0.1 0.1,0.1 0.1,0 0,0.1 0.1,0 0.1,0.1 0.1,0 0,0.1 0.1,0 0,0.1 0.1,0 0,0.1 0.1,0 0.1,0.1 0.1,0.1 0.1,0.1 0.1,0.1 0.1,0.1 0.1,0 0,0.1 0.1,0 0.1,0.1 0.1,0.1 0.1,0.1 0.1,0.1 0.1,0.1 0.1,0.1 0.1,0.1 0.1,0.1 0.1,0.1 0.1,0.1 0.1,0.1 0.1,0.1 0.1,0 0,0.1 0.1,0 0,0.1 0.1,0 0,0.1 0.1,0 0,0.1 0.1,0.1 0.1,0.1 0.1,0.1 0.1,0.1 0.1,0.1 0.1,0.1 0,0.1 0.1,0 0,0.1 0.1,0 0,0.1 0.1,0 0.1,0.1 0,0.1 0.1,0 0,0.1 0.1,0 0,0.1 0.1,0 0,0.1 0.1,0.1 0.1,0.1 0.1,0.1 0,0.1 0.1,0 0,0.1 0.1,0 0,0.1 0.1,0.1 0.1,0.1 0.1,0.1 0.1,0.1 0.1,0.1 0.1,0.1 0,0.1 0.1,0 0,0.1 0.1,0.1 0.1,0.1 0.1,0.1 0,0.1 0.1,0 0,0.1 0.1,0.1 0.1,0.1 0,0.1 0.1,0 0,0.1 0.1,0 0.1,0.1 0,0.1 0.1,0 0,0.1 0.1,0.1 0.1,0.1 0,0.1 0.1,0 0,0.1 0.1,0.1 0.1,0.1 0,0.1 0.1,0 0,0.1 0.1,0.1 0.1,0.1 0,0.1 0.1,0 0,0.1 0.1,0.1 0.1,0.1 0.1,0.1 0.1,0.1 0,0.1 0.1,0 0,0.1 0.1,0.1 0.1,0.1 0,0.1 0.1,0.1 0.1,0.1 0,0.1 0.1,0 0,0.1 0.1,0.1 0.1,0.1 0,0.1 0.1,0.1 0.1,0.1 0.1,0.1 0.1,0.1 0,0.1 0.1,0 0,0.1 0.1,0.1 0,0.1 0.1,0 0,0.1 0.1,0.1 0.1,0.1 0,0.1 0.1,0.1 0.1,0.1 0,0.1 0.1,0 0,0.1 0.1,0.1 0,0.1 0.1,0 0.1,0.1 0,0.1 0.1,0 0,0.1 0.1,0.1 0,0.1 0.1,0 0,0.1 0.1,0.1 0,0.1 0.1,0 0,0.1 0.1,0.1 0.1,0.1 0,0.1 0.1,0.1 0.1,0.1 0,0.1 0.1,0.1 0.1,0.1 0,0.1 0.1,0.1 0.1,0 0,0.1 0.1,0.1 0.1,0.1 0,0.1 0.1,0.1 0.1,0.1 0,0.1 0.1,0.1 0.1,0.1 0,0.1 0.1,0.1 0.1,0.1 0,0.1 0.1,0.1 0.1,0.1 0,0.1 0.1,0 0.1,0.1 0,0.1 0.1,0.1 0.1,0.1 0,0.1 0.1,0.1 0.1,0.1 0,0.1 0.1,0.1 0.1,0.1 0,0.1 0.1,0.1 0.1,0.1 0,0.1 0.1,0.1 0.1,0.1 0,0.1 0.1,0.1 0.1,0 0,0.1 0.1,0.1 0,0.1 0.1,0 0,0.1 0.1,0.1 0.1,0.1 0,0.1 0.1,0.1 0.1,0.1 0,0.1 0.1,0.1 0.1,0.1 0,0.1 0.1,0.1 0.1,0.1 0,0.1 0.1,0.1 0.1,0.1 0.1,0.1 0.1,0.1 0,0.1 0.1,0.1 0.1,0.1 0,0.1 0.1,0.1 0.1,0.1 0,0.1 0.1,0.1 0.1,0.1 0,0.1 0.1,0 0,0.1 0.1,0.1 0,0.1 0.1,0 0,0.1 0.1,0.1 0.1,0 0,0.1 0.1,0.1 0,0.1 0.1,0 0,0.1 0.1,0.1 0,0.1 0.1,0 0,0.1 0.1,0.1 0.1,0.1 0,0.1 0.1,0.1 0.1,0.1 0,0.1 0.1,0 0,0.1 0.1,0.1 0.1,0.1 0.1,0.1 0,0.1 0.1,0 0,0.1 0.1,0.1 0.1,0.1 0,0.1 0.1,0 0,0.1 0.1,0.1 0,0.1 0.1,0 0,0.1 0.1,0.1 0.1,0.1 0,0.1 0.1,0 0,0.1 0.1,0.1 0.1,0.1 0,0.1 0.1,0.1 0.1,0 0,0.1 0.1,0.1 0.1,0.1 0,0.1 0.1,0 0,0.1 0.1,0.1 0.1,0.1 0,0.1 0.1,0 0,0.1 0.1,0.1 0.1,0.1 0,0.1 0.1,0 0,0.1 0.1,0.1 0.1,0.1 0.1,0 0,0.1 0.1,0.1 0.1,0.1 0,0.1 0.1,0 0,0.1 0.1,0.1 0.1,0.1 0,0.1 0.1,0 0,0.1 0.1,0 0,0.1 0.1,0.1 0.1,0.1 0,0.1 0.1,0 0,0.1 0.1,0 0.1,0.1 0,0.1 0.1,0 0,0.1 0.1,0.1 0.1,0.1 0.1,0.1 0,0.1 0.1,0 0,0.1 0.1,0 0,0.1 0.1,0.1 0.1,0.1 0.1,0.1 0.1,0.1 0,0.1 0.1,0 0,0.1 0.1,0 0.1,0.1 0,0.1 0.1,0 0,0.1 0.1,0 0,0.1 0.1,0 0,0.1 0.1,0.1 0.1,0.1 0.1,0.1 0.1,0.1 0.1,0.1 0,0.1 0.1,0 0,0.1 0.1,0 0,0.1 0.1,0 0.1,0.1 0.1,0.1 0.1,0.1 0.1,0.1 0.1,0.1 0.1,0.1 0.1,0.1 0,0.1 0.1,0 0,0.1 0.1,0 0,0.1 0.1,0 0,0.1 0.1,0 0,0.1 0.1,0 0.1,0 0,0.1 0.1,0 0,0.1 0.1,0 0,0.1 0.1,0 0,0.1 0.1,0 0,0.1 0.1,0 0,0.1 0.1,0 0,0.1 0.1,0 0,0.1 0.1,0 0.1,0.1 0.1,0.1 0.1,0.1 0.1,0.1 0.1,0 0.1,0.1 0.1,0.1 0.1,0.1 0.1,0 0,0.1 0.1,0 0,0.1 0.1,0 0.1,0.1 0.1,0.1 0.1,0 0,0.1 0.1,0 0,0.1 0.1,0 0.1,0 0,0.1 0.1,0 0,0.1 0.1,0 0.1,0.1 0.1,0 0,0.1 0.1,0 0.1,0.1 0.1,0.1 0.1,0 0,0.1 0.1,0 0.1,0.1 0.1,0 0.1,0.1 0.1,0 0,0.1 0.1,0 0.1,0 0,0.1 0.1,0 0.1,0.1 0.1,0 0,0.1 0.1,0 0.1,0 0,0.1 0.1,0 0.1,0.1 0.1,0 0.1,0 0,0.1 0.1,0 0.1,0.1 0.1,0 0.1,0.1 0.1,0 0.1,0.1 0.1,0 0.1,0 0,0.1 0.1,0 0.1,0 0,0.1 0.1,0 0.1,0 0.1,0 0,0.1 0.1,0 0.1,0 0.1,0.1 0.1,0 0.1,0 0,0.1 0.1,0 0.1,0 0.1,0 0,0.1 0.1,0 0.1,0 0.1,0 0.1,0.1 0.1,0 0.1,0 0.1,0 0,0.1 0.1,0 0.1,0 0.1,0 0.1,0 0,0.1 0.1,0 0.1,0 0.1,0 0.1,0 0.1,0 0.1,0.1 0.1,0 0.1,0 0.1,0 0.1,0 0.1,0 0.1,0 0.1,0 0,0.1 0.1,0 0.1,0 0.1,0 0.1,0 0.1,0 0.1,0 0.1,0 0.1,0 0.1,0 0.1,0 0.1,0 0.1,0 0.1,0 0.1,0 0.1,0 0.1,0 0.1,0 0.1,0 0.1,0 0.1,0 0.1,-0.1 0.1,0 0.1,0 0.1,0 0.1,0 0.1,0 0.1,0 0.1,0 0.1,-0.1 0.1,0 0.1,0 0.1,0 0.1,0 0.1,-0.1 0.1,0 0.1,0 0.1,0 0.1,0 0,-0.1 0.1,0 0.1,0 0.1,0 0.1,0 0,-0.1 0.1,0 0.1,0 0.1,0 0,-0.1 0.1,0 0.1,0 0.1,0 0,-0.1 0.1,0 0.1,0 0.1,0 0,-0.1 0.1,0 0.1,0 0.1,0 0,-0.1 0.1,0 0.1,0 0.1,-0.1 0.1,0 0.1,-0.1 0.1,0 0.1,0 0,-0.1 0.1,0 0.1,0 0,-0.1 0.1,0 0.1,0 0.1,-0.1 0.1,0 0.1,-0.1 0.1,0 0.1,-0.1 0.1,0 0,-0.1 0.1,0 0.1,0 0,-0.1 0.1,0 0.1,0 0,-0.1 0.1,0 0.1,-0.1 0.1,0 0.1,-0.1 0.1,0 0.1,-0.1 0.1,0 0,-0.1 0.1,0 0.1,-0.1 0.1,0 0,-0.1 0.1,0 0.1,-0.1 0.1,0 0,-0.1 0.1,0 0.1,-0.1 0.1,0 0.1,-0.1 0.1,0 0,-0.1 0.1,0 0.1,-0.1 0.1,-0.1 0.1,0 0,-0.1 0.1,0 0.1,-0.1 0.1,0 0,-0.1 0.1,0 0,-0.1 0.1,0 0.1,0 0,-0.1 0.1,0 0,-0.1 0.1,0 0.1,-0.1 0.1,-0.1 0.1,0 0,-0.1 0.1,0 0,-0.1 0.1,0 0.1,-0.1 0.1,-0.1 0.1,0 0,-0.1 0.1,0 0,-0.1 0.1,0 0.1,-0.1 0.1,0 0,-0.1 0.1,0 0,-0.1 0.1,0 0,-0.1 0.1,0 0.1,-0.1 0.1,-0.1 0.1,-0.1 0.1,0 0,-0.1 0.1,0 0,-0.1 0.1,0 0,-0.1 0.1,0 0.1,-0.1 0.1,-0.1 0.1,0 0,-0.1 0.1,0 0,-0.1 0.1,0 0,-0.1 0.1,0 0,-0.1 0.1,0 0,-0.1 0.1,0 0,-0.1 0.1,0 0,-0.1 0.1,0 0,-0.1 0.1,0 0,-0.1 0.1,0 0.1,0 0,-0.1 0.1,0 0,-0.1 0.1,0 0,-0.1 0.1,0 0,-0.1 0.1,0 0,-0.1 0.1,0 0,-0.1 0.1,0 0,-0.1 0.1,0 0,-0.1 0.1,0 0,-0.1 0.1,0 0,-0.1 0.1,0 0,-0.1 0.1,0 0,-0.1 0.1,0 0.1,-0.1 0.1,-0.1 0.1,-0.1 0.1,-0.1 0.1,-0.1 0.1,-0.1 0,-0.1 0.1,0 0,-0.1 0.1,0 0,-0.1 0.1,0 0,-0.1 0.1,0 0,-0.1 0.1,0 0,-0.1 0.1,0 0.1,-0.1 0.1,-0.1 0.1,-0.1 0.1,-0.1 0.1,-0.1 0,-0.1 0.1,0 0,-0.1 0.1,0 0,-0.1 0.1,0 0,-0.1 0.1,0 0,-0.1 0.1,0 0,-0.1 0.1,0 0,-0.1 0.1,0 0.1,-0.1 0,-0.1 0.1,0 0,-0.1 0.1,0 0,-0.1 0.1,0 0,-0.1 0.1,0 0,-0.1 0.1,0 0,-0.1 0.1,-0.1 0.1,-0.1 0.1,-0.1 0.1,-0.1 0.1,-0.1 0.1,-0.1 0,-0.1 0.1,0 0.1,-0.1 0.1,-0.1 0.1,-0.1 0.1,-0.1 0.1,-0.1 0,-0.1 0.1,0 0,-0.1 0.1,0 0,-0.1 0.1,0 0,-0.1 0.1,0 0,-0.1 0.1,0 0,-0.1 0.1,-0.1 0.1,-0.1 0.1,0 0,-0.1 0.1,0 0,-0.1 0.1,0 0,-0.1 0.1,-0.1 0.1,-0.1 0.1,-0.1 0.1,-0.1 0.1,-0.1 0.1,-0.1 0,-0.1 0.1,0 0,-0.1 0.1,0 0,-0.1 0.1,0 0.1,-0.1 0.1,-0.1 0.1,-0.1 0,-0.1 0.1,0 0,-0.1 0.1,0 0,-0.1 0.1,0 0,-0.1 0.1,0 0,-0.1 0.1,0 0,-0.1 0.1,-0.1 0.1,-0.1 0.1,-0.1 0.1,-0.1 0.1,0 0,-0.1 0.1,0 0,-0.1 0.1,0 0,-0.1 0.1,-0.1 0.1,-0.1 0.1,-0.1 0.1,-0.1 0.1,-0.1 0.1,-0.1 0.1,-0.1 0.1,-0.1 0,-0.1 0.1,0 0,-0.1 0.1,0 0.1,-0.1 0.1,-0.1 0.1,-0.1 0.1,-0.1 0.1,-0.1 0.1,-0.1 0.1,-0.1 0.1,-0.1 0.1,-0.1 0.1,-0.1 0,-0.1 0.1,0 0,-0.1 0.1,0 0.1,-0.1 0.1,-0.1 0.1,-0.1 0.1,-0.1 0.1,-0.1 0.1,-0.1 0.1,-0.1 0.1,-0.1 0.1,-0.1 0.1,-0.1 0.1,-0.1 0.1,-0.1 0.1,0 0,-0.1 0.1,0 0.1,-0.1 0.1,-0.1 0.1,-0.1 0.1,-0.1 0.1,-0.1 0.1,-0.1 0.1,-0.1 0.1,-0.1 0.1,-0.1 0.1,0 0,-0.1 0.1,0 0.1,-0.1 0.1,-0.1 0.1,-0.1 0.1,-0.1 0.1,-0.1 0.1,0 0,-0.1 0.1,0 0,-0.1 0.1,0 0,-0.1 0.1,0 0,-0.1 0.1,0 0.1,-0.1 0.1,-0.1 0.1,0 0,-0.1 0.1,0 0.1,-0.1 0.1,-0.1 0.1,-0.1 0.1,0 0,-0.1 0.1,0 0,-0.1 0.1,0 0.1,-0.1 0.1,-0.1 0.1,0 0,-0.1 0.1,0 0.1,-0.1 0.1,0 0,-0.1 0.1,0 0,-0.1 0.1,0 0.1,-0.1 0.1,-0.1 0.1,0 0,-0.1 0.1,0 0.1,-0.1 0.1,-0.1 0.1,0 0,-0.1 0.1,0 0.1,-0.1 0.1,0 0.1,-0.1 0.1,0 0,-0.1 0.1,0 0,-0.1 0.1,0 0.1,-0.1 0.1,0 0,-0.1 0.1,0 0.1,-0.1 0.1,0 0,-0.1 0.1,0 0.1,-0.1 0.1,0 0.1,0 0,-0.1 0.1,0 0.1,-0.1 0.1,0 0,-0.1 0.1,0 0.1,-0.1 0.1,0 0.1,-0.1 0.1,0 0,-0.1 0.1,0 0.1,0 0.1,-0.1 0.1,0 0.1,-0.1 0.1,0 0,-0.1 0.1,0 0.1,0 0,-0.1 0.1,0 0.1,0 0,-0.1 0.1,0 0.1,0 0,-0.1 0.1,0 0.1,0 0.1,-0.1 0.1,0 0.1,0 0,-0.1 0.1,0 0.1,0 0.1,-0.1 0.1,0 0.1,-0.1 0.1,0 0.1,0 0,-0.1 0.1,0 0.1,0 0.1,0" />
        </g>
      </g>
      <path
         sodipodi:nodetypes="ccccccccccccccccccccccccccccccccccccccccccccccccccccccccccccccccccccccccccccccccccccccccccccccc"
         inkscape:connector-curvature="0"
         id="path4863"
         d="m 537.85714,383.16577 -10.53571,-0.0893 0.0223,208.21429 10.46875,-0.0223 -1.74107,-3.81697 -5.80357,-5 -2.74554,-4.93304 1.04911,-3.28125 3.30357,-3.30357 4.82143,-3.57143 5.26786,-4.19643 1.07143,-2.58928 -0.26786,-2.58929 -2.05357,-2.5 -4.82143,-3.125 -7.76786,-6.25 -0.35714,-2.58928 1.33928,-1.96429 5.17858,-3.03571 16.875,-7.14286 3.75,-2.94643 0.53571,-1.51786 -0.26786,-1.07142 -1.42857,-1.875 -9.73214,-4.10715 -12.76786,-4.64285 -2.76786,-1.60715 -0.80357,-1.60714 0.89286,-1.25 3.48214,-1.69643 8.83929,-2.05357 8.83928,-1.51786 11.42858,-1.42857 12.85714,-1.60714 18.21428,-1.69643 12.32143,-1.25 21.16072,-1.78571 24.375,-2.23215 10.625,-1.25 9.91071,-0.98214 10.80357,-1.33929 7.5,-1.25 6.51786,-1.60714 2.41071,-1.16071 0.26786,-1.16072 -2.23214,-1.16071 -2.67857,-0.98214 -7.94643,-1.51786 -16.25,-2.23214 -17.14286,-1.96429 -13.39286,-1.07143 -9.375,-1.07143 -17.14285,-1.60714 -14.01786,-0.98214 -10.625,-1.07143 -23.21429,-2.58929 -17.32142,-2.05357 -7.85715,-1.60714 -6.33928,-1.33929 -4.01786,-2.14285 -0.71429,-1.69643 1.51786,-1.69643 1.875,-0.80357 10.98214,-4.19643 9.46429,-3.83929 3.39286,-2.85714 0.0893,-1.33929 -1.16071,-1.69642 -2.23214,-1.78572 -4.19643,-2.14286 -9.82143,-4.01785 -5.89286,-2.76786 -3.66071,-3.48214 -0.53572,-1.42857 0.26786,-1.07143 1.07143,-1.07143 4.46428,-3.92857 3.21429,-2.05357 3.03571,-2.23215 2.5,-2.14285 0.98215,-2.85715 -0.89286,-2.5 -1.69643,-1.69643 -3.03571,-2.32142 -4.28572,-3.03572 -2.85714,-2.67857 -1.60714,-1.33929 -0.89286,-2.32142 -0.26786,-1.60715 0.53572,-1.875 2.41071,-2.41071 2.5,-2.58929 2.05357,-2.14285 1.25,-1.875 z"
         style="fill:#54b948;fill-opacity:1;fill-rule:evenodd;stroke:none;stroke-width:1px;stroke-linecap:butt;stroke-linejoin:miter;stroke-opacity:1" />
    </g>
  </g>
</svg>
