<?xml version="1.0" encoding="UTF-8" standalone="no"?>
<!-- Created with Inkscape (http://www.inkscape.org/) -->

<svg
   xmlns:dc="http://purl.org/dc/elements/1.1/"
   xmlns:cc="http://creativecommons.org/ns#"
   xmlns:rdf="http://www.w3.org/1999/02/22-rdf-syntax-ns#"
   xmlns:svg="http://www.w3.org/2000/svg"
   xmlns="http://www.w3.org/2000/svg"
   xmlns:xlink="http://www.w3.org/1999/xlink"
   xmlns:sodipodi="http://sodipodi.sourceforge.net/DTD/sodipodi-0.dtd"
   xmlns:inkscape="http://www.inkscape.org/namespaces/inkscape"
   width="210mm"
   height="297mm"
   viewBox="0 0 744.09448819 1052.3622047"
   id="svg5951"
   version="1.1"
   inkscape:version="0.91 r13725"
   sodipodi:docname="helicon-2.svg">
  <defs
     id="defs5953">
    <linearGradient
       inkscape:collect="always"
       id="linearGradient6675">
      <stop
         style="stop-color:#808080;stop-opacity:1;"
         offset="0"
         id="stop6677" />
      <stop
         style="stop-color:#808080;stop-opacity:0;"
         offset="1"
         id="stop6679" />
    </linearGradient>
    <linearGradient
       inkscape:collect="always"
       xlink:href="#linearGradient4307"
       id="linearGradient4276"
       x1="185.68036"
       y1="246.31679"
       x2="217.62865"
       y2="583.60022"
       gradientUnits="userSpaceOnUse"
       gradientTransform="translate(-32,-4)" />
    <linearGradient
       id="linearGradient4307"
       inkscape:collect="always">
      <stop
         id="stop4309"
         offset="0"
         style="stop-color:#000000;stop-opacity:1;" />
      <stop
         id="stop4311"
         offset="1"
         style="stop-color:#808080;stop-opacity:0.59215689" />
    </linearGradient>
    <linearGradient
       inkscape:collect="always"
       xlink:href="#linearGradient4307"
       id="linearGradient4305"
       x1="357.6196"
       y1="83.062355"
       x2="479.78561"
       y2="483.8121"
       gradientUnits="userSpaceOnUse"
       gradientTransform="translate(-32,-4)" />
    <linearGradient
       inkscape:collect="always"
       xlink:href="#linearGradient6675"
       id="linearGradient6681"
       x1="215.57413"
       y1="421.93188"
       x2="377.00912"
       y2="713.42407"
       gradientUnits="userSpaceOnUse"
       gradientTransform="translate(-32,-4)" />
    <marker
       inkscape:stockid="Arrow1Lend"
       orient="auto"
       refY="0"
       refX="0"
       id="Arrow1Lend"
       style="overflow:visible"
       inkscape:isstock="true"
       inkscape:collect="always">
      <path
         inkscape:connector-curvature="0"
         id="path4404"
         d="M 0,0 5,-5 -12.5,0 5,5 0,0 Z"
         style="fill:#000000;fill-opacity:1;fill-rule:evenodd;stroke:#000000;stroke-width:1pt;stroke-opacity:1"
         transform="matrix(-0.8,0,0,-0.8,-10,0)" />
    </marker>
    <marker
       inkscape:isstock="true"
       style="overflow:visible"
       id="marker5889"
       refX="0"
       refY="0"
       orient="auto"
       inkscape:stockid="Arrow1Lend">
      <path
         inkscape:connector-curvature="0"
         transform="matrix(-0.8,0,0,-0.8,-10,0)"
         style="fill:#000000;fill-opacity:1;fill-rule:evenodd;stroke:#000000;stroke-width:1pt;stroke-opacity:1"
         d="M 0,0 5,-5 -12.5,0 5,5 0,0 Z"
         id="path5891" />
    </marker>
    <marker
       inkscape:stockid="StopL"
       orient="auto"
       refY="0"
       refX="0"
       id="StopL"
       style="overflow:visible"
       inkscape:isstock="true">
      <path
         inkscape:connector-curvature="0"
         id="path4839"
         d="M 0,5.65 0,-5.65"
         style="fill:none;fill-opacity:0.75;fill-rule:evenodd;stroke:#000000;stroke-width:1pt;stroke-opacity:1"
         transform="scale(0.8,0.8)" />
    </marker>
    <marker
       inkscape:stockid="StopL"
       orient="auto"
       refY="0"
       refX="0"
       id="marker4439"
       style="overflow:visible"
       inkscape:isstock="true">
      <path
         inkscape:connector-curvature="0"
         id="path4441"
         d="M 0,5.65 0,-5.65"
         style="fill:none;fill-opacity:0.75;fill-rule:evenodd;stroke:#000000;stroke-width:1pt;stroke-opacity:1"
         transform="scale(0.8,0.8)" />
    </marker>
  </defs>
  <sodipodi:namedview
     id="base"
     pagecolor="#ffffff"
     bordercolor="#666666"
     borderopacity="1.0"
     inkscape:pageopacity="0.0"
     inkscape:pageshadow="2"
     inkscape:zoom="0.9899495"
     inkscape:cx="440.04659"
     inkscape:cy="393.58581"
     inkscape:document-units="px"
     inkscape:current-layer="gnuplot_plot_1"
     showgrid="false"
     inkscape:window-width="1920"
     inkscape:window-height="1056"
     inkscape:window-x="1280"
     inkscape:window-y="24"
     inkscape:window-maximized="1"
     showguides="true" />
  <metadata
     id="metadata5956">
    <rdf:RDF>
      <cc:Work
         rdf:about="">
        <dc:format>image/svg+xml</dc:format>
        <dc:type
           rdf:resource="http://purl.org/dc/dcmitype/StillImage" />
        <dc:title />
      </cc:Work>
    </rdf:RDF>
  </metadata>
  <g
     inkscape:label="Layer 1"
     inkscape:groupmode="layer"
     id="layer1">
    <g
       id="g4343"
       transform="matrix(-1,0,0,-1,702.27825,883.96006)">
      <g
         id="g6683">
        <path
           style="fill:#00539b;fill-opacity:1;fill-rule:evenodd;stroke:none;stroke-width:1px;stroke-linecap:butt;stroke-linejoin:miter;stroke-opacity:1"
           d="m 382.58683,242.17347 c -4.82168,-17.76211 -19.29406,-28.44798 -35.05242,-29.28734 -3.93959,-0.20984 -7.95955,0.19573 -11.9292,1.25998 -3.96964,1.06426 -7.76269,2.85035 -11.50098,5.27527 -3.7383,2.42493 -7.69207,6.11843 -10.66739,9.36087 -2.5745,2.80562 -5.51647,8.55273 -8.6708,13.89557 -8.6014,13.98136 -15.24453,27.22212 -20.63221,41.73694 -5.38768,14.51482 -9.5199,30.3037 -13.09948,49.38126 -14.66693,61.08226 -7.01428,132.45135 10.51999,192.00976 10.71919,41.76414 35.54253,92.32734 82.9446,99.31434 48.8242,2.62476 77.95399,-46.92278 93.75571,-86.53365 33.92442,-87.70458 41.72972,-185.88285 14.11154,-275.35 -9.33803,-21.3332 -5.94109,-17.22167 -21.21517,-17.94039 -15.27408,-0.71871 -20.11203,-0.91051 -34.75914,-1.65394 z"
           id="path4251"
           inkscape:connector-curvature="0"
           sodipodi:nodetypes="csssscscccccscc" />
        <path
           style="fill:url(#linearGradient4276);fill-opacity:1;fill-rule:evenodd;stroke:none;stroke-width:1px;stroke-linecap:butt;stroke-linejoin:miter;stroke-opacity:1"
           d="m 336.51441,213.99787 c -34.11811,9.03149 -59.25319,39.21595 -69.83681,71.50535 -23.94079,59.53348 -28.9567,124.97778 -25.8265,188.5093 5.36756,48.15998 15.00473,100.12358 50.44458,135.93704 13.45483,14.29051 54.62189,15.39141 73.16828,15.18465 -5.62462,-2.06819 -15.05336,-3.37594 -20.54032,-6.31485 -4.62718,-2.4784 -9.30469,-5.59425 -13.3353,-9.23701 -13.65175,-10.93301 -24.41691,-24.84749 -32.57366,-40.24358 -8.15676,-15.39609 -14.08393,-32.6526 -18.05971,-49.38579 -8.13237,-30.18994 -13.56507,-60.99734 -15.60468,-92.44241 -2.0396,-31.44507 0.0715,-63.27526 7.02676,-93.99556 3.13117,-17.95964 8.24748,-35.517 14.66739,-53.24066 6.35319,-17.53948 16.57251,-34.11372 25.67571,-49.3293 7.39817,-8.9585 14.41038,-14.0677 24.79426,-16.94718 z"
           id="path4262"
           inkscape:connector-curvature="0"
           sodipodi:nodetypes="cccccscscscscc" />
        <path
           style="fill:url(#linearGradient4305);fill-opacity:1;fill-rule:evenodd;stroke:#000000;stroke-width:1px;stroke-linecap:butt;stroke-linejoin:miter;stroke-opacity:1"
           d="m 408.77556,420.47968 -52.20413,0.0254 c -9.09916,-8.67733 -20.88337,-20.57297 -14.69159,-34.25731 l 43.9773,-143.95698 77.5,4.28572 z"
           id="path4278"
           inkscape:connector-curvature="0"
           sodipodi:nodetypes="cccccc" />
        <path
           sodipodi:nodetypes="cccccccccccccccc"
           inkscape:connector-curvature="0"
           id="path6665"
           d="m 271.99452,585.13828 -88.29412,-167.04313 91.6082,-153.10124 -7.79711,18.02491 -15.56266,51.80188 -9.72272,58.46258 -1.6415,35.67101 -0.50507,13.63706 0.50507,20.96066 1.89404,22.91784 3.91434,25.88516 3.40926,16.16244 7.07107,22.34963 4.20386,12.77221 4.69274,10.11902 z"
           style="fill:url(#linearGradient6681);fill-opacity:1;fill-rule:evenodd;stroke:none;stroke-width:1px;stroke-linecap:butt;stroke-linejoin:miter;stroke-opacity:1" />
        <path
           inkscape:connector-curvature="0"
           id="path5726"
           title="exp(-pow(t,2)/2) t"
           d="m 645.30648,296.87649 c -0.2875,2.74942 -0.65316,5.49884 -1.14029,8.24825 -0.48713,2.74942 -1.09638,5.49884 -1.88326,8.24826 -0.78687,2.74942 -1.7528,5.49883 -2.96281,8.24825 -1.21001,2.74942 -2.6663,5.49884 -4.43554,8.24826 -1.76925,2.74941 -3.85439,5.49883 -6.31045,8.24825 -2.45605,2.74942 -5.28651,5.49884 -8.51694,8.24825 -3.23043,2.74942 -6.86441,5.49884 -10.87899,8.24826 -4.01456,2.74942 -8.41271,5.49884 -13.10774,8.24825 -4.69504,2.74942 -9.68857,5.49884 -14.82482,8.24826 -5.13625,2.74942 -10.41482,5.49883 -15.62037,8.24825 -5.20555,2.74942 -10.33535,5.49884 -15.1405,8.24826 -4.80515,2.74941 -9.28079,5.49883 -13.18367,8.24825 -3.90287,2.74942 -7.22669,5.49884 -9.77812,8.24825 -2.55143,2.74942 -4.3238,5.49884 -5.21209,8.24826 -0.88828,2.74942 -0.88652,5.49883 0,8.24825 0.88653,2.74942 2.6622,5.49884 5.21209,8.24826 2.5499,2.74941 5.87639,5.49883 9.77812,8.24825 3.90174,2.74942 8.37917,5.49884 13.18367,8.24825 4.8045,2.74942 9.93511,5.49884 15.1405,8.24826 5.2054,2.74942 10.48385,5.49883 15.62037,8.24825 5.13653,2.74942 10.1292,5.49884 14.82482,8.24826 4.69561,2.74941 9.09243,5.49883 13.10774,8.24825 4.01533,2.74942 7.64776,5.49884 10.87899,8.24826 3.23122,2.74941 6.06014,5.49883 8.51694,8.24825 2.4568,2.74942 4.54058,5.49884 6.31045,8.24825 1.76987,2.74942 3.22504,5.49884 4.43554,8.24826 1.2105,2.74942 2.17558,5.49883 2.96281,8.24825 0.78724,2.74942 1.39589,5.49884 1.88326,8.24826 0.48737,2.74941 0.85279,5.49883 1.14029,8.24825"
           style="color:#000000;clip-rule:nonzero;display:inline;overflow:visible;visibility:visible;opacity:1;isolation:auto;mix-blend-mode:normal;color-interpolation:sRGB;color-interpolation-filters:linearRGB;solid-color:#000000;solid-opacity:1;fill:#54b948;fill-opacity:1;fill-rule:evenodd;stroke:none;stroke-width:1;stroke-linecap:butt;stroke-linejoin:round;stroke-miterlimit:4;stroke-dasharray:none;stroke-dashoffset:0;stroke-opacity:1;color-rendering:auto;image-rendering:auto;shape-rendering:auto;text-rendering:auto;enable-background:accumulate" />
        <g
           transform="matrix(0,-0.45062325,0.26997756,0,20.995873,562.98814)"
           id="gnuplot_plot_1"
           style="fill:#54b948;fill-opacity:1;stroke:none">
          <title
             id="title180">besj1(x)**2</title>
          <g
             style="color:#ffffff;fill:#54b948;stroke:none;stroke-width:2;stroke-linecap:butt;stroke-linejoin:miter;fill-opacity:1"
             id="g182" />
          <g
             style="color:#000000;fill:#54b948;fill-opacity:1;stroke:none;stroke-width:2;stroke-linecap:butt;stroke-linejoin:miter;stroke-opacity:1"
             id="g184"
             transform="translate(2.8020984,11.692552)">
            <path
               style="fill:#54b948;fill-opacity:1;stroke:none;stroke-opacity:1"
               inkscape:connector-curvature="0"
               d="m 62.2,441.7 0.1,-0.1 0.1,-0.1 0.1,-0.1 0.1,-0.1 0,-0.1 0.1,0 0,-0.1 0.1,0 0,-0.1 0.1,0 0,-0.1 0.1,-0.1 0.1,-0.1 0,-0.1 0.1,0 0,-0.1 0.1,-0.1 0.1,-0.1 0,-0.1 0.1,0 0,-0.1 0.1,-0.1 0.1,-0.1 0,-0.1 0.1,0 0,-0.1 0.1,-0.1 0,-0.1 0.1,0 0,-0.1 0.1,-0.1 0,-0.1 0.1,0 0.1,-0.1 0,-0.1 0.1,-0.1 0.1,-0.1 0,-0.1 0.1,-0.1 0,-0.1 0.1,0 0,-0.1 0.1,-0.1 0,-0.1 0.1,-0.1 0,-0.1 0.1,0 0,-0.1 0.1,-0.1 0,-0.1 0.1,-0.1 0,-0.1 0.1,-0.1 0.1,-0.1 0,-0.1 0.1,-0.1 0,-0.1 0.1,-0.1 0,-0.1 0.1,-0.1 0,-0.1 0.1,-0.1 0,-0.1 0.1,-0.1 0,-0.1 0.1,-0.1 0.1,-0.1 0,-0.1 0.1,-0.1 0.1,-0.1 0,-0.1 0.1,-0.1 0,-0.1 0.1,-0.1 0,-0.1 0.1,-0.1 0,-0.1 0.1,-0.1 0,-0.1 0.1,-0.1 0,-0.2 0.1,-0.1 0,-0.1 0.1,-0.1 0,-0.1 0.1,-0.1 0,-0.1 0.1,-0.1 0,-0.1 0.1,-0.1 0,-0.1 0.1,-0.1 0,-0.1 0.1,-0.2 0,-0.1 0.1,-0.1 0,-0.1 0.1,-0.1 0,-0.1 0.1,-0.1 0,-0.1 0.1,-0.2 0,-0.1 0.1,-0.1 0,-0.1 0.1,-0.1 0,-0.1 0.1,-0.2 0.1,-0.1 0,-0.1 0.1,-0.1 0,-0.1 0.1,-0.2 0,-0.1 0.1,-0.1 0,-0.1 0.1,-0.1 0,-0.2 0.1,-0.1 0,-0.1 0.1,-0.1 0,-0.2 0.1,-0.1 0,-0.1 0.1,-0.1 0,-0.2 0.1,-0.1 0,-0.1 0.1,-0.1 0,-0.2 0.1,-0.1 0,-0.1 0.1,-0.2 0,-0.1 0.1,-0.1 0,-0.2 0.1,-0.1 0,-0.1 0.1,-0.1 0,-0.2 0.1,-0.1 0,-0.1 0.1,-0.2 0,-0.1 0.1,-0.1 0,-0.2 0.1,-0.1 0.1,-0.2 0,-0.1 0.1,-0.1 0,-0.2 0.1,-0.1 0,-0.1 0.1,-0.2 0,-0.1 0.1,-0.2 0,-0.1 0.1,-0.1 0,-0.2 0.1,-0.1 0,-0.2 0.1,-0.1 0,-0.1 0.1,-0.2 0,-0.1 0.1,-0.2 0,-0.1 0.1,-0.2 0,-0.1 0.1,-0.1 0,-0.2 0.1,-0.1 0,-0.2 0.1,-0.1 0,-0.2 0.1,-0.1 0,-0.2 0.1,-0.1 0,-0.2 0.1,-0.1 0,-0.2 0.1,-0.1 0,-0.2 0.1,-0.1 0,-0.2 0.1,-0.1 0.1,-0.2 0,-0.1 0.1,-0.2 0,-0.1 0.1,-0.2 0,-0.1 0.1,-0.2 0,-0.1 0.1,-0.2 0,-0.1 0.1,-0.2 0,-0.1 0.1,-0.2 0,-0.2 0.1,-0.1 0,-0.2 0.1,-0.1 0,-0.2 0.1,-0.1 0,-0.2 0.1,-0.1 0,-0.2 0.1,-0.2 0,-0.1 0.1,-0.2 0,-0.1 0.1,-0.2 0,-0.2 0.1,-0.1 0,-0.2 0.1,-0.1 0,-0.2 0.1,-0.2 0,-0.1 0.1,-0.2 0,-0.1 0.1,-0.2 0,-0.2 0.1,-0.1 0.1,-0.2 0,-0.2 0.1,-0.1 0,-0.2 0.1,-0.1 0,-0.2 0.1,-0.2 0,-0.1 0.1,-0.2 0,-0.2 0.1,-0.1 0,-0.2 0.1,-0.2 0,-0.1 0.1,-0.2 0,-0.2 0.1,-0.1 0,-0.2 0.1,-0.2 0,-0.1 0.1,-0.2 0,-0.2 0.1,-0.1 0,-0.2 0.1,-0.2 0,-0.1 0.1,-0.2 0,-0.2 0.1,-0.1 0,-0.2 0.1,-0.2 0,-0.1 0.1,-0.2 0,-0.2 0.1,-0.1 0,-0.2 0.1,-0.2 0,-0.2 0.1,-0.1 0.1,-0.2 0,-0.2 0.1,-0.1 0,-0.2 0.1,-0.2 0,-0.2 0.1,-0.1 0,-0.2 0.1,-0.2 0,-0.1 0.1,-0.2 0,-0.2 0.1,-0.2 0,-0.1 0.1,-0.2 0,-0.2 0.1,-0.1 0,-0.2 0.1,-0.2 0,-0.2 0.1,-0.1 0,-0.2 0.1,-0.2 0,-0.2 0.1,-0.1 0,-0.2 0.1,-0.2 0,-0.2 0.1,-0.1 0,-0.2 0.1,-0.2 0,-0.2 0.1,-0.1 0,-0.2 0.1,-0.2 0,-0.2 0.1,-0.1 0,-0.2 0.1,-0.2 0.1,-0.2 0,-0.1 0.1,-0.2 0,-0.2 0.1,-0.2 0,-0.1 0.1,-0.2 0,-0.2 0.1,-0.2 0,-0.1 0.1,-0.2 0,-0.2 0.1,-0.2 0,-0.1 0.1,-0.2 0,-0.2 0.1,-0.2 0,-0.1 0.1,-0.2 0,-0.2 0.1,-0.2 0,-0.1 0.1,-0.2 0,-0.2 0.1,-0.2 0,-0.1 0.1,-0.2 0,-0.2 0.1,-0.2 0,-0.1 0.1,-0.2 0,-0.2 0.1,-0.2 0,-0.1 0.1,-0.2 0,-0.2 0.1,-0.2 0,-0.1 0.1,-0.2 0.1,-0.2 0,-0.2 0.1,-0.1 0,-0.2 0.1,-0.2 0,-0.2 0.1,-0.1 0,-0.2 0.1,-0.2 0,-0.2 0.1,-0.1 0,-0.2 0.1,-0.2 0,-0.2 0.1,-0.1 0,-0.2 0.1,-0.2 0,-0.2 0.1,-0.1 0,-0.2 0.1,-0.2 0,-0.2 0.1,-0.1 0,-0.2 0.1,-0.2 0,-0.2 0.1,-0.1 0,-0.2 0.1,-0.2 0,-0.1 0.1,-0.2 0,-0.2 0.1,-0.2 0,-0.1 0.1,-0.2 0,-0.2 0.1,-0.2 0,-0.1 0.1,-0.2 0.1,-0.2 0,-0.1 0.1,-0.2 0,-0.2 0.1,-0.2 0,-0.1 0.1,-0.2 0,-0.2 0.1,-0.1 0,-0.2 0.1,-0.2 0,-0.2 0.1,-0.1 0,-0.2 0.1,-0.2 0,-0.1 0.1,-0.2 0,-0.2 0.1,-0.1 0,-0.2 0.1,-0.2 0,-0.1 0.1,-0.2 0,-0.2 0.1,-0.1 0,-0.2 0.1,-0.2 0,-0.1 0.1,-0.2 0,-0.2 0.1,-0.1 0,-0.2 0.1,-0.2 0,-0.1 0.1,-0.2 0,-0.2 0.1,-0.1 0.1,-0.2 0,-0.2 0.1,-0.1 0,-0.2 0.1,-0.2 0,-0.1 0.1,-0.2 0,-0.2 0.1,-0.1 0,-0.2 0.1,-0.1 0,-0.2 0.1,-0.2 0,-0.1 0.1,-0.2 0,-0.1 0.1,-0.2 0,-0.2 0.1,-0.1 0,-0.2 0.1,-0.1 0,-0.2 0.1,-0.2 0,-0.1 0.1,-0.2 0,-0.1 0.1,-0.2 0,-0.2 0.1,-0.1 0,-0.2 0.1,-0.1 0,-0.2 0.1,-0.1 0,-0.2 0.1,-0.1 0,-0.2 0.1,-0.2 0,-0.1 0.1,-0.2 0.1,-0.1 0,-0.2 0.1,-0.1 0,-0.2 0.1,-0.1 0,-0.2 0.1,-0.1 0,-0.2 0.1,-0.1 0,-0.2 0.1,-0.1 0,-0.2 0.1,-0.1 0,-0.2 0.1,-0.1 0,-0.2 0.1,-0.1 0,-0.2 0.1,-0.1 0,-0.2 0.1,-0.1 0,-0.2 0.1,-0.1 0,-0.1 0.1,-0.2 0,-0.1 0.1,-0.2 0,-0.1 0.1,-0.2 0,-0.1 0.1,-0.2 0,-0.1 0.1,-0.1 0,-0.2 0.1,-0.1 0,-0.2 0.1,-0.1 0,-0.1 0.1,-0.2 0.1,-0.1 0,-0.2 0.1,-0.1 0,-0.1 0.1,-0.2 0,-0.1 0.1,-0.1 0,-0.2 0.1,-0.1 0,-0.1 0.1,-0.2 0,-0.1 0.1,-0.1 0,-0.2 0.1,-0.1 0,-0.1 0.1,-0.2 0,-0.1 0.1,-0.1 0,-0.2 0.1,-0.1 0,-0.1 0.1,-0.1 0,-0.2 0.1,-0.1 0,-0.1 0.1,-0.2 0,-0.1 0.1,-0.1 0,-0.1 0.1,-0.2 0,-0.1 0.1,-0.1 0,-0.1 0.1,-0.2 0,-0.1 0.1,-0.1 0,-0.1 0.1,-0.1 0.1,-0.2 0,-0.1 0.1,-0.1 0,-0.1 0.1,-0.1 0,-0.2 0.1,-0.1 0,-0.1 0.1,-0.1 0,-0.1 0.1,-0.1 0,-0.2 0.1,-0.1 0,-0.1 0.1,-0.1 0,-0.1 0.1,-0.1 0,-0.1 0.1,-0.1 0,-0.1 0.1,-0.2 0,-0.1 0.1,-0.1 0,-0.1 0.1,-0.1 0,-0.1 0.1,-0.1 0,-0.1 0.1,-0.1 0,-0.1 0.1,-0.1 0,-0.1 0.1,-0.1 0,-0.1 0.1,-0.1 0,-0.1 0.1,-0.1 0,-0.1 0.1,-0.1 0.1,-0.1 0,-0.1 0.1,-0.1 0,-0.1 0.1,-0.1 0,-0.1 0.1,-0.1 0,-0.1 0.1,-0.1 0,-0.1 0.1,-0.1 0,-0.1 0.1,-0.1 0,-0.1 0.1,-0.1 0,-0.1 0.1,0 0,-0.1 0.1,-0.1 0,-0.1 0.1,-0.1 0,-0.1 0.1,-0.1 0,-0.1 0.1,0 0,-0.1 0.1,-0.1 0,-0.1 0.1,-0.1 0,-0.1 0.1,0 0,-0.1 0.1,-0.1 0,-0.1 0.1,0 0,-0.1 0.1,-0.1 0,-0.1 0.1,-0.1 0.1,0 0,-0.1 0.1,-0.1 0,-0.1 0.1,0 0,-0.1 0.1,-0.1 0.1,-0.1 0,-0.1 0.1,0 0,-0.1 0.1,-0.1 0,-0.1 0.1,0 0,-0.1 0.1,0 0,-0.1 0.1,-0.1 0.1,-0.1 0,-0.1 0.1,0 0,-0.1 0.1,0 0,-0.1 0.1,-0.1 0.1,-0.1 0.1,-0.1 0.1,-0.1 0,-0.1 0.1,0 0,-0.1 0.1,0 0,-0.1 0.1,0 0.1,-0.1 0.1,-0.1 0.1,0 0,-0.1 0.1,0 0,-0.1 0.1,0 0,-0.1 0.1,0 0,-0.1 0.1,0 0.1,-0.1 0.1,-0.1 0.1,0 0,-0.1 0.1,0 0.1,-0.1 0.1,0 0,-0.1 0.1,0 0.1,-0.1 0.1,0 0,-0.1 0.1,0 0.1,0 0,-0.1 0.1,0 0.1,0 0.1,0 0,-0.1 0.1,0 0.1,0 0,-0.1 0.1,0 0.1,0 0.1,0 0.1,-0.1 0.1,0 0.1,0 0.1,0 0.1,0 0,-0.1 0.1,0 0.1,0 0.1,0 0.1,0 0.1,0 0.1,0 0.1,0 0.1,0 0.1,0 0.1,0 0.1,0 0,0.1 0.1,0 0.1,0 0.1,0 0.1,0 0.1,0.1 0.1,0 0.1,0 0.1,0.1 0.1,0 0.1,0 0,0.1 0.1,0 0.1,0 0,0.1 0.1,0 0.1,0 0,0.1 0.1,0 0.1,0.1 0.1,0 0.1,0.1 0.1,0 0.1,0.1 0.1,0.1 0.1,0 0,0.1 0.1,0 0.1,0.1 0.1,0.1 0.1,0.1 0.1,0 0,0.1 0.1,0 0,0.1 0.1,0 0,0.1 0.1,0 0,0.1 0.1,0 0,0.1 0.1,0 0,0.1 0.1,0 0,0.1 0.1,0.1 0.1,0.1 0.1,0.1 0.1,0.1 0,0.1 0.1,0 0.1,0.1 0.1,0.1 0,0.1 0.1,0 0,0.1 0.1,0.1 0.1,0.1 0,0.1 0.1,0 0,0.1 0.1,0.1 0.1,0.1 0,0.1 0.1,0 0,0.1 0.1,0.1 0,0.1 0.1,0 0,0.1 0.1,0.1 0,0.1 0.1,0 0,0.1 0.1,0.1 0,0.1 0.1,0.1 0.1,0.1 0,0.1 0.1,0.1 0,0.1 0.1,0.1 0.1,0.1 0,0.1 0.1,0.1 0.1,0.1 0,0.1 0.1,0.1 0,0.1 0.1,0 0,0.1 0.1,0.1 0,0.1 0.1,0.1 0,0.1 0.1,0.1 0,0.1 0.1,0.1 0,0.1 0.1,0.1 0,0.1 0.1,0.1 0,0.1 0.1,0.1 0,0.1 0.1,0.1 0,0.1 0.1,0.1 0,0.1 0.1,0.1 0,0.1 0.1,0.1 0,0.1 0.1,0.1 0,0.1 0.1,0.1 0,0.1 0.1,0.1 0,0.1 0.1,0.1 0,0.1 0.1,0.2 0,0.1 0.1,0.1 0.1,0.1 0,0.1 0.1,0.1 0,0.1 0.1,0.1 0,0.2 0.1,0.1 0,0.1 0.1,0.1 0,0.1 0.1,0.1 0,0.2 0.1,0.1 0,0.1 0.1,0.1 0,0.1 0.1,0.2 0,0.1 0.1,0.1 0,0.1 0.1,0.2 0,0.1 0.1,0.1 0,0.1 0.1,0.1 0,0.2 0.1,0.1 0,0.1 0.1,0.2 0,0.1 0.1,0.1 0,0.1 0.1,0.2 0,0.1 0.1,0.1 0,0.2 0.1,0.1 0,0.1 0.1,0.2 0.1,0.1 0,0.1 0.1,0.2 0,0.1 0.1,0.1 0,0.2 0.1,0.1 0,0.1 0.1,0.2 0,0.1 0.1,0.2 0,0.1 0.1,0.1 0,0.2 0.1,0.1 0,0.2 0.1,0.1 0,0.1 0.1,0.2 0,0.1 0.1,0.2 0,0.1 0.1,0.2 0,0.1 0.1,0.2 0,0.1 0.1,0.1 0,0.2 0.1,0.1 0,0.2 0.1,0.1 0,0.2 0.1,0.1 0,0.2 0.1,0.1 0,0.2 0.1,0.1 0,0.2 0.1,0.1 0.1,0.2 0,0.1 0.1,0.2 0,0.2 0.1,0.1 0,0.2 0.1,0.1 0,0.2 0.1,0.1 0,0.2 0.1,0.1 0,0.2 0.1,0.2 0,0.1 0.1,0.2 0,0.1 0.1,0.2 0,0.2 0.1,0.1 0,0.2 0.1,0.1 0,0.2 0.1,0.2 0,0.1 0.1,0.2 0,0.1 0.1,0.2 0,0.2 0.1,0.1 0,0.2 0.1,0.2 0,0.1 0.1,0.2 0,0.2 0.1,0.1 0,0.2 0.1,0.2 0,0.1 0.1,0.2 0.1,0.2 0,0.1 0.1,0.2 0,0.2 0.1,0.1 0,0.2 0.1,0.2 0,0.1 0.1,0.2 0,0.2 0.1,0.1 0,0.2 0.1,0.2 0,0.2 0.1,0.1 0,0.2 0.1,0.2 0,0.2 0.1,0.1 0,0.2 0.1,0.2 0,0.1 0.1,0.2 0,0.2 0.1,0.2 0,0.1 0.1,0.2 0,0.2 0.1,0.2 0,0.1 0.1,0.2 0,0.2 0.1,0.2 0,0.2 0.1,0.1 0,0.2 0.1,0.2 0,0.2 0.1,0.1 0.1,0.2 0,0.2 0.1,0.2 0,0.2 0.1,0.1 0,0.2 0.1,0.2 0,0.2 0.1,0.2 0,0.1 0.1,0.2 0,0.2 0.1,0.2 0,0.2 0.1,0.2 0,0.1 0.1,0.2 0,0.2 0.1,0.2 0,0.2 0.1,0.1 0,0.2 0.1,0.2 0,0.2 0.1,0.2 0,0.2 0.1,0.1 0,0.2 0.1,0.2 0,0.2 0.1,0.2 0,0.2 0.1,0.2 0,0.1 0.1,0.2 0,0.2 0.1,0.2 0,0.2 0.1,0.2 0.1,0.1 0,0.2 0.1,0.2 0,0.2 0.1,0.2 0,0.2 0.1,0.2 0,0.1 0.1,0.2 0,0.2 0.1,0.2 0,0.2 0.1,0.2 0,0.2 0.1,0.2 0,0.1 0.1,0.2 0,0.2 0.1,0.2 0,0.2 0.1,0.2 0,0.2 0.1,0.2 0,0.1 0.1,0.2 0,0.2 0.1,0.2 0,0.2 0.1,0.2 0,0.2 0.1,0.2 0,0.1 0.1,0.2 0,0.2 0.1,0.2 0,0.2 0.1,0.2 0,0.2 0.1,0.2 0.1,0.1 0,0.2 0.1,0.2 0,0.2 0.1,0.2 0,0.2 0.1,0.2 0,0.2 0.1,0.1 0,0.2 0.1,0.2 0,0.2 0.1,0.2 0,0.2 0.1,0.2 0,0.2 0.1,0.1 0,0.2 0.1,0.2 0,0.2 0.1,0.2 0,0.2 0.1,0.2 0,0.1 0.1,0.2 0,0.2 0.1,0.2 0,0.2 0.1,0.2 0,0.2 0.1,0.2 0,0.1 0.1,0.2 0,0.2 0.1,0.2 0,0.2 0.1,0.2 0,0.2 0.1,0.1 0.1,0.2 0,0.2 0.1,0.2 0,0.2 0.1,0.2 0,0.1 0.1,0.2 0,0.2 0.1,0.2 0,0.2 0.1,0.2 0,0.1 0.1,0.2 0,0.2 0.1,0.2 0,0.2 0.1,0.2 0,0.1 0.1,0.2 0,0.2 0.1,0.2 0,0.2 0.1,0.2 0,0.1 0.1,0.2 0,0.2 0.1,0.2 0,0.2 0.1,0.1 0,0.2 0.1,0.2 0,0.2 0.1,0.2 0,0.1 0.1,0.2 0,0.2 0.1,0.2 0,0.1 0.1,0.2 0.1,0.2 0,0.2 0.1,0.2 0,0.1 0.1,0.2 0,0.2 0.1,0.2 0,0.1 0.1,0.2 0,0.2 0.1,0.2 0,0.1 0.1,0.2 0,0.2 0.1,0.2 0,0.1 0.1,0.2 0,0.2 0.1,0.1 0,0.2 0.1,0.2 0,0.2 0.1,0.1 0,0.2 0.1,0.2 0,0.1 0.1,0.2 0,0.2 0.1,0.2 0,0.1 0.1,0.2 0,0.2 0.1,0.1 0,0.2 0.1,0.2 0,0.1 0.1,0.2 0,0.2 0.1,0.1 0.1,0.2 0,0.2 0.1,0.1 0,0.2 0.1,0.2 0,0.1 0.1,0.2 0,0.1 0.1,0.2 0,0.2 0.1,0.1 0,0.2 0.1,0.1 0,0.2 0.1,0.2 0,0.1 0.1,0.2 0,0.1 0.1,0.2 0,0.2 0.1,0.1 0,0.2 0.1,0.1 0,0.2 0.1,0.1 0,0.2 0.1,0.2 0,0.1 0.1,0.2 0,0.1 0.1,0.2 0,0.1 0.1,0.2 0,0.1 0.1,0.2 0,0.1 0.1,0.2 0.1,0.1 0,0.2 0.1,0.1 0,0.2 0.1,0.1 0,0.2 0.1,0.1 0,0.2 0.1,0.1 0,0.1 0.1,0.2 0,0.1 0.1,0.2 0,0.1 0.1,0.2 0,0.1 0.1,0.1 0,0.2 0.1,0.1 0,0.2 0.1,0.1 0,0.1 0.1,0.2 0,0.1 0.1,0.2 0,0.1 0.1,0.1 0,0.2 0.1,0.1 0,0.1 0.1,0.2 0,0.1 0.1,0.1 0,0.2 0.1,0.1 0,0.1 0.1,0.2 0,0.1 0.1,0.1 0.1,0.1 0,0.2 0.1,0.1 0,0.1 0.1,0.2 0,0.1 0.1,0.1 0,0.1 0.1,0.2 0,0.1 0.1,0.1 0,0.1 0.1,0.1 0,0.2 0.1,0.1 0,0.1 0.1,0.1 0,0.1 0.1,0.2 0,0.1 0.1,0.1 0,0.1 0.1,0.1 0,0.1 0.1,0.2 0,0.1 0.1,0.1 0,0.1 0.1,0.1 0,0.1 0.1,0.1 0,0.1 0.1,0.1 0,0.1 0.1,0.2 0,0.1 0.1,0.1 0,0.1 0.1,0.1 0.1,0.1 0,0.1 0.1,0.1 0,0.1 0.1,0.1 0,0.1 0.1,0.1 0,0.1 0.1,0.1 0,0.1 0.1,0.1 0,0.1 0.1,0.1 0,0.1 0.1,0.1 0,0.1 0.1,0.1 0.1,0.1 0,0.1 0.1,0.1 0,0.1 0.1,0.1 0,0.1 0.1,0.1 0,0.1 0.1,0 0,0.1 0.1,0.1 0,0.1 0.1,0.1 0,0.1 0.1,0 0,0.1 0.1,0.1 0,0.1 0.1,0.1 0.1,0.1 0.1,0.1 0,0.1 0.1,0 0,0.1 0.1,0.1 0,0.1 0.1,0 0,0.1 0.1,0.1 0.1,0.1 0,0.1 0.1,0 0,0.1 0.1,0.1 0.1,0.1 0,0.1 0.1,0 0,0.1 0.1,0 0,0.1 0.1,0.1 0.1,0.1 0.1,0.1 0.1,0.1 0.1,0.1 0.1,0.1 0.1,0.1 0.1,0.1 0.1,0.1 0.1,0 0,0.1 0.1,0 0,0.1 0.1,0 0.1,0.1 0.1,0.1 0.1,0 0,0.1 0.1,0 0.1,0.1 0.1,0 0,0.1 0.1,0 0.1,0.1 0.1,0 0.1,0.1 0.1,0 0.1,0 0,0.1 0.1,0 0.1,0 0.1,0.1 0.1,0 0.1,0 0.1,0 0.1,0 0,0.1 0.1,0 0.1,0 0.1,0 0.1,0 0.1,0 0.1,0 0.1,0 0.1,0 0.1,0 0.1,0 0.1,-0.1 0.1,0 0.1,0 0.1,0 0.1,-0.1 0.1,0 0.1,0 0,-0.1 0.1,0 0.1,0 0.1,0 0,-0.1 0.1,0 0.1,-0.1 0.1,0 0.1,-0.1 0.1,0 0,-0.1 0.1,0 0.1,-0.1 0.1,-0.1 0.1,0 0,-0.1 0.1,0 0,-0.1 0.1,0 0,-0.1 0.1,0 0.1,-0.1 0.1,-0.1 0.1,-0.1 0.1,-0.1 0,-0.1 0.1,0 0,-0.1 0.1,0 0.1,-0.1 0.1,-0.1 0,-0.1 0.1,0 0,-0.1 0.1,0 0,-0.1 0.1,-0.1 0.1,-0.1 0,-0.1 0.1,0 0,-0.1 0.1,-0.1 0,-0.1 0.1,0 0,-0.1 0.1,-0.1 0.1,-0.1 0,-0.1 0.1,-0.1 0,-0.1 0.1,0 0,-0.1 0.1,-0.1 0,-0.1 0.1,-0.1 0.1,-0.1 0,-0.1 0.1,-0.1 0,-0.1 0.1,-0.1 0,-0.1 0.1,-0.1 0.1,-0.1 0.1,-0.1 0,-0.1 0.1,-0.1 0,-0.1 0.1,-0.1 0,-0.1 0.1,-0.1 0,-0.1 0.1,-0.1 0,-0.1 0.1,-0.1 0,-0.1 0.1,-0.1 0,-0.1 0.1,-0.1 0,-0.1 0.1,-0.1 0,-0.1 0.1,-0.1 0,-0.2 0.1,-0.1 0,-0.1 0.1,-0.1 0,-0.1 0.1,-0.1 0,-0.1 0.1,-0.1 0,-0.2 0.1,-0.1 0,-0.1 0.1,-0.1 0,-0.1 0.1,-0.2 0,-0.1 0.1,-0.1 0,-0.1 0.1,-0.1 0,-0.2 0.1,-0.1 0.1,-0.1 0,-0.1 0.1,-0.2 0,-0.1 0.1,-0.1 0,-0.2 0.1,-0.1 0,-0.1 0.1,-0.2 0,-0.1 0.1,-0.1 0,-0.2 0.1,-0.1 0,-0.1 0.1,-0.2 0,-0.1 0.1,-0.2 0,-0.1 0.1,-0.1 0,-0.2 0.1,-0.1 0,-0.2 0.1,-0.1 0,-0.2 0.1,-0.1 0,-0.2 0.1,-0.1 0,-0.2 0.1,-0.1 0,-0.2 0.1,-0.1 0,-0.2 0.1,-0.1 0,-0.2 0.1,-0.1 0,-0.2 0.1,-0.1 0,-0.2 0.1,-0.1 0.1,-0.2 0,-0.2 0.1,-0.1 0,-0.2 0.1,-0.1 0,-0.2 0.1,-0.2 0,-0.1 0.1,-0.2 0,-0.2 0.1,-0.1 0,-0.2 0.1,-0.2 0,-0.1 0.1,-0.2 0,-0.2 0.1,-0.1 0,-0.2 0.1,-0.2 0,-0.2 0.1,-0.1 0,-0.2 0.1,-0.2 0,-0.2 0.1,-0.1 0,-0.2 0.1,-0.2 0,-0.2 0.1,-0.2 0,-0.1 0.1,-0.2 0,-0.2 0.1,-0.2 0,-0.2 0.1,-0.2 0,-0.1 0.1,-0.2 0,-0.2 0.1,-0.2 0.1,-0.2 0,-0.2 0.1,-0.2 0,-0.2 0.1,-0.1 0,-0.2 0.1,-0.2 0,-0.2 0.1,-0.2 0,-0.2 0.1,-0.2 0,-0.2 0.1,-0.2 0,-0.2 0.1,-0.2 0,-0.2 0.1,-0.2 0,-0.2 0.1,-0.2 0,-0.2 0.1,-0.2 0,-0.2 0.1,-0.2 0,-0.2 0.1,-0.2 0,-0.2 0.1,-0.2 0,-0.2 0.1,-0.2 0,-0.2 0.1,-0.3 0,-0.2 0.1,-0.2 0,-0.2 0.1,-0.2 0,-0.2 0.1,-0.2 0,-0.2 0.1,-0.2 0.1,-0.3 0,-0.2 0.1,-0.2 0,-0.2 0.1,-0.2 0,-0.2 0.1,-0.3 0,-0.2 0.1,-0.2 0,-0.2 0.1,-0.2 0,-0.3 0.1,-0.2 0,-0.2 0.1,-0.2 0,-0.2 0.1,-0.3 0,-0.2 0.1,-0.2 0,-0.2 0.1,-0.3 0,-0.2 0.1,-0.2 0,-0.3 0.1,-0.2 0,-0.2 0.1,-0.2 0,-0.3 0.1,-0.2 0,-0.2 0.1,-0.3 0,-0.2 0.1,-0.2 0,-0.3 0.1,-0.2 0,-0.2 0.1,-0.3 0,-0.2 0.1,-0.2 0.1,-0.3 0,-0.2 0.1,-0.2 0,-0.3 0.1,-0.2 0,-0.3 0.1,-0.2 0,-0.2 0.1,-0.3 0,-0.2 0.1,-0.3 0,-0.2 0.1,-0.2 0,-0.3 0.1,-0.2 0,-0.3 0.1,-0.2 0,-0.3 0.1,-0.2 0,-0.3 0.1,-0.2 0,-0.2 0.1,-0.3 0,-0.2 0.1,-0.3 0,-0.2 0.1,-0.3 0,-0.2 0.1,-0.3 0,-0.2 0.1,-0.3 0,-0.2 0.1,-0.3 0,-0.2 0.1,-0.3 0,-0.2 0.1,-0.3 0,-0.3 0.1,-0.2 0.1,-0.3 0,-0.2 0.1,-0.3 0,-0.2 0.1,-0.3 0,-0.2 0.1,-0.3 0,-0.2 0.1,-0.3 0,-0.3 0.1,-0.2 0,-0.3 0.1,-0.2 0,-0.3 0.1,-0.3 0,-0.2 0.1,-0.3 0,-0.2 0.1,-0.3 0,-0.3 0.1,-0.2 0,-0.3 0.1,-0.2 0,-0.3 0.1,-0.3 0,-0.2 0.1,-0.3 0,-0.2 0.1,-0.3 0,-0.3 0.1,-0.2 0,-0.3 0.1,-0.3 0,-0.2 0.1,-0.3 0,-0.3 0.1,-0.2 0,-0.3 0.1,-0.3 0.1,-0.2 0,-0.3 0.1,-0.3 0,-0.2 0.1,-0.3 0,-0.3 0.1,-0.2 0,-0.3 0.1,-0.3 0,-0.2 0.1,-0.3 0,-0.3 0.1,-0.2 0,-0.3 0.1,-0.3 0,-0.2 0.1,-0.3 0,-0.3 0.1,-0.3 0,-0.2 0.1,-0.3 0,-0.3 0.1,-0.2 0,-0.3 0.1,-0.3 0,-0.3 0.1,-0.2 0,-0.3 0.1,-0.3 0,-0.2 0.1,-0.3 0,-0.3 0.1,-0.3 0,-0.2 0.1,-0.3 0,-0.3 0.1,-0.2 0,-0.3 0.1,-0.3 0.1,-0.3 0,-0.2 0.1,-0.3 0,-0.3 0.1,-0.3 0,-0.2 0.1,-0.3 0,-0.3 0.1,-0.3 0,-0.2 0.1,-0.3 0,-0.3 0.1,-0.2 0,-0.3 0.1,-0.3 0,-0.3 0.1,-0.2 0,-0.3 0.1,-0.3 0,-0.3 0.1,-0.2 0,-0.3 0.1,-0.3 0,-0.3 0.1,-0.2 0,-0.3 0.1,-0.3 0,-0.3 0.1,-0.2 0,-0.3 0.1,-0.3 0,-0.3 0.1,-0.2 0,-0.3 0.1,-0.3 0,-0.3 0.1,-0.2 0,-0.3 0.1,-0.3 0.1,-0.3 0,-0.2 0.1,-0.3 0,-0.3 0.1,-0.3 0,-0.2 0.1,-0.3 0,-0.3 0.1,-0.2 0,-0.3 0.1,-0.3 0,-0.3 0.1,-0.2 0,-0.3 0.1,-0.3 0,-0.3 0.1,-0.2 0,-0.3 0.1,-0.3 0,-0.3 0.1,-0.2 0,-0.3 0.1,-0.3 0,-0.2 0.1,-0.3 0,-0.3 0.1,-0.3 0,-0.2 0.1,-0.3 0,-0.3 0.1,-0.2 0,-0.3 0.1,-0.3 0,-0.3 0.1,-0.2 0,-0.3 0.1,-0.3 0,-0.2 0.1,-0.3 0.1,-0.3 0,-0.2 0.1,-0.3 0,-0.3 0.1,-0.2 0,-0.3 0.1,-0.3 0,-0.2 0.1,-0.3 0,-0.3 0.1,-0.2 0,-0.3 0.1,-0.3 0,-0.2 0.1,-0.3 0,-0.3 0.1,-0.2 0,-0.3 0.1,-0.3 0,-0.2 0.1,-0.3 0,-0.3 0.1,-0.2 0,-0.3 0.1,-0.3 0,-0.2 0.1,-0.3 0,-0.2 0.1,-0.3 0,-0.3 0.1,-0.2 0,-0.3 0.1,-0.3 0,-0.2 0.1,-0.3 0,-0.2 0.1,-0.3 0,-0.3 0.1,-0.2 0.1,-0.3 0,-0.2 0.1,-0.3 0,-0.2 0.1,-0.3 0,-0.3 0.1,-0.2 0,-0.3 0.1,-0.2 0,-0.3 0.1,-0.2 0,-0.3 0.1,-0.2 0,-0.3 0.1,-0.2 0,-0.3 0.1,-0.2 0,-0.3 0.1,-0.3 0,-0.2 0.1,-0.3 0,-0.2 0.1,-0.3 0,-0.2 0.1,-0.3 0,-0.2 0.1,-0.2 0,-0.3 0.1,-0.2 0,-0.3 0.1,-0.2 0,-0.3 0.1,-0.2 0,-0.3 0.1,-0.2 0,-0.3 0.1,-0.2 0,-0.2 0.1,-0.3 0.1,-0.2 0,-0.3 0.1,-0.2 0,-0.2 0.1,-0.3 0,-0.2 0.1,-0.3 0,-0.2 0.1,-0.2 0,-0.3 0.1,-0.2 0,-0.2 0.1,-0.3 0,-0.2 0.1,-0.2 0,-0.3 0.1,-0.2 0,-0.2 0.1,-0.3 0,-0.2 0.1,-0.2 0,-0.3 0.1,-0.2 0,-0.2 0.1,-0.3 0,-0.2 0.1,-0.2 0,-0.2 0.1,-0.3 0,-0.2 0.1,-0.2 0,-0.2 0.1,-0.3 0,-0.2 0.1,-0.2 0,-0.2 0.1,-0.2 0.1,-0.3 0,-0.2 0.1,-0.2 0,-0.2 0.1,-0.2 0,-0.3 0.1,-0.2 0,-0.2 0.1,-0.2 0,-0.2 0.1,-0.2 0,-0.3 0.1,-0.2 0,-0.2 0.1,-0.2 0,-0.2 0.1,-0.2 0,-0.2 0.1,-0.2 0,-0.2 0.1,-0.2 0,-0.2 0.1,-0.2 0,-0.3 0.1,-0.2 0,-0.2 0.1,-0.2 0,-0.2 0.1,-0.2 0,-0.2 0.1,-0.2 0,-0.2 0.1,-0.2 0,-0.2 0.1,-0.2 0,-0.2 0.1,-0.1 0,-0.2 0.1,-0.2 0.1,-0.2 0,-0.2 0.1,-0.2 0,-0.2 0.1,-0.2 0,-0.2 0.1,-0.2 0,-0.2 0.1,-0.1 0,-0.2 0.1,-0.2 0,-0.2 0.1,-0.2 0,-0.2 0.1,-0.1 0,-0.2 0.1,-0.2 0,-0.2 0.1,-0.2 0,-0.1 0.1,-0.2 0,-0.2 0.1,-0.2 0,-0.2 0.1,-0.1 0,-0.2 0.1,-0.2 0,-0.1 0.1,-0.2 0,-0.2 0.1,-0.1 0,-0.2 0.1,-0.2 0,-0.1 0.1,-0.2 0,-0.2 0.1,-0.1 0,-0.2 0.1,-0.2 0.1,-0.1 0,-0.2 0.1,-0.1 0,-0.2 0.1,-0.2 0,-0.1 0.1,-0.2 0,-0.1 0.1,-0.2 0,-0.1 0.1,-0.2 0,-0.1 0.1,-0.2 0,-0.1 0.1,-0.2 0,-0.1 0.1,-0.2 0,-0.1 0.1,-0.2 0,-0.1 0.1,-0.2 0,-0.1 0.1,-0.1 0,-0.2 0.1,-0.1 0,-0.2 0.1,-0.1 0,-0.1 0.1,-0.2 0,-0.1 0.1,-0.1 0,-0.2 0.1,-0.1 0,-0.1 0.1,-0.2 0,-0.1 0.1,-0.1 0,-0.1 0.1,-0.2 0.1,-0.1 0,-0.1 0.1,-0.1 0,-0.2 0.1,-0.1 0,-0.1 0.1,-0.1 0,-0.1 0.1,-0.1 0,-0.2 0.1,-0.1 0,-0.1 0.1,-0.1 0,-0.1 0.1,-0.1 0,-0.1 0.1,-0.1 0,-0.2 0.1,-0.1 0,-0.1 0.1,-0.1 0,-0.1 0.1,-0.1 0,-0.1 0.1,-0.1 0,-0.1 0.1,-0.1 0,-0.1 0.1,-0.1 0,-0.1 0.1,-0.1 0,-0.1 0.1,0 0,-0.1 0.1,-0.1 0,-0.1 0.1,-0.1 0,-0.1 0.1,-0.1 0.1,-0.1 0.1,-0.1 0,-0.1 0.1,-0.1 0,-0.1 0.1,-0.1 0.1,-0.1 0,-0.1 0.1,-0.1 0.1,-0.1 0,-0.1 0.1,0 0,-0.1 0.1,-0.1 0,-0.1 0.1,0 0,-0.1 0.1,0 0,-0.1 0.1,-0.1 0.1,-0.1 0.1,-0.1 0,-0.1 0.1,0 0,-0.1 0.1,0 0,-0.1 0.1,0 0,-0.1 0.1,0 0,-0.1 0.1,0 0,-0.1 0.1,0 0.1,-0.1 0.1,0 0,-0.1 0.1,0 0.1,-0.1 0.1,-0.1 0.1,0 0,-0.1 0.1,0 0.1,0 0,-0.1 0.1,0 0.1,0 0,-0.1 0.1,0 0.1,0 0.1,-0.1 0.1,0 0.1,0 0.1,0 0.1,0 0.1,-0.1 0.1,0 0.1,0 0.1,0 0.1,0 0.1,0.1 0.1,0 0.1,0 0.1,0 0.1,0 0.1,0.1 0.1,0 0.1,0 0,0.1 0.1,0 0.1,0 0,0.1 0.1,0 0.1,0 0,0.1 0.1,0 0.1,0.1 0.1,0.1 0.1,0 0,0.1 0.1,0 0,0.1 0.1,0 0.1,0 0,0.1 0.1,0 0,0.1 0.1,0 0,0.1 0.1,0 0,0.1 0.1,0 0,0.1 0.1,0 0,0.1 0.1,0.1 0.1,0.1 0.1,0.1 0,0.1 0.1,0 0,0.1 0.1,0.1 0.1,0.1 0,0.1 0.1,0.1 0.1,0.1 0,0.1 0.1,0 0,0.1 0.1,0.1 0,0.1 0.1,0.1 0.1,0.1 0,0.1 0.1,0.1 0,0.1 0.1,0.1 0.1,0.1 0,0.1 0.1,0 0,0.1 0.1,0.1 0,0.1 0.1,0.1 0,0.1 0.1,0.1 0,0.1 0.1,0.1 0,0.1 0.1,0.1 0,0.1 0.1,0.1 0,0.1 0.1,0.1 0,0.1 0.1,0.1 0,0.1 0.1,0.2 0,0.1 0.1,0.1 0,0.1 0.1,0.1 0,0.1 0.1,0.1 0,0.2 0.1,0.1 0,0.1 0.1,0.1 0,0.1 0.1,0.2 0,0.1 0.1,0.1 0,0.1 0.1,0.2 0,0.1 0.1,0.1 0.1,0.2 0,0.1 0.1,0.1 0,0.2 0.1,0.1 0,0.1 0.1,0.2 0,0.1 0.1,0.1 0,0.2 0.1,0.1 0,0.2 0.1,0.1 0,0.2 0.1,0.1 0,0.1 0.1,0.2 0,0.1 0.1,0.2 0,0.1 0.1,0.2 0,0.1 0.1,0.2 0,0.2 0.1,0.1 0,0.2 0.1,0.1 0,0.2 0.1,0.1 0,0.2 0.1,0.2 0,0.1 0.1,0.2 0,0.2 0.1,0.1 0,0.2 0.1,0.2 0,0.1 0.1,0.2 0.1,0.2 0,0.1 0.1,0.2 0,0.2 0.1,0.2 0,0.1 0.1,0.2 0,0.2 0.1,0.2 0,0.1 0.1,0.2 0,0.2 0.1,0.2 0,0.2 0.1,0.1 0,0.2 0.1,0.2 0,0.2 0.1,0.2 0,0.2 0.1,0.2 0,0.2 0.1,0.2 0,0.1 0.1,0.2 0,0.2 0.1,0.2 0,0.2 0.1,0.2 0,0.2 0.1,0.2 0,0.2 0.1,0.2 0,0.2 0.1,0.2 0,0.2 0.1,0.2 0,0.2 0.1,0.2 0.1,0.2 0,0.2 0.1,0.3 0,0.2 0.1,0.2 0,0.2 0.1,0.2 0,0.2 0.1,0.2 0,0.2 0.1,0.3 0,0.2 0.1,0.2 0,0.2 0.1,0.2 0,0.2 0.1,0.3 0,0.2 0.1,0.2 0,0.2 0.1,0.3 0,0.2 0.1,0.2 0,0.2 0.1,0.3 0,0.2 0.1,0.2 0,0.2 0.1,0.3 0,0.2 0.1,0.2 0,0.3 0.1,0.2 0,0.2 0.1,0.3 0,0.2 0.1,0.2 0,0.3 0.1,0.2 0.1,0.2 0,0.3 0.1,0.2 0,0.3 0.1,0.2 0,0.3 0.1,0.2 0,0.2 0.1,0.3 0,0.2 0.1,0.3 0,0.2 0.1,0.3 0,0.2 0.1,0.3 0,0.2 0.1,0.3 0,0.2 0.1,0.3 0,0.2 0.1,0.3 0,0.2 0.1,0.3 0,0.2 0.1,0.3 0,0.2 0.1,0.3 0,0.3 0.1,0.2 0,0.3 0.1,0.2 0,0.3 0.1,0.2 0,0.3 0.1,0.3 0,0.2 0.1,0.3 0,0.3 0.1,0.2 0.1,0.3 0,0.3 0.1,0.2 0,0.3 0.1,0.3 0,0.2 0.1,0.3 0,0.3 0.1,0.2 0,0.3 0.1,0.3 0,0.2 0.1,0.3 0,0.3 0.1,0.3 0,0.2 0.1,0.3 0,0.3 0.1,0.2 0,0.3 0.1,0.3 0,0.3 0.1,0.3 0,0.2 0.1,0.3 0,0.3 0.1,0.3 0,0.2 0.1,0.3 0,0.3 0.1,0.3 0,0.3 0.1,0.2 0,0.3 0.1,0.3 0,0.3 0.1,0.3 0,0.3 0.1,0.2 0.1,0.3 0,0.3 0.1,0.3 0,0.3 0.1,0.3 0,0.3 0.1,0.2 0,0.3 0.1,0.3 0,0.3 0.1,0.3 0,0.3 0.1,0.3 0,0.3 0.1,0.3 0,0.3 0.1,0.2 0,0.3 0.1,0.3 0,0.3 0.1,0.3 0,0.3 0.1,0.3 0,0.3 0.1,0.3 0,0.3 0.1,0.3 0,0.3 0.1,0.3 0,0.3 0.1,0.3 0,0.3 0.1,0.2 0,0.3 0.1,0.3 0,0.3 0.1,0.3 0,0.3 0.1,0.3 0.1,0.3 0,0.3 0.1,0.3 0,0.3 0.1,0.3 0,0.3 0.1,0.3 0,0.3 0.1,0.3 0,0.3 0.1,0.3 0,0.3 0.1,0.3 0,0.3 0.1,0.3 0,0.3 0.1,0.3 0,0.3 0.1,0.3 0,0.3 0.1,0.3 0,0.3 0.1,0.3 0,0.3 0.1,0.3 0,0.3 0.1,0.4 0,0.3 0.1,0.3 0,0.3 0.1,0.3 0,0.3 0.1,0.3 0,0.3 0.1,0.3 0,0.3 0.1,0.3 0,0.3 0.1,0.3 0.1,0.3 0,0.3 0.1,0.3 0,0.3 0.1,0.3 0,0.3 0.1,0.3 0,0.3 0.1,0.3 0,0.3 0.1,0.3 0,0.3 0.1,0.3 0,0.4 0.1,0.3 0,0.3 0.1,0.3 0,0.3 0.1,0.3 0,0.3 0.1,0.3 0,0.3 0.1,0.3 0,0.3 0.1,0.3 0,0.3 0.1,0.3 0,0.3 0.1,0.3 0,0.3 0.1,0.3 0,0.3 0.1,0.3 0,0.3 0.1,0.3 0,0.3 0.1,0.3 0,0.3 0.1,0.3 0.1,0.3 0,0.3 0.1,0.3 0,0.4 0.1,0.3 0,0.3 0.1,0.3 0,0.3 0.1,0.3 0,0.3 0.1,0.3 0,0.3 0.1,0.3 0,0.3 0.1,0.3 0,0.3 0.1,0.3 0,0.3 0.1,0.3 0,0.3 0.1,0.3 0,0.2 0.1,0.3 0,0.3 0.1,0.3 0,0.3 0.1,0.3 0,0.3 0.1,0.3 0,0.3 0.1,0.3 0,0.3 0.1,0.3 0,0.3 0.1,0.3 0,0.3 0.1,0.3 0,0.3 0.1,0.3 0.1,0.3 0,0.3 0.1,0.2 0,0.3 0.1,0.3 0,0.3 0.1,0.3 0,0.3 0.1,0.3 0,0.3 0.1,0.3 0,0.3 0.1,0.2 0,0.3 0.1,0.3 0,0.3 0.1,0.3 0,0.3 0.1,0.3 0,0.2 0.1,0.3 0,0.3 0.1,0.3 0,0.3 0.1,0.3 0,0.2 0.1,0.3 0,0.3 0.1,0.3 0,0.3 0.1,0.2 0,0.3 0.1,0.3 0,0.3 0.1,0.3 0,0.2 0.1,0.3 0,0.3 0.1,0.3 0.1,0.2 0,0.3 0.1,0.3 0,0.2 0.1,0.3 0,0.3 0.1,0.3 0,0.2 0.1,0.3 0,0.3 0.1,0.2 0,0.3 0.1,0.3 0,0.2 0.1,0.3 0,0.3 0.1,0.2 0,0.3 0.1,0.3 0,0.2 0.1,0.3 0,0.3 0.1,0.2 0,0.3 0.1,0.2 0,0.3 0.1,0.2 0,0.3 0.1,0.3 0,0.2 0.1,0.3 0,0.2 0.1,0.3 0,0.2 0.1,0.3 0,0.2 0.1,0.3 0,0.2 0.1,0.3 0.1,0.2 0,0.3 0.1,0.2 0,0.3 0.1,0.2 0,0.3 0.1,0.2 0,0.2 0.1,0.3 0,0.2 0.1,0.3 0,0.2 0.1,0.3 0,0.2 0.1,0.2 0,0.3 0.1,0.2 0,0.2 0.1,0.3 0,0.2 0.1,0.2 0,0.3 0.1,0.2 0,0.2 0.1,0.2 0,0.3 0.1,0.2 0,0.2 0.1,0.3 0,0.2 0.1,0.2 0,0.2 0.1,0.2 0,0.3 0.1,0.2 0,0.2 0.1,0.2 0.1,0.2 0,0.3 0.1,0.2 0,0.2 0.1,0.2 0,0.2 0.1,0.2 0,0.2 0.1,0.2 0,0.2 0.1,0.2 0,0.3 0.1,0.2 0,0.2 0.1,0.2 0,0.2 0.1,0.2 0,0.2 0.1,0.2 0,0.2 0.1,0.2 0,0.2 0.1,0.1 0,0.2 0.1,0.2 0,0.2 0.1,0.2 0,0.2 0.1,0.2 0,0.2 0.1,0.2 0,0.1 0.1,0.2 0,0.2 0.1,0.2 0,0.2 0.1,0.2 0,0.1 0.1,0.2 0.1,0.2 0,0.2 0.1,0.1 0,0.2 0.1,0.2 0,0.1 0.1,0.2 0,0.2 0.1,0.2 0,0.1 0.1,0.2 0,0.1 0.1,0.2 0,0.2 0.1,0.1 0,0.2 0.1,0.1 0,0.2 0.1,0.2 0,0.1 0.1,0.2 0,0.1 0.1,0.2 0,0.1 0.1,0.2 0,0.1 0.1,0.1 0,0.2 0.1,0.1 0,0.2 0.1,0.1 0,0.1 0.1,0.2 0,0.1 0.1,0.2 0,0.1 0.1,0.1 0,0.2 0.1,0.1 0.1,0.1 0,0.1 0.1,0.2 0,0.1 0.1,0.1 0,0.1 0.1,0.2 0,0.1 0.1,0.1 0,0.1 0.1,0.1 0,0.1 0.1,0.1 0,0.2 0.1,0.1 0,0.1 0.1,0.1 0,0.1 0.1,0.1 0,0.1 0.1,0.1 0,0.1 0.1,0.1 0,0.1 0.1,0.1 0,0.1 0.1,0.1 0,0.1 0.1,0.1 0,0.1 0.1,0 0,0.1 0.1,0.1 0,0.1 0.1,0.1 0,0.1 0.1,0 0,0.1 0.1,0.1 0.1,0.1 0.1,0.1 0,0.1 0.1,0 0,0.1 0.1,0.1 0.1,0.1 0,0.1 0.1,0 0,0.1 0.1,0 0,0.1 0.1,0.1 0.1,0.1 0.1,0.1 0.1,0.1 0.1,0 0,0.1 0.1,0 0,0.1 0.1,0 0.1,0.1 0.1,0 0,0.1 0.1,0 0.1,0 0.1,0.1 0.1,0 0.1,0 0.1,0.1 0.1,0 0.1,0 0.1,0 0.1,0 0.1,0 0.1,0 0.1,0 0.1,-0.1 0.1,0 0.1,0 0.1,-0.1 0.1,0 0.1,-0.1 0.1,0 0,-0.1 0.1,0 0.1,-0.1 0.1,0 0,-0.1 0.1,0 0.1,-0.1 0.1,-0.1 0.1,-0.1 0.1,-0.1 0,-0.1 0.1,0 0,-0.1 0.1,0 0,-0.1 0.1,-0.1 0.1,-0.1 0,-0.1 0.1,-0.1 0.1,-0.1 0,-0.1 0.1,-0.1 0.1,-0.1 0,-0.1 0.1,-0.1 0,-0.1 0.1,-0.1 0,-0.1 0.1,-0.1 0,-0.1 0.1,0 0,-0.1 0.1,-0.1 0,-0.1 0.1,-0.2 0,-0.1 0.1,-0.1 0,-0.1 0.1,-0.1 0.1,-0.1 0,-0.1 0.1,-0.1 0,-0.1 0.1,-0.2 0,-0.1 0.1,-0.1 0,-0.1 0.1,-0.2 0,-0.1 0.1,-0.1 0,-0.1 0.1,-0.2 0,-0.1 0.1,-0.1 0,-0.2 0.1,-0.1 0,-0.2 0.1,-0.1 0,-0.1 0.1,-0.2 0,-0.1 0.1,-0.2 0,-0.1 0.1,-0.2 0,-0.1 0.1,-0.2 0,-0.2 0.1,-0.1 0,-0.2 0.1,-0.1 0,-0.2 0.1,-0.2 0,-0.2 0.1,-0.1 0,-0.2 0.1,-0.2 0,-0.1 0.1,-0.2 0.1,-0.2 0,-0.2 0.1,-0.2 0,-0.1 0.1,-0.2 0,-0.2 0.1,-0.2 0,-0.2 0.1,-0.2 0,-0.2 0.1,-0.2 0,-0.2 0.1,-0.2 0,-0.2 0.1,-0.2 0,-0.2 0.1,-0.2 0,-0.2 0.1,-0.2 0,-0.2 0.1,-0.2 0,-0.3 0.1,-0.2 0,-0.2 0.1,-0.2 0,-0.2 0.1,-0.3 0,-0.2 0.1,-0.2 0,-0.2 0.1,-0.3 0,-0.2 0.1,-0.2 0,-0.3 0.1,-0.2 0,-0.3 0.1,-0.2 0,-0.2 0.1,-0.3 0.1,-0.2 0,-0.3 0.1,-0.2 0,-0.3 0.1,-0.2 0,-0.3 0.1,-0.3 0,-0.2 0.1,-0.3 0,-0.2 0.1,-0.3 0,-0.3 0.1,-0.2 0,-0.3 0.1,-0.3 0,-0.2 0.1,-0.3 0,-0.3 0.1,-0.3 0,-0.3 0.1,-0.2 0,-0.3 0.1,-0.3 0,-0.3 0.1,-0.3 0,-0.3 0.1,-0.3 0,-0.2 0.1,-0.3 0,-0.3 0.1,-0.3 0,-0.3 0.1,-0.3 0,-0.3 0.1,-0.3 0,-0.4 0.1,-0.3 0,-0.3 0.1,-0.3 0.1,-0.3 0,-0.3 0.1,-0.3 0,-0.3 0.1,-0.4 0,-0.3 0.1,-0.3 0,-0.3 0.1,-0.4 0,-0.3 0.1,-0.3 0,-0.4 0.1,-0.3 0,-0.3 0.1,-0.4 0,-0.3 0.1,-0.3 0,-0.4 0.1,-0.3 0,-0.4 0.1,-0.3 0,-0.4 0.1,-0.3 0,-0.4 0.1,-0.3 0,-0.4 0.1,-0.3 0,-0.4 0.1,-0.3 0,-0.4 0.1,-0.4 0,-0.3 0.1,-0.4 0,-0.4 0.1,-0.3 0,-0.4 0.1,-0.4 0,-0.4 0.1,-0.3 0.1,-0.4 0,-0.4 0.1,-0.4 0,-0.4 0.1,-0.3 0,-0.4 0.1,-0.4 0,-0.4 0.1,-0.4 0,-0.4 0.1,-0.4 0,-0.4 0.1,-0.4 0,-0.4 0.1,-0.4 0,-0.4 0.1,-0.4 0,-0.4 0.1,-0.4 0,-0.4 0.1,-0.4 0,-0.4 0.1,-0.4 0,-0.4 0.1,-0.5 0,-0.4 0.1,-0.4 0,-0.4 0.1,-0.4 0,-0.5 0.1,-0.4 0,-0.4 0.1,-0.4 0,-0.5 0.1,-0.4 0,-0.4 0.1,-0.5 0,-0.4 0.1,-0.4 0.1,-0.5 0,-0.4 0.1,-0.5 0,-0.4 0.1,-0.4 0,-0.5 0.1,-0.4 0,-0.5 0.1,-0.4 0,-0.5 0.1,-0.4 0,-0.5 0.1,-0.4 0,-0.5 0.1,-0.5 0,-0.4 0.1,-0.5 0,-0.4 0.1,-0.5 0,-0.5 0.1,-0.4 0,-0.5 0.1,-0.5 0,-0.5 0.1,-0.4 0,-0.5 0.1,-0.5 0,-0.5 0.1,-0.4 0,-0.5 0.1,-0.5 0,-0.5 0.1,-0.5 0,-0.5 0.1,-0.4 0,-0.5 0.1,-0.5 0,-0.5 0.1,-0.5 0.1,-0.5 0,-0.5 0.1,-0.5 0,-0.5 0.1,-0.5 0,-0.5 0.1,-0.5 0,-0.5 0.1,-0.5 0,-0.5 0.1,-0.5 0,-0.5 0.1,-0.5 0,-0.5 0.1,-0.6 0,-0.5 0.1,-0.5 0,-0.5 0.1,-0.5 0,-0.5 0.1,-0.6 0,-0.5 0.1,-0.5 0,-0.5 0.1,-0.6 0,-0.5 0.1,-0.5 0,-0.5 0.1,-0.6 0,-0.5 0.1,-0.5 0,-0.6 0.1,-0.5 0,-0.5 0.1,-0.6 0,-0.5 0.1,-0.6 0,-0.5 0.1,-0.5 0.1,-0.6 0,-0.5 0.1,-0.6 0,-0.5 0.1,-0.6 0,-0.5 0.1,-0.6 0,-0.5 0.1,-0.6 0,-0.5 0.1,-0.6 0,-0.5 0.1,-0.6 0,-0.6 0.1,-0.5 0,-0.6 0.1,-0.5 0,-0.6 0.1,-0.6 0,-0.5 0.1,-0.6 0,-0.6 0.1,-0.5 0,-0.6 0.1,-0.6 0,-0.6 0.1,-0.5 0,-0.6 0.1,-0.6 0,-0.5 0.1,-0.6 0,-0.6 0.1,-0.6 0,-0.6 0.1,-0.5 0,-0.6 0.1,-0.6 0,-0.6 0.1,-0.6 0.1,-0.6 0,-0.5 0.1,-0.6 0,-0.6 0.1,-0.6 0,-0.6 0.1,-0.6 0,-0.6 0.1,-0.6 0,-0.6 0.1,-0.6 0,-0.6 0.1,-0.6 0,-0.6 0.1,-0.6 0,-0.6 0.1,-0.6 0,-0.6 0.1,-0.6 0,-0.6 0.1,-0.6 0,-0.6 0.1,-0.6 0,-0.6 0.1,-0.6 0,-0.6 0.1,-0.6 0,-0.6 0.1,-0.6 0,-0.7 0.1,-0.6 0,-0.6 0.1,-0.6 0,-0.6 0.1,-0.6 0,-0.6 0.1,-0.7 0,-0.6 0.1,-0.6 0.1,-0.6 0,-0.6 0.1,-0.7 0,-0.6 0.1,-0.6 0,-0.6 0.1,-0.7 0,-0.6 0.1,-0.6 0,-0.6 0.1,-0.7 0,-0.6 0.1,-0.6 0,-0.7 0.1,-0.6 0,-0.6 0.1,-0.6 0,-0.7 0.1,-0.6 0,-0.6 0.1,-0.7 0,-0.6 0.1,-0.6 0,-0.7 0.1,-0.6 0,-0.7 0.1,-0.6 0,-0.6 0.1,-0.7 0,-0.6 0.1,-0.6 0,-0.7 0.1,-0.6 0,-0.7 0.1,-0.6 0,-0.7 0.1,-0.6 0,-0.6 0.1,-0.7 0.1,-0.6 0,-0.7 0.1,-0.6 0,-0.7 0.1,-0.6 0,-0.7 0.1,-0.6 0,-0.7 0.1,-0.6 0,-0.7 0.1,-0.6 0,-0.7 0.1,-0.6 0,-0.7 0.1,-0.6 0,-0.7 0.1,-0.6 0,-0.7 0.1,-0.6 0,-0.7 0.1,-0.6 0,-0.7 0.1,-0.6 0,-0.7 0.1,-0.6 0,-0.7 0.1,-0.7 0,-0.6 0.1,-0.7 0,-0.6 0.1,-0.7 0,-0.6 0.1,-0.7 0,-0.7 0.1,-0.6 0,-0.7 0.1,-0.6 0,-0.7 0.1,-0.6 0.1,-0.7 0,-0.7 0.1,-0.6 0,-0.7 0.1,-0.6 0,-0.7 0.1,-0.7 0,-0.6 0.1,-0.7 0,-0.6 0.1,-0.7 0,-0.7 0.1,-0.6 0,-0.7 0.1,-0.7 0,-0.6 0.1,-0.7 0,-0.6 0.1,-0.7 0,-0.7 0.1,-0.6 0,-0.7 0.1,-0.7 0,-0.6 0.1,-0.7 0,-0.7 0.1,-0.6 0,-0.7 0.1,-0.6 0,-0.7 0.1,-0.7 0,-0.6 0.1,-0.7 0,-0.7 0.1,-0.6 0,-0.7 0.1,-0.7 0,-0.6 0.1,-0.7 0.1,-0.6 0,-0.7 0.1,-0.7 0,-0.6 0.1,-0.7 0,-0.7 0.1,-0.6 0,-0.7 0.1,-0.7 0,-0.6 0.1,-0.7 0,-0.6 0.1,-0.7 0,-0.7 0.1,-0.6 0,-0.7 0.1,-0.7 0,-0.6 0.1,-0.7 0,-0.7 0.1,-0.6 0,-0.7 0.1,-0.6 0,-0.7 0.1,-0.7 0,-0.6 0.1,-0.7 0,-0.6 0.1,-0.7 0,-0.7 0.1,-0.6 0,-0.7 0.1,-0.6 0,-0.7 0.1,-0.7 0,-0.6 0.1,-0.7 0,-0.6 0.1,-0.7 0.1,-0.7 0,-0.6 0.1,-0.7 0,-0.6 0.1,-0.7 0,-0.6 0.1,-0.7 0,-0.6 0.1,-0.7 0,-0.7 0.1,-0.6 0,-0.7 0.1,-0.6 0,-0.7 0.1,-0.6 0,-0.7 0.1,-0.6 0,-0.7 0.1,-0.6 0,-0.7 0.1,-0.6 0,-0.7 0.1,-0.6 0,-0.7 0.1,-0.6 0,-0.7 0.1,-0.6 0,-0.7 0.1,-0.6 0,-0.7 0.1,-0.6 0,-0.6 0.1,-0.7 0,-0.6 0.1,-0.7 0,-0.6 0.1,-0.7 0,-0.6 0.1,-0.6 0.1,-0.7 0,-0.6 0.1,-0.7 0,-0.6 0.1,-0.6 0,-0.7 0.1,-0.6 0,-0.6 0.1,-0.7 0,-0.6 0.1,-0.7 0,-0.6 0.1,-0.6 0,-0.7 0.1,-0.6 0,-0.6 0.1,-0.6 0,-0.7 0.1,-0.6 0,-0.6 0.1,-0.7 0,-0.6 0.1,-0.6 0,-0.6 0.1,-0.7 0,-0.6 0.1,-0.6 0,-0.6 0.1,-0.6 0,-0.7 0.1,-0.6 0,-0.6 0.1,-0.6 0,-0.6 0.1,-0.7 0,-0.6 0.1,-0.6 0,-0.6 0.1,-0.6 0.1,-0.6 0,-0.6 0.1,-0.6 0,-0.7 0.1,-0.6 0,-0.6 0.1,-0.6 0,-0.6 0.1,-0.6 0,-0.6 0.1,-0.6 0,-0.6 0.1,-0.6 0,-0.6 0.1,-0.6 0,-0.6 0.1,-0.6 0,-0.6 0.1,-0.6 0,-0.6 0.1,-0.6 0,-0.6 0.1,-0.6 0,-0.6 0.1,-0.5 0,-0.6 0.1,-0.6 0,-0.6 0.1,-0.6 0,-0.6 0.1,-0.6 0,-0.5 0.1,-0.6 0,-0.6 0.1,-0.6 0,-0.6 0.1,-0.5 0.1,-0.6 0,-0.6 0.1,-0.6 0,-0.5 0.1,-0.6 0,-0.6 0.1,-0.5 0,-0.6 0.1,-0.6 0,-0.5 0.1,-0.6 0,-0.6 0.1,-0.5 0,-0.6 0.1,-0.5 0,-0.6 0.1,-0.6 0,-0.5 0.1,-0.6 0,-0.5 0.1,-0.6 0,-0.5 0.1,-0.6 0,-0.5 0.1,-0.6 0,-0.5 0.1,-0.6 0,-0.5 0.1,-0.5 0,-0.6 0.1,-0.5 0,-0.6 0.1,-0.5 0,-0.5 0.1,-0.6 0,-0.5 0.1,-0.5 0,-0.6 0.1,-0.5 0.1,-0.5 0,-0.5 0.1,-0.6 0,-0.5 0.1,-0.5 0,-0.5 0.1,-0.6 0,-0.5 0.1,-0.5 0,-0.5 0.1,-0.5 0,-0.5 0.1,-0.5 0,-0.5 0.1,-0.6 0,-0.5 0.1,-0.5 0,-0.5 0.1,-0.5 0,-0.5 0.1,-0.5 0,-0.5 0.1,-0.5 0,-0.5 0.1,-0.4 0,-0.5 0.1,-0.5 0,-0.5 0.1,-0.5 0,-0.5 0.1,-0.5 0,-0.5 0.1,-0.4 0,-0.5 0.1,-0.5 0,-0.5 0.1,-0.4 0,-0.5 0.1,-0.5 0.1,-0.5 0,-0.4 0.1,-0.5 0,-0.5 0.1,-0.4 0,-0.5 0.1,-0.4 0,-0.5 0.1,-0.5 0,-0.4 0.1,-0.5 0,-0.4 0.1,-0.5 0,-0.4 0.1,-0.5 0,-0.4 0.1,-0.4 0,-0.5 0.1,-0.4 0,-0.5 0.1,-0.4 0,-0.4 0.1,-0.5 0,-0.4 0.1,-0.4 0,-0.5 0.1,-0.4 0,-0.4 0.1,-0.4 0,-0.5 0.1,-0.4 0,-0.4 0.1,-0.4 0,-0.4 0.1,-0.4 0,-0.4 0.1,-0.5 0,-0.4 0.1,-0.4 0.1,-0.4 0,-0.4 0.1,-0.4 0,-0.4 0.1,-0.4 0,-0.4 0.1,-0.3 0,-0.4 0.1,-0.4 0,-0.4 0.1,-0.4 0,-0.4 0.1,-0.4 0,-0.3 0.1,-0.4 0,-0.4 0.1,-0.4 0,-0.3 0.1,-0.4 0,-0.4 0.1,-0.3 0,-0.4 0.1,-0.4 0,-0.3 0.1,-0.4 0,-0.3 0.1,-0.4 0,-0.4 0.1,-0.3 0,-0.4 0.1,-0.3 0,-0.3 0.1,-0.4 0,-0.3 0.1,-0.4 0,-0.3 0.1,-0.3 0,-0.4 0.1,-0.3 0.1,-0.3 0,-0.4 0.1,-0.3 0,-0.3 0.1,-0.3 0,-0.3 0.1,-0.4 0,-0.3 0.1,-0.3 0,-0.3 0.1,-0.3 0,-0.3 0.1,-0.3 0,-0.3 0.1,-0.3 0,-0.3 0.1,-0.3 0,-0.3 0.1,-0.3 0,-0.3 0.1,-0.3 0,-0.3 0.1,-0.3 0,-0.3 0.1,-0.2 0,-0.3 0.1,-0.3 0,-0.3 0.1,-0.2 0,-0.3 0.1,-0.3 0,-0.2 0.1,-0.3 0,-0.3 0.1,-0.2 0,-0.3 0.1,-0.2 0,-0.3 0.1,-0.2 0.1,-0.3 0,-0.2 0.1,-0.3 0,-0.2 0.1,-0.3 0,-0.2 0.1,-0.2 0,-0.3 0.1,-0.2 0,-0.2 0.1,-0.3 0,-0.2 0.1,-0.2 0,-0.2 0.1,-0.3 0,-0.2 0.1,-0.2 0,-0.2 0.1,-0.2 0,-0.2 0.1,-0.2 0,-0.2 0.1,-0.2 0,-0.2 0.1,-0.2 0,-0.2 0.1,-0.2 0,-0.2 0.1,-0.2 0,-0.2 0.1,-0.2 0,-0.1 0.1,-0.2 0,-0.2 0.1,-0.2 0,-0.1 0.1,-0.2 0,-0.2 0.1,-0.2 0.1,-0.1 0,-0.2 0.1,-0.1 0,-0.2 0.1,-0.2 0,-0.1 0.1,-0.2 0,-0.1 0.1,-0.1 0,-0.2 0.1,-0.1 0,-0.2 0.1,-0.1 0,-0.1 0.1,-0.2 0,-0.1 0.1,-0.1 0,-0.2 0.1,-0.1 0,-0.1 0.1,-0.1 0,-0.1 0.1,-0.2 0,-0.1 0.1,-0.1 0,-0.1 0.1,-0.1 0,-0.1 0.1,-0.1 0,-0.1 0.1,-0.1 0,-0.1 0.1,-0.1 0,-0.1 0.1,-0.1 0.1,-0.1 0,-0.1 0.1,-0.1 0.1,-0.1 0.1,-0.1 0,-0.1 0.1,0 0,-0.1 0.1,-0.1 0.1,-0.1 0.1,-0.1 0.1,-0.1 0.1,-0.1 0.1,0 0,-0.1 0.1,0 0.1,-0.1 0.1,0 0.1,-0.1 0.1,0 0.1,0 0.1,0 0.1,0 0.1,0 0.1,0 0.1,0 0.1,0 0.1,0.1 0.1,0 0.1,0.1 0.1,0 0,0.1 0.1,0 0.1,0.1 0.1,0.1 0.1,0.1 0.1,0.1 0.1,0.1 0,0.1 0.1,0 0,0.1 0.1,0.1 0,0.1 0.1,0 0,0.1 0.1,0.1 0,0.1 0.1,0.1 0.1,0.1 0,0.1 0.1,0.1 0,0.1 0.1,0.1 0,0.1 0.1,0.1 0.1,0.1 0,0.1 0.1,0.1 0,0.2 0.1,0.1 0,0.1 0.1,0.1 0,0.1 0.1,0.2 0,0.1 0.1,0.1 0,0.1 0.1,0.2 0,0.1 0.1,0.2 0,0.1 0.1,0.1 0,0.2 0.1,0.1 0,0.2 0.1,0.1 0,0.2 0.1,0.1 0,0.2 0.1,0.2 0,0.1 0.1,0.2 0,0.2 0.1,0.1 0,0.2 0.1,0.2 0,0.2 0.1,0.1 0,0.2 0.1,0.2 0,0.2 0.1,0.2 0,0.2 0.1,0.2 0.1,0.2 0,0.2 0.1,0.2 0,0.2 0.1,0.2 0,0.2 0.1,0.2 0,0.2 0.1,0.2 0,0.2 0.1,0.2 0,0.3 0.1,0.2 0,0.2 0.1,0.2 0,0.3 0.1,0.2 0,0.2 0.1,0.3 0,0.2 0.1,0.3 0,0.2 0.1,0.2 0,0.3 0.1,0.2 0,0.3 0.1,0.2 0,0.3 0.1,0.3 0,0.2 0.1,0.3 0,0.2 0.1,0.3 0,0.3 0.1,0.3 0,0.2 0.1,0.3 0,0.3 0.1,0.3 0.1,0.2 0,0.3 0.1,0.3 0,0.3 0.1,0.3 0,0.3 0.1,0.3 0,0.3 0.1,0.3 0,0.3 0.1,0.3 0,0.3 0.1,0.3 0,0.3 0.1,0.3 0,0.3 0.1,0.4 0,0.3 0.1,0.3 0,0.3 0.1,0.3 0,0.4 0.1,0.3 0,0.3 0.1,0.4 0,0.3 0.1,0.3 0,0.4 0.1,0.3 0,0.4 0.1,0.3 0,0.4 0.1,0.3 0,0.4 0.1,0.3 0,0.4 0.1,0.3 0,0.4 0.1,0.4 0.1,0.3 0,0.4 0.1,0.4 0,0.3 0.1,0.4 0,0.4 0.1,0.4 0,0.3 0.1,0.4 0,0.4 0.1,0.4 0,0.4 0.1,0.4 0,0.4 0.1,0.3 0,0.4 0.1,0.4 0,0.4 0.1,0.4 0,0.4 0.1,0.4 0,0.5 0.1,0.4 0,0.4 0.1,0.4 0,0.4 0.1,0.4 0,0.4 0.1,0.5 0,0.4 0.1,0.4 0,0.4 0.1,0.5 0,0.4 0.1,0.4 0,0.4 0.1,0.5 0,0.4 0.1,0.5 0.1,0.4 0,0.4 0.1,0.5 0,0.4 0.1,0.5 0,0.4 0.1,0.5 0,0.4 0.1,0.5 0,0.5 0.1,0.4 0,0.5 0.1,0.4 0,0.5 0.1,0.5 0,0.4 0.1,0.5 0,0.5 0.1,0.5 0,0.4 0.1,0.5 0,0.5 0.1,0.5 0,0.5 0.1,0.4 0,0.5 0.1,0.5 0,0.5 0.1,0.5 0,0.5 0.1,0.5 0,0.5 0.1,0.5 0,0.5 0.1,0.5 0,0.5 0.1,0.5 0,0.5 0.1,0.5 0.1,0.5 0,0.5 0.1,0.5 0,0.5 0.1,0.6 0,0.5 0.1,0.5 0,0.5 0.1,0.5 0,0.6 0.1,0.5 0,0.5 0.1,0.6 0,0.5 0.1,0.5 0,0.6 0.1,0.5 0,0.5 0.1,0.6 0,0.5 0.1,0.5 0,0.6 0.1,0.5 0,0.6 0.1,0.5 0,0.6 0.1,0.5 0,0.6 0.1,0.5 0,0.6 0.1,0.5 0,0.6 0.1,0.6 0,0.5 0.1,0.6 0,0.6 0.1,0.5 0,0.6 0.1,0.6 0.1,0.5 0,0.6 0.1,0.6 0,0.5 0.1,0.6 0,0.6 0.1,0.6 0,0.6 0.1,0.5 0,0.6 0.1,0.6 0,0.6 0.1,0.6 0,0.6 0.1,0.6 0,0.5 0.1,0.6 0,0.6 0.1,0.6 0,0.6 0.1,0.6 0,0.6 0.1,0.6 0,0.6 0.1,0.6 0,0.6 0.1,0.6 0,0.6 0.1,0.6 0,0.7 0.1,0.6 0,0.6 0.1,0.6 0,0.6 0.1,0.6 0,0.6 0.1,0.6 0,0.7 0.1,0.6 0.1,0.6 0,0.6 0.1,0.6 0,0.7 0.1,0.6 0,0.6 0.1,0.6 0,0.7 0.1,0.6 0,0.6 0.1,0.7 0,0.6 0.1,0.6 0,0.7 0.1,0.6 0,0.6 0.1,0.7 0,0.6 0.1,0.7 0,0.6 0.1,0.6 0,0.7 0.1,0.6 0,0.7 0.1,0.6 0,0.7 0.1,0.6 0,0.7 0.1,0.6 0,0.7 0.1,0.6 0,0.7 0.1,0.6 0,0.7 0.1,0.6 0,0.7 0.1,0.6 0,0.7 0.1,0.7 0.1,0.6 0,0.7 0.1,0.6 0,0.7 0.1,0.7 0,0.6 0.1,0.7 0,0.7 0.1,0.6 0,0.7 0.1,0.7 0,0.6 0.1,0.7 0,0.7 0.1,0.6 0,0.7 0.1,0.7 0,0.7 0.1,0.6 0,0.7 0.1,0.7 0,0.7 0.1,0.6 0,0.7 0.1,0.7 0,0.7 0.1,0.7 0,0.6 0.1,0.7 0,0.7 0.1,0.7 0,0.7 0.1,0.6 0,0.7 0.1,0.7 0,0.7 0.1,0.7 0,0.7 0.1,0.7 0.1,0.6 0,0.7 0.1,0.7 0,0.7 0.1,0.7 0,0.7 0.1,0.7 0,0.7 0.1,0.7 0,0.7 0.1,0.7 0,0.6 0.1,0.7 0,0.7 0.1,0.7 0,0.7 0.1,0.7 0,0.7 0.1,0.7 0,0.7 0.1,0.7 0,0.7 0.1,0.7 0,0.7 0.1,0.7 0,0.7 0.1,0.7 0,0.7 0.1,0.7 0,0.7 0.1,0.7 0,0.7 0.1,0.7 0,0.7 0.1,0.7 0,0.7 0.1,0.7 0,0.7 0.1,0.7 0.1,0.7 0,0.7 0.1,0.7 0,0.7 0.1,0.7 0,0.7 0.1,0.7 0,0.8 0.1,0.7 0,0.7 0.1,0.7 0,0.7 0.1,0.7 0,0.7 0.1,0.7 0,0.7 0.1,0.7 0,0.7 0.1,0.7 0,0.7 0.1,0.7 0,0.7 0.1,0.7 0,0.7 0.1,0.8 0,0.7 0.1,0.7 0,0.7 0.1,0.7 0,0.7 0.1,0.7 0,0.7 0.1,0.7 0,0.7 0.1,0.7 0,0.7 0.1,0.7 0,0.7 0.1,0.8 0.1,0.7 0,0.7 0.1,0.7 0,0.7 0.1,0.7 0,0.7 0.1,0.7 0,0.7 0.1,0.7 0,0.7 0.1,0.7 0,0.7 0.1,0.7 0,0.7 0.1,0.7 0,0.7 0.1,0.7 0,0.7 0.1,0.8 0,0.7 0.1,0.7 0,0.7 0.1,0.7 0,0.7 0.1,0.7 0,0.7 0.1,0.7 0,0.7 0.1,0.7 0,0.7 0.1,0.7 0,0.7 0.1,0.7 0,0.7 0.1,0.7 0,0.7 0.1,0.7 0.1,0.7 0,0.7 0.1,0.7 0,0.7 0.1,0.7 0,0.6 0.1,0.7 0,0.7 0.1,0.7 0,0.7 0.1,0.7 0,0.7 0.1,0.7 0,0.7 0.1,0.7 0,0.7 0.1,0.7 0,0.7 0.1,0.7 0,0.6 0.1,0.7 0,0.7 0.1,0.7 0,0.7 0.1,0.7 0,0.7 0.1,0.6 0,0.7 0.1,0.7 0,0.7 0.1,0.7 0,0.7 0.1,0.6 0,0.7 0.1,0.7 0,0.7 0.1,0.7 0,0.6 0.1,0.7 0.1,0.7 0,0.7 0.1,0.6 0,0.7 0.1,0.7 0,0.7 0.1,0.6 0,0.7 0.1,0.7 0,0.6 0.1,0.7 0,0.7 0.1,0.7 0,0.6 0.1,0.7 0,0.7 0.1,0.6 0,0.7 0.1,0.6 0,0.7 0.1,0.7 0,0.6 0.1,0.7 0,0.6 0.1,0.7 0,0.7 0.1,0.6 0,0.7 0.1,0.6 0,0.7 0.1,0.6 0,0.7 0.1,0.6 0,0.7 0.1,0.6 0,0.7 0.1,0.6 0,0.7 0.1,0.6 0.1,0.6 0,0.7 0.1,0.6 0,0.7 0.1,0.6 0,0.6 0.1,0.7 0,0.6 0.1,0.7 0,0.6 0.1,0.6 0,0.6 0.1,0.7 0,0.6 0.1,0.6 0,0.7 0.1,0.6 0,0.6 0.1,0.6 0,0.7 0.1,0.6 0,0.6 0.1,0.6 0,0.6 0.1,0.7 0,0.6 0.1,0.6 0,0.6 0.1,0.6 0,0.6 0.1,0.6 0,0.6 0.1,0.6 0,0.6 0.1,0.7 0,0.6 0.1,0.6 0,0.6 0.1,0.6 0.1,0.6 0,0.5 0.1,0.6 0,0.6 0.1,0.6 0,0.6 0.1,0.6 0,0.6 0.1,0.6 0,0.6 0.1,0.6 0,0.5 0.1,0.6 0,0.6 0.1,0.6 0,0.6 0.1,0.5 0,0.6 0.1,0.6 0,0.6 0.1,0.5 0,0.6 0.1,0.6 0,0.5 0.1,0.6 0,0.6 0.1,0.5 0,0.6 0.1,0.5 0,0.6 0.1,0.5 0,0.6 0.1,0.6 0,0.5 0.1,0.6 0,0.5 0.1,0.6 0,0.5 0.1,0.5 0.1,0.6 0,0.5 0.1,0.6 0,0.5 0.1,0.5 0,0.6 0.1,0.5 0,0.5 0.1,0.6 0,0.5 0.1,0.5 0,0.5 0.1,0.6 0,0.5 0.1,0.5 0,0.5 0.1,0.5 0,0.5 0.1,0.6 0,0.5 0.1,0.5 0,0.5 0.1,0.5 0,0.5 0.1,0.5 0,0.5 0.1,0.5 0,0.5 0.1,0.5 0,0.5 0.1,0.5 0,0.5 0.1,0.5 0,0.4 0.1,0.5 0,0.5 0.1,0.5 0,0.5 0.1,0.5 0.1,0.4 0,0.5 0.1,0.5 0,0.4 0.1,0.5 0,0.5 0.1,0.4 0,0.5 0.1,0.5 0,0.4 0.1,0.5 0,0.4 0.1,0.5 0,0.5 0.1,0.4 0,0.5 0.1,0.4 0,0.4 0.1,0.5 0,0.4 0.1,0.5 0,0.4 0.1,0.4 0,0.5 0.1,0.4 0,0.4 0.1,0.5 0,0.4 0.1,0.4 0,0.4 0.1,0.4 0,0.5 0.1,0.4 0,0.4 0.1,0.4 0,0.4 0.1,0.4 0,0.4 0.1,0.4 0.1,0.4 0,0.4 0.1,0.4 0,0.4 0.1,0.4 0,0.4 0.1,0.4 0,0.4 0.1,0.4 0,0.4 0.1,0.3 0,0.4 0.1,0.4 0,0.4 0.1,0.3 0,0.4 0.1,0.4 0,0.4 0.1,0.3 0,0.4 0.1,0.3 0,0.4 0.1,0.4 0,0.3 0.1,0.4 0,0.3 0.1,0.4 0,0.3 0.1,0.3 0,0.4 0.1,0.3 0,0.4 0.1,0.3 0,0.3 0.1,0.4 0,0.3 0.1,0.3 0,0.3 0.1,0.4 0.1,0.3 0,0.3 0.1,0.3 0,0.3 0.1,0.3 0,0.4 0.1,0.3 0,0.3 0.1,0.3 0,0.3 0.1,0.3 0,0.3 0.1,0.3 0,0.2 0.1,0.3 0,0.3 0.1,0.3 0,0.3 0.1,0.3 0,0.3 0.1,0.2 0,0.3 0.1,0.3 0,0.2 0.1,0.3 0,0.3 0.1,0.2 0,0.3 0.1,0.3 0,0.2 0.1,0.3 0,0.2 0.1,0.3 0,0.2 0.1,0.2 0,0.3 0.1,0.2 0,0.3 0.1,0.2 0.1,0.2 0,0.3 0.1,0.2 0,0.2 0.1,0.2 0,0.3 0.1,0.2 0,0.2 0.1,0.2 0,0.2 0.1,0.2 0,0.2 0.1,0.2 0,0.2 0.1,0.2 0,0.2 0.1,0.2 0,0.2 0.1,0.2 0,0.2 0.1,0.2 0,0.2 0.1,0.2 0,0.1 0.1,0.2 0,0.2 0.1,0.2 0,0.1 0.1,0.2 0,0.2 0.1,0.1 0,0.2 0.1,0.1 0,0.2 0.1,0.1 0,0.2 0.1,0.1 0,0.2 0.1,0.1 0.1,0.2 0,0.1 0.1,0.2 0,0.1 0.1,0.1 0,0.1 0.1,0.2 0,0.1 0.1,0.1 0,0.1 0.1,0.2 0,0.1 0.1,0.1 0,0.1 0.1,0.1 0,0.1 0.1,0.1 0,0.1 0.1,0.1 0,0.1 0.1,0.1 0,0.1 0.1,0.1 0.1,0.1 0,0.1 0.1,0.1 0,0.1 0.1,0 0,0.1 0.1,0.1 0.1,0.1 0,0.1 0.1,0 0,0.1 0.1,0 0,0.1 0.1,0 0.1,0.1 0.1,0.1 0.1,0 0,0.1 0.1,0 0.1,0.1 0.1,0 0.1,0 0,0.1 0.1,0 0.1,0 0.1,0 0.1,0 0.1,0 0.1,0 0,-0.1 0.1,0 0.1,0 0.1,-0.1 0.1,0 0,-0.1 0.1,0 0.1,-0.1 0.1,-0.1 0.1,0 0,-0.1 0.1,0 0,-0.1 0.1,0 0,-0.1 0.1,-0.1 0.1,-0.1 0,-0.1 0.1,0 0,-0.1 0.1,-0.1 0,-0.1 0.1,-0.1 0.1,-0.1 0,-0.1 0.1,-0.1 0,-0.1 0.1,-0.1 0,-0.1 0.1,-0.1 0,-0.1 0.1,-0.1 0,-0.1 0.1,-0.1 0,-0.1 0.1,-0.2 0,-0.1 0.1,-0.1 0,-0.1 0.1,-0.2 0,-0.1 0.1,-0.1 0,-0.1 0.1,-0.2 0,-0.1 0.1,-0.2 0.1,-0.1 0,-0.2 0.1,-0.1 0,-0.2 0.1,-0.1 0,-0.2 0.1,-0.1 0,-0.2 0.1,-0.1 0,-0.2 0.1,-0.2 0,-0.1 0.1,-0.2 0,-0.2 0.1,-0.2 0,-0.1 0.1,-0.2 0,-0.2 0.1,-0.2 0,-0.2 0.1,-0.2 0,-0.2 0.1,-0.2 0,-0.2 0.1,-0.2 0,-0.2 0.1,-0.2 0,-0.2 0.1,-0.2 0,-0.2 0.1,-0.2 0,-0.2 0.1,-0.2 0,-0.3 0.1,-0.2 0,-0.2 0.1,-0.2 0,-0.3 0.1,-0.2 0.1,-0.2 0,-0.3 0.1,-0.2 0,-0.3 0.1,-0.2 0,-0.2 0.1,-0.3 0,-0.2 0.1,-0.3 0,-0.2 0.1,-0.3 0,-0.3 0.1,-0.2 0,-0.3 0.1,-0.3 0,-0.2 0.1,-0.3 0,-0.3 0.1,-0.2 0,-0.3 0.1,-0.3 0,-0.3 0.1,-0.3 0,-0.3 0.1,-0.3 0,-0.2 0.1,-0.3 0,-0.3 0.1,-0.3 0,-0.3 0.1,-0.3 0,-0.3 0.1,-0.3 0,-0.4 0.1,-0.3 0,-0.3 0.1,-0.3 0,-0.3 0.1,-0.3 0.1,-0.4 0,-0.3 0.1,-0.3 0,-0.3 0.1,-0.4 0,-0.3 0.1,-0.3 0,-0.4 0.1,-0.3 0,-0.4 0.1,-0.3 0,-0.3 0.1,-0.4 0,-0.3 0.1,-0.4 0,-0.3 0.1,-0.4 0,-0.4 0.1,-0.3 0,-0.4 0.1,-0.3 0,-0.4 0.1,-0.4 0,-0.4 0.1,-0.3 0,-0.4 0.1,-0.4 0,-0.4 0.1,-0.3 0,-0.4 0.1,-0.4 0,-0.4 0.1,-0.4 0,-0.4 0.1,-0.4 0,-0.4 0.1,-0.4 0,-0.4 0.1,-0.4 0.1,-0.4 0,-0.4 0.1,-0.4 0,-0.4 0.1,-0.4 0,-0.4 0.1,-0.4 0,-0.5 0.1,-0.4 0,-0.4 0.1,-0.4 0,-0.4 0.1,-0.5 0,-0.4 0.1,-0.4 0,-0.5 0.1,-0.4 0,-0.4 0.1,-0.5 0,-0.4 0.1,-0.5 0,-0.4 0.1,-0.4 0,-0.5 0.1,-0.4 0,-0.5 0.1,-0.5 0,-0.4 0.1,-0.5 0,-0.4 0.1,-0.5 0,-0.5 0.1,-0.4 0,-0.5 0.1,-0.5 0,-0.4 0.1,-0.5 0,-0.5 0.1,-0.4 0.1,-0.5 0,-0.5 0.1,-0.5 0,-0.5 0.1,-0.5 0,-0.4 0.1,-0.5 0,-0.5 0.1,-0.5 0,-0.5 0.1,-0.5 0,-0.5 0.1,-0.5 0,-0.5 0.1,-0.5 0,-0.5 0.1,-0.5 0,-0.5 0.1,-0.5 0,-0.5 0.1,-0.6 0,-0.5 0.1,-0.5 0,-0.5 0.1,-0.5 0,-0.5 0.1,-0.6 0,-0.5 0.1,-0.5 0,-0.5 0.1,-0.6 0,-0.5 0.1,-0.5 0,-0.6 0.1,-0.5 0,-0.5 0.1,-0.6 0,-0.5 0.1,-0.6 0.1,-0.5 0,-0.5 0.1,-0.6 0,-0.5 0.1,-0.6 0,-0.5 0.1,-0.6 0,-0.6 0.1,-0.5 0,-0.6 0.1,-0.5 0,-0.6 0.1,-0.5 0,-0.6 0.1,-0.6 0,-0.5 0.1,-0.6 0,-0.6 0.1,-0.5 0,-0.6 0.1,-0.6 0,-0.6 0.1,-0.5 0,-0.6 0.1,-0.6 0,-0.6 0.1,-0.6 0,-0.5 0.1,-0.6 0,-0.6 0.1,-0.6 0,-0.6 0.1,-0.6 0,-0.6 0.1,-0.6 0,-0.6 0.1,-0.6 0,-0.5 0.1,-0.6 0.1,-0.6 0,-0.6 0.1,-0.6 0,-0.6 0.1,-0.7 0,-0.6 0.1,-0.6 0,-0.6 0.1,-0.6 0,-0.6 0.1,-0.6 0,-0.6 0.1,-0.6 0,-0.6 0.1,-0.7 0,-0.6 0.1,-0.6 0,-0.6 0.1,-0.6 0,-0.7 0.1,-0.6 0,-0.6 0.1,-0.6 0,-0.7 0.1,-0.6 0,-0.6 0.1,-0.7 0,-0.6 0.1,-0.6 0,-0.6 0.1,-0.7 0,-0.6 0.1,-0.7 0,-0.6 0.1,-0.6 0,-0.7 0.1,-0.6 0,-0.7 0.1,-0.6 0.1,-0.6 0,-0.7 0.1,-0.6 0,-0.7 0.1,-0.6 0,-0.7 0.1,-0.6 0,-0.7 0.1,-0.6 0,-0.7 0.1,-0.6 0,-0.7 0.1,-0.6 0,-0.7 0.1,-0.7 0,-0.6 0.1,-0.7 0,-0.6 0.1,-0.7 0,-0.7 0.1,-0.6 0,-0.7 0.1,-0.6 0,-0.7 0.1,-0.7 0,-0.6 0.1,-0.7 0,-0.7 0.1,-0.7 0,-0.6 0.1,-0.7 0,-0.7 0.1,-0.6 0,-0.7 0.1,-0.7 0,-0.7 0.1,-0.6 0,-0.7 0.1,-0.7 0.1,-0.7 0,-0.6 0.1,-0.7 0,-0.7 0.1,-0.7 0,-0.7 0.1,-0.6 0,-0.7 0.1,-0.7 0,-0.7 0.1,-0.7 0,-0.7 0.1,-0.6 0,-0.7 0.1,-0.7 0,-0.7 0.1,-0.7 0,-0.7 0.1,-0.7 0,-0.6 0.1,-0.7 0,-0.7 0.1,-0.7 0,-0.7 0.1,-0.7 0,-0.7 0.1,-0.7 0,-0.7 0.1,-0.7 0,-0.7 0.1,-0.7 0,-0.7 0.1,-0.7 0,-0.6 0.1,-0.7 0,-0.7 0.1,-0.7 0,-0.7 0.1,-0.7 0.1,-0.7 0,-0.7 0.1,-0.7 0,-0.7 0.1,-0.7 0,-0.7 0.1,-0.7 0,-0.7 0.1,-0.7 0,-0.7 0.1,-0.7 0,-0.7 0.1,-0.7 0,-0.7 0.1,-0.7 0,-0.7 0.1,-0.7 0,-0.7 0.1,-0.8 0,-0.7 0.1,-0.7 0,-0.7 0.1,-0.7 0,-0.7 0.1,-0.7 0,-0.7 0.1,-0.7 0,-0.7 0.1,-0.7 0,-0.7 0.1,-0.7 0,-0.7 0.1,-0.7 0,-0.7 0.1,-0.7 0,-0.7 0.1,-0.7 0.1,-0.8 0,-0.7 0.1,-0.7 0,-0.7 0.1,-0.7 0,-0.7 0.1,-0.7 0,-0.7 0.1,-0.7 0,-0.7 0.1,-0.7 0,-0.7 0.1,-0.7 0,-0.7 0.1,-0.8 0,-0.7 0.1,-0.7 0,-0.7 0.1,-0.7 0,-0.7 0.1,-0.7 0,-0.7 0.1,-0.7 0,-0.7 0.1,-0.7 0,-0.7 0.1,-0.7 0,-0.7 0.1,-0.7 0,-0.7 0.1,-0.7 0,-0.8 0.1,-0.7 0,-0.7 0.1,-0.7 0,-0.7 0.1,-0.7 0,-0.7 0.1,-0.7 0.1,-0.7 0,-0.7 0.1,-0.7 0,-0.7 0.1,-0.7 0,-0.7 0.1,-0.7 0,-0.7 0.1,-0.7 0,-0.7 0.1,-0.7 0,-0.7 0.1,-0.7 0,-0.7 0.1,-0.7 0,-0.7 0.1,-0.7 0,-0.7 0.1,-0.7 0,-0.7 0.1,-0.7 0,-0.7 0.1,-0.7 0,-0.7 0.1,-0.7 0,-0.7 0.1,-0.7 0,-0.6 0.1,-0.7 0,-0.7 0.1,-0.7 0,-0.7 0.1,-0.7 0,-0.7 0.1,-0.7 0,-0.7 0.1,-0.7 0,-0.7 0.1,-0.6 0.1,-0.7 0,-0.7 0.1,-0.7 0,-0.7 0.1,-0.7 0,-0.7 0.1,-0.6 0,-0.7 0.1,-0.7 0,-0.7 0.1,-0.7 0,-0.6 0.1,-0.7 0,-0.7 0.1,-0.7 0,-0.7 0.1,-0.6 0,-0.7 0.1,-0.7 0,-0.7 0.1,-0.6 0,-0.7 0.1,-0.7 0,-0.7 0.1,-0.6 0,-0.7 0.1,-0.7 0,-0.6 0.1,-0.7 0,-0.7 0.1,-0.6 0,-0.7 0.1,-0.7 0,-0.6 0.1,-0.7 0,-0.7 0.1,-0.6 0,-0.7 0.1,-0.6 0.1,-0.7 0,-0.7 0.1,-0.6 0,-0.7 0.1,-0.6 0,-0.7 0.1,-0.6 0,-0.7 0.1,-0.6 0,-0.7 0.1,-0.6 0,-0.7 0.1,-0.6 0,-0.7 0.1,-0.6 0,-0.7 0.1,-0.6 0,-0.7 0.1,-0.6 0,-0.6 0.1,-0.7 0,-0.6 0.1,-0.7 0,-0.6 0.1,-0.6 0,-0.7 0.1,-0.6 0,-0.6 0.1,-0.7 0,-0.6 0.1,-0.6 0,-0.7 0.1,-0.6 0,-0.6 0.1,-0.6 0,-0.7 0.1,-0.6 0,-0.6 0.1,-0.6 0.1,-0.6 0,-0.7 0.1,-0.6 0,-0.6 0.1,-0.6 0,-0.6 0.1,-0.6 0,-0.6 0.1,-0.6 0,-0.7 0.1,-0.6 0,-0.6 0.1,-0.6 0,-0.6 0.1,-0.6 0,-0.6 0.1,-0.6 0,-0.6 0.1,-0.6 0,-0.6 0.1,-0.6 0,-0.6 0.1,-0.6 0,-0.5 0.1,-0.6 0,-0.6 0.1,-0.6 0,-0.6 0.1,-0.6 0,-0.6 0.1,-0.5 0,-0.6 0.1,-0.6 0,-0.6 0.1,-0.6 0,-0.5 0.1,-0.6 0,-0.6 0.1,-0.5 0.1,-0.6 0,-0.6 0.1,-0.5 0,-0.6 0.1,-0.6 0,-0.5 0.1,-0.6 0,-0.6 0.1,-0.5 0,-0.6 0.1,-0.5 0,-0.6 0.1,-0.5 0,-0.6 0.1,-0.5 0,-0.6 0.1,-0.5 0,-0.6 0.1,-0.5 0,-0.5 0.1,-0.6 0,-0.5 0.1,-0.5 0,-0.6 0.1,-0.5 0,-0.5 0.1,-0.6 0,-0.5 0.1,-0.5 0,-0.6 0.1,-0.5 0,-0.5 0.1,-0.5 0,-0.5 0.1,-0.6 0,-0.5 0.1,-0.5 0,-0.5 0.1,-0.5 0.1,-0.5 0,-0.5 0.1,-0.5 0,-0.5 0.1,-0.5 0,-0.5 0.1,-0.5 0,-0.5 0.1,-0.5 0,-0.5 0.1,-0.5 0,-0.5 0.1,-0.5 0,-0.5 0.1,-0.4 0,-0.5 0.1,-0.5 0,-0.5 0.1,-0.5 0,-0.4 0.1,-0.5 0,-0.5 0.1,-0.5 0,-0.4 0.1,-0.5 0,-0.5 0.1,-0.4 0,-0.5 0.1,-0.4 0,-0.5 0.1,-0.5 0,-0.4 0.1,-0.5 0,-0.4 0.1,-0.5 0,-0.4 0.1,-0.5 0,-0.4 0.1,-0.4 0.1,-0.5 0,-0.4 0.1,-0.5 0,-0.4 0.1,-0.4 0,-0.4 0.1,-0.5 0,-0.4 0.1,-0.4 0,-0.4 0.1,-0.5 0,-0.4 0.1,-0.4 0,-0.4 0.1,-0.4 0,-0.4 0.1,-0.4 0,-0.5 0.1,-0.4 0,-0.4 0.1,-0.4 0,-0.4 0.1,-0.4 0,-0.4 0.1,-0.3 0,-0.4 0.1,-0.4 0,-0.4 0.1,-0.4 0,-0.4 0.1,-0.4 0,-0.3 0.1,-0.4 0,-0.4 0.1,-0.4 0,-0.3 0.1,-0.4 0,-0.4 0.1,-0.3 0.1,-0.4 0,-0.4 0.1,-0.3 0,-0.4 0.1,-0.3 0,-0.4 0.1,-0.3 0,-0.4 0.1,-0.3 0,-0.4 0.1,-0.3 0,-0.4 0.1,-0.3 0,-0.3 0.1,-0.4 0,-0.3 0.1,-0.3 0,-0.4 0.1,-0.3 0,-0.3 0.1,-0.3 0,-0.3 0.1,-0.4 0,-0.3 0.1,-0.3 0,-0.3 0.1,-0.3 0,-0.3 0.1,-0.3 0,-0.3 0.1,-0.3 0,-0.3 0.1,-0.3 0,-0.3 0.1,-0.3 0,-0.3 0.1,-0.3 0,-0.3 0.1,-0.2 0.1,-0.3 0,-0.3 0.1,-0.3 0,-0.2 0.1,-0.3 0,-0.3 0.1,-0.3 0,-0.2 0.1,-0.3 0,-0.2 0.1,-0.3 0,-0.3 0.1,-0.2 0,-0.3 0.1,-0.2 0,-0.3 0.1,-0.2 0,-0.2 0.1,-0.3 0,-0.2 0.1,-0.3 0,-0.2 0.1,-0.2 0,-0.3 0.1,-0.2 0,-0.2 0.1,-0.2 0,-0.3 0.1,-0.2 0,-0.2 0.1,-0.2 0,-0.2 0.1,-0.2 0,-0.2 0.1,-0.2 0,-0.2 0.1,-0.2 0,-0.2 0.1,-0.2 0.1,-0.2 0,-0.2 0.1,-0.2 0,-0.2 0.1,-0.2 0,-0.2 0.1,-0.1 0,-0.2 0.1,-0.2 0,-0.2 0.1,-0.1 0,-0.2 0.1,-0.2 0,-0.1 0.1,-0.2 0,-0.2 0.1,-0.1 0,-0.2 0.1,-0.1 0,-0.2 0.1,-0.1 0,-0.2 0.1,-0.1 0,-0.1 0.1,-0.2 0,-0.1 0.1,-0.2 0,-0.1 0.1,-0.1 0,-0.1 0.1,-0.2 0,-0.1 0.1,-0.1 0,-0.1 0.1,-0.1 0,-0.2 0.1,-0.1 0,-0.1 0.1,-0.1 0.1,-0.1 0,-0.1 0.1,-0.1 0,-0.1 0.1,-0.1 0,-0.1 0.1,-0.1 0.1,-0.1 0,-0.1 0.1,-0.1 0,-0.1 0.1,0 0,-0.1 0.1,-0.1 0,-0.1 0.1,0 0,-0.1 0.1,-0.1 0.1,-0.1 0.1,-0.1 0.1,-0.1 0.1,-0.1 0.1,0 0,-0.1 0.1,0 0.1,-0.1 0.1,0 0.1,-0.1 0.1,0 0.1,0 0.1,0 0.1,0 0.1,0 0.1,0 0.1,0 0.1,0 0.1,0.1 0.1,0 0.1,0.1 0.1,0 0,0.1 0.1,0 0.1,0.1 0.1,0.1 0.1,0.1 0.1,0.1 0.1,0.1 0,0.1 0.1,0 0,0.1 0.1,0.1 0.1,0.1 0.1,0.1 0,0.1 0.1,0.1 0.1,0.1 0,0.1 0.1,0.1 0,0.1 0.1,0.1 0,0.1 0.1,0.1 0,0.1 0.1,0.1 0,0.1 0.1,0.1 0,0.1 0.1,0.2 0,0.1 0.1,0.1 0,0.1 0.1,0.1 0,0.2 0.1,0.1 0,0.1 0.1,0.2 0,0.1 0.1,0.1 0,0.2 0.1,0.1 0,0.2 0.1,0.1 0,0.1 0.1,0.2 0,0.1 0.1,0.2 0,0.2 0.1,0.1 0,0.2 0.1,0.1 0.1,0.2 0,0.2 0.1,0.2 0,0.1 0.1,0.2 0,0.2 0.1,0.2 0,0.1 0.1,0.2 0,0.2 0.1,0.2 0,0.2 0.1,0.2 0,0.2 0.1,0.2 0,0.2 0.1,0.2 0,0.2 0.1,0.2 0,0.2 0.1,0.2 0,0.2 0.1,0.2 0,0.2 0.1,0.3 0,0.2 0.1,0.2 0,0.2 0.1,0.3 0,0.2 0.1,0.2 0,0.3 0.1,0.2 0,0.2 0.1,0.3 0,0.2 0.1,0.3 0,0.2 0.1,0.3 0.1,0.2 0,0.3 0.1,0.2 0,0.3 0.1,0.2 0,0.3 0.1,0.3 0,0.2 0.1,0.3 0,0.3 0.1,0.2 0,0.3 0.1,0.3 0,0.3 0.1,0.2 0,0.3 0.1,0.3 0,0.3 0.1,0.3 0,0.3 0.1,0.3 0,0.3 0.1,0.3 0,0.3 0.1,0.3 0,0.3 0.1,0.3 0,0.3 0.1,0.3 0,0.3 0.1,0.3 0,0.3 0.1,0.4 0,0.3 0.1,0.3 0,0.3 0.1,0.3 0,0.4 0.1,0.3 0.1,0.3 0,0.4 0.1,0.3 0,0.3 0.1,0.4 0,0.3 0.1,0.4 0,0.3 0.1,0.3 0,0.4 0.1,0.3 0,0.4 0.1,0.4 0,0.3 0.1,0.4 0,0.3 0.1,0.4 0,0.4 0.1,0.3 0,0.4 0.1,0.4 0,0.3 0.1,0.4 0,0.4 0.1,0.4 0,0.3 0.1,0.4 0,0.4 0.1,0.4 0,0.4 0.1,0.4 0,0.4 0.1,0.3 0,0.4 0.1,0.4 0,0.4 0.1,0.4 0,0.4 0.1,0.4 0.1,0.4 0,0.4 0.1,0.5 0,0.4 0.1,0.4 0,0.4 0.1,0.4 0,0.4 0.1,0.4 0,0.5 0.1,0.4 0,0.4 0.1,0.4 0,0.5 0.1,0.4 0,0.4 0.1,0.5 0,0.4 0.1,0.4 0,0.5 0.1,0.4 0,0.5 0.1,0.4 0,0.4 0.1,0.5 0,0.4 0.1,0.5 0,0.4 0.1,0.5 0,0.4 0.1,0.5 0,0.5 0.1,0.4 0,0.5 0.1,0.4 0,0.5 0.1,0.5 0,0.4 0.1,0.5 0.1,0.5 0,0.5 0.1,0.4 0,0.5 0.1,0.5 0,0.5 0.1,0.4 0,0.5 0.1,0.5 0,0.5 0.1,0.5 0,0.5 0.1,0.5 0,0.5 0.1,0.4 0,0.5 0.1,0.5 0,0.5 0.1,0.5 0,0.5 0.1,0.5 0,0.5 0.1,0.5 0,0.5 0.1,0.6 0,0.5 0.1,0.5 0,0.5 0.1,0.5 0,0.5 0.1,0.5 0,0.5 0.1,0.6 0,0.5 0.1,0.5 0,0.5 0.1,0.6 0,0.5 0.1,0.5 0.1,0.5 0,0.6 0.1,0.5 0,0.5 0.1,0.6 0,0.5 0.1,0.5 0,0.6 0.1,0.5 0,0.6 0.1,0.5 0,0.5 0.1,0.6 0,0.5 0.1,0.6 0,0.5 0.1,0.6 0,0.5 0.1,0.6 0,0.5 0.1,0.6 0,0.5 0.1,0.6 0,0.6 0.1,0.5 0,0.6 0.1,0.5 0,0.6 0.1,0.6 0,0.5 0.1,0.6 0,0.6 0.1,0.5 0,0.6 0.1,0.6 0,0.5 0.1,0.6 0,0.6 0.1,0.6 0.1,0.5 0,0.6 0.1,0.6 0,0.6 0.1,0.6 0,0.5 0.1,0.6 0,0.6 0.1,0.6 0,0.6 0.1,0.6 0,0.6 0.1,0.5 0,0.6 0.1,0.6 0,0.6 0.1,0.6 0,0.6 0.1,0.6 0,0.6 0.1,0.6 0,0.6 0.1,0.6 0,0.6 0.1,0.6 0,0.6 0.1,0.6 0,0.6 0.1,0.6 0,0.6 0.1,0.6 0,0.6 0.1,0.6 0,0.7 0.1,0.6 0,0.6 0.1,0.6 0.1,0.6 0,0.6 0.1,0.6 0,0.6 0.1,0.7 0,0.6 0.1,0.6 0,0.6 0.1,0.6 0,0.7 0.1,0.6 0,0.6 0.1,0.6 0,0.6 0.1,0.7 0,0.6 0.1,0.6 0,0.6 0.1,0.7 0,0.6 0.1,0.6 0,0.7 0.1,0.6 0,0.6 0.1,0.6 0,0.7 0.1,0.6 0,0.6 0.1,0.7 0,0.6 0.1,0.7 0,0.6 0.1,0.6 0,0.7 0.1,0.6 0,0.6 0.1,0.7 0,0.6 0.1,0.7 0.1,0.6 0,0.6 0.1,0.7 0,0.6 0.1,0.7 0,0.6 0.1,0.7 0,0.6 0.1,0.6 0,0.7 0.1,0.6 0,0.7 0.1,0.6 0,0.7 0.1,0.6 0,0.7 0.1,0.6 0,0.7 0.1,0.6 0,0.7 0.1,0.6 0,0.7 0.1,0.6 0,0.7 0.1,0.6 0,0.7 0.1,0.6 0,0.7 0.1,0.6 0,0.7 0.1,0.7 0,0.6 0.1,0.7 0,0.6 0.1,0.7 0,0.6 0.1,0.7 0,0.6 0.1,0.7 0.1,0.7 0,0.6 0.1,0.7 0,0.6 0.1,0.7 0,0.7 0.1,0.6 0,0.7 0.1,0.6 0,0.7 0.1,0.7 0,0.6 0.1,0.7 0,0.6 0.1,0.7 0,0.7 0.1,0.6 0,0.7 0.1,0.6 0,0.7 0.1,0.7 0,0.6 0.1,0.7 0,0.7 0.1,0.6 0,0.7 0.1,0.7 0,0.6 0.1,0.7 0,0.6 0.1,0.7 0,0.7 0.1,0.6 0,0.7 0.1,0.7 0,0.6 0.1,0.7 0,0.7 0.1,0.6 0.1,0.7 0,0.6 0.1,0.7 0,0.7 0.1,0.6 0,0.7 0.1,0.7 0,0.6 0.1,0.7 0,0.7 0.1,0.6 0,0.7 0.1,0.6 0,0.7 0.1,0.7 0,0.6 0.1,0.7 0,0.7 0.1,0.6 0,0.7 0.1,0.7 0,0.6 0.1,0.7 0,0.6 0.1,0.7 0,0.7 0.1,0.6 0,0.7 0.1,0.7 0,0.6 0.1,0.7 0,0.6 0.1,0.7 0,0.7 0.1,0.6 0,0.7 0.1,0.6 0,0.7 0.1,0.7 0.1,0.6 0,0.7 0.1,0.6 0,0.7 0.1,0.6 0,0.7 0.1,0.7 0,0.6 0.1,0.7 0,0.6 0.1,0.7 0,0.6 0.1,0.7 0,0.7 0.1,0.6 0,0.7 0.1,0.6 0,0.7 0.1,0.6 0,0.7 0.1,0.6 0,0.7 0.1,0.6 0,0.7 0.1,0.6 0,0.7 0.1,0.6 0,0.7 0.1,0.6 0,0.7 0.1,0.6 0,0.7 0.1,0.6 0,0.7 0.1,0.6 0,0.7 0.1,0.6 0,0.7 0.1,0.6 0.1,0.7 0,0.6 0.1,0.6 0,0.7 0.1,0.6 0,0.7 0.1,0.6 0,0.7 0.1,0.6 0,0.6 0.1,0.7 0,0.6 0.1,0.6 0,0.7 0.1,0.6 0,0.7 0.1,0.6 0,0.6 0.1,0.7 0,0.6 0.1,0.6 0,0.7 0.1,0.6 0,0.6 0.1,0.6 0,0.7 0.1,0.6 0,0.6 0.1,0.7 0,0.6 0.1,0.6 0,0.6 0.1,0.7 0,0.6 0.1,0.6 0,0.6 0.1,0.7 0,0.6 0.1,0.6 0.1,0.6 0,0.6 0.1,0.7 0,0.6 0.1,0.6 0,0.6 0.1,0.6 0,0.6 0.1,0.6 0,0.7 0.1,0.6 0,0.6 0.1,0.6 0,0.6 0.1,0.6 0,0.6 0.1,0.6 0,0.6 0.1,0.6 0,0.6 0.1,0.6 0,0.6 0.1,0.6 0,0.6 0.1,0.6 0,0.6 0.1,0.6 0,0.6 0.1,0.6 0,0.6 0.1,0.6 0,0.6 0.1,0.6 0,0.6 0.1,0.6 0,0.6 0.1,0.6 0,0.5 0.1,0.6 0.1,0.6 0,0.6 0.1,0.6 0,0.6 0.1,0.5 0,0.6 0.1,0.6 0,0.6 0.1,0.6 0,0.5 0.1,0.6 0,0.6 0.1,0.5 0,0.6 0.1,0.6 0,0.6 0.1,0.5 0,0.6 0.1,0.6 0,0.5 0.1,0.6 0,0.6 0.1,0.5 0,0.6 0.1,0.5 0,0.6 0.1,0.6 0,0.5 0.1,0.6 0,0.5 0.1,0.6 0,0.5 0.1,0.6 0,0.5 0.1,0.6 0,0.5 0.1,0.6 0,0.5 0.1,0.6 0.1,0.5 0,0.5 0.1,0.6 0,0.5 0.1,0.6 0,0.5 0.1,0.5 0,0.6 0.1,0.5 0,0.5 0.1,0.6 0,0.5 0.1,0.5 0,0.5 0.1,0.6 0,0.5 0.1,0.5 0,0.5 0.1,0.6 0,0.5 0.1,0.5 0,0.5 0.1,0.5 0,0.5 0.1,0.6 0,0.5 0.1,0.5 0,0.5 0.1,0.5 0,0.5 0.1,0.5 0,0.5 0.1,0.5 0,0.5 0.1,0.5 0,0.5 0.1,0.5 0,0.5 0.1,0.5 0.1,0.5 0,0.5 0.1,0.5 0,0.5 0.1,0.4 0,0.5 0.1,0.5 0,0.5 0.1,0.5 0,0.5 0.1,0.4 0,0.5 0.1,0.5 0,0.5 0.1,0.4 0,0.5 0.1,0.5 0,0.5 0.1,0.4 0,0.5 0.1,0.5 0,0.4 0.1,0.5 0,0.4 0.1,0.5 0,0.5 0.1,0.4 0,0.5 0.1,0.4 0,0.5 0.1,0.4 0,0.5 0.1,0.4 0,0.5 0.1,0.4 0,0.4 0.1,0.5 0,0.4 0.1,0.5 0.1,0.4 0,0.4 0.1,0.5 0,0.4 0.1,0.4 0,0.5 0.1,0.4 0,0.4 0.1,0.4 0,0.5 0.1,0.4 0,0.4 0.1,0.4 0,0.4 0.1,0.5 0,0.4 0.1,0.4 0,0.4 0.1,0.4 0,0.4 0.1,0.4 0,0.4 0.1,0.4 0,0.4 0.1,0.4 0,0.4 0.1,0.4 0,0.4 0.1,0.4 0,0.4 0.1,0.4 0,0.4 0.1,0.4 0,0.4 0.1,0.3 0,0.4 0.1,0.4 0,0.4 0.1,0.4 0.1,0.3 0,0.4 0.1,0.4 0,0.4 0.1,0.3 0,0.4 0.1,0.4 0,0.3 0.1,0.4 0,0.4 0.1,0.3 0,0.4 0.1,0.3 0,0.4 0.1,0.3 0,0.4 0.1,0.3 0,0.4 0.1,0.3 0,0.4 0.1,0.3 0,0.4 0.1,0.3 0,0.3 0.1,0.4 0,0.3 0.1,0.3 0,0.4 0.1,0.3 0,0.3 0.1,0.4 0,0.3 0.1,0.3 0,0.3 0.1,0.4 0,0.3 0.1,0.3 0,0.3 0.1,0.3 0.1,0.3 0,0.3 0.1,0.3 0,0.4 0.1,0.3 0,0.3 0.1,0.3 0,0.3 0.1,0.3 0,0.3 0.1,0.3 0,0.2 0.1,0.3 0,0.3 0.1,0.3 0,0.3 0.1,0.3 0,0.3 0.1,0.2 0,0.3 0.1,0.3 0,0.3 0.1,0.3 0,0.2 0.1,0.3 0,0.3 0.1,0.2 0,0.3 0.1,0.3 0,0.2 0.1,0.3 0,0.2 0.1,0.3 0,0.3 0.1,0.2 0,0.3 0.1,0.2 0,0.3 0.1,0.2 0.1,0.3 0,0.2 0.1,0.2 0,0.3 0.1,0.2 0,0.3 0.1,0.2 0,0.2 0.1,0.3 0,0.2 0.1,0.2 0,0.2 0.1,0.3 0,0.2 0.1,0.2 0,0.2 0.1,0.2 0,0.3 0.1,0.2 0,0.2 0.1,0.2 0,0.2 0.1,0.2 0,0.2 0.1,0.2 0,0.2 0.1,0.2 0,0.2 0.1,0.2 0,0.2 0.1,0.2 0,0.2 0.1,0.2 0,0.2 0.1,0.2 0,0.1 0.1,0.2 0,0.2 0.1,0.2 0.1,0.2 0,0.1 0.1,0.2 0,0.2 0.1,0.1 0,0.2 0.1,0.2 0,0.2 0.1,0.1 0,0.2 0.1,0.1 0,0.2 0.1,0.2 0,0.1 0.1,0.2 0,0.1 0.1,0.2 0,0.1 0.1,0.2 0,0.1 0.1,0.1 0,0.2 0.1,0.1 0,0.2 0.1,0.1 0,0.1 0.1,0.2 0,0.1 0.1,0.1 0,0.1 0.1,0.2 0,0.1 0.1,0.1 0,0.1 0.1,0.2 0,0.1 0.1,0.1 0,0.1 0.1,0.1 0.1,0.1 0,0.1 0.1,0.1 0,0.1 0.1,0.2 0,0.1 0.1,0.1 0,0.1 0.1,0 0,0.1 0.1,0.1 0,0.1 0.1,0.1 0,0.1 0.1,0.1 0,0.1 0.1,0.1 0.1,0.1 0,0.1 0.1,0.1 0.1,0.1 0,0.1 0.1,0.1 0.1,0.1 0,0.1 0.1,0 0,0.1 0.1,0 0,0.1 0.1,0.1 0.1,0.1 0.1,0.1 0.1,0.1 0.1,0 0,0.1 0.1,0 0.1,0.1 0.1,0 0,0.1 0.1,0 0.1,0.1 0.1,0 0.1,0.1 0.1,0 0.1,0 0.1,0.1 0.1,0 0.1,0 0.1,0 0.1,0 0.1,0 0.1,0 0.1,0 0.1,-0.1 0.1,0 0.1,0 0.1,-0.1 0.1,0 0.1,0 0,-0.1 0.1,0 0.1,-0.1 0.1,0 0,-0.1 0.1,0 0,-0.1 0.1,0 0.1,-0.1 0.1,-0.1 0.1,-0.1 0.1,-0.1 0,-0.1 0.1,0 0,-0.1 0.1,0 0,-0.1 0.1,-0.1 0.1,-0.1 0,-0.1 0.1,0 0,-0.1 0.1,-0.1 0.1,-0.1 0.1,-0.1 0,-0.1 0.1,0 0,-0.1 0.1,-0.1 0,-0.1 0.1,-0.1 0,-0.1 0.1,0 0,-0.1 0.1,-0.1 0,-0.1 0.1,-0.1 0,-0.1 0.1,-0.1 0,-0.1 0.1,-0.1 0,-0.1 0.1,-0.1 0,-0.1 0.1,-0.1 0,-0.1 0.1,-0.1 0,-0.1 0.1,-0.1 0,-0.2 0.1,-0.1 0,-0.1 0.1,-0.1 0,-0.1 0.1,-0.1 0,-0.1 0.1,-0.2 0,-0.1 0.1,-0.1 0,-0.1 0.1,-0.2 0,-0.1 0.1,-0.1 0.1,-0.1 0,-0.2 0.1,-0.1 0,-0.1 0.1,-0.2 0,-0.1 0.1,-0.2 0,-0.1 0.1,-0.1 0,-0.2 0.1,-0.1 0,-0.2 0.1,-0.1 0,-0.1 0.1,-0.2 0,-0.1 0.1,-0.2 0,-0.1 0.1,-0.2 0,-0.1 0.1,-0.2 0,-0.2 0.1,-0.1 0,-0.2 0.1,-0.1 0,-0.2 0.1,-0.2 0,-0.1 0.1,-0.2 0,-0.1 0.1,-0.2 0,-0.2 0.1,-0.2 0,-0.1 0.1,-0.2 0,-0.2 0.1,-0.1 0,-0.2 0.1,-0.2 0.1,-0.2 0,-0.1 0.1,-0.2 0,-0.2 0.1,-0.2 0,-0.2 0.1,-0.2 0,-0.1 0.1,-0.2 0,-0.2 0.1,-0.2 0,-0.2 0.1,-0.2 0,-0.2 0.1,-0.2 0,-0.2 0.1,-0.1 0,-0.2 0.1,-0.2 0,-0.2 0.1,-0.2 0,-0.2 0.1,-0.2 0,-0.2 0.1,-0.2 0,-0.2 0.1,-0.2 0,-0.3 0.1,-0.2 0,-0.2 0.1,-0.2 0,-0.2 0.1,-0.2 0,-0.2 0.1,-0.2 0,-0.2 0.1,-0.2 0,-0.3 0.1,-0.2 0.1,-0.2 0,-0.2 0.1,-0.2 0,-0.3 0.1,-0.2 0,-0.2 0.1,-0.2 0,-0.2 0.1,-0.3 0,-0.2 0.1,-0.2 0,-0.3 0.1,-0.2 0,-0.2 0.1,-0.2 0,-0.3 0.1,-0.2 0,-0.2 0.1,-0.3 0,-0.2 0.1,-0.2 0,-0.3 0.1,-0.2 0,-0.2 0.1,-0.3 0,-0.2 0.1,-0.3 0,-0.2 0.1,-0.3 0,-0.2 0.1,-0.2 0,-0.3 0.1,-0.2 0,-0.3 0.1,-0.2 0,-0.3 0.1,-0.2 0.1,-0.3 0,-0.2 0.1,-0.3 0,-0.2 0.1,-0.3 0,-0.2 0.1,-0.3 0,-0.2 0.1,-0.3 0,-0.2 0.1,-0.3 0,-0.3 0.1,-0.2 0,-0.3 0.1,-0.2 0,-0.3 0.1,-0.2 0,-0.3 0.1,-0.3 0,-0.2 0.1,-0.3 0,-0.3 0.1,-0.2 0,-0.3 0.1,-0.3 0,-0.2 0.1,-0.3 0,-0.3 0.1,-0.2 0,-0.3 0.1,-0.3 0,-0.2 0.1,-0.3 0,-0.3 0.1,-0.3 0,-0.2 0.1,-0.3 0,-0.3 0.1,-0.2 0.1,-0.3 0,-0.3 0.1,-0.3 0,-0.2 0.1,-0.3 0,-0.3 0.1,-0.3 0,-0.3 0.1,-0.2 0,-0.3 0.1,-0.3 0,-0.3 0.1,-0.3 0,-0.2 0.1,-0.3 0,-0.3 0.1,-0.3 0,-0.3 0.1,-0.3 0,-0.2 0.1,-0.3 0,-0.3 0.1,-0.3 0,-0.3 0.1,-0.3 0,-0.3 0.1,-0.2 0,-0.3 0.1,-0.3 0,-0.3 0.1,-0.3 0,-0.3 0.1,-0.3 0,-0.3 0.1,-0.3 0,-0.3 0.1,-0.2 0,-0.3 0.1,-0.3 0.1,-0.3 0,-0.3 0.1,-0.3 0,-0.3 0.1,-0.3 0,-0.3 0.1,-0.3 0,-0.3 0.1,-0.3 0,-0.3 0.1,-0.3 0,-0.3 0.1,-0.3 0,-0.3 0.1,-0.3 0,-0.3 0.1,-0.3 0,-0.2 0.1,-0.3 0,-0.3 0.1,-0.3 0,-0.3 0.1,-0.3 0,-0.3 0.1,-0.3 0,-0.3 0.1,-0.3 0,-0.3 0.1,-0.3 0,-0.3 0.1,-0.3 0,-0.3 0.1,-0.3 0,-0.3 0.1,-0.3 0,-0.4 0.1,-0.3 0,-0.3 0.1,-0.3 0.1,-0.3 0,-0.3 0.1,-0.3 0,-0.3 0.1,-0.3 0,-0.3 0.1,-0.3 0,-0.3 0.1,-0.3 0,-0.3 0.1,-0.3 0,-0.3 0.1,-0.3 0,-0.3 0.1,-0.3 0,-0.3 0.1,-0.3 0,-0.3 0.1,-0.3 0,-0.3 0.1,-0.3 0,-0.3 0.1,-0.3 0,-0.3 0.1,-0.3 0,-0.4 0.1,-0.3 0,-0.3 0.1,-0.3 0,-0.3 0.1,-0.3 0,-0.3 0.1,-0.3 0,-0.3 0.1,-0.3 0,-0.3 0.1,-0.3 0,-0.3 0.1,-0.3 0.1,-0.3 0,-0.3 0.1,-0.3 0,-0.3 0.1,-0.3 0,-0.3 0.1,-0.3 0,-0.3 0.1,-0.3 0,-0.3 0.1,-0.3 0,-0.3 0.1,-0.4 0,-0.3 0.1,-0.3 0,-0.3 0.1,-0.3 0,-0.3 0.1,-0.3 0,-0.3 0.1,-0.3 0,-0.3 0.1,-0.3 0,-0.3 0.1,-0.3 0,-0.3 0.1,-0.3 0,-0.3 0.1,-0.3 0,-0.3 0.1,-0.3 0,-0.3 0.1,-0.3 0,-0.3 0.1,-0.3 0,-0.3 0.1,-0.3 0,-0.3 0.1,-0.3 0.1,-0.3 0,-0.3 0.1,-0.3 0,-0.3 0.1,-0.3 0,-0.3 0.1,-0.2 0,-0.3 0.1,-0.3 0,-0.3 0.1,-0.3 0,-0.3 0.1,-0.3 0,-0.3 0.1,-0.3 0,-0.3 0.1,-0.3 0,-0.3 0.1,-0.3 0,-0.3 0.1,-0.3 0,-0.3 0.1,-0.2 0,-0.3 0.1,-0.3 0,-0.3 0.1,-0.3 0,-0.3 0.1,-0.3 0,-0.3 0.1,-0.3 0,-0.3 0.1,-0.2 0,-0.3 0.1,-0.3 0,-0.3 0.1,-0.3 0,-0.3 0.1,-0.3 0.1,-0.2 0,-0.3 0.1,-0.3 0,-0.3 0.1,-0.3 0,-0.3 0.1,-0.2 0,-0.3 0.1,-0.3 0,-0.3 0.1,-0.3 0,-0.2 0.1,-0.3 0,-0.3 0.1,-0.3 0,-0.2 0.1,-0.3 0,-0.3 0.1,-0.3 0,-0.3 0.1,-0.2 0,-0.3 0.1,-0.3 0,-0.2 0.1,-0.3 0,-0.3 0.1,-0.3 0,-0.2 0.1,-0.3 0,-0.3 0.1,-0.2 0,-0.3 0.1,-0.3 0,-0.2 0.1,-0.3 0,-0.3 0.1,-0.2 0,-0.3 0.1,-0.3 0.1,-0.2 0,-0.3 0.1,-0.3 0,-0.2 0.1,-0.3 0,-0.3 0.1,-0.2 0,-0.3 0.1,-0.2 0,-0.3 0.1,-0.2 0,-0.3 0.1,-0.3 0,-0.2 0.1,-0.3 0,-0.2 0.1,-0.3 0,-0.2 0.1,-0.3 0,-0.2 0.1,-0.3 0,-0.2 0.1,-0.3 0,-0.2 0.1,-0.3 0,-0.2 0.1,-0.3 0,-0.2 0.1,-0.3 0,-0.2 0.1,-0.3 0,-0.2 0.1,-0.2 0,-0.3 0.1,-0.2 0,-0.3 0.1,-0.2 0,-0.3 0.1,-0.2 0.1,-0.2 0,-0.3 0.1,-0.2 0,-0.2 0.1,-0.3 0,-0.2 0.1,-0.2 0,-0.3 0.1,-0.2 0,-0.2 0.1,-0.3 0,-0.2 0.1,-0.2 0,-0.2 0.1,-0.3 0,-0.2 0.1,-0.2 0,-0.2 0.1,-0.3 0,-0.2 0.1,-0.2 0,-0.2 0.1,-0.3 0,-0.2 0.1,-0.2 0,-0.2 0.1,-0.2 0,-0.2 0.1,-0.3 0,-0.2 0.1,-0.2 0,-0.2 0.1,-0.2 0,-0.2 0.1,-0.2 0,-0.2 0.1,-0.3 0,-0.2 0.1,-0.2 0.1,-0.2 0,-0.2 0.1,-0.2 0,-0.2 0.1,-0.2 0,-0.2 0.1,-0.2 0,-0.2 0.1,-0.2 0,-0.2 0.1,-0.2 0,-0.2 0.1,-0.2 0,-0.2 0.1,-0.2 0,-0.1 0.1,-0.2 0,-0.2 0.1,-0.2 0,-0.2 0.1,-0.2 0,-0.2 0.1,-0.2 0,-0.2 0.1,-0.1 0,-0.2 0.1,-0.2 0,-0.2 0.1,-0.2 0,-0.1 0.1,-0.2 0,-0.2 0.1,-0.2 0,-0.1 0.1,-0.2 0,-0.2 0.1,-0.2 0,-0.1 0.1,-0.2 0.1,-0.2 0,-0.1 0.1,-0.2 0,-0.2 0.1,-0.1 0,-0.2 0.1,-0.2 0,-0.1 0.1,-0.2 0,-0.2 0.1,-0.1 0,-0.2 0.1,-0.1 0,-0.2 0.1,-0.1 0,-0.2 0.1,-0.2 0,-0.1 0.1,-0.2 0,-0.1 0.1,-0.2 0,-0.1 0.1,-0.2 0,-0.1 0.1,-0.1 0,-0.2 0.1,-0.1 0,-0.2 0.1,-0.1 0,-0.2 0.1,-0.1 0,-0.1 0.1,-0.2 0,-0.1 0.1,-0.1 0,-0.2 0.1,-0.1 0,-0.1 0.1,-0.2 0.1,-0.1 0,-0.1 0.1,-0.2 0,-0.1 0.1,-0.1 0,-0.1 0.1,-0.2 0,-0.1 0.1,-0.1 0,-0.1 0.1,-0.1 0,-0.2 0.1,-0.1 0,-0.1 0.1,-0.1 0,-0.1 0.1,-0.1 0,-0.1 0.1,-0.2 0,-0.1 0.1,-0.1 0,-0.1 0.1,-0.1 0,-0.1 0.1,-0.1 0,-0.1 0.1,-0.1 0,-0.1 0.1,-0.1 0,-0.1 0.1,-0.1 0,-0.1 0.1,-0.1 0,-0.1 0.1,-0.1 0,-0.1 0.1,0 0,-0.1 0.1,-0.1 0.1,-0.1 0,-0.1 0.1,-0.1 0,-0.1 0.1,-0.1 0.1,-0.1 0,-0.1 0.1,-0.1 0,-0.1 0.1,0 0,-0.1 0.1,-0.1 0.1,-0.1 0,-0.1 0.1,-0.1 0.1,-0.1 0,-0.1 0.1,0 0,-0.1 0.1,-0.1 0.1,-0.1 0.1,-0.1 0,-0.1 0.1,0 0,-0.1 0.1,0 0,-0.1 0.1,0 0,-0.1 0.1,0 0,-0.1 0.1,0 0,-0.1 0.1,0 0.1,0 0,-0.1 0.1,0 0,-0.1 0.1,0 0.1,-0.1 0.1,-0.1 0.1,0 0,-0.1 0.1,0 0.1,0 0,-0.1 0.1,0 0.1,0 0,-0.1 0.1,0 0.1,0 0.1,-0.1 0.1,0 0.1,0 0.1,0 0.1,0 0.1,-0.1 0.1,0 0.1,0 0.1,0 0.1,0 0.1,0.1 0.1,0 0.1,0 0.1,0 0.1,0 0.1,0.1 0.1,0 0.1,0 0,0.1 0.1,0 0.1,0 0,0.1 0.1,0 0.1,0 0,0.1 0.1,0 0.1,0.1 0.1,0.1 0.1,0 0,0.1 0.1,0 0.1,0.1 0.1,0 0,0.1 0.1,0 0,0.1 0.1,0 0,0.1 0.1,0 0,0.1 0.1,0 0,0.1 0.1,0 0,0.1 0.1,0.1 0.1,0.1 0.1,0.1 0,0.1 0.1,0 0,0.1 0.1,0 0,0.1 0.1,0.1 0,0.1 0.1,0 0,0.1 0.1,0.1 0.1,0.1 0,0.1 0.1,0.1 0.1,0.1 0,0.1 0.1,0.1 0,0.1 0.1,0.1 0.1,0.1 0.1,0.1 0,0.1 0.1,0.1 0,0.1 0.1,0.1 0,0.1 0.1,0 0,0.1 0.1,0.1 0,0.1 0.1,0.1 0,0.1 0.1,0.1 0,0.1 0.1,0.1 0,0.1 0.1,0.1 0,0.1 0.1,0.1 0,0.1 0.1,0.1 0,0.2 0.1,0.1 0,0.1 0.1,0.1 0,0.1 0.1,0.1 0,0.1 0.1,0.1 0,0.2 0.1,0.1 0,0.1 0.1,0.1 0,0.1 0.1,0.1 0,0.2 0.1,0.1 0,0.1 0.1,0.1 0.1,0.2 0,0.1 0.1,0.1 0,0.1 0.1,0.2 0,0.1 0.1,0.1 0,0.2 0.1,0.1 0,0.1 0.1,0.2 0,0.1 0.1,0.1 0,0.2 0.1,0.1 0,0.2 0.1,0.1 0,0.1 0.1,0.2 0,0.1 0.1,0.2 0,0.1 0.1,0.2 0,0.1 0.1,0.2 0,0.1 0.1,0.2 0,0.1 0.1,0.2 0,0.1 0.1,0.2 0,0.1 0.1,0.2 0,0.1 0.1,0.2 0,0.2 0.1,0.1 0,0.2 0.1,0.1 0.1,0.2 0,0.2 0.1,0.1 0,0.2 0.1,0.2 0,0.1 0.1,0.2 0,0.2 0.1,0.1 0,0.2 0.1,0.2 0,0.1 0.1,0.2 0,0.2 0.1,0.1 0,0.2 0.1,0.2 0,0.2 0.1,0.2 0,0.1 0.1,0.2 0,0.2 0.1,0.2 0,0.2 0.1,0.1 0,0.2 0.1,0.2 0,0.2 0.1,0.2 0,0.2 0.1,0.1 0,0.2 0.1,0.2 0,0.2 0.1,0.2 0,0.2 0.1,0.2 0,0.2 0.1,0.2 0.1,0.2 0,0.2 0.1,0.1 0,0.2 0.1,0.2 0,0.2 0.1,0.2 0,0.2 0.1,0.2 0,0.2 0.1,0.2 0,0.2 0.1,0.2 0,0.2 0.1,0.2 0,0.3 0.1,0.2 0,0.2 0.1,0.2 0,0.2 0.1,0.2 0,0.2 0.1,0.2 0,0.2 0.1,0.2 0,0.2 0.1,0.2 0,0.3 0.1,0.2 0,0.2 0.1,0.2 0,0.2 0.1,0.2 0,0.3 0.1,0.2 0,0.2 0.1,0.2 0,0.2 0.1,0.3 0.1,0.2 0,0.2 0.1,0.2 0,0.2 0.1,0.3 0,0.2 0.1,0.2 0,0.2 0.1,0.3 0,0.2 0.1,0.2 0,0.2 0.1,0.3 0,0.2 0.1,0.2 0,0.3 0.1,0.2 0,0.2 0.1,0.3 0,0.2 0.1,0.2 0,0.3 0.1,0.2 0,0.2 0.1,0.3 0,0.2 0.1,0.2 0,0.3 0.1,0.2 0,0.2 0.1,0.3 0,0.2 0.1,0.3 0,0.2 0.1,0.2 0,0.3 0.1,0.2 0.1,0.3 0,0.2 0.1,0.2 0,0.3 0.1,0.2 0,0.3 0.1,0.2 0,0.3 0.1,0.2 0,0.3 0.1,0.2 0,0.3 0.1,0.2 0,0.2 0.1,0.3 0,0.2 0.1,0.3 0,0.2 0.1,0.3 0,0.2 0.1,0.3 0,0.3 0.1,0.2 0,0.3 0.1,0.2 0,0.3 0.1,0.2 0,0.3 0.1,0.2 0,0.3 0.1,0.2 0,0.3 0.1,0.2 0,0.3 0.1,0.3 0,0.2 0.1,0.3 0,0.2 0.1,0.3 0.1,0.2 0,0.3 0.1,0.3 0,0.2 0.1,0.3 0,0.2 0.1,0.3 0,0.3 0.1,0.2 0,0.3 0.1,0.3 0,0.2 0.1,0.3 0,0.2 0.1,0.3 0,0.3 0.1,0.2 0,0.3 0.1,0.3 0,0.2 0.1,0.3 0,0.3 0.1,0.2 0,0.3 0.1,0.3 0,0.2 0.1,0.3 0,0.3 0.1,0.2 0,0.3 0.1,0.3 0,0.2 0.1,0.3 0,0.3 0.1,0.2 0,0.3 0.1,0.3 0,0.2 0.1,0.3 0.1,0.3 0,0.2 0.1,0.3 0,0.3 0.1,0.2 0,0.3 0.1,0.3 0,0.3 0.1,0.2 0,0.3 0.1,0.3 0,0.2 0.1,0.3 0,0.3 0.1,0.3 0,0.2 0.1,0.3 0,0.3 0.1,0.2 0,0.3 0.1,0.3 0,0.3 0.1,0.2 0,0.3 0.1,0.3 0,0.3 0.1,0.2 0,0.3 0.1,0.3 0,0.3 0.1,0.2 0,0.3 0.1,0.3 0,0.2 0.1,0.3 0,0.3 0.1,0.3 0,0.2 0.1,0.3 0.1,0.3 0,0.3 0.1,0.2 0,0.3 0.1,0.3 0,0.3 0.1,0.2 0,0.3 0.1,0.3 0,0.3 0.1,0.2 0,0.3 0.1,0.3 0,0.3 0.1,0.2 0,0.3 0.1,0.3 0,0.3 0.1,0.2 0,0.3 0.1,0.3 0,0.3 0.1,0.2 0,0.3 0.1,0.3 0,0.3 0.1,0.2 0,0.3 0.1,0.3 0,0.2 0.1,0.3 0,0.3 0.1,0.3 0,0.2 0.1,0.3 0,0.3 0.1,0.3 0,0.2 0.1,0.3 0.1,0.3 0,0.3 0.1,0.2 0,0.3 0.1,0.3 0,0.2 0.1,0.3 0,0.3 0.1,0.3 0,0.2 0.1,0.3 0,0.3 0.1,0.2 0,0.3 0.1,0.3 0,0.3 0.1,0.2 0,0.3 0.1,0.3 0,0.2 0.1,0.3 0,0.3 0.1,0.3 0,0.2 0.1,0.3 0,0.3 0.1,0.2 0,0.3 0.1,0.3 0,0.2 0.1,0.3 0,0.3 0.1,0.2 0,0.3 0.1,0.3 0,0.2 0.1,0.3 0,0.3 0.1,0.2 0.1,0.3 0,0.3 0.1,0.2 0,0.3 0.1,0.3 0,0.2 0.1,0.3 0,0.3 0.1,0.2 0,0.3 0.1,0.3 0,0.2 0.1,0.3 0,0.2 0.1,0.3 0,0.3 0.1,0.2 0,0.3 0.1,0.2 0,0.3 0.1,0.3 0,0.2 0.1,0.3 0,0.2 0.1,0.3 0,0.3 0.1,0.2 0,0.3 0.1,0.2 0,0.3 0.1,0.3 0,0.2 0.1,0.3 0,0.2 0.1,0.3 0,0.2 0.1,0.3 0,0.2 0.1,0.3 0.1,0.2 0,0.3 0.1,0.3 0,0.2 0.1,0.3 0,0.2 0.1,0.3 0,0.2 0.1,0.3 0,0.2 0.1,0.3 0,0.2 0.1,0.3 0,0.2 0.1,0.3 0,0.2 0.1,0.3 0,0.2 0.1,0.2 0,0.3 0.1,0.2 0,0.3 0.1,0.2 0,0.3 0.1,0.2 0,0.3 0.1,0.2 0,0.2 0.1,0.3 0,0.2 0.1,0.3 0,0.2 0.1,0.2 0,0.3 0.1,0.2 0,0.3 0.1,0.2 0,0.2 0.1,0.3 0.1,0.2 0,0.2 0.1,0.3 0,0.2 0.1,0.2 0,0.3 0.1,0.2 0,0.2 0.1,0.3 0,0.2 0.1,0.2 0,0.3 0.1,0.2 0,0.2 0.1,0.2 0,0.3 0.1,0.2 0,0.2 0.1,0.3 0,0.2 0.1,0.2 0,0.2 0.1,0.3 0,0.2 0.1,0.2 0,0.2 0.1,0.2 0,0.3 0.1,0.2 0,0.2 0.1,0.2 0,0.2 0.1,0.3 0,0.2 0.1,0.2 0,0.2 0.1,0.2 0,0.2 0.1,0.3 0.1,0.2 0,0.2 0.1,0.2 0,0.2 0.1,0.2 0,0.2 0.1,0.2 0,0.2 0.1,0.3 0,0.2 0.1,0.2 0,0.2 0.1,0.2 0,0.2 0.1,0.2 0,0.2 0.1,0.2 0,0.2 0.1,0.2 0,0.2 0.1,0.2 0,0.2 0.1,0.2 0,0.2 0.1,0.2 0,0.2 0.1,0.2 0,0.2 0.1,0.2 0,0.2 0.1,0.2 0,0.2 0.1,0.2 0,0.2 0.1,0.1 0,0.2 0.1,0.2 0,0.2 0.1,0.2 0.1,0.2 0,0.2 0.1,0.2 0,0.1 0.1,0.2 0,0.2 0.1,0.2 0,0.2 0.1,0.2 0,0.1 0.1,0.2 0,0.2 0.1,0.2 0,0.2 0.1,0.1 0,0.2 0.1,0.2 0,0.2 0.1,0.1 0,0.2 0.1,0.2 0,0.2 0.1,0.1 0,0.2 0.1,0.2 0,0.1 0.1,0.2 0,0.2 0.1,0.1 0,0.2 0.1,0.2 0,0.1 0.1,0.2 0,0.2 0.1,0.1 0,0.2 0.1,0.1 0,0.2 0.1,0.2 0.1,0.1 0,0.2 0.1,0.1 0,0.2 0.1,0.1 0,0.2 0.1,0.1 0,0.2 0.1,0.1 0,0.2 0.1,0.1 0,0.2 0.1,0.1 0,0.2 0.1,0.1 0,0.2 0.1,0.1 0,0.2 0.1,0.1 0,0.2 0.1,0.1 0,0.1 0.1,0.2 0,0.1 0.1,0.2 0,0.1 0.1,0.1 0,0.2 0.1,0.1 0,0.1 0.1,0.2 0,0.1 0.1,0.1 0,0.2 0.1,0.1 0,0.1 0.1,0.2 0,0.1 0.1,0.1 0.1,0.1 0,0.2 0.1,0.1 0,0.1 0.1,0.1 0,0.1 0.1,0.2 0,0.1 0.1,0.1 0,0.1 0.1,0.1 0,0.2 0.1,0.1 0,0.1 0.1,0.1 0,0.1 0.1,0.1 0,0.1 0.1,0.1 0,0.2 0.1,0.1 0,0.1 0.1,0.1 0,0.1 0.1,0.1 0,0.1 0.1,0.1 0,0.1 0.1,0.1 0,0.1 0.1,0.1 0,0.1 0.1,0.1 0,0.1 0.1,0.1 0,0.1 0.1,0.1 0,0.1 0.1,0.1 0.1,0.1 0.1,0.1 0,0.1 0.1,0.1 0,0.1 0.1,0.1 0,0.1 0.1,0.1 0.1,0.1 0,0.1 0.1,0.1 0,0.1 0.1,0 0,0.1 0.1,0.1 0,0.1 0.1,0.1 0.1,0.1 0,0.1 0.1,0 0,0.1 0.1,0.1 0,0.1 0.1,0 0,0.1 0.1,0.1 0.1,0.1 0,0.1 0.1,0 0,0.1 0.1,0 0,0.1 0.1,0.1 0.1,0.1 0.1,0 0,0.1 0.1,0 0,0.1 0.1,0.1 0.1,0.1 0.1,0.1 0.1,0.1 0.1,0 0,0.1 0.1,0 0,0.1 0.1,0 0,0.1 0.1,0 0.1,0.1 0.1,0.1 0.1,0 0,0.1 0.1,0 0.1,0.1 0.1,0 0.1,0.1 0.1,0 0,0.1 0.1,0 0.1,0 0.1,0 0,0.1 0.1,0 0.1,0 0.1,0.1 0.1,0 0.1,0 0.1,0 0.1,0.1 0.1,0 0.1,0 0.1,0 0.1,0 0.1,0 0.1,0 0.1,0 0.1,0 0.1,0 0.1,0 0,-0.1 0.1,0 0.1,0 0.1,0 0.1,0 0.1,-0.1 0.1,0 0.1,0 0,-0.1 0.1,0 0.1,0 0.1,-0.1 0.1,0 0.1,-0.1 0.1,0 0,-0.1 0.1,0 0.1,-0.1 0.1,0 0,-0.1 0.1,0 0.1,-0.1 0.1,-0.1 0.1,0 0,-0.1 0.1,0 0,-0.1 0.1,0 0.1,-0.1 0.1,-0.1 0.1,-0.1 0.1,-0.1 0.1,-0.1 0.1,-0.1 0.1,-0.1 0.1,-0.1 0.1,-0.1 0,-0.1 0.1,0 0,-0.1 0.1,0 0,-0.1 0.1,-0.1 0.1,-0.1 0,-0.1 0.1,0 0,-0.1 0.1,-0.1 0.1,-0.1 0,-0.1 0.1,0 0,-0.1 0.1,-0.1 0,-0.1 0.1,0 0,-0.1 0.1,-0.1 0.1,-0.1 0.1,-0.1 0,-0.1 0.1,-0.1 0,-0.1 0.1,0 0,-0.1 0.1,-0.1 0,-0.1 0.1,-0.1 0,-0.1 0.1,0 0,-0.1 0.1,-0.1 0,-0.1 0.1,-0.1 0,-0.1 0.1,-0.1 0,-0.1 0.1,-0.1 0.1,-0.1 0,-0.1 0.1,-0.1 0,-0.1 0.1,-0.1 0,-0.1 0.1,-0.1 0,-0.1 0.1,-0.1 0,-0.1 0.1,-0.1 0,-0.1 0.1,-0.1 0,-0.1 0.1,-0.1 0,-0.1 0.1,-0.1 0.1,-0.1 0,-0.1 0.1,-0.1 0,-0.1 0.1,-0.2 0,-0.1 0.1,-0.1 0,-0.1 0.1,-0.1 0,-0.1 0.1,-0.1 0,-0.1 0.1,-0.1 0,-0.1 0.1,-0.2 0,-0.1 0.1,-0.1 0,-0.1 0.1,-0.1 0,-0.1 0.1,-0.2 0,-0.1 0.1,-0.1 0,-0.1 0.1,-0.1 0,-0.2 0.1,-0.1 0,-0.1 0.1,-0.1 0,-0.1 0.1,-0.2 0,-0.1 0.1,-0.1 0,-0.1 0.1,-0.2 0,-0.1 0.1,-0.1 0,-0.2 0.1,-0.1 0.1,-0.1 0,-0.1 0.1,-0.2 0,-0.1 0.1,-0.1 0,-0.2 0.1,-0.1 0,-0.1 0.1,-0.2 0,-0.1 0.1,-0.1 0,-0.2 0.1,-0.1 0,-0.1 0.1,-0.2 0,-0.1 0.1,-0.2 0,-0.1 0.1,-0.1 0,-0.2 0.1,-0.1 0,-0.2 0.1,-0.1 0,-0.1 0.1,-0.2 0,-0.1 0.1,-0.2 0,-0.1 0.1,-0.2 0,-0.1 0.1,-0.1 0,-0.2 0.1,-0.1 0,-0.2 0.1,-0.1 0,-0.2 0.1,-0.1 0,-0.2 0.1,-0.1 0.1,-0.2 0,-0.1 0.1,-0.2 0,-0.1 0.1,-0.2 0,-0.1 0.1,-0.2 0,-0.1 0.1,-0.2 0,-0.1 0.1,-0.2 0,-0.2 0.1,-0.1 0,-0.2 0.1,-0.1 0,-0.2 0.1,-0.1 0,-0.2 0.1,-0.2 0,-0.1 0.1,-0.2 0,-0.1 0.1,-0.2 0,-0.2 0.1,-0.1 0,-0.2 0.1,-0.1 0,-0.2 0.1,-0.2 0,-0.1 0.1,-0.2 0,-0.1 0.1,-0.2 0,-0.2 0.1,-0.1 0,-0.2 0.1,-0.2 0.1,-0.1 0,-0.2 0.1,-0.2 0,-0.1 0.1,-0.2 0,-0.2 0.1,-0.1 0,-0.2 0.1,-0.2 0,-0.1 0.1,-0.2 0,-0.2 0.1,-0.2 0,-0.1 0.1,-0.2 0,-0.2 0.1,-0.1 0,-0.2 0.1,-0.2 0,-0.2 0.1,-0.1 0,-0.2 0.1,-0.2 0,-0.1 0.1,-0.2 0,-0.2 0.1,-0.2 0,-0.1 0.1,-0.2 0,-0.2 0.1,-0.2 0,-0.1 0.1,-0.2 0,-0.2 0.1,-0.2 0,-0.1 0.1,-0.2 0,-0.2 0.1,-0.2 0.1,-0.2 0,-0.1 0.1,-0.2 0,-0.2 0.1,-0.2 0,-0.1 0.1,-0.2 0,-0.2 0.1,-0.2 0,-0.2 0.1,-0.1 0,-0.2 0.1,-0.2 0,-0.2 0.1,-0.2 0,-0.1 0.1,-0.2 0,-0.2 0.1,-0.2 0,-0.2 0.1,-0.2 0,-0.1 0.1,-0.2 0,-0.2 0.1,-0.2 0,-0.2 0.1,-0.2 0,-0.1 0.1,-0.2 0,-0.2 0.1,-0.2 0,-0.2 0.1,-0.2 0,-0.1 0.1,-0.2 0,-0.2 0.1,-0.2 0,-0.2 0.1,-0.2 0.1,-0.1 0,-0.2 0.1,-0.2 0,-0.2 0.1,-0.2 0,-0.2 0.1,-0.2 0,-0.1 0.1,-0.2 0,-0.2 0.1,-0.2 0,-0.2 0.1,-0.2 0,-0.2 0.1,-0.2 0,-0.1 0.1,-0.2 0,-0.2 0.1,-0.2 0,-0.2 0.1,-0.2 0,-0.2 0.1,-0.1 0,-0.2 0.1,-0.2 0,-0.2 0.1,-0.2 0,-0.2 0.1,-0.2 0,-0.2 0.1,-0.1 0,-0.2 0.1,-0.2 0,-0.2 0.1,-0.2 0,-0.2 0.1,-0.2 0,-0.2 0.1,-0.1 0.1,-0.2 0,-0.2 0.1,-0.2 0,-0.2 0.1,-0.2 0,-0.2 0.1,-0.2 0,-0.1 0.1,-0.2 0,-0.2 0.1,-0.2 0,-0.2 0.1,-0.2 0,-0.2 0.1,-0.2 0,-0.1 0.1,-0.2 0,-0.2 0.1,-0.2 0,-0.2 0.1,-0.2 0,-0.2 0.1,-0.2 0,-0.1 0.1,-0.2 0,-0.2 0.1,-0.2 0,-0.2 0.1,-0.2 0,-0.2 0.1,-0.2 0,-0.1 0.1,-0.2 0,-0.2 0.1,-0.2 0,-0.2 0.1,-0.2 0,-0.2 0.1,-0.1 0.1,-0.2 0,-0.2 0.1,-0.2 0,-0.2 0.1,-0.2 0,-0.1 0.1,-0.2 0,-0.2 0.1,-0.2 0,-0.2 0.1,-0.2 0,-0.2 0.1,-0.1 0,-0.2 0.1,-0.2 0,-0.2 0.1,-0.2 0,-0.2 0.1,-0.1 0,-0.2 0.1,-0.2 0,-0.2 0.1,-0.2 0,-0.1 0.1,-0.2 0,-0.2 0.1,-0.2 0,-0.2 0.1,-0.2 0,-0.1 0.1,-0.2 0,-0.2 0.1,-0.2 0,-0.2 0.1,-0.1 0,-0.2 0.1,-0.2 0,-0.2 0.1,-0.2 0.1,-0.1 0,-0.2 0.1,-0.2 0,-0.2 0.1,-0.1 0,-0.2 0.1,-0.2 0,-0.2 0.1,-0.2 0,-0.1 0.1,-0.2 0,-0.2 0.1,-0.2 0,-0.1 0.1,-0.2 0,-0.2 0.1,-0.2 0,-0.1 0.1,-0.2 0,-0.2 0.1,-0.1 0,-0.2 0.1,-0.2 0,-0.2 0.1,-0.1 0,-0.2 0.1,-0.2 0,-0.2 0.1,-0.1 0,-0.2 0.1,-0.2 0,-0.1 0.1,-0.2 0,-0.2 0.1,-0.1 0,-0.2 0.1,-0.2 0,-0.1 0.1,-0.2 0.1,-0.2 0,-0.1 0.1,-0.2 0,-0.2 0.1,-0.1 0,-0.2 0.1,-0.2 0,-0.1 0.1,-0.2 0,-0.2 0.1,-0.1 0,-0.2 0.1,-0.2 0,-0.1 0.1,-0.2 0,-0.1 0.1,-0.2 0,-0.2 0.1,-0.1 0,-0.2 0.1,-0.1 0,-0.2 0.1,-0.2 0,-0.1 0.1,-0.2 0,-0.1 0.1,-0.2 0,-0.2 0.1,-0.1 0,-0.2 0.1,-0.1 0,-0.2 0.1,-0.1 0,-0.2 0.1,-0.1 0,-0.2 0.1,-0.2 0,-0.1 0.1,-0.2 0.1,-0.1 0,-0.2 0.1,-0.1 0,-0.2 0.1,-0.1 0,-0.2 0.1,-0.1 0,-0.2 0.1,-0.1 0,-0.2 0.1,-0.1 0,-0.2 0.1,-0.1 0,-0.1 0.1,-0.2 0,-0.1 0.1,-0.2 0,-0.1 0.1,-0.2 0,-0.1 0.1,-0.2 0,-0.1 0.1,-0.1 0,-0.2 0.1,-0.1 0,-0.2 0.1,-0.1 0,-0.1 0.1,-0.2 0,-0.1 0.1,-0.2 0,-0.1 0.1,-0.1 0,-0.2 0.1,-0.1 0,-0.1 0.1,-0.2 0,-0.1 0.1,-0.1 0.1,-0.2 0,-0.1 0.1,-0.1 0,-0.2 0.1,-0.1 0,-0.1 0.1,-0.2 0,-0.1 0.1,-0.1 0,-0.1 0.1,-0.2 0,-0.1 0.1,-0.1 0,-0.2 0.1,-0.1 0,-0.1 0.1,-0.1 0,-0.1 0.1,-0.2 0,-0.1 0.1,-0.1 0,-0.1 0.1,-0.2 0,-0.1 0.1,-0.1 0,-0.1 0.1,-0.1 0,-0.2 0.1,-0.1 0,-0.1 0.1,-0.1 0,-0.1 0.1,-0.1 0,-0.2 0.1,-0.1 0,-0.1 0.1,-0.1 0,-0.1 0.1,-0.1 0.1,-0.1 0,-0.1 0.1,-0.2 0,-0.1 0.1,-0.1 0,-0.1 0.1,-0.1 0,-0.1 0.1,-0.1 0,-0.1 0.1,-0.1 0,-0.1 0.1,-0.1 0,-0.1 0.1,-0.1 0,-0.1 0.1,-0.1 0,-0.1 0.1,-0.1 0,-0.1 0.1,-0.1 0,-0.1 0.1,-0.1 0,-0.1 0.1,-0.1 0,-0.1 0.1,-0.1 0,-0.1 0.1,-0.1 0,-0.1 0.1,-0.1 0,-0.1 0.1,-0.1 0,-0.1 0.1,0 0,-0.1 0.1,-0.1 0,-0.1 0.1,-0.1 0.1,-0.1 0,-0.1 0.1,-0.1 0.1,-0.1 0,-0.1 0.1,-0.1 0,-0.1 0.1,-0.1 0.1,-0.1 0,-0.1 0.1,-0.1 0,-0.1 0.1,0 0,-0.1 0.1,-0.1 0,-0.1 0.1,0 0,-0.1 0.1,-0.1 0,-0.1 0.1,0 0,-0.1 0.1,-0.1 0.1,-0.1 0,-0.1 0.1,0 0,-0.1 0.1,-0.1 0.1,-0.1 0,-0.1 0.1,0 0,-0.1 0.1,-0.1 0.1,-0.1 0.1,0 0,-0.1 0.1,-0.1 0.1,-0.1 0.1,-0.1 0.1,-0.1 0,-0.1 0.1,0 0,-0.1 0.1,0 0,-0.1 0.1,0 0,-0.1 0.1,0 0,-0.1 0.1,0 0,-0.1 0.1,0 0,-0.1 0.1,0 0.1,-0.1 0.1,-0.1 0.1,-0.1 0.1,0 0,-0.1 0.1,0 0.1,-0.1 0.1,-0.1 0.1,0 0.1,-0.1 0.1,0 0.1,-0.1 0.1,0 0,-0.1 0.1,0 0.1,0 0,-0.1 0.1,0 0.1,0 0,-0.1 0.1,0 0.1,0 0.1,-0.1 0.1,0 0.1,0 0.1,-0.1 0.1,0 0.1,0 0.1,0 0.1,0 0,-0.1 0.1,0 0.1,0 0.1,0 0.1,0 0.1,0 0.1,0 0.1,0 0.1,0 0.1,0 0.1,0 0.1,0 0,0.1 0.1,0 0.1,0 0.1,0 0.1,0 0.1,0.1 0.1,0 0.1,0 0.1,0 0,0.1 0.1,0 0.1,0 0,0.1 0.1,0 0.1,0 0.1,0 0,0.1 0.1,0 0.1,0 0,0.1 0.1,0 0.1,0.1 0.1,0 0,0.1 0.1,0 0.1,0.1 0.1,0 0,0.1 0.1,0 0.1,0.1 0.1,0.1 0.1,0 0,0.1 0.1,0 0,0.1 0.1,0 0,0.1 0.1,0 0,0.1 0.1,0 0.1,0.1 0.1,0.1 0.1,0 0,0.1 0.1,0 0,0.1 0.1,0 0,0.1 0.1,0.1 0.1,0.1 0.1,0.1 0.1,0.1 0,0.1 0.1,0 0,0.1 0.1,0 0,0.1 0.1,0.1 0.1,0.1 0,0.1 0.1,0 0,0.1 0.1,0 0,0.1 0.1,0.1 0,0.1 0.1,0 0,0.1 0.1,0.1 0.1,0.1 0,0.1 0.1,0 0,0.1 0.1,0.1 0,0.1 0.1,0 0.1,0.1 0,0.1 0.1,0.1 0,0.1 0.1,0 0,0.1 0.1,0.1 0,0.1 0.1,0 0,0.1 0.1,0.1 0,0.1 0.1,0.1 0,0.1 0.1,0 0,0.1 0.1,0.1 0,0.1 0.1,0.1 0,0.1 0.1,0.1 0,0.1 0.1,0 0,0.1 0.1,0.1 0,0.1 0.1,0.1 0,0.1 0.1,0.1 0,0.1 0.1,0.1 0,0.1 0.1,0.1 0,0.1 0.1,0.1 0,0.1 0.1,0.1 0,0.1 0.1,0.1 0.1,0.1 0,0.1 0.1,0.1 0,0.1 0.1,0.1 0,0.1 0.1,0.1 0,0.1 0.1,0.1 0,0.1 0.1,0.1 0,0.1 0.1,0.1 0,0.1 0.1,0.1 0,0.1 0.1,0.1 0,0.1 0.1,0.2 0,0.1 0.1,0.1 0,0.1 0.1,0.1 0,0.1 0.1,0.1 0,0.1 0.1,0.1 0,0.2 0.1,0.1 0,0.1 0.1,0.1 0,0.1 0.1,0.1 0,0.2 0.1,0.1 0,0.1 0.1,0.1 0,0.1 0.1,0.2 0.1,0.1 0,0.1 0.1,0.1 0,0.1 0.1,0.2 0,0.1 0.1,0.1 0,0.1 0.1,0.2 0,0.1 0.1,0.1 0,0.1 0.1,0.2 0,0.1 0.1,0.1 0,0.2 0.1,0.1 0,0.1 0.1,0.1 0,0.2 0.1,0.1 0,0.1 0.1,0.2 0,0.1 0.1,0.1 0,0.2 0.1,0.1 0,0.1 0.1,0.2 0,0.1 0.1,0.1 0,0.2 0.1,0.1 0,0.1 0.1,0.2 0,0.1 0.1,0.1 0,0.2 0.1,0.1 0.1,0.2 0,0.1 0.1,0.1 0,0.2 0.1,0.1 0,0.2 0.1,0.1 0,0.1 0.1,0.2 0,0.1 0.1,0.2 0,0.1 0.1,0.2 0,0.1 0.1,0.2 0,0.1 0.1,0.1 0,0.2 0.1,0.1 0,0.2 0.1,0.1 0,0.2 0.1,0.1 0,0.2 0.1,0.1 0,0.2 0.1,0.1 0,0.2 0.1,0.1 0,0.2 0.1,0.1 0,0.2 0.1,0.1 0,0.2 0.1,0.1 0,0.2 0.1,0.1 0,0.2 0.1,0.1 0.1,0.2 0,0.1 0.1,0.2 0,0.2 0.1,0.1 0,0.2 0.1,0.1 0,0.2 0.1,0.1 0,0.2 0.1,0.1 0,0.2 0.1,0.2 0,0.1 0.1,0.2 0,0.1 0.1,0.2 0,0.2 0.1,0.1 0,0.2 0.1,0.1 0,0.2 0.1,0.2 0,0.1 0.1,0.2 0,0.1 0.1,0.2 0,0.2 0.1,0.1 0,0.2 0.1,0.1 0,0.2 0.1,0.2 0,0.1 0.1,0.2 0,0.2 0.1,0.1 0,0.2 0.1,0.2 0.1,0.1 0,0.2 0.1,0.2 0,0.1 0.1,0.2 0,0.2 0.1,0.1 0,0.2 0.1,0.2 0,0.1 0.1,0.2 0,0.2 0.1,0.1 0,0.2 0.1,0.2 0,0.1 0.1,0.2 0,0.2 0.1,0.1 0,0.2 0.1,0.2 0,0.1 0.1,0.2 0,0.2 0.1,0.1 0,0.2 0.1,0.2 0,0.2 0.1,0.1 0,0.2 0.1,0.2 0,0.1 0.1,0.2 0,0.2 0.1,0.2 0,0.1 0.1,0.2 0.1,0.2 0,0.1 0.1,0.2 0,0.2 0.1,0.2 0,0.1 0.1,0.2 0,0.2 0.1,0.2 0,0.1 0.1,0.2 0,0.2 0.1,0.1 0,0.2 0.1,0.2 0,0.2 0.1,0.1 0,0.2 0.1,0.2 0,0.2 0.1,0.1 0,0.2 0.1,0.2 0,0.2 0.1,0.1 0,0.2 0.1,0.2 0,0.2 0.1,0.1 0,0.2 0.1,0.2 0,0.2 0.1,0.1 0,0.2 0.1,0.2 0,0.2 0.1,0.1 0,0.2 0.1,0.2 0.1,0.2 0,0.1 0.1,0.2 0,0.2 0.1,0.2 0,0.1 0.1,0.2 0,0.2 0.1,0.2 0,0.1 0.1,0.2 0,0.2 0.1,0.2 0,0.1 0.1,0.2 0,0.2 0.1,0.2 0,0.1 0.1,0.2 0,0.2 0.1,0.2 0,0.1 0.1,0.2 0,0.2 0.1,0.2 0,0.1 0.1,0.2 0,0.2 0.1,0.2 0,0.1 0.1,0.2 0,0.2 0.1,0.2 0,0.1 0.1,0.2 0,0.2 0.1,0.2 0,0.1 0.1,0.2 0.1,0.2 0,0.2 0.1,0.1 0,0.2 0.1,0.2 0,0.2 0.1,0.1 0,0.2 0.1,0.2 0,0.2 0.1,0.1 0,0.2 0.1,0.2 0,0.2 0.1,0.1 0,0.2 0.1,0.2 0,0.2 0.1,0.1 0,0.2 0.1,0.2 0,0.2 0.1,0.1 0,0.2 0.1,0.2 0,0.1 0.1,0.2 0,0.2 0.1,0.2 0,0.1 0.1,0.2 0,0.2 0.1,0.1 0,0.2 0.1,0.2 0,0.2 0.1,0.1 0,0.2 0.1,0.2 0.1,0.1 0,0.2 0.1,0.2 0,0.2 0.1,0.1 0,0.2 0.1,0.2 0,0.1 0.1,0.2 0,0.2 0.1,0.1 0,0.2 0.1,0.2 0,0.1 0.1,0.2 0,0.2 0.1,0.1 0,0.2 0.1,0.2 0,0.1 0.1,0.2 0,0.2 0.1,0.1 0,0.2 0.1,0.2 0,0.1 0.1,0.2 0,0.2 0.1,0.1 0,0.2 0.1,0.2 0,0.1 0.1,0.2 0,0.2 0.1,0.1 0,0.2 0.1,0.1 0,0.2 0.1,0.2 0.1,0.1 0,0.2 0.1,0.2 0,0.1 0.1,0.2 0,0.1 0.1,0.2 0,0.2 0.1,0.1 0,0.2 0.1,0.1 0,0.2 0.1,0.2 0,0.1 0.1,0.2 0,0.1 0.1,0.2 0,0.2 0.1,0.1 0,0.2 0.1,0.1 0,0.2 0.1,0.1 0,0.2 0.1,0.1 0,0.2 0.1,0.2 0,0.1 0.1,0.2 0,0.1 0.1,0.2 0,0.1 0.1,0.2 0,0.1 0.1,0.2 0,0.1 0.1,0.2 0,0.1 0.1,0.2 0.1,0.1 0,0.2 0.1,0.1 0,0.2 0.1,0.1 0,0.2 0.1,0.1 0,0.2 0.1,0.1 0,0.2 0.1,0.1 0,0.2 0.1,0.1 0,0.2 0.1,0.1 0,0.2 0.1,0.1 0,0.1 0.1,0.2 0,0.1 0.1,0.2 0,0.1 0.1,0.2 0,0.1 0.1,0.1 0,0.2 0.1,0.1 0,0.2 0.1,0.1 0,0.1 0.1,0.2 0,0.1 0.1,0.2 0,0.1 0.1,0.1 0,0.2 0.1,0.1 0,0.1 0.1,0.2 0.1,0.1 0,0.2 0.1,0.1 0,0.1 0.1,0.2 0,0.1 0.1,0.1 0,0.2 0.1,0.1 0,0.1 0.1,0.1 0,0.2 0.1,0.1 0,0.1 0.1,0.2 0,0.1 0.1,0.1 0,0.2 0.1,0.1 0,0.1 0.1,0.1 0,0.2 0.1,0.1 0,0.1 0.1,0.1 0,0.2 0.1,0.1 0,0.1 0.1,0.1 0,0.2 0.1,0.1 0,0.1 0.1,0.1 0,0.1 0.1,0.2 0,0.1 0.1,0.1 0,0.1 0.1,0.1 0.1,0.2 0,0.1 0.1,0.1 0,0.1 0.1,0.1 0,0.1 0.1,0.2 0,0.1 0.1,0.1 0,0.1 0.1,0.1 0,0.1 0.1,0.1 0,0.1 0.1,0.2 0,0.1 0.1,0.1 0,0.1 0.1,0.1 0,0.1 0.1,0.1 0,0.1 0.1,0.1 0,0.1 0.1,0.1 0,0.1 0.1,0.1 0,0.2 0.1,0.1 0,0.1 0.1,0.1 0,0.1 0.1,0.1 0,0.1 0.1,0.1 0,0.1 0.1,0.1 0,0.1 0.1,0.1 0.1,0.1 0,0.1 0.1,0.1 0.1,0.1 0,0.1 0.1,0.1 0,0.1 0.1,0.1 0,0.1 0.1,0.1 0,0.1 0.1,0.1 0,0.1 0.1,0.1 0,0.1 0.1,0.1 0.1,0.1 0,0.1 0.1,0.1 0,0.1 0.1,0.1 0,0.1 0.1,0 0,0.1 0.1,0.1 0,0.1 0.1,0.1 0,0.1 0.1,0 0,0.1 0.1,0.1 0,0.1 0.1,0.1 0.1,0.1 0,0.1 0.1,0.1 0.1,0 0,0.1 0.1,0.1 0,0.1 0.1,0 0,0.1 0.1,0.1 0,0.1 0.1,0 0,0.1 0.1,0.1 0.1,0.1 0,0.1 0.1,0 0,0.1 0.1,0.1 0.1,0.1 0,0.1 0.1,0 0,0.1 0.1,0.1 0.1,0.1 0,0.1 0.1,0 0,0.1 0.1,0 0,0.1 0.1,0 0,0.1 0.1,0.1 0.1,0.1 0.1,0.1 0.1,0.1"
               id="path186" />
          </g>
          <text
             xml:space="preserve"
             style="font-style:normal;font-variant:normal;font-weight:normal;font-stretch:normal;font-size:145.26312256px;line-height:125%;font-family:'TeX Gyre Pagella';-inkscape-font-specification:'TeX Gyre Pagella, Normal';text-align:start;letter-spacing:0px;word-spacing:0px;writing-mode:lr-tb;text-anchor:start;fill:#000000;fill-opacity:1;stroke:#eeffff;stroke-width:3.87368321px;stroke-linecap:butt;stroke-linejoin:miter;stroke-opacity:1"
             x="-1070.4441"
             y="642.37622"
             id="text5929-3"
             sodipodi:linespacing="125%"
             transform="matrix(0,-1.2919418,0.77402867,0,0,0)"><tspan
               sodipodi:role="line"
               id="tspan5931-5"
               x="-1070.4441"
               y="642.37622"
               style="stroke-width:3.87368321px">r</tspan></text>
          <text
             xml:space="preserve"
             style="font-style:normal;font-variant:normal;font-weight:normal;font-stretch:normal;font-size:138.66792297px;line-height:125%;font-family:'TeX Gyre Pagella';-inkscape-font-specification:'TeX Gyre Pagella, Normal';text-align:start;letter-spacing:0px;word-spacing:0px;writing-mode:lr-tb;text-anchor:start;fill:#000000;fill-opacity:1;stroke:#ffffff;stroke-width:3.6978116px;stroke-linecap:butt;stroke-linejoin:miter;stroke-opacity:1"
             x="-1273.2812"
             y="295.04553"
             id="text5929"
             sodipodi:linespacing="125%"
             transform="matrix(0,-1.2919418,0.77402867,0,0,0)"><tspan
               sodipodi:role="line"
               id="tspan5931"
               x="-1273.2812"
               y="295.04553"
               style="stroke-width:3.6978116px"></tspan></text>
          <path
             style="fill:none;fill-rule:evenodd;stroke:#000000;stroke-width:2.95302129;stroke-linecap:butt;stroke-linejoin:miter;stroke-miterlimit:4;stroke-dasharray:none;stroke-opacity:1;marker-end:url(#Arrow1Lend)"
             d="m 434.96796,1502.1698 c -25.87476,52.8971 -67.8565,86.651 -111.16315,78.6376 -32.67619,-6.916 -65.19213,-35.4571 -87.6076,-75.8576 -6.5942,-13.4202 -10.45915,-29.2756 -15.76039,-44.0492"
             id="path4389"
             inkscape:connector-curvature="0"
             sodipodi:nodetypes="cccc" />
          <path
             style="fill:none;fill-rule:evenodd;stroke:#000000;stroke-width:2.95302129;stroke-linecap:butt;stroke-linejoin:miter;stroke-miterlimit:4;stroke-dasharray:none;stroke-opacity:1;marker-end:url(#marker5889)"
             d="m 318.03755,1333.2158 280.77026,138.4398"
             id="path5869"
             inkscape:connector-curvature="0" />
          <path
             style="fill:none;fill-rule:evenodd;stroke:#000000;stroke-width:2.95302129;stroke-linecap:butt;stroke-linejoin:miter;stroke-miterlimit:4;stroke-dasharray:none;stroke-opacity:1;marker-start:url(#StopL);marker-end:url(#StopL)"
             d="m 757.51127,1635.4645 0.45847,-286.2464"
             id="path5869-7"
             inkscape:connector-curvature="0"
             sodipodi:nodetypes="cc" />
          <text
             xml:space="preserve"
             style="font-style:normal;font-variant:normal;font-weight:normal;font-stretch:normal;font-size:145.26312256px;line-height:125%;font-family:'TeX Gyre Pagella';-inkscape-font-specification:'TeX Gyre Pagella, Normal';text-align:start;letter-spacing:0px;word-spacing:0px;writing-mode:lr-tb;text-anchor:start;fill:#000000;fill-opacity:1;stroke:none;stroke-width:1.3511225px;stroke-linecap:butt;stroke-linejoin:miter;stroke-opacity:1"
             x="-1185.8862"
             y="1121.9406"
             id="text5929-3-5"
             sodipodi:linespacing="125%"
             transform="matrix(0,-1.2919418,0.77402867,0,0,0)"><tspan
               sodipodi:role="line"
               id="tspan5931-5-3"
               x="-1185.8862"
               y="1121.9406"
               style="stroke:none;stroke-width:1.3511225px">h</tspan></text>
        </g>
        <path
           style="fill:#ee312a;fill-opacity:1;fill-rule:evenodd;stroke:#ee312a;stroke-width:5.3015151;stroke-linecap:butt;stroke-linejoin:miter;stroke-miterlimit:4;stroke-dasharray:none;stroke-opacity:1"
           d="m 705.30869,418.23172 -749.53316,0"
           id="path4334"
           inkscape:connector-curvature="0" />
      </g>
    </g>
  </g>
</svg>
