<?xml version="1.0" encoding="UTF-8" standalone="no"?>
<!-- Created with Inkscape (http://www.inkscape.org/) -->

<svg
   xmlns:dc="http://purl.org/dc/elements/1.1/"
   xmlns:cc="http://creativecommons.org/ns#"
   xmlns:rdf="http://www.w3.org/1999/02/22-rdf-syntax-ns#"
   xmlns:svg="http://www.w3.org/2000/svg"
   xmlns="http://www.w3.org/2000/svg"
   xmlns:sodipodi="http://sodipodi.sourceforge.net/DTD/sodipodi-0.dtd"
   xmlns:inkscape="http://www.inkscape.org/namespaces/inkscape"
   inkscape:version="0.91 r13725"
   version="1.1"
   id="svg2"
   height="1052.3622047"
   width="744.09448819"
   sodipodi:docname="huygens.svg">
  <sodipodi:namedview
     id="base"
     pagecolor="#ffffff"
     bordercolor="#666666"
     borderopacity="1.0"
     inkscape:pageopacity="0.0"
     inkscape:pageshadow="2"
     inkscape:zoom="1.979899"
     inkscape:cx="300.48132"
     inkscape:cy="833.9787"
     inkscape:document-units="px"
     inkscape:current-layer="layer1"
     showgrid="false"
     showguides="true"
     inkscape:guide-bbox="true"
     inkscape:window-width="1280"
     inkscape:window-height="1000"
     inkscape:window-x="0"
     inkscape:window-y="24"
     inkscape:window-maximized="1"
     inkscape:snap-bbox="true"
     inkscape:bbox-nodes="false"
     inkscape:snap-global="false"
     inkscape:snap-bbox-midpoints="true"
     inkscape:snap-intersection-paths="true"
     inkscape:object-paths="true"
     inkscape:snap-smooth-nodes="true"
     inkscape:object-nodes="false"
     inkscape:snap-object-midpoints="true"
     inkscape:snap-to-guides="true"
     inkscape:snap-grids="true"
     inkscape:snap-page="false">
    <sodipodi:guide
       id="guide3952"
       position="200.0102,818.22356"
       orientation="1,0" />
    <sodipodi:guide
       inkscape:color="rgb(0,0,255)"
       inkscape:label=""
       orientation="0,1"
       position="296.42857,900"
       id="guide5312" />
    <sodipodi:guide
       id="guide4366"
       orientation="1,0"
       position="450.02296,976.8175" />
    <sodipodi:guide
       inkscape:color="rgb(0,0,255)"
       inkscape:label=""
       id="guide4502"
       orientation="0,1"
       position="250.71428,700" />
    <sodipodi:guide
       inkscape:color="rgb(0,0,255)"
       inkscape:label=""
       id="guide5169"
       orientation="0,1"
       position="245,800" />
    <sodipodi:guide
       inkscape:color="rgb(0,0,255)"
       inkscape:label=""
       id="guide5171"
       orientation="0,1"
       position="264.28571,850" />
    <sodipodi:guide
       inkscape:color="rgb(0,0,255)"
       inkscape:label=""
       id="guide5173"
       orientation="0,1"
       position="328.57143,750" />
    <sodipodi:guide
       position="125,937.85714"
       orientation="1,0"
       id="guide5802" />
    <sodipodi:guide
       position="365.17014,707.61185"
       orientation="1,0"
       id="guide6977" />
    <sodipodi:guide
       position="507.0098,704.5814"
       orientation="1,0"
       id="guide6979" />
    <sodipodi:guide
       position="630.78066,713.6942"
       orientation="1,0"
       id="guide6981" />
    <sodipodi:guide
       position="286.88332,921.25911"
       orientation="0,1"
       id="guide4248" />
  </sodipodi:namedview>
  <defs
     id="defs4">
    <marker
       inkscape:stockid="Arrow1Lend"
       orient="auto"
       refY="0.0"
       refX="0.0"
       id="marker6885"
       style="overflow:visible;"
       inkscape:isstock="true">
      <path
         id="path6887"
         d="M 0.0,0.0 L 5.0,-5.0 L -12.5,0.0 L 5.0,5.0 L 0.0,0.0 z "
         style="fill-rule:evenodd;stroke:#000000;stroke-width:1pt;stroke-opacity:1;fill:#000000;fill-opacity:1"
         transform="scale(0.8) rotate(180) translate(12.5,0)" />
    </marker>
    <marker
       inkscape:stockid="Arrow1Lend"
       orient="auto"
       refY="0.0"
       refX="0.0"
       id="Arrow1Lend"
       style="overflow:visible;"
       inkscape:isstock="true">
      <path
         id="path6616"
         d="M 0.0,0.0 L 5.0,-5.0 L -12.5,0.0 L 5.0,5.0 L 0.0,0.0 z "
         style="fill-rule:evenodd;stroke:#000000;stroke-width:1pt;stroke-opacity:1;fill:#000000;fill-opacity:1"
         transform="scale(0.8) rotate(180) translate(12.5,0)" />
    </marker>
    <inkscape:path-effect
       fuse_tolerance="0"
       vertical_pattern="false"
       prop_units="false"
       tang_offset="0"
       normal_offset="0"
       spacing="-20"
       scale_y_rel="false"
       prop_scale="1"
       copytype="repeated_stretched"
       pattern="m 28.45217,14.47606 c 0,7.7188 -6.25731,13.97609 -13.97609,13.97609 C 6.75731,28.45215 0.5,22.19486 0.5,14.47606 0.5,6.75729 6.75731,0.5 14.47608,0.5 c 7.71878,0 13.97609,6.25729 13.97609,13.97606 z"
       is_visible="true"
       id="path-effect6305"
       effect="skeletal" />
    <inkscape:path-effect
       fuse_tolerance="0"
       vertical_pattern="false"
       prop_units="false"
       tang_offset="0"
       normal_offset="0"
       spacing="-20"
       scale_y_rel="false"
       prop_scale="1"
       copytype="repeated"
       pattern="m 28.45217,16.47606 c 0,7.7188 -6.25731,13.97609 -13.97609,13.97609 C 6.75731,30.45215 0.5,24.19486 0.5,16.47606 0.5,8.75729 6.75731,2.5 14.47608,2.5 c 7.71878,0 13.97609,6.25729 13.97609,13.97606 z"
       is_visible="true"
       id="path-effect6174"
       effect="skeletal" />
    <inkscape:path-effect
       fuse_tolerance="0"
       vertical_pattern="false"
       prop_units="false"
       tang_offset="0"
       normal_offset="0"
       spacing="-20"
       scale_y_rel="false"
       prop_scale="1"
       copytype="repeated"
       pattern="m 28.45217,14.47606 c 0,7.7188 -6.25731,13.97609 -13.97609,13.97609 C 6.75731,28.45215 0.5,22.19486 0.5,14.47606 0.5,6.75729 6.75731,0.5 14.47608,0.5 c 7.71878,0 13.97609,6.25729 13.97609,13.97606 z"
       is_visible="true"
       id="path-effect6068"
       effect="skeletal" />
    <inkscape:path-effect
       fuse_tolerance="0"
       vertical_pattern="false"
       prop_units="false"
       tang_offset="0"
       normal_offset="0"
       spacing="-10"
       scale_y_rel="false"
       prop_scale="1"
       copytype="repeated"
       pattern="m 28.45217,14.47606 c 0,7.7188 -6.25731,13.97609 -13.97609,13.97609 C 6.75731,28.45215 0.5,22.19486 0.5,14.47606 0.5,6.75729 6.75731,0.5 14.47608,0.5 c 7.71878,0 13.97609,6.25729 13.97609,13.97606 z"
       is_visible="true"
       id="path-effect5993"
       effect="skeletal" />
    <inkscape:path-effect
       fuse_tolerance="0"
       vertical_pattern="false"
       prop_units="false"
       tang_offset="0"
       normal_offset="0"
       spacing="40"
       scale_y_rel="false"
       prop_scale="1"
       copytype="repeated"
       pattern="m 127.64286,4.07143 c 0,1.97245 -1.59898,3.57143 -3.57143,3.57143 -1.97245,0 -3.57143,-1.59898 -3.57143,-3.57143 0,-1.97245 1.59898,-3.57143 3.57143,-3.57143 1.97245,0 3.57143,1.59898 3.57143,3.57143 z"
       is_visible="true"
       id="path-effect7405"
       effect="skeletal" />
    <inkscape:path-effect
       fuse_tolerance="0"
       vertical_pattern="false"
       prop_units="false"
       tang_offset="0"
       normal_offset="0"
       spacing="40"
       scale_y_rel="false"
       prop_scale="1"
       copytype="repeated"
       pattern="m 118.1703,122.60901 c 0,1.87383 -1.51904,3.39286 -3.39286,3.39286 -1.87382,0 -3.39285,-1.51903 -3.39285,-3.39286 0,-1.87382 1.51903,-3.39285 3.39285,-3.39285 1.87382,0 3.39286,1.51903 3.39286,3.39285 z"
       is_visible="true"
       id="path-effect6109"
       effect="skeletal" />
    <inkscape:path-effect
       is_visible="true"
       id="path-effect6049"
       effect="spiro" />
    <inkscape:path-effect
       fuse_tolerance="0"
       vertical_pattern="false"
       prop_units="false"
       tang_offset="0"
       normal_offset="0"
       spacing="0"
       scale_y_rel="false"
       prop_scale="1"
       copytype="repeated"
       pattern="m 141.5937,112.46479 c 0,1.87383 -1.51904,3.39286 -3.39286,3.39286 -1.87382,0 -3.39286,-1.51903 -3.39286,-3.39286 0,-1.87382 1.51904,-3.39285 3.39286,-3.39285 1.87382,0 3.39286,1.51903 3.39286,3.39285 z"
       is_visible="true"
       id="path-effect3905"
       effect="skeletal" />
    <inkscape:path-effect
       fuse_tolerance="0"
       vertical_pattern="false"
       prop_units="false"
       tang_offset="0"
       normal_offset="0"
       spacing="0"
       scale_y_rel="false"
       prop_scale="1"
       copytype="single_stretched"
       pattern="m 46.116729,12.121831 1,0"
       is_visible="true"
       id="path-effect3897"
       effect="skeletal" />
    <inkscape:path-effect
       fuse_tolerance="0"
       vertical_pattern="false"
       prop_units="false"
       tang_offset="0"
       normal_offset="0"
       spacing="0"
       scale_y_rel="false"
       prop_scale="1"
       copytype="single_stretched"
       pattern="m 4.0002865e-6,-2.4999941e-6 0.9999999997135,0"
       is_visible="true"
       id="path-effect3897-7"
       effect="skeletal" />
    <inkscape:path-effect
       fuse_tolerance="0"
       vertical_pattern="false"
       prop_units="false"
       tang_offset="0"
       normal_offset="0"
       spacing="40"
       scale_y_rel="false"
       prop_scale="1"
       copytype="repeated"
       pattern="m 203.15466,109.79422 c 0,1.87383 -1.51903,3.39286 -3.39286,3.39286 -1.87382,0 -3.39285,-1.51903 -3.39285,-3.39286 0,-1.87382 1.51903,-3.39285 3.39285,-3.39285 1.87383,0 3.39286,1.51903 3.39286,3.39285 z"
       is_visible="true"
       id="path-effect6109-3"
       effect="skeletal" />
    <inkscape:path-effect
       fuse_tolerance="0"
       vertical_pattern="false"
       prop_units="false"
       tang_offset="0"
       normal_offset="0"
       spacing="0"
       scale_y_rel="false"
       prop_scale="1"
       copytype="single_stretched"
       pattern="m 131.10109,-0.69295783 1,0"
       is_visible="true"
       id="path-effect3897-3"
       effect="skeletal" />
    <inkscape:path-effect
       fuse_tolerance="0"
       vertical_pattern="false"
       prop_units="false"
       tang_offset="0"
       normal_offset="0"
       spacing="0"
       scale_y_rel="false"
       prop_scale="1"
       copytype="single_stretched"
       pattern="m -88.084354,12.027776 1,0"
       is_visible="true"
       id="path-effect3897-38"
       effect="skeletal" />
    <inkscape:path-effect
       fuse_tolerance="0"
       vertical_pattern="false"
       prop_units="false"
       tang_offset="0"
       normal_offset="0"
       spacing="40"
       scale_y_rel="false"
       prop_scale="1"
       copytype="repeated"
       pattern="m 117.54073,100.66284 c 0,1.87383 -1.51904,3.39286 -3.39286,3.39286 -1.87382,0 -3.39286,-1.51903 -3.39286,-3.39286 0,-1.87382 1.51904,-3.39285 3.39286,-3.39285 1.87382,0 3.39286,1.51903 3.39286,3.39285 z"
       is_visible="true"
       id="path-effect6109-8"
       effect="skeletal" />
    <inkscape:path-effect
       fuse_tolerance="0"
       vertical_pattern="false"
       prop_units="false"
       tang_offset="0"
       normal_offset="0"
       spacing="0"
       scale_y_rel="false"
       prop_scale="1"
       copytype="single_stretched"
       pattern="m 158.38899,9.1363844 1,0"
       is_visible="true"
       id="path-effect3897-38-9"
       effect="skeletal" />
    <inkscape:path-effect
       fuse_tolerance="0"
       vertical_pattern="false"
       prop_units="false"
       tang_offset="0"
       normal_offset="0"
       spacing="40"
       scale_y_rel="false"
       prop_scale="1"
       copytype="repeated"
       pattern="m 251.64934,124.00667 c 0,1.87383 -1.51904,3.39286 -3.39286,3.39286 -1.87382,0 -3.39285,-1.51903 -3.39285,-3.39286 0,-1.87382 1.51903,-3.39285 3.39285,-3.39285 1.87382,0 3.39286,1.51903 3.39286,3.39285 z"
       is_visible="true"
       id="path-effect6109-9"
       effect="skeletal" />
    <inkscape:path-effect
       fuse_tolerance="0"
       vertical_pattern="false"
       prop_units="false"
       tang_offset="0"
       normal_offset="0"
       spacing="0"
       scale_y_rel="false"
       prop_scale="1"
       copytype="single_stretched"
       pattern="m 179.59577,13.519489 1,0"
       is_visible="true"
       id="path-effect3897-39"
       effect="skeletal" />
    <inkscape:path-effect
       fuse_tolerance="0"
       vertical_pattern="false"
       prop_units="false"
       tang_offset="0"
       normal_offset="0"
       spacing="-20"
       scale_y_rel="false"
       prop_scale="1"
       copytype="repeated"
       pattern="m 170.29183,13.147172 c 0,7.7188 -6.25731,13.97609 -13.97609,13.97609 -7.71877,0 -13.97608,-6.25729 -13.97608,-13.97609 0,-7.7187698 6.25731,-13.9760598 13.97608,-13.9760598 7.71878,0 13.97609,6.25729 13.97609,13.9760598 z"
       is_visible="true"
       id="path-effect6068-3"
       effect="skeletal" />
    <inkscape:path-effect
       fuse_tolerance="0"
       vertical_pattern="false"
       prop_units="false"
       tang_offset="0"
       normal_offset="0"
       spacing="-20"
       scale_y_rel="false"
       prop_scale="1"
       copytype="repeated"
       pattern="m 149.7466,15.804958 c 0,7.7188 -6.25731,13.97609 -13.97609,13.97609 -7.71877,0 -13.97608,-6.25729 -13.97608,-13.97609 0,-7.7187688 6.25731,-13.9760588 13.97608,-13.9760588 7.71878,0 13.97609,6.25729 13.97609,13.9760588 z"
       is_visible="true"
       id="path-effect6174-6"
       effect="skeletal" />
  </defs>
  <metadata
     id="metadata7">
    <rdf:RDF>
      <cc:Work
         rdf:about="">
        <dc:format>image/svg+xml</dc:format>
        <dc:type
           rdf:resource="http://purl.org/dc/dcmitype/StillImage" />
        <dc:title />
      </cc:Work>
    </rdf:RDF>
  </metadata>
  <g
     id="layer1"
     inkscape:groupmode="layer"
     inkscape:label="Layer 1">
    <path
       inkscape:connector-curvature="0"
       style="color:#000000;display:inline;overflow:visible;visibility:visible;fill:none;stroke:#969696;stroke-width:1;stroke-linecap:round;stroke-linejoin:miter;stroke-miterlimit:4;stroke-dasharray:none;stroke-dashoffset:0;stroke-opacity:1;marker:none;enable-background:accumulate"
       d="m 378.00461,202.36217 c 0,7.7188 -6.25731,13.97609 -13.97609,13.97609 -7.71877,0 -13.97608,-6.25729 -13.97608,-13.97609 0,-7.71877 6.25731,-13.97606 13.97608,-13.97606 7.71878,0 13.97609,6.25729 13.97609,13.97606 z"
       id="path5310-2-1-2" />
    <path
       inkscape:connector-curvature="0"
       id="path5179"
       d="m 200.0102,152.36218 0,50"
       style="fill:none;fill-rule:evenodd;stroke:#000000;stroke-width:2.5;stroke-linecap:butt;stroke-linejoin:miter;stroke-opacity:1;stroke-miterlimit:4;stroke-dasharray:none" />
    <path
       inkscape:connector-curvature="0"
       id="path5181"
       d="m 200.0102,302.36218 0,50"
       style="fill:none;fill-rule:evenodd;stroke:#000000;stroke-width:2.5;stroke-linecap:butt;stroke-linejoin:miter;stroke-opacity:1;stroke-miterlimit:4;stroke-dasharray:none" />
    <path
       inkscape:connector-curvature="0"
       id="path5179-8"
       d="m 365.17014,152.36218 0,50"
       style="fill:none;fill-rule:evenodd;stroke:#000000;stroke-width:2.5;stroke-linecap:butt;stroke-linejoin:miter;stroke-miterlimit:4;stroke-dasharray:none;stroke-opacity:1" />
    <path
       inkscape:connector-curvature="0"
       id="path5181-4"
       d="m 365.17014,302.36218 0,50"
       style="fill:none;fill-rule:evenodd;stroke:#000000;stroke-width:2.5;stroke-linecap:butt;stroke-linejoin:miter;stroke-miterlimit:4;stroke-dasharray:none;stroke-opacity:1" />
    <path
       style="fill:none;fill-rule:evenodd;stroke:#00539b;stroke-width:1px;stroke-linecap:butt;stroke-linejoin:miter;stroke-opacity:1"
       d="m 173,154.36218 c 75.0102,100 0,200 0,200"
       id="path5810"
       inkscape:connector-curvature="0" />
    <path
       style="fill:none;fill-rule:evenodd;stroke:#00609f;stroke-width:1;stroke-linecap:butt;stroke-linejoin:miter;stroke-opacity:0.48756218;stroke-miterlimit:4;stroke-dasharray:none"
       d="m 138.51457,177.2874 c 56.31375,75.07478 0,150.14956 0,150.14956"
       id="path5810-2"
       inkscape:connector-curvature="0" />
    <path
       style="fill:none;fill-rule:evenodd;stroke:#000000;stroke-width:1;stroke-linecap:butt;stroke-linejoin:miter;stroke-opacity:1;stroke-miterlimit:4;stroke-dasharray:6,6;stroke-dashoffset:0"
       d="m 338.58667,154.66221 c 75.0102,100 0,200 0,200"
       id="path5810-4"
       inkscape:connector-curvature="0" />
    <path
       inkscape:original-d="m 363.84227,201.25227 c 3.68104,13.1258 6.18551,23.65449 7.16297,32.46652 1.04018,9.37736 0.87146,16.79976 0.72987,23.14647 -0.14704,6.59073 -0.71274,11.4817 -1.37482,16.80014 -0.49553,3.98058 -1.09907,8.02665 -2.19098,12.72 -2.35721,10.13191 -4.32703,16.17715 -4.32703,16.17715"
       inkscape:path-effect="#path-effect6068"
       sodipodi:nodetypes="cssssc"
       style="fill:none;fill-rule:evenodd;stroke:#000000;stroke-width:1;stroke-linecap:butt;stroke-linejoin:miter;stroke-miterlimit:4;stroke-dasharray:none;stroke-opacity:0.38364784"
       d="m 370.29211,228.4414 c -3.7815,0.59821 -7.51314,-0.36856 -10.40261,-2.18977 -2.91444,-1.83696 -5.12944,-4.62397 -6.00455,-8.13924 -1.74946,-7.02748 2.49013,-14.766 9.95733,-16.86012 7.37413,-2.06803 15.25064,2.17499 17.20341,10.16299 2.02054,8.26519 -3.11478,15.81771 -10.75358,17.02614 z m 0.97233,7.88622 c -3.02341,0.26642 -5.91829,-0.44805 -8.36152,-1.71009 -3.73306,-1.92836 -6.52611,-5.19997 -7.37259,-9.3218 -1.38808,-6.759 2.9204,-14.35883 10.42766,-16.37098 7.4129,-1.98686 15.26976,2.44496 16.94954,10.82017 1.01022,5.03683 -0.589,9.9573 -3.79996,13.07513 -2.09545,2.02009 -4.8109,3.24038 -7.84313,3.50757 z m 0.46118,7.93377 c -6.53111,0.20386 -12.12699,-4.03558 -14.19698,-9.04772 0,0 0,0 0,0 -0.36906,-0.91415 -0.63236,-1.88304 -0.77494,-2.90535 -0.90675,-6.50166 3.6159,-13.87576 11.16573,-15.66922 7.45584,-1.77113 15.21994,2.96552 16.48304,11.74509 0.18684,1.29866 0.20855,2.58941 0.0794,3.83972 0,0 0,0 0,0 -0.79499,7.07165 -6.23146,11.83381 -12.75622,12.03748 z m 0.0817,7.95232 c -7.75963,-0.0599 -13.83247,-6.27502 -14.31963,-12.95316 -0.10329,-1.41599 0.0356,-2.7822 0.37969,-4.08445 0,0 0,0 0,0 1.34615,-4.8722 5.7285,-9.629 11.7226,-10.7651 6.00743,-1.13862 11.92322,1.83132 14.5532,7.85048 0,0 0,0 0,0 0.65937,1.53351 1.07908,3.21483 1.20652,4.97519 0.6316,8.72484 -5.88287,15.03614 -13.54238,14.97704 z m -0.19299,7.94968 c -3.42771,-0.17249 -6.51322,-1.56279 -8.89829,-3.49934 -2.98172,-2.57661 -4.84099,-6.26154 -4.91394,-10.19385 -0.0921,-4.96247 2.7112,-9.42436 6.98876,-12.06208 1.77047,-1.08692 3.81593,-1.87438 6.04205,-2.152 2.23111,-0.27824 4.40083,-0.0126 6.38681,0.77334 4.84196,1.91485 8.39962,6.90274 8.52813,12.87784 0.0996,4.62982 -1.90404,8.60823 -4.99358,11.15917 -2.49578,2.18052 -5.7048,3.26979 -9.13994,3.09692 z m -0.61779,7.92606 c -6.76182,-0.68849 -11.83529,-6.00496 -12.96899,-11.53 0,0 0,0 0,0 -0.15686,-0.85436 -0.23275,-1.72999 -0.22065,-2.61958 0.0963,-7.07944 6.10647,-13.32381 13.73748,-13.76827 3.86878,-0.22533 7.41899,1.15686 10.05667,3.77924 2.6217,2.60651 4.22548,6.34489 4.16349,10.39427 -0.0149,0.97425 -0.12565,1.91932 -0.32179,2.82596 0,0 0,0 0,0 -1.46938,7.3065 -7.72662,11.60258 -14.44621,10.91838 z m -0.94117,7.89687 c -2.82294,-0.40004 -5.36625,-1.6236 -7.38102,-3.27773 -3.4349,-2.89952 -5.39663,-7.20887 -5.11373,-11.52549 0.10865,-1.65781 0.53388,-3.19789 1.21289,-4.60701 0,0 0,0 0,0 2.13014,-4.82559 7.21009,-8.40028 13.03048,-8.45917 5.90547,-0.0598 10.91813,3.60644 12.8928,9.03751 0,0 0,0 0,0 0.60828,1.8211 0.87984,3.80649 0.74909,5.83809 -0.34573,5.37186 -3.36116,9.55447 -7.39956,11.62969 -2.40592,1.27722 -5.1452,1.76738 -7.99095,1.36411 z m -1.32699,7.83902 c -6.1735,-1.3475 -10.8548,-6.54817 -11.7504,-11.82587 0,0 0,0 0,0 -0.17999,-1.15761 -0.21124,-2.34209 -0.079,-3.53297 0.61684,-5.5543 4.76561,-10.00596 10.18075,-11.7051 0,0 0,0 0,0 1.46613,-0.47565 3.04067,-0.72355 4.67233,-0.69052 1.63344,0.0331 3.19331,0.34499 4.63848,0.89824 0,0 0,0 0,0 5.41976,2.13456 9.01982,8.035 8.29515,14.57867 -0.14882,1.34387 -0.47313,2.61196 -0.94303,3.78354 0,0 0,0 0,0 -2.5039,6.47213 -8.66785,9.87926 -15.0143,8.49401 z m -1.93629,7.70918 c -4.29464,-1.13645 -7.61328,-4.15856 -9.27472,-7.81202 -1.34224,-2.45618 -1.96156,-5.17212 -1.53877,-8.0035 0.19376,-1.29752 0.59318,-2.53577 1.17159,-3.69809 0,0 0,0 0,0 2.38425,-5.00643 8.07695,-8.48981 14.21536,-8.01025 6.25786,0.4889 11.11997,5.11845 12.20492,11.29923 0,0 0,0 0,0 0.24586,1.5089 0.26136,3.11352 0.007,4.76061 -0.55952,3.62447 -2.32258,6.80188 -4.75622,8.9778 -3.35791,2.61331 -7.71571,3.62768 -12.02925,2.48622 z m -2.05432,7.68037 c -7.18656,-2.06004 -11.57567,-9.33833 -10.10752,-16.21414 0,0 0,0 0,0 0.0328,-0.18865 0.0706,-0.37767 0.11345,-0.56704 0.94929,-4.19622 4.33817,-7.87358 8.88284,-9.60658 2.12311,-0.83688 4.5046,-1.19357 6.94575,-0.904 2.44995,0.29061 4.66521,1.19717 6.52184,2.58054 3.93697,2.99898 6.16817,8.41884 4.80975,14.48323 -0.0591,0.26371 -0.12428,0.52484 -0.19543,0.78315 0,0 0,0 0,0 -2.36334,7.40986 -9.7745,11.50763 -16.97068,9.44484 z"
       id="path5810-2-9"
       inkscape:connector-curvature="0" />
    <path
       inkscape:connector-curvature="0"
       style="color:#000000;display:inline;overflow:visible;visibility:visible;fill:none;stroke:#969696;stroke-width:1;stroke-linecap:round;stroke-linejoin:miter;stroke-miterlimit:4;stroke-dasharray:none;stroke-dashoffset:0;stroke-opacity:1;marker:none;enable-background:accumulate"
       d="m 377.83263,302.36217 c 0,7.7188 -6.25731,13.97609 -13.97609,13.97609 -7.71877,0 -13.97608,-6.25729 -13.97608,-13.97609 0,-7.71877 6.25731,-13.97606 13.97608,-13.97606 7.71878,0 13.97609,6.25729 13.97609,13.97606 z"
       id="path5310-2-1-2-0" />
    <path
       inkscape:connector-curvature="0"
       style="color:#000000;display:inline;overflow:visible;visibility:visible;fill:none;stroke:#969696;stroke-width:1;stroke-linecap:round;stroke-linejoin:miter;stroke-miterlimit:4;stroke-dasharray:none;stroke-dashoffset:0;stroke-opacity:1;marker:none;enable-background:accumulate"
       d="m 379.14623,295.04074 c 0,7.7188 -6.25731,13.97609 -13.97609,13.97609 -7.71877,0 -13.97608,-6.25729 -13.97608,-13.97609 0,-7.71877 6.25731,-13.97606 13.97608,-13.97606 7.71878,0 13.97609,6.25729 13.97609,13.97606 z"
       id="path5310-2-1-2-8" />
    <path
       inkscape:connector-curvature="0"
       style="color:#000000;display:inline;overflow:visible;visibility:visible;fill:none;stroke:#969696;stroke-width:1;stroke-linecap:round;stroke-linejoin:miter;stroke-miterlimit:4;stroke-dasharray:none;stroke-dashoffset:0;stroke-opacity:1;marker:none;enable-background:accumulate"
       d="m 380.03564,208.89792 c 0,7.7188 -6.25731,13.97609 -13.97609,13.97609 -7.71877,0 -13.97608,-6.25729 -13.97608,-13.97609 0,-7.71877 6.25731,-13.97606 13.97608,-13.97606 7.71878,0 13.97609,6.25729 13.97609,13.97606 z"
       id="path5310-2-1-2-1" />
    <path
       sodipodi:nodetypes="cccccsscsc"
       inkscape:connector-curvature="0"
       id="path6102"
       d="m 364.02852,188.38611 c 5.996,-1.31239 10.96563,3.62022 12.90975,8.82677 3.28689,7.45657 5.13415,15.39069 6.36075,23.41922 2.40606,14.01254 2.21532,28.25388 2.27544,42.65456 -0.97117,9.22763 -2.2352,17.86883 -3.891,27.48135 -0.92067,4.83411 -2.4879,9.59283 -4.17596,14.60501 -0.52926,1.57149 -1.13478,3.26673 -1.98687,4.6913 -0.84899,1.41939 0,0 -3.18921,3.52232 -0.84002,0.7902 -1.96321,1.04576 -2.99875,1.63802 -1.34303,0.76813 -1.18477,0.5697 -4.16253,1.05268"
       style="fill:none;fill-rule:evenodd;stroke:#00539b;stroke-width:1px;stroke-linecap:butt;stroke-linejoin:miter;stroke-opacity:1" />
    <path
       inkscape:connector-curvature="0"
       id="path5179-8-0"
       d="m 507.0098,153.03329 0,50"
       style="fill:none;fill-rule:evenodd;stroke:#000000;stroke-width:2.5;stroke-linecap:butt;stroke-linejoin:miter;stroke-miterlimit:4;stroke-dasharray:none;stroke-opacity:1" />
    <path
       inkscape:connector-curvature="0"
       id="path5181-4-3"
       d="m 507.0098,303.03329 0,50"
       style="fill:none;fill-rule:evenodd;stroke:#000000;stroke-width:2.5;stroke-linecap:butt;stroke-linejoin:miter;stroke-miterlimit:4;stroke-dasharray:none;stroke-opacity:1" />
    <path
       sodipodi:nodetypes="cccccsscsc"
       inkscape:connector-curvature="0"
       id="path6102-9"
       d="m 505.86818,189.05722 c 5.996,-1.31239 10.96563,3.62022 12.90975,8.82677 3.28689,7.45657 5.13415,15.39069 6.36075,23.41922 2.40606,14.01254 2.21532,28.25388 2.27544,42.65456 -0.97117,9.22763 -2.2352,17.86883 -3.891,27.48135 -0.92067,4.83411 -2.4879,9.59283 -4.17596,14.60501 -0.52926,1.57149 -1.13478,3.26673 -1.98687,4.6913 -0.84899,1.41939 -3.66071,3.03571 -6.84992,6.55803 -0.84002,0.7902 1.6975,-1.98995 0.66196,-1.39769 -1.34303,0.76813 -1.18477,0.5697 -4.16253,1.05268"
       style="fill:none;fill-rule:evenodd;stroke:#000000;stroke-width:1;stroke-linecap:butt;stroke-linejoin:miter;stroke-miterlimit:4;stroke-dasharray:6, 6;stroke-dashoffset:0;stroke-opacity:1" />
    <path
       sodipodi:nodetypes="ccccc"
       inkscape:connector-curvature="0"
       d="m 523.67616,214.22773 c -7.64154,1.34489 -14.89546,-3.51706 -17.04027,-9.32406 -0.1977,-0.53526 -0.35329,-1.07085 -0.46921,-1.60615 -0.32567,-2.08831 -0.26744,-4.14393 0.13873,-6.03752 0.0741,-0.27819 0.15667,-0.55366 0.24752,-0.82603 0.0148,-0.0442 0.0297,-0.0884 0.0449,-0.13251 0,0 0,0 0,0 0,0 0.0176,-0.0274 0.0176,-0.0274 l 0,0 0,0 c 1.44877,-4.17793 4.84681,-7.59405 9.41867,-8.8796 4.57185,-1.28555 9.25229,-0.14101 12.66364,2.66067 l 0.003,0.009 0,0 c 0,-1e-5 0.0293,0.0142 0.0293,0.0142 0,0 10e-6,0 10e-6,0 0.0359,0.0297 0.0718,0.0596 0.10741,0.0897 0.21948,0.1851 0.43352,0.37716 0.64174,0.57597 1.23947,1.07191 2.23522,2.34643 2.90872,3.8135 0.35384,0.678 0.66276,1.38748 0.92114,2.1234 3.06406,8.72724 -2.09498,16.22033 -9.63246,17.54691 z m 1.38806,7.83605 c -7.72588,1.00956 -14.73744,-4.28983 -16.39579,-10.63392 -0.85465,-3.2695 -0.2908,-6.52089 1.30223,-9.40031 1.65894,-3.44252 4.5204,-5.90462 8.21494,-6.9838 3.64759,-1.06546 7.43616,-0.59171 10.39791,0.77964 3.44703,1.83904 6.24815,5.24741 7.36637,9.48693 2.26288,8.57923 -3.26889,15.75616 -10.88566,16.75146 z m 1.04591,7.90083 c -7.72816,0.81031 -14.61293,-4.76091 -15.89938,-11.58777 -1.22476,-6.49947 3.0712,-13.67497 10.39046,-15.76554 3.72727,-1.06461 7.55413,-0.50326 10.8007,1.57506 3.22041,2.06157 5.68954,5.53094 6.49107,9.67418 1.61913,8.36959 -4.16247,15.30506 -11.78285,16.10407 z m 0.7737,7.91906 c -3.6274,0.28554 -7.06024,-0.83863 -9.72307,-2.75049 -3.05255,-2.24929 -5.20871,-5.63723 -5.7545,-9.44773 -0.99285,-6.93171 3.89449,-13.89739 11.3746,-15.44895 3.80036,-0.78829 7.57587,0.0477 10.65436,2.27131 3.0594,2.20985 5.28123,5.70522 5.8461,9.75851 0.59481,4.2681 -0.77475,8.1754 -3.2831,11.00606 -2.26924,2.65646 -5.46803,4.32425 -9.11439,4.61129 z m 0.4275,7.9466 c -6.87395,0.24031 -12.82304,-4.44358 -14.44725,-10.27266 0,0 0,0 0,0 -0.21495,-0.7324 -0.37199,-1.48766 -0.46571,-2.26108 -0.8853,-7.30597 4.40435,-14.12924 12.00273,-15.28043 3.84568,-0.58264 7.57015,0.45543 10.50832,2.75891 2.92608,2.294 4.95017,5.76056 5.34889,9.69548 0.0818,0.80752 0.092,1.6019 0.0366,2.37746 0,0 0,0 0,0 -0.47058,7.34333 -6.06631,12.7405 -12.98357,12.98232 z m 0.10913,7.95978 c -7.67449,-0.0751 -13.89052,-6.15706 -14.33991,-13.0314 -0.12051,-1.84329 0.15625,-3.6286 0.76142,-5.29764 0,0 0,0 0,0 1.56528,-4.98963 6.0911,-8.91335 11.76335,-9.57005 5.73737,-0.66425 11.05743,2.25655 13.71169,7.05359 0,0 0,0 0,0 0.92012,1.75697 1.49973,3.76301 1.63494,5.91374 0.53776,8.5536 -5.85101,15.00687 -13.53149,14.93176 z m -0.21793,7.95638 c -7.65186,-0.42682 -13.6049,-6.77985 -13.78516,-13.64889 -0.15568,-5.93201 3.90429,-11.5032 9.8324,-13.56585 1.03824,-0.36648 2.13924,-0.616 3.28716,-0.72979 1.14826,-0.11382 2.27825,-0.0854 3.3723,0.072 6.21629,0.9206 11.24658,6.33271 11.4081,13.54817 0.19233,8.59245 -6.45609,14.7516 -14.1148,14.3244 z m -0.55366,7.93642 c -7.61406,-0.78685 -13.28245,-7.40504 -13.18604,-14.25253 0.0967,-6.86851 5.97371,-13.25235 13.66753,-13.69553 7.68629,-0.44275 14.36467,5.67995 14.20275,14.27541 -0.16229,8.61528 -7.06262,14.46029 -14.68424,13.67265 z m -0.89809,7.89989 c -7.56118,-1.15529 -12.92303,-8.03248 -12.54254,-14.84231 0.38177,-6.83261 6.49718,-12.94739 14.19631,-13.05058 7.69098,-0.10308 14.11097,6.3158 13.58607,14.91637 -0.52621,8.62201 -7.67052,14.13306 -15.23984,12.97652 z m -1.2512,7.8468 c -7.49334,-1.53228 -12.52654,-8.66203 -11.85465,-15.41824 0.67431,-6.78055 7.02381,-12.60657 14.71123,-12.36125 7.67879,0.24504 13.82211,6.95385 12.925,15.54347 -0.89949,8.61249 -8.27971,13.77005 -15.78158,12.23602 z m -1.61299,7.77714 c -7.41063,-1.91803 -12.0929,-9.29348 -11.12239,-15.98032 0.97424,-6.71246 7.55374,-12.22974 15.21229,-11.62754 7.64966,0.6015 13.49818,7.59423 12.21957,16.15672 -1.28219,8.58656 -8.89014,13.37142 -16.30947,11.45114 z m -1.98347,7.69091 c -7.31311,-2.31275 -11.62204,-9.92662 -10.34574,-16.52855 1.28143,-6.62851 8.08704,-11.81674 15.6995,-10.84945 7.60352,0.96616 13.13921,8.23707 11.46975,16.75612 -1.67435,8.54404 -9.50177,12.93735 -16.82351,10.62188 z m -2.39094,7.57749 c -1.15404,-0.43331 -2.21284,-1.00142 -3.16636,-1.6738 -5.09928,-3.54124 -7.68906,-9.81848 -6.33005,-15.3785 1.59583,-6.52889 8.6238,-11.36737 16.17286,-10.02697 7.54034,1.33885 12.74526,8.88251 10.67555,17.34165 -1.71869,7.02454 -7.70394,11.12437 -13.83476,10.56106 -1.18278,-0.11765 -2.36274,-0.38997 -3.51724,-0.82344 z m -3.07234,7.33455 c -5.31109,-2.14742 -8.55236,-7.16108 -8.75901,-12.2459 0,0 0,-1e-5 0,-1e-5 -0.19453,-1.72938 -0.0618,-3.48109 0.44986,-5.1927 1.91737,-6.41384 9.16408,-10.88142 16.63237,-9.16013 7.46008,1.7194 12.31635,9.53076 9.83698,17.91335 -0.61432,2.07695 -1.62419,3.9087 -2.90565,5.41184 0,0 0,0 0,0 -4.00698,4.05729 -9.92649,5.42783 -15.25455,3.27355 z m -3.12052,7.3143 c -7.11283,-3.0423 -10.38401,-11.16606 -7.58891,-17.86257 0.29908,-0.71655 0.65558,-1.39348 1.06273,-2.02931 0,0 0,0 0,0 2.87859,-5.0727 9.60597,-8.16514 16.17834,-6.28377 6.61375,1.89321 10.86104,8.4918 9.6106,15.91947 0,0 0,0 0,0 -0.18438,0.79912 -0.43866,1.59657 -0.76525,2.3834 -3.13635,7.55617 -11.41123,10.90373 -18.49751,7.87278 z"
       id="path6102-9-6"
       inkscape:original-d="m 516.03413,187.39445 c 3.24295,11.53302 0,0 3.24295,11.53302 4.35456,11.24775 6.03949,23.33959 7.30241,35.27531 2.27481,24.79023 0.0546,50.19593 -7.89188,73.84712 -1.98533,4.81595 -1.97889,4.83221 -6.49948,15.38013"
       inkscape:path-effect="#path-effect6174"
       style="fill:none;fill-rule:evenodd;stroke:#000000;stroke-width:1;stroke-linecap:butt;stroke-linejoin:miter;stroke-miterlimit:4;stroke-dasharray:none;stroke-dashoffset:0;stroke-opacity:0.38431373" />
    <path
       inkscape:connector-curvature="0"
       style="color:#000000;display:inline;overflow:visible;visibility:visible;fill:none;stroke:#969696;stroke-width:1;stroke-linecap:round;stroke-linejoin:miter;stroke-miterlimit:4;stroke-dasharray:none;stroke-dashoffset:0;stroke-opacity:1;marker:none;enable-background:accumulate"
       d="m 520.98589,192.00935 c 0,7.7188 -6.25731,13.97609 -13.97609,13.97609 -7.71877,0 -13.97608,-6.25729 -13.97608,-13.97609 0,-7.71877 6.25731,-13.97606 13.97608,-13.97606 7.71878,0 13.97609,6.25729 13.97609,13.97606 z"
       id="path5310-2-1-2-0-3-9" />
    <path
       inkscape:connector-curvature="0"
       style="color:#000000;display:inline;overflow:visible;visibility:visible;fill:none;stroke:#969696;stroke-width:1;stroke-linecap:round;stroke-linejoin:miter;stroke-miterlimit:4;stroke-dasharray:none;stroke-dashoffset:0;stroke-opacity:1;marker:none;enable-background:accumulate"
       d="m 520.98589,314.0572 c 0,7.7188 -6.25731,13.97609 -13.97609,13.97609 -7.71877,0 -13.97608,-6.25729 -13.97608,-13.97609 0,-7.71877 6.25731,-13.97606 13.97608,-13.97606 7.71878,0 13.97609,6.25729 13.97609,13.97606 z"
       id="path5310-2-1-2-0-3-3" />
    <path
       inkscape:connector-curvature="0"
       style="color:#000000;display:inline;overflow:visible;visibility:visible;fill:none;stroke:#969696;stroke-width:1;stroke-linecap:round;stroke-linejoin:miter;stroke-miterlimit:4;stroke-dasharray:none;stroke-dashoffset:0;stroke-opacity:1;marker:none;enable-background:accumulate"
       d="m 527.11271,313.57433 c 0,7.7188 -6.25731,13.97609 -13.97609,13.97609 -7.71877,0 -13.97608,-6.25729 -13.97608,-13.97609 0,-7.71877 6.25731,-13.97606 13.97608,-13.97606 7.71878,0 13.97609,6.25729 13.97609,13.97606 z"
       id="path5310-2-1-2-0-3-38" />
    <path
       inkscape:connector-curvature="0"
       style="color:#000000;display:inline;overflow:visible;visibility:visible;fill:none;stroke:#969696;stroke-width:1;stroke-linecap:round;stroke-linejoin:miter;stroke-miterlimit:4;stroke-dasharray:none;stroke-dashoffset:0;stroke-opacity:1;marker:none;enable-background:accumulate"
       d="m 526.83323,193.82646 c 0,7.7188 -6.25731,13.97609 -13.97609,13.97609 -7.71877,0 -13.97608,-6.25729 -13.97608,-13.97609 0,-7.71877 6.25731,-13.97606 13.97608,-13.97606 7.71878,0 13.97609,6.25729 13.97609,13.97606 z"
       id="path5310-2-1-2-0-3-0" />
    <path
       inkscape:connector-curvature="0"
       style="color:#000000;display:inline;overflow:visible;visibility:visible;fill:none;stroke:#969696;stroke-width:1;stroke-linecap:round;stroke-linejoin:miter;stroke-miterlimit:4;stroke-dasharray:none;stroke-dashoffset:0;stroke-opacity:1;marker:none;enable-background:accumulate"
       d="m 529.33322,196.86217 c 0,7.7188 -6.25731,13.97609 -13.97609,13.97609 -7.71877,0 -13.97608,-6.25729 -13.97608,-13.97609 0,-7.71877 6.25731,-13.97606 13.97608,-13.97606 7.71878,0 13.97609,6.25729 13.97609,13.97606 z"
       id="path5310-2-1-2-0-3-5" />
    <path
       sodipodi:nodetypes="cssccscscc"
       inkscape:connector-curvature="0"
       id="path6233"
       d="m 508.6118,178.30739 c 5.34041,0.70139 10.32878,2.25135 14.33656,5.56139 3.59028,2.96522 7.58871,6.80642 9.7663,11.16744 1.07386,2.15058 0.9049,1.86244 2.84172,6.52861 3.35238,8.63688 3.54886,18.17009 4.28159,27.29344 2.59061,17.02853 2.00137,34.68157 -0.489,51.83367 -0.88977,6.1282 -2.29483,12.1535 -3.50337,18.11795 -1.16439,6.35904 -2.51473,13.5321 -6.37952,19.04038 -2.67787,3.81665 -7.07355,6.57873 -11.3439,8.77054 -3.18949,1.68874 -6.88699,1.12252 -10.44656,1.64696"
       style="fill:none;fill-rule:evenodd;stroke:#00539b;stroke-width:1px;stroke-linecap:butt;stroke-linejoin:miter;stroke-opacity:1" />
    <path
       inkscape:connector-curvature="0"
       id="path5179-8-0-6"
       d="m 628.30423,152.36219 0,50"
       style="fill:none;fill-rule:evenodd;stroke:#000000;stroke-width:2.5;stroke-linecap:butt;stroke-linejoin:miter;stroke-miterlimit:4;stroke-dasharray:none;stroke-opacity:1" />
    <path
       inkscape:connector-curvature="0"
       id="path5181-4-3-4"
       d="m 628.30423,302.36219 0,50"
       style="fill:none;fill-rule:evenodd;stroke:#000000;stroke-width:2.5;stroke-linecap:butt;stroke-linejoin:miter;stroke-miterlimit:4;stroke-dasharray:none;stroke-opacity:1" />
    <path
       sodipodi:nodetypes="cssccscscc"
       inkscape:connector-curvature="0"
       id="path6233-5"
       d="m 629.90623,177.63629 c 5.34041,0.70139 10.32878,2.25135 14.33656,5.56139 3.59028,2.96522 7.58871,6.80642 9.7663,11.16744 1.07386,2.15058 0.9049,1.86244 2.84172,6.52861 3.35238,8.63688 3.54886,18.17009 4.28159,27.29344 2.59061,17.02853 2.00137,34.68157 -0.489,51.83367 -0.88977,6.1282 -2.29483,12.1535 -3.50337,18.11795 -1.16439,6.35904 -2.51473,13.5321 -6.37952,19.04038 -2.67787,3.81665 -7.07355,6.57873 -11.3439,8.77054 -3.18949,1.68874 -6.88699,1.12252 -10.44656,1.64696"
       style="fill:none;fill-rule:evenodd;stroke:#000000;stroke-width:1;stroke-linecap:butt;stroke-linejoin:miter;stroke-opacity:1;stroke-miterlimit:4;stroke-dasharray:6, 6;stroke-dashoffset:0" />
    <path
       sodipodi:nodetypes="cssccc"
       inkscape:original-d="m 643.78298,174.60462 c 6.36148,8.55331 6.42915,8.50857 8.64343,13.2978 1.88561,4.07838 3.40498,8.29014 4.85791,14.05534 1.12769,4.47471 1.00339,10.00464 2.67154,15.9164 4.28612,31.9819 3.12599,65.38078 -7.87194,95.9155 -4.07209,8.79711 -4.02673,8.94055 -11.00488,21.57134"
       inkscape:path-effect="#path-effect6305"
       inkscape:connector-curvature="0"
       id="path6233-5-6"
       d="m 656.78781,200.06505 c -6.94229,1.89494 -14.09561,-1.76782 -16.98084,-6.3281 0,0 0,0 0,0 -0.2458,-0.3977 -0.45422,-0.77966 -0.62661,-1.14259 -0.5349,-1.12616 -0.67582,-1.96246 -0.63418,-2.62438 0,0 0,0 0,0 -0.44643,-2.36342 -0.49281,-5.28546 0.30456,-8.1095 0.80524,-2.85189 2.40589,-5.3769 4.93225,-7.25587 2.4588,-1.82872 5.44225,-2.77339 8.31905,-2.75142 2.90802,0.0222 5.93646,1.03031 8.67157,3.50693 0,0 0,0 0,0 1.59017,1.68419 2.82848,3.47727 3.63814,5.16105 0.26067,0.54209 0.47015,1.05831 0.6341,1.54672 0,0 0,0 0,0 3.15757,8.70402 -1.3764,16.11878 -8.25804,17.99716 z m 1.55816,8.04684 c -5.10329,0.49143 -8.93814,-1.78442 -12.2295,-3.33966 -2.01526,-1.62261 -3.53525,-3.66412 -4.35314,-6.00488 -0.65566,-1.87645 -0.80581,-3.77681 -0.56361,-5.67433 0.1197,-2.56953 1.43805,-4.74363 2.84882,-6.73968 0,0 0,-1e-5 0,-1e-5 1.12453,-1.93435 2.61402,-3.75619 4.61803,-5.15345 1.98903,-1.38681 4.24876,-2.1811 6.60469,-2.22312 0,0 0,0 0,0 3.06302,0.18843 6.06565,1.81042 8.38184,3.73506 1.93263,1.74654 3.51527,4.0746 4.47171,6.77942 1.19813,3.38834 1.20731,6.76508 0.32737,9.65205 -1.16828,5.76095 -5.48349,8.52345 -10.10621,8.9686 z m 1.19678,8.11549 c -3.94806,0.61734 -7.51854,-0.60231 -10.60109,-3.28145 -2.99237,-2.60078 -4.6767,-5.81978 -5.20506,-7.55767 0,0 -0.005,-0.0151 -0.005,-0.0151 -0.83597,-3.30351 -0.24644,-6.61184 1.30422,-9.60407 1.52181,-2.93656 4.14063,-5.83985 7.6005,-7.4071 3.53502,-1.6013 7.36457,-1.51755 10.83683,0.36789 3.43599,1.86575 6.25381,5.39721 7.36305,9.8125 0,0 0.0117,0.0495 0.0117,0.0495 1.41023,6.01247 0.0385,10.02986 -2.1249,12.60247 -2.05672,2.44574 -5.57914,4.46992 -9.18063,5.03307 z m 1.20197,8.11003 c -4.77281,0.83423 -9.3045,-0.96502 -12.20163,-4.10073 -2.24491,-2.78201 -3.62429,-6.1302 -3.96258,-8.97154 -0.35424,-2.97523 0.44138,-4.87893 1.57933,-6.50384 1.57995,-3.72538 4.97795,-7.30564 9.42123,-8.74718 4.55072,-1.4764 9.29448,-0.34827 12.82773,3.1401 2.34426,2.9217 3.79876,6.61456 4.17948,9.76277 0.36236,2.99631 -0.26436,4.99182 -1.21965,6.59465 -1.90145,4.64152 -5.81558,7.98534 -10.62391,8.82577 z m 0.77208,8.18894 c -7.58931,1.00988 -14.24095,-4.40042 -15.17728,-11.5582 -0.0117,-0.0896 -0.0226,-0.17909 -0.0325,-0.26859 -1.37482,-5.6025 0.0402,-9.27923 2.24225,-11.73142 2.07009,-2.30522 5.65118,-4.39864 9.16839,-5.03624 3.88686,-0.70461 7.34753,0.42188 10.40109,3.13131 2.95795,2.62459 4.73543,6.02605 5.48595,7.98555 0.0156,0.1012 0.0303,0.20284 0.0441,0.30493 1.16599,8.64643 -4.53423,16.16166 -12.13196,17.17266 z m 0.50896,8.2155 c -7.60094,0.68362 -14.06977,-4.99425 -14.79951,-12.15964 -0.29981,-2.94393 0.34643,-5.84742 1.69661,-8.42414 1.204,-5.12242 5.42099,-7.69279 9.90938,-8.09016 4.97107,-0.4401 8.70738,1.73291 12.15662,3.52234 1.98527,2.14688 3.3464,5.07753 3.6954,8.46721 0.89846,8.72643 -5.0481,15.99992 -12.6585,16.68439 z m 0.23038,8.22719 c -7.59959,0.34333 -13.86007,-5.6032 -14.36923,-12.76126 -0.51121,-7.18694 4.81916,-14.59576 12.36256,-16.07275 7.53307,-1.47495 14.58042,3.92533 15.19352,12.69035 0.61502,8.79239 -5.57686,15.79986 -13.18685,16.14366 z m -0.0636,8.22398 c -7.58541,-0.0111 -13.61169,-6.22715 -13.88644,-13.36303 -0.27595,-7.16679 5.26037,-14.35204 12.84499,-15.5255 7.57346,-1.17173 14.44399,4.5231 14.75847,13.33809 0.31552,8.84418 -6.12038,15.56156 -13.71702,15.55044 z m -0.37314,8.20589 c -7.55855,-0.37983 -13.32448,-6.86594 -13.35115,-13.96496 -0.0268,-7.13179 5.71854,-14.07079 13.32924,-14.92578 7.59887,-0.85366 14.27105,5.13517 14.27092,13.98599 -1.4e-4,8.88168 -6.67855,15.28518 -14.24901,14.90475 z m -0.69806,8.17293 c -7.51919,-0.76304 -12.99828,-7.51939 -12.76336,-14.56706 0.23606,-7.08204 6.19379,-13.75189 13.8153,-14.27358 7.60916,-0.52085 14.06171,5.76163 13.73085,14.63405 -0.33206,8.90472 -7.25125,14.97088 -14.78279,14.20659 z m -1.03845,8.12508 c -7.46747,-1.16097 -12.63294,-8.18726 -12.12307,-15.16932 0.51248,-7.01772 6.6863,-13.39518 14.30317,-13.56892 7.60426,-0.17344 13.81608,6.40266 13.13829,15.28229 -0.68034,8.91306 -7.83841,14.61887 -15.31839,13.45595 z m -1.39429,8.06235 c -7.4035,-1.57394 -12.22833,-8.86923 -11.43026,-15.77174 0.80229,-6.93904 7.1962,-13.00047 14.79285,-12.81178 7.58403,0.18838 13.53424,7.05841 12.49322,15.93067 -1.04504,8.9065 -8.43997,14.22942 -15.85581,12.65285 z m -1.76557,7.98474 c -7.32738,-2.00228 -11.78438,-9.56498 -10.68497,-16.37433 1.10537,-6.84623 7.72367,-12.56748 15.28434,-12.00216 7.54845,0.5644 13.21629,7.72909 11.79565,16.57922 -1.42618,8.88473 -9.05587,13.80278 -16.39502,11.79727 z m -2.15232,7.89225 c -7.23914,-2.44641 -11.30105,-10.27409 -9.88716,-16.97708 1.42161,-6.73961 8.26877,-12.09593 15.77765,-11.14008 7.49743,0.9544 12.86223,8.41495 11.04557,17.22794 -1.82377,8.84744 -9.68616,13.33927 -16.93606,10.88922 z m -2.55452,7.78487 c -7.13872,-2.90674 -10.77837,-10.99613 -9.03684,-17.57999 1.75096,-6.61952 8.83157,-11.58546 16.27276,-10.22552 7.431,1.35808 12.4721,9.11626 10.24299,17.87682 -2.2377,8.79431 -10.3309,12.83921 -17.47891,9.92869 z m -3.4304,7.45286 c -4.78315,-2.24008 -7.96192,-7.02174 -8.18561,-11.79966 -0.28996,-2.05644 -0.1442,-4.14721 0.50982,-6.17365 2.09343,-6.48635 9.41206,-11.03569 16.76969,-9.25849 7.3492,1.77517 12.04584,9.83332 9.38791,18.52586 -0.76759,2.51031 -2.06648,4.66807 -3.69984,6.33694 -4.2853,3.57119 -9.77998,4.71158 -14.78197,2.369 z m -3.75166,7.29659 c -4.00438,-2.16196 -6.45143,-6.02121 -7.28882,-10.04256 -0.65103,-2.63969 -0.53309,-5.43096 0.77543,-8.25135 0.21549,-0.46447 0.4578,-0.9176 0.72547,-1.35829 0,0 0,0 0,0 2.85597,-5.53477 9.9292,-8.98803 16.68228,-6.93444 6.78601,2.06359 10.97065,9.41794 8.99324,17.477 0,0 0,0 0,0 -0.17322,0.51176 -0.37726,1.0273 -0.61352,1.54431 -1.44072,3.15272 -3.85475,5.85752 -6.71091,7.54213 -3.94549,2.14815 -8.58641,2.17024 -12.56317,0.0232 z m -3.95503,7.19043 c -3.31657,-1.83231 -5.53306,-4.83289 -6.54169,-8.23792 -1.0053,-3.39376 -0.78704,-7.0905 0.66526,-10.27835 0.0607,-0.13174 0.12447,-0.26344 0.19126,-0.39511 1.40354,-2.76679 3.9983,-5.13592 7.2173,-6.54955 3.23657,-1.47567 7.21543,-1.86741 10.97182,-0.47411 3.78511,1.40395 6.62111,4.36999 7.97367,8.25327 1.03314,3.24447 0.84767,7.18476 -1.12936,11.19265 -0.0928,0.18803 -0.18859,0.37432 -0.28742,0.55877 -2.02614,3.70171 -5.17903,6.07785 -8.59787,7.08004 -3.40826,0.99909 -7.17526,0.66667 -10.46297,-1.14969 z"
       style="fill:none;fill-rule:evenodd;stroke:#969696;stroke-width:1;stroke-linecap:butt;stroke-linejoin:miter;stroke-miterlimit:4;stroke-dasharray:none;stroke-dashoffset:0;stroke-opacity:1" />
    <path
       inkscape:connector-curvature="0"
       style="color:#000000;display:inline;overflow:visible;visibility:visible;fill:none;stroke:#969696;stroke-width:1;stroke-linecap:round;stroke-linejoin:miter;stroke-miterlimit:4;stroke-dasharray:none;stroke-dashoffset:0;stroke-opacity:1;marker:none;enable-background:accumulate"
       d="m 662.64265,181.19987 c 0,7.7188 -6.25731,13.97609 -13.97609,13.97609 -7.71876,0 -13.97608,-6.25729 -13.97608,-13.97609 0,-7.71877 6.25731,-13.97606 13.97608,-13.97606 7.71878,0 13.97609,6.25729 13.97609,13.97606 z"
       id="path5310-2-1-2-0-3-8" />
    <path
       inkscape:connector-curvature="0"
       style="color:#000000;display:inline;overflow:visible;visibility:visible;fill:none;stroke:#969696;stroke-width:1;stroke-linecap:round;stroke-linejoin:miter;stroke-miterlimit:4;stroke-dasharray:none;stroke-dashoffset:0;stroke-opacity:1;marker:none;enable-background:accumulate"
       d="m 656.83322,178.96932 c 0,7.7188 -6.25731,13.97609 -13.97609,13.97609 -7.71877,0 -13.97608,-6.25729 -13.97608,-13.97609 0,-7.71877 6.25731,-13.97606 13.97608,-13.97606 7.71878,0 13.97609,6.25729 13.97609,13.97606 z"
       id="path5310-2-1-2-0-3-1" />
    <path
       inkscape:connector-curvature="0"
       style="color:#000000;display:inline;overflow:visible;visibility:visible;fill:none;stroke:#969696;stroke-width:1;stroke-linecap:round;stroke-linejoin:miter;stroke-miterlimit:4;stroke-dasharray:none;stroke-dashoffset:0;stroke-opacity:1;marker:none;enable-background:accumulate"
       d="m 650.04751,177.00503 c 0,7.7188 -6.25731,13.97609 -13.97609,13.97609 -7.71877,0 -13.97608,-6.25729 -13.97608,-13.97609 0,-7.71877 6.25731,-13.97606 13.97608,-13.97606 7.71878,0 13.97609,6.25729 13.97609,13.97606 z"
       id="path5310-2-1-2-0-3-32" />
    <path
       inkscape:connector-curvature="0"
       style="color:#000000;display:inline;overflow:visible;visibility:visible;fill:none;stroke:#969696;stroke-width:1;stroke-linecap:round;stroke-linejoin:miter;stroke-miterlimit:4;stroke-dasharray:none;stroke-dashoffset:0;stroke-opacity:1;marker:none;enable-background:accumulate"
       d="m 643.26179,176.29075 c 0,7.7188 -6.25731,13.97609 -13.97609,13.97609 -7.71877,0 -13.97608,-6.25729 -13.97608,-13.97609 0,-7.71877 6.25731,-13.97606 13.97608,-13.97606 7.71878,0 13.97609,6.25729 13.97609,13.97606 z"
       id="path5310-2-1-2-0-3-15" />
    <path
       inkscape:connector-curvature="0"
       style="color:#000000;display:inline;overflow:visible;visibility:visible;fill:none;stroke:#969696;stroke-width:1;stroke-linecap:round;stroke-linejoin:miter;stroke-miterlimit:4;stroke-dasharray:none;stroke-dashoffset:0;stroke-opacity:1;marker:none;enable-background:accumulate"
       d="m 655.22608,325.04074 c 0,7.7188 -6.25731,13.97609 -13.97609,13.97609 -7.71877,0 -13.97608,-6.25729 -13.97608,-13.97609 0,-7.71877 6.25731,-13.97606 13.97608,-13.97606 7.71878,0 13.97609,6.25729 13.97609,13.97606 z"
       id="path5310-2-1-2-0-3-99" />
    <path
       inkscape:connector-curvature="0"
       style="color:#000000;display:inline;overflow:visible;visibility:visible;fill:none;stroke:#969696;stroke-width:1;stroke-linecap:round;stroke-linejoin:miter;stroke-miterlimit:4;stroke-dasharray:none;stroke-dashoffset:0;stroke-opacity:1;marker:none;enable-background:accumulate"
       d="m 649.15466,325.39789 c 0,7.7188 -6.25731,13.97609 -13.97609,13.97609 -7.71877,0 -13.97608,-6.25729 -13.97608,-13.97609 0,-7.71877 6.25731,-13.97606 13.97608,-13.97606 7.71878,0 13.97609,6.25729 13.97609,13.97606 z"
       id="path5310-2-1-2-0-3-14" />
    <path
       inkscape:connector-curvature="0"
       style="color:#000000;display:inline;overflow:visible;visibility:visible;fill:none;stroke:#969696;stroke-width:1;stroke-linecap:round;stroke-linejoin:miter;stroke-miterlimit:4;stroke-dasharray:none;stroke-dashoffset:0;stroke-opacity:1;marker:none;enable-background:accumulate"
       d="m 640.94037,325.21932 c 0,7.7188 -6.25731,13.97609 -13.97609,13.97609 -7.71877,0 -13.97608,-6.25729 -13.97608,-13.97609 0,-7.71877 6.25731,-13.97606 13.97608,-13.97606 7.71878,0 13.97609,6.25729 13.97609,13.97606 z"
       id="path5310-2-1-2-0-3-91" />
    <path
       sodipodi:nodetypes="cssccscsc"
       inkscape:connector-curvature="0"
       id="path6419"
       d="m 629.83011,161.91272 c 5.37208,-0.11507 9.84164,0.83537 14.94528,2.43817 4.25158,1.33521 9.29707,2.98471 12.56518,5.92429 7.61874,6.85289 11.34144,17.89258 13.86316,28.47727 3.0372,12.83661 3.92546,25.74376 4.44888,38.98282 1.50861,26.0539 -1.21976,52.6108 -9.41227,77.35707 -1.64084,4.95633 -4.0463,9.71883 -6.08066,14.52346 -3.61741,6.17002 -10.4418,8.14684 -16.97894,9.34981 -4.77179,0.8781 -9.37226,0.0704 -13.96031,0.13697"
       style="fill:none;fill-rule:evenodd;stroke:#00539b;stroke-width:1px;stroke-linecap:butt;stroke-linejoin:miter;stroke-opacity:1" />
    <g
       id="g6497">
      <path
         id="path6499"
         style="stroke-linejoin:miter;opacity:1.0;stroke-opacity:0.871890545;fill-rule:evenodd;stroke:#00569c;stroke-linecap:butt;stroke-width:1.0;fill:none"
         d="M164.3786425 160.093485C234.71473 253.86218 164.3786425 347.630875 164.3786425 347.630875" />
      <path
         id="path6501"
         style="stroke-linejoin:miter;opacity:1.0;stroke-opacity:0.74378109;fill-rule:evenodd;stroke:#00599d;stroke-linecap:butt;stroke-width:1.0;fill:none"
         d="M155.757285 165.82479C221.41926 253.36218 155.757285 340.89957 155.757285 340.89957" />
      <path
         id="path6503"
         style="stroke-linejoin:miter;opacity:1.0;stroke-opacity:0.615671635;fill-rule:evenodd;stroke:#005c9e;stroke-linecap:butt;stroke-width:1.0;fill:none"
         d="M147.1359275 171.556095C208.12379 252.86218 147.1359275 334.168265 147.1359275 334.168265" />
    </g>
    <flowRoot
       xml:space="preserve"
       id="flowRoot6575"
       style="font-style:normal;font-variant:normal;font-weight:normal;font-stretch:normal;font-size:37.5px;line-height:125%;font-family:'TeX Gyre Pagella';-inkscape-font-specification:'TeX Gyre Pagella, Normal';text-align:start;letter-spacing:0px;word-spacing:0px;writing-mode:lr-tb;text-anchor:start;fill:#000000;fill-opacity:1;stroke:none;stroke-width:1px;stroke-linecap:butt;stroke-linejoin:miter;stroke-opacity:1"
       transform="translate(47.570278,246.47721)"><flowRegion
         id="flowRegion6577"><rect
           id="rect6579"
           width="159.6041"
           height="144.19928"
           x="142.68405"
           y="102.81879" /></flowRegion><flowPara
         id="flowPara6581"
         style="font-size:30px">t<flowSpan
   style="font-size:64.99999762%;baseline-shift:sub"
   id="flowSpan6989">0</flowSpan></flowPara></flowRoot>    <flowRoot
       transform="translate(150.37083,-1.3467902)"
       xml:space="preserve"
       id="flowRoot6575-0"
       style="font-style:normal;font-variant:normal;font-weight:normal;font-stretch:normal;font-size:37.5px;line-height:125%;font-family:'TeX Gyre Pagella';-inkscape-font-specification:'TeX Gyre Pagella, Normal';text-align:start;letter-spacing:0px;word-spacing:0px;writing-mode:lr-tb;text-anchor:start;fill:#000000;fill-opacity:1;stroke:none;stroke-width:1px;stroke-linecap:butt;stroke-linejoin:miter;stroke-opacity:1"><flowRegion
         id="flowRegion6577-7"><rect
           id="rect6579-5"
           width="182.58507"
           height="134.60283"
           x="142.68405"
           y="102.81879" /></flowRegion><flowPara
         id="flowPara6581-8"
         style="font-size:30px">Wavefront</flowPara></flowRoot>    <path
       style="fill:none;fill-rule:evenodd;stroke:#000000;stroke-width:1px;stroke-linecap:butt;stroke-linejoin:miter;stroke-opacity:1;marker-end:url(#Arrow1Lend)"
       d="m 407.59655,135.14368 -33.0825,54.80077"
       id="path6607"
       inkscape:connector-curvature="0"
       sodipodi:nodetypes="cc" />
    <path
       style="fill:none;fill-rule:evenodd;stroke:#000000;stroke-width:1px;stroke-linecap:butt;stroke-linejoin:miter;stroke-opacity:1;marker-end:url(#marker6885)"
       d="m 237.38585,137.16398 -37.11582,21.42883"
       id="path6883"
       inkscape:connector-curvature="0" />
    <flowRoot
       transform="translate(-2.2508171,-1.8116342)"
       xml:space="preserve"
       id="flowRoot6575-7"
       style="font-style:normal;font-variant:normal;font-weight:normal;font-stretch:normal;font-size:37.5px;line-height:125%;font-family:'TeX Gyre Pagella';-inkscape-font-specification:'TeX Gyre Pagella, Normal';text-align:start;letter-spacing:0px;word-spacing:0px;writing-mode:lr-tb;text-anchor:start;fill:#000000;fill-opacity:1;stroke:none;stroke-width:1px;stroke-linecap:butt;stroke-linejoin:miter;stroke-opacity:1"><flowRegion
         id="flowRegion6577-0"><rect
           id="rect6579-4"
           width="159.6041"
           height="144.19928"
           x="142.68405"
           y="102.81879" /></flowRegion><flowPara
         id="flowPara6581-80"
         style="font-size:30px">Aperture</flowPara></flowRoot>    <flowRoot
       xml:space="preserve"
       id="flowRoot6575-4"
       style="font-style:normal;font-variant:normal;font-weight:normal;font-stretch:normal;font-size:37.5px;line-height:125%;font-family:'TeX Gyre Pagella';-inkscape-font-specification:'TeX Gyre Pagella, Normal';text-align:start;letter-spacing:0px;word-spacing:0px;writing-mode:lr-tb;text-anchor:start;fill:#000000;fill-opacity:1;stroke:none;stroke-width:1px;stroke-linecap:butt;stroke-linejoin:miter;stroke-opacity:1"
       transform="translate(213.18847,247.91051)"><flowRegion
         id="flowRegion6577-2"><rect
           id="rect6579-9"
           width="159.6041"
           height="144.19928"
           x="142.68405"
           y="102.81879" /></flowRegion><flowPara
         id="flowPara6581-6"
         style="font-size:30px">t<flowSpan
   style="font-size:64.99999762%;baseline-shift:sub"
   id="flowSpan6987">1</flowSpan></flowPara></flowRoot>    <flowRoot
       xml:space="preserve"
       id="flowRoot6575-1"
       style="font-style:normal;font-variant:normal;font-weight:normal;font-stretch:normal;font-size:37.5px;line-height:125%;font-family:'TeX Gyre Pagella';-inkscape-font-specification:'TeX Gyre Pagella, Normal';text-align:start;letter-spacing:0px;word-spacing:0px;writing-mode:lr-tb;text-anchor:start;fill:#000000;fill-opacity:1;stroke:none;stroke-width:1px;stroke-linecap:butt;stroke-linejoin:miter;stroke-opacity:1"
       transform="translate(354.54063,247.40542)"><flowRegion
         id="flowRegion6577-04"><rect
           id="rect6579-2"
           width="159.6041"
           height="144.19928"
           x="142.68405"
           y="102.81879" /></flowRegion><flowPara
         id="flowPara6581-2"
         style="font-size:30px">t<flowSpan
   style="font-size:64.99999762%;baseline-shift:sub"
   id="flowSpan6985">2</flowSpan></flowPara></flowRoot>    <flowRoot
       xml:space="preserve"
       id="flowRoot6575-2"
       style="font-style:normal;font-variant:normal;font-weight:normal;font-stretch:normal;font-size:37.5px;line-height:125%;font-family:'TeX Gyre Pagella';-inkscape-font-specification:'TeX Gyre Pagella, Normal';text-align:start;letter-spacing:0px;word-spacing:0px;writing-mode:lr-tb;text-anchor:start;fill:#000000;fill-opacity:1;stroke:none;stroke-width:1px;stroke-linecap:butt;stroke-linejoin:miter;stroke-opacity:1"
       transform="translate(478.36999,248.92066)"><flowRegion
         id="flowRegion6577-05"><rect
           id="rect6579-52"
           width="159.6041"
           height="144.19928"
           x="142.68405"
           y="102.81879" /></flowRegion><flowPara
         id="flowPara6581-9"
         style="font-size:30px">t<flowSpan
   style="font-size:64.99999762%;baseline-shift:sub"
   id="flowSpan6983">3</flowSpan></flowPara></flowRoot>  </g>
</svg>
